solid solid
 facet normal 0 0.0627907 0.998027
  outer loop
   vertex 0 0.0501332916 0.396845877
   vertex 0 0 0.400000006
   vertex 1 0.0501332916 0.396845877
  endloop
 endfacet
 facet normal -0 0.0627907 0.998027
  outer loop
   vertex 1 0.0501332916 0.396845877
   vertex 0 0 0.400000006
   vertex 1 0 0.400000006
  endloop
 endfacet
 facet normal 0 0.187381 0.982287
  outer loop
   vertex 0 0.0994759575 0.387433261
   vertex 0 0.0501332916 0.396845877
   vertex 1 0.0994759575 0.387433261
  endloop
 endfacet
 facet normal -0 0.187381 0.982287
  outer loop
   vertex 1 0.0994759575 0.387433261
   vertex 0 0.0501332916 0.396845877
   vertex 1 0.0501332916 0.396845877
  endloop
 endfacet
 facet normal 0 0.309017 0.951057
  outer loop
   vertex 0 0.147249818 0.371910602
   vertex 0 0.0994759575 0.387433261
   vertex 1 0.147249818 0.371910602
  endloop
 endfacet
 facet normal -0 0.309017 0.951057
  outer loop
   vertex 1 0.147249818 0.371910602
   vertex 0 0.0994759575 0.387433261
   vertex 1 0.0994759575 0.387433261
  endloop
 endfacet
 facet normal 0 0.425779 0.904827
  outer loop
   vertex 0 0.192701474 0.350522667
   vertex 0 0.147249818 0.371910602
   vertex 1 0.192701474 0.350522667
  endloop
 endfacet
 facet normal -0 0.425779 0.904827
  outer loop
   vertex 1 0.192701474 0.350522667
   vertex 0 0.147249818 0.371910602
   vertex 1 0.147249818 0.371910602
  endloop
 endfacet
 facet normal 0 0.535827 0.844328
  outer loop
   vertex 0 0.235114098 0.323606789
   vertex 0 0.192701474 0.350522667
   vertex 1 0.235114098 0.323606789
  endloop
 endfacet
 facet normal -0 0.535827 0.844328
  outer loop
   vertex 1 0.235114098 0.323606789
   vertex 0 0.192701474 0.350522667
   vertex 1 0.192701474 0.350522667
  endloop
 endfacet
 facet normal 0 0.637424 0.770513
  outer loop
   vertex 0 0.273818851 0.291587442
   vertex 0 0.235114098 0.323606789
   vertex 1 0.273818851 0.291587442
  endloop
 endfacet
 facet normal -0 0.637424 0.770513
  outer loop
   vertex 1 0.273818851 0.291587442
   vertex 0 0.235114098 0.323606789
   vertex 1 0.235114098 0.323606789
  endloop
 endfacet
 facet normal 0 0.728969 0.684547
  outer loop
   vertex 0 0.308205307 0.254969597
   vertex 0 0.273818851 0.291587442
   vertex 1 0.308205307 0.254969597
  endloop
 endfacet
 facet normal -0 0.728969 0.684547
  outer loop
   vertex 1 0.308205307 0.254969597
   vertex 0 0.273818851 0.291587442
   vertex 1 0.273818851 0.291587442
  endloop
 endfacet
 facet normal 0 0.809017 0.587785
  outer loop
   vertex 0 0.337731183 0.214330718
   vertex 0 0.308205307 0.254969597
   vertex 1 0.337731183 0.214330718
  endloop
 endfacet
 facet normal -0 0.809017 0.587785
  outer loop
   vertex 1 0.337731183 0.214330718
   vertex 0 0.308205307 0.254969597
   vertex 1 0.308205307 0.254969597
  endloop
 endfacet
 facet normal 0 0.876307 0.481753
  outer loop
   vertex 0 0.361930817 0.170311719
   vertex 0 0.337731183 0.214330718
   vertex 1 0.361930817 0.170311719
  endloop
 endfacet
 facet normal -0 0.876307 0.481753
  outer loop
   vertex 1 0.361930817 0.170311719
   vertex 0 0.337731183 0.214330718
   vertex 1 0.337731183 0.214330718
  endloop
 endfacet
 facet normal 0 0.929777 0.368124
  outer loop
   vertex 0 0.380422592 0.123606801
   vertex 0 0.361930817 0.170311719
   vertex 1 0.380422592 0.123606801
  endloop
 endfacet
 facet normal -0 0.929777 0.368124
  outer loop
   vertex 1 0.380422592 0.123606801
   vertex 0 0.361930817 0.170311719
   vertex 1 0.361930817 0.170311719
  endloop
 endfacet
 facet normal 0 0.968583 0.24869
  outer loop
   vertex 0 0.392914891 0.0749525279
   vertex 0 0.380422592 0.123606801
   vertex 1 0.392914891 0.0749525279
  endloop
 endfacet
 facet normal -0 0.968583 0.24869
  outer loop
   vertex 1 0.392914891 0.0749525279
   vertex 0 0.380422592 0.123606801
   vertex 1 0.380422592 0.123606801
  endloop
 endfacet
 facet normal 0 0.992115 0.125333
  outer loop
   vertex 0 0.399210691 0.0251162071
   vertex 0 0.392914891 0.0749525279
   vertex 1 0.399210691 0.0251162071
  endloop
 endfacet
 facet normal -0 0.992115 0.125333
  outer loop
   vertex 1 0.399210691 0.0251162071
   vertex 0 0.392914891 0.0749525279
   vertex 1 0.392914891 0.0749525279
  endloop
 endfacet
 facet normal 0 1 0
  outer loop
   vertex 0 0.399210691 -0.0251162071
   vertex 0 0.399210691 0.0251162071
   vertex 1 0.399210691 -0.0251162071
  endloop
 endfacet
 facet normal -0 1 0
  outer loop
   vertex 1 0.399210691 -0.0251162071
   vertex 0 0.399210691 0.0251162071
   vertex 1 0.399210691 0.0251162071
  endloop
 endfacet
 facet normal 0 0.992115 -0.125333
  outer loop
   vertex 0 0.392914891 -0.0749525279
   vertex 0 0.399210691 -0.0251162071
   vertex 1 0.392914891 -0.0749525279
  endloop
 endfacet
 facet normal 0 0.992115 -0.125333
  outer loop
   vertex 1 0.392914891 -0.0749525279
   vertex 0 0.399210691 -0.0251162071
   vertex 1 0.399210691 -0.0251162071
  endloop
 endfacet
 facet normal 0 0.968583 -0.24869
  outer loop
   vertex 0 0.380422592 -0.123606801
   vertex 0 0.392914891 -0.0749525279
   vertex 1 0.380422592 -0.123606801
  endloop
 endfacet
 facet normal 0 0.968583 -0.24869
  outer loop
   vertex 1 0.380422592 -0.123606801
   vertex 0 0.392914891 -0.0749525279
   vertex 1 0.392914891 -0.0749525279
  endloop
 endfacet
 facet normal 0 0.929777 -0.368124
  outer loop
   vertex 0 0.361930817 -0.170311719
   vertex 0 0.380422592 -0.123606801
   vertex 1 0.361930817 -0.170311719
  endloop
 endfacet
 facet normal 0 0.929777 -0.368124
  outer loop
   vertex 1 0.361930817 -0.170311719
   vertex 0 0.380422592 -0.123606801
   vertex 1 0.380422592 -0.123606801
  endloop
 endfacet
 facet normal 0 0.876307 -0.481753
  outer loop
   vertex 0 0.337731183 -0.214330718
   vertex 0 0.361930817 -0.170311719
   vertex 1 0.337731183 -0.214330718
  endloop
 endfacet
 facet normal 0 0.876307 -0.481753
  outer loop
   vertex 1 0.337731183 -0.214330718
   vertex 0 0.361930817 -0.170311719
   vertex 1 0.361930817 -0.170311719
  endloop
 endfacet
 facet normal 0 0.809017 -0.587785
  outer loop
   vertex 0 0.308205307 -0.254969597
   vertex 0 0.337731183 -0.214330718
   vertex 1 0.308205307 -0.254969597
  endloop
 endfacet
 facet normal 0 0.809017 -0.587785
  outer loop
   vertex 1 0.308205307 -0.254969597
   vertex 0 0.337731183 -0.214330718
   vertex 1 0.337731183 -0.214330718
  endloop
 endfacet
 facet normal 0 0.728969 -0.684547
  outer loop
   vertex 0 0.273818851 -0.291587442
   vertex 0 0.308205307 -0.254969597
   vertex 1 0.273818851 -0.291587442
  endloop
 endfacet
 facet normal 0 0.728969 -0.684547
  outer loop
   vertex 1 0.273818851 -0.291587442
   vertex 0 0.308205307 -0.254969597
   vertex 1 0.308205307 -0.254969597
  endloop
 endfacet
 facet normal 0 0.637424 -0.770513
  outer loop
   vertex 0 0.235114098 -0.323606789
   vertex 0 0.273818851 -0.291587442
   vertex 1 0.235114098 -0.323606789
  endloop
 endfacet
 facet normal 0 0.637424 -0.770513
  outer loop
   vertex 1 0.235114098 -0.323606789
   vertex 0 0.273818851 -0.291587442
   vertex 1 0.273818851 -0.291587442
  endloop
 endfacet
 facet normal 0 0.535827 -0.844328
  outer loop
   vertex 0 0.192701474 -0.350522667
   vertex 0 0.235114098 -0.323606789
   vertex 1 0.192701474 -0.350522667
  endloop
 endfacet
 facet normal 0 0.535827 -0.844328
  outer loop
   vertex 1 0.192701474 -0.350522667
   vertex 0 0.235114098 -0.323606789
   vertex 1 0.235114098 -0.323606789
  endloop
 endfacet
 facet normal 0 0.425779 -0.904827
  outer loop
   vertex 0 0.147249818 -0.371910602
   vertex 0 0.192701474 -0.350522667
   vertex 1 0.147249818 -0.371910602
  endloop
 endfacet
 facet normal 0 0.425779 -0.904827
  outer loop
   vertex 1 0.147249818 -0.371910602
   vertex 0 0.192701474 -0.350522667
   vertex 1 0.192701474 -0.350522667
  endloop
 endfacet
 facet normal 0 0.309017 -0.951057
  outer loop
   vertex 0 0.0994759575 -0.387433261
   vertex 0 0.147249818 -0.371910602
   vertex 1 0.0994759575 -0.387433261
  endloop
 endfacet
 facet normal 0 0.309017 -0.951057
  outer loop
   vertex 1 0.0994759575 -0.387433261
   vertex 0 0.147249818 -0.371910602
   vertex 1 0.147249818 -0.371910602
  endloop
 endfacet
 facet normal 0 0.187381 -0.982287
  outer loop
   vertex 0 0.0501332916 -0.396845877
   vertex 0 0.0994759575 -0.387433261
   vertex 1 0.0501332916 -0.396845877
  endloop
 endfacet
 facet normal 0 0.187381 -0.982287
  outer loop
   vertex 1 0.0501332916 -0.396845877
   vertex 0 0.0994759575 -0.387433261
   vertex 1 0.0994759575 -0.387433261
  endloop
 endfacet
 facet normal 0 0.0627907 -0.998027
  outer loop
   vertex 0 -1.28649812e-16 -0.400000006
   vertex 0 0.0501332916 -0.396845877
   vertex 1 -1.28649812e-16 -0.400000006
  endloop
 endfacet
 facet normal 0 0.0627907 -0.998027
  outer loop
   vertex 1 -1.28649812e-16 -0.400000006
   vertex 0 0.0501332916 -0.396845877
   vertex 1 0.0501332916 -0.396845877
  endloop
 endfacet
 facet normal 0 -0.0627907 -0.998027
  outer loop
   vertex 0 -0.0501332916 -0.396845877
   vertex 0 -1.28649812e-16 -0.400000006
   vertex 1 -0.0501332916 -0.396845877
  endloop
 endfacet
 facet normal 0 -0.0627907 -0.998027
  outer loop
   vertex 1 -0.0501332916 -0.396845877
   vertex 0 -1.28649812e-16 -0.400000006
   vertex 1 -1.28649812e-16 -0.400000006
  endloop
 endfacet
 facet normal 0 -0.187381 -0.982287
  outer loop
   vertex 0 -0.0994759575 -0.387433261
   vertex 0 -0.0501332916 -0.396845877
   vertex 1 -0.0994759575 -0.387433261
  endloop
 endfacet
 facet normal 0 -0.187381 -0.982287
  outer loop
   vertex 1 -0.0994759575 -0.387433261
   vertex 0 -0.0501332916 -0.396845877
   vertex 1 -0.0501332916 -0.396845877
  endloop
 endfacet
 facet normal 0 -0.309017 -0.951057
  outer loop
   vertex 0 -0.147249818 -0.371910602
   vertex 0 -0.0994759575 -0.387433261
   vertex 1 -0.147249818 -0.371910602
  endloop
 endfacet
 facet normal 0 -0.309017 -0.951057
  outer loop
   vertex 1 -0.147249818 -0.371910602
   vertex 0 -0.0994759575 -0.387433261
   vertex 1 -0.0994759575 -0.387433261
  endloop
 endfacet
 facet normal 0 -0.425779 -0.904827
  outer loop
   vertex 0 -0.192701474 -0.350522667
   vertex 0 -0.147249818 -0.371910602
   vertex 1 -0.192701474 -0.350522667
  endloop
 endfacet
 facet normal 0 -0.425779 -0.904827
  outer loop
   vertex 1 -0.192701474 -0.350522667
   vertex 0 -0.147249818 -0.371910602
   vertex 1 -0.147249818 -0.371910602
  endloop
 endfacet
 facet normal 0 -0.535827 -0.844328
  outer loop
   vertex 0 -0.235114098 -0.323606789
   vertex 0 -0.192701474 -0.350522667
   vertex 1 -0.235114098 -0.323606789
  endloop
 endfacet
 facet normal 0 -0.535827 -0.844328
  outer loop
   vertex 1 -0.235114098 -0.323606789
   vertex 0 -0.192701474 -0.350522667
   vertex 1 -0.192701474 -0.350522667
  endloop
 endfacet
 facet normal 0 -0.637424 -0.770513
  outer loop
   vertex 0 -0.273818851 -0.291587442
   vertex 0 -0.235114098 -0.323606789
   vertex 1 -0.273818851 -0.291587442
  endloop
 endfacet
 facet normal 0 -0.637424 -0.770513
  outer loop
   vertex 1 -0.273818851 -0.291587442
   vertex 0 -0.235114098 -0.323606789
   vertex 1 -0.235114098 -0.323606789
  endloop
 endfacet
 facet normal 0 -0.728969 -0.684547
  outer loop
   vertex 0 -0.308205307 -0.254969597
   vertex 0 -0.273818851 -0.291587442
   vertex 1 -0.308205307 -0.254969597
  endloop
 endfacet
 facet normal 0 -0.728969 -0.684547
  outer loop
   vertex 1 -0.308205307 -0.254969597
   vertex 0 -0.273818851 -0.291587442
   vertex 1 -0.273818851 -0.291587442
  endloop
 endfacet
 facet normal 0 -0.809017 -0.587785
  outer loop
   vertex 0 -0.337731183 -0.214330718
   vertex 0 -0.308205307 -0.254969597
   vertex 1 -0.337731183 -0.214330718
  endloop
 endfacet
 facet normal 0 -0.809017 -0.587785
  outer loop
   vertex 1 -0.337731183 -0.214330718
   vertex 0 -0.308205307 -0.254969597
   vertex 1 -0.308205307 -0.254969597
  endloop
 endfacet
 facet normal 0 -0.876307 -0.481753
  outer loop
   vertex 0 -0.361930817 -0.170311719
   vertex 0 -0.337731183 -0.214330718
   vertex 1 -0.361930817 -0.170311719
  endloop
 endfacet
 facet normal 0 -0.876307 -0.481753
  outer loop
   vertex 1 -0.361930817 -0.170311719
   vertex 0 -0.337731183 -0.214330718
   vertex 1 -0.337731183 -0.214330718
  endloop
 endfacet
 facet normal 0 -0.929777 -0.368124
  outer loop
   vertex 0 -0.380422592 -0.123606801
   vertex 0 -0.361930817 -0.170311719
   vertex 1 -0.380422592 -0.123606801
  endloop
 endfacet
 facet normal 0 -0.929777 -0.368124
  outer loop
   vertex 1 -0.380422592 -0.123606801
   vertex 0 -0.361930817 -0.170311719
   vertex 1 -0.361930817 -0.170311719
  endloop
 endfacet
 facet normal 0 -0.968583 -0.24869
  outer loop
   vertex 0 -0.392914891 -0.0749525279
   vertex 0 -0.380422592 -0.123606801
   vertex 1 -0.392914891 -0.0749525279
  endloop
 endfacet
 facet normal 0 -0.968583 -0.24869
  outer loop
   vertex 1 -0.392914891 -0.0749525279
   vertex 0 -0.380422592 -0.123606801
   vertex 1 -0.380422592 -0.123606801
  endloop
 endfacet
 facet normal 0 -0.992115 -0.125333
  outer loop
   vertex 0 -0.399210691 -0.0251162071
   vertex 0 -0.392914891 -0.0749525279
   vertex 1 -0.399210691 -0.0251162071
  endloop
 endfacet
 facet normal 0 -0.992115 -0.125333
  outer loop
   vertex 1 -0.399210691 -0.0251162071
   vertex 0 -0.392914891 -0.0749525279
   vertex 1 -0.392914891 -0.0749525279
  endloop
 endfacet
 facet normal 0 -1 0
  outer loop
   vertex 0 -0.399210691 0.0251162071
   vertex 0 -0.399210691 -0.0251162071
   vertex 1 -0.399210691 0.0251162071
  endloop
 endfacet
 facet normal 0 -1 0
  outer loop
   vertex 1 -0.399210691 0.0251162071
   vertex 0 -0.399210691 -0.0251162071
   vertex 1 -0.399210691 -0.0251162071
  endloop
 endfacet
 facet normal 0 -0.992115 0.125333
  outer loop
   vertex 0 -0.392914891 0.0749525279
   vertex 0 -0.399210691 0.0251162071
   vertex 1 -0.392914891 0.0749525279
  endloop
 endfacet
 facet normal 0 -0.992115 0.125333
  outer loop
   vertex 1 -0.392914891 0.0749525279
   vertex 0 -0.399210691 0.0251162071
   vertex 1 -0.399210691 0.0251162071
  endloop
 endfacet
 facet normal 0 -0.968583 0.24869
  outer loop
   vertex 0 -0.380422592 0.123606801
   vertex 0 -0.392914891 0.0749525279
   vertex 1 -0.380422592 0.123606801
  endloop
 endfacet
 facet normal 0 -0.968583 0.24869
  outer loop
   vertex 1 -0.380422592 0.123606801
   vertex 0 -0.392914891 0.0749525279
   vertex 1 -0.392914891 0.0749525279
  endloop
 endfacet
 facet normal 0 -0.929777 0.368124
  outer loop
   vertex 0 -0.361930817 0.170311719
   vertex 0 -0.380422592 0.123606801
   vertex 1 -0.361930817 0.170311719
  endloop
 endfacet
 facet normal 0 -0.929777 0.368124
  outer loop
   vertex 1 -0.361930817 0.170311719
   vertex 0 -0.380422592 0.123606801
   vertex 1 -0.380422592 0.123606801
  endloop
 endfacet
 facet normal 0 -0.876307 0.481753
  outer loop
   vertex 0 -0.337731183 0.214330718
   vertex 0 -0.361930817 0.170311719
   vertex 1 -0.337731183 0.214330718
  endloop
 endfacet
 facet normal 0 -0.876307 0.481753
  outer loop
   vertex 1 -0.337731183 0.214330718
   vertex 0 -0.361930817 0.170311719
   vertex 1 -0.361930817 0.170311719
  endloop
 endfacet
 facet normal 0 -0.809017 0.587785
  outer loop
   vertex 0 -0.308205307 0.254969597
   vertex 0 -0.337731183 0.214330718
   vertex 1 -0.308205307 0.254969597
  endloop
 endfacet
 facet normal 0 -0.809017 0.587785
  outer loop
   vertex 1 -0.308205307 0.254969597
   vertex 0 -0.337731183 0.214330718
   vertex 1 -0.337731183 0.214330718
  endloop
 endfacet
 facet normal 0 -0.728969 0.684547
  outer loop
   vertex 0 -0.273818851 0.291587442
   vertex 0 -0.308205307 0.254969597
   vertex 1 -0.273818851 0.291587442
  endloop
 endfacet
 facet normal 0 -0.728969 0.684547
  outer loop
   vertex 1 -0.273818851 0.291587442
   vertex 0 -0.308205307 0.254969597
   vertex 1 -0.308205307 0.254969597
  endloop
 endfacet
 facet normal 0 -0.637424 0.770513
  outer loop
   vertex 0 -0.235114098 0.323606789
   vertex 0 -0.273818851 0.291587442
   vertex 1 -0.235114098 0.323606789
  endloop
 endfacet
 facet normal 0 -0.637424 0.770513
  outer loop
   vertex 1 -0.235114098 0.323606789
   vertex 0 -0.273818851 0.291587442
   vertex 1 -0.273818851 0.291587442
  endloop
 endfacet
 facet normal 0 -0.535827 0.844328
  outer loop
   vertex 0 -0.192701474 0.350522667
   vertex 0 -0.235114098 0.323606789
   vertex 1 -0.192701474 0.350522667
  endloop
 endfacet
 facet normal 0 -0.535827 0.844328
  outer loop
   vertex 1 -0.192701474 0.350522667
   vertex 0 -0.235114098 0.323606789
   vertex 1 -0.235114098 0.323606789
  endloop
 endfacet
 facet normal 0 -0.425779 0.904827
  outer loop
   vertex 0 -0.147249818 0.371910602
   vertex 0 -0.192701474 0.350522667
   vertex 1 -0.147249818 0.371910602
  endloop
 endfacet
 facet normal 0 -0.425779 0.904827
  outer loop
   vertex 1 -0.147249818 0.371910602
   vertex 0 -0.192701474 0.350522667
   vertex 1 -0.192701474 0.350522667
  endloop
 endfacet
 facet normal 0 -0.309017 0.951057
  outer loop
   vertex 0 -0.0994759575 0.387433261
   vertex 0 -0.147249818 0.371910602
   vertex 1 -0.0994759575 0.387433261
  endloop
 endfacet
 facet normal 0 -0.309017 0.951057
  outer loop
   vertex 1 -0.0994759575 0.387433261
   vertex 0 -0.147249818 0.371910602
   vertex 1 -0.147249818 0.371910602
  endloop
 endfacet
 facet normal 0 -0.187381 0.982287
  outer loop
   vertex 0 -0.0501332916 0.396845877
   vertex 0 -0.0994759575 0.387433261
   vertex 1 -0.0501332916 0.396845877
  endloop
 endfacet
 facet normal 0 -0.187381 0.982287
  outer loop
   vertex 1 -0.0501332916 0.396845877
   vertex 0 -0.0994759575 0.387433261
   vertex 1 -0.0994759575 0.387433261
  endloop
 endfacet
 facet normal 0 -0.0627907 0.998027
  outer loop
   vertex 0 0 0.400000006
   vertex 0 -0.0501332916 0.396845877
   vertex 1 0 0.400000006
  endloop
 endfacet
 facet normal 0 -0.0627907 0.998027
  outer loop
   vertex 1 0 0.400000006
   vertex 0 -0.0501332916 0.396845877
   vertex 1 -0.0501332916 0.396845877
  endloop
 endfacet
endsolid
