solid air
 facet normal 0 -0.0627907 -0.998027
  outer loop
   vertex 1 0.0250666458 0.198422939
   vertex 0 0 0.200000003
   vertex 0 0.0250666458 0.198422939
  endloop
 endfacet
 facet normal 0 -0.0627907 -0.998027
  outer loop
   vertex 1 0 0.200000003
   vertex 0 0 0.200000003
   vertex 1 0.0250666458 0.198422939
  endloop
 endfacet
 facet normal 0 -0.187381 -0.982287
  outer loop
   vertex 1 0.0497379787 0.19371663
   vertex 0 0.0250666458 0.198422939
   vertex 0 0.0497379787 0.19371663
  endloop
 endfacet
 facet normal 0 -0.187381 -0.982287
  outer loop
   vertex 1 0.0250666458 0.198422939
   vertex 0 0.0250666458 0.198422939
   vertex 1 0.0497379787 0.19371663
  endloop
 endfacet
 facet normal 0 -0.309017 -0.951057
  outer loop
   vertex 1 0.0736249089 0.185955301
   vertex 0 0.0497379787 0.19371663
   vertex 0 0.0736249089 0.185955301
  endloop
 endfacet
 facet normal 0 -0.309017 -0.951057
  outer loop
   vertex 1 0.0497379787 0.19371663
   vertex 0 0.0497379787 0.19371663
   vertex 1 0.0736249089 0.185955301
  endloop
 endfacet
 facet normal 0 -0.425779 -0.904827
  outer loop
   vertex 1 0.0963507369 0.175261334
   vertex 0 0.0736249089 0.185955301
   vertex 0 0.0963507369 0.175261334
  endloop
 endfacet
 facet normal 0 -0.425779 -0.904827
  outer loop
   vertex 1 0.0736249089 0.185955301
   vertex 0 0.0736249089 0.185955301
   vertex 1 0.0963507369 0.175261334
  endloop
 endfacet
 facet normal 0 -0.535827 -0.844328
  outer loop
   vertex 1 0.117557049 0.161803395
   vertex 0 0.0963507369 0.175261334
   vertex 0 0.117557049 0.161803395
  endloop
 endfacet
 facet normal 0 -0.535827 -0.844328
  outer loop
   vertex 1 0.0963507369 0.175261334
   vertex 0 0.0963507369 0.175261334
   vertex 1 0.117557049 0.161803395
  endloop
 endfacet
 facet normal 0 -0.637424 -0.770513
  outer loop
   vertex 1 0.136909425 0.145793721
   vertex 0 0.117557049 0.161803395
   vertex 0 0.136909425 0.145793721
  endloop
 endfacet
 facet normal 0 -0.637424 -0.770513
  outer loop
   vertex 1 0.117557049 0.161803395
   vertex 0 0.117557049 0.161803395
   vertex 1 0.136909425 0.145793721
  endloop
 endfacet
 facet normal 0 -0.728969 -0.684547
  outer loop
   vertex 1 0.154102653 0.127484798
   vertex 0 0.136909425 0.145793721
   vertex 0 0.154102653 0.127484798
  endloop
 endfacet
 facet normal 0 -0.728969 -0.684547
  outer loop
   vertex 1 0.136909425 0.145793721
   vertex 0 0.136909425 0.145793721
   vertex 1 0.154102653 0.127484798
  endloop
 endfacet
 facet normal 0 -0.809017 -0.587785
  outer loop
   vertex 1 0.168865591 0.107165359
   vertex 0 0.154102653 0.127484798
   vertex 0 0.168865591 0.107165359
  endloop
 endfacet
 facet normal 0 -0.809017 -0.587785
  outer loop
   vertex 1 0.154102653 0.127484798
   vertex 0 0.154102653 0.127484798
   vertex 1 0.168865591 0.107165359
  endloop
 endfacet
 facet normal 0 -0.876307 -0.481753
  outer loop
   vertex 1 0.180965409 0.0851558596
   vertex 0 0.168865591 0.107165359
   vertex 0 0.180965409 0.0851558596
  endloop
 endfacet
 facet normal 0 -0.876307 -0.481753
  outer loop
   vertex 1 0.168865591 0.107165359
   vertex 0 0.168865591 0.107165359
   vertex 1 0.180965409 0.0851558596
  endloop
 endfacet
 facet normal 0 -0.929777 -0.368124
  outer loop
   vertex 1 0.190211296 0.0618034005
   vertex 0 0.180965409 0.0851558596
   vertex 0 0.190211296 0.0618034005
  endloop
 endfacet
 facet normal 0 -0.929777 -0.368124
  outer loop
   vertex 1 0.180965409 0.0851558596
   vertex 0 0.180965409 0.0851558596
   vertex 1 0.190211296 0.0618034005
  endloop
 endfacet
 facet normal 0 -0.968583 -0.24869
  outer loop
   vertex 1 0.196457446 0.0374762639
   vertex 0 0.190211296 0.0618034005
   vertex 0 0.196457446 0.0374762639
  endloop
 endfacet
 facet normal 0 -0.968583 -0.24869
  outer loop
   vertex 1 0.190211296 0.0618034005
   vertex 0 0.190211296 0.0618034005
   vertex 1 0.196457446 0.0374762639
  endloop
 endfacet
 facet normal 0 -0.992115 -0.125333
  outer loop
   vertex 1 0.199605346 0.0125581035
   vertex 0 0.196457446 0.0374762639
   vertex 0 0.199605346 0.0125581035
  endloop
 endfacet
 facet normal 0 -0.992115 -0.125333
  outer loop
   vertex 1 0.196457446 0.0374762639
   vertex 0 0.196457446 0.0374762639
   vertex 1 0.199605346 0.0125581035
  endloop
 endfacet
 facet normal 0 -1 0
  outer loop
   vertex 1 0.199605346 -0.0125581035
   vertex 0 0.199605346 0.0125581035
   vertex 0 0.199605346 -0.0125581035
  endloop
 endfacet
 facet normal 0 -1 0
  outer loop
   vertex 1 0.199605346 0.0125581035
   vertex 0 0.199605346 0.0125581035
   vertex 1 0.199605346 -0.0125581035
  endloop
 endfacet
 facet normal 0 -0.992115 0.125333
  outer loop
   vertex 1 0.196457446 -0.0374762639
   vertex 0 0.199605346 -0.0125581035
   vertex 0 0.196457446 -0.0374762639
  endloop
 endfacet
 facet normal 0 -0.992115 0.125333
  outer loop
   vertex 1 0.199605346 -0.0125581035
   vertex 0 0.199605346 -0.0125581035
   vertex 1 0.196457446 -0.0374762639
  endloop
 endfacet
 facet normal 0 -0.968583 0.24869
  outer loop
   vertex 1 0.190211296 -0.0618034005
   vertex 0 0.196457446 -0.0374762639
   vertex 0 0.190211296 -0.0618034005
  endloop
 endfacet
 facet normal 0 -0.968583 0.24869
  outer loop
   vertex 1 0.196457446 -0.0374762639
   vertex 0 0.196457446 -0.0374762639
   vertex 1 0.190211296 -0.0618034005
  endloop
 endfacet
 facet normal 0 -0.929777 0.368124
  outer loop
   vertex 1 0.180965409 -0.0851558596
   vertex 0 0.190211296 -0.0618034005
   vertex 0 0.180965409 -0.0851558596
  endloop
 endfacet
 facet normal 0 -0.929777 0.368124
  outer loop
   vertex 1 0.190211296 -0.0618034005
   vertex 0 0.190211296 -0.0618034005
   vertex 1 0.180965409 -0.0851558596
  endloop
 endfacet
 facet normal 0 -0.876307 0.481753
  outer loop
   vertex 1 0.168865591 -0.107165359
   vertex 0 0.180965409 -0.0851558596
   vertex 0 0.168865591 -0.107165359
  endloop
 endfacet
 facet normal 0 -0.876307 0.481753
  outer loop
   vertex 1 0.180965409 -0.0851558596
   vertex 0 0.180965409 -0.0851558596
   vertex 1 0.168865591 -0.107165359
  endloop
 endfacet
 facet normal 0 -0.809017 0.587785
  outer loop
   vertex 1 0.154102653 -0.127484798
   vertex 0 0.168865591 -0.107165359
   vertex 0 0.154102653 -0.127484798
  endloop
 endfacet
 facet normal 0 -0.809017 0.587785
  outer loop
   vertex 1 0.168865591 -0.107165359
   vertex 0 0.168865591 -0.107165359
   vertex 1 0.154102653 -0.127484798
  endloop
 endfacet
 facet normal 0 -0.728969 0.684547
  outer loop
   vertex 1 0.136909425 -0.145793721
   vertex 0 0.154102653 -0.127484798
   vertex 0 0.136909425 -0.145793721
  endloop
 endfacet
 facet normal 0 -0.728969 0.684547
  outer loop
   vertex 1 0.154102653 -0.127484798
   vertex 0 0.154102653 -0.127484798
   vertex 1 0.136909425 -0.145793721
  endloop
 endfacet
 facet normal 0 -0.637424 0.770513
  outer loop
   vertex 1 0.117557049 -0.161803395
   vertex 0 0.136909425 -0.145793721
   vertex 0 0.117557049 -0.161803395
  endloop
 endfacet
 facet normal 0 -0.637424 0.770513
  outer loop
   vertex 1 0.136909425 -0.145793721
   vertex 0 0.136909425 -0.145793721
   vertex 1 0.117557049 -0.161803395
  endloop
 endfacet
 facet normal 0 -0.535827 0.844328
  outer loop
   vertex 1 0.0963507369 -0.175261334
   vertex 0 0.117557049 -0.161803395
   vertex 0 0.0963507369 -0.175261334
  endloop
 endfacet
 facet normal 0 -0.535827 0.844328
  outer loop
   vertex 1 0.117557049 -0.161803395
   vertex 0 0.117557049 -0.161803395
   vertex 1 0.0963507369 -0.175261334
  endloop
 endfacet
 facet normal 0 -0.425779 0.904827
  outer loop
   vertex 1 0.0736249089 -0.185955301
   vertex 0 0.0963507369 -0.175261334
   vertex 0 0.0736249089 -0.185955301
  endloop
 endfacet
 facet normal 0 -0.425779 0.904827
  outer loop
   vertex 1 0.0963507369 -0.175261334
   vertex 0 0.0963507369 -0.175261334
   vertex 1 0.0736249089 -0.185955301
  endloop
 endfacet
 facet normal 0 -0.309017 0.951057
  outer loop
   vertex 1 0.0497379787 -0.19371663
   vertex 0 0.0736249089 -0.185955301
   vertex 0 0.0497379787 -0.19371663
  endloop
 endfacet
 facet normal 0 -0.309017 0.951057
  outer loop
   vertex 1 0.0736249089 -0.185955301
   vertex 0 0.0736249089 -0.185955301
   vertex 1 0.0497379787 -0.19371663
  endloop
 endfacet
 facet normal 0 -0.187381 0.982287
  outer loop
   vertex 1 0.0250666458 -0.198422939
   vertex 0 0.0497379787 -0.19371663
   vertex 0 0.0250666458 -0.198422939
  endloop
 endfacet
 facet normal 0 -0.187381 0.982287
  outer loop
   vertex 1 0.0497379787 -0.19371663
   vertex 0 0.0497379787 -0.19371663
   vertex 1 0.0250666458 -0.198422939
  endloop
 endfacet
 facet normal 0 -0.0627907 0.998027
  outer loop
   vertex 1 -6.43249062e-17 -0.200000003
   vertex 0 0.0250666458 -0.198422939
   vertex 0 -6.43249062e-17 -0.200000003
  endloop
 endfacet
 facet normal 0 -0.0627907 0.998027
  outer loop
   vertex 1 0.0250666458 -0.198422939
   vertex 0 0.0250666458 -0.198422939
   vertex 1 -6.43249062e-17 -0.200000003
  endloop
 endfacet
 facet normal 0 0.0627907 0.998027
  outer loop
   vertex 1 -0.0250666458 -0.198422939
   vertex 0 -6.43249062e-17 -0.200000003
   vertex 0 -0.0250666458 -0.198422939
  endloop
 endfacet
 facet normal -0 0.0627907 0.998027
  outer loop
   vertex 1 -6.43249062e-17 -0.200000003
   vertex 0 -6.43249062e-17 -0.200000003
   vertex 1 -0.0250666458 -0.198422939
  endloop
 endfacet
 facet normal 0 0.187381 0.982287
  outer loop
   vertex 1 -0.0497379787 -0.19371663
   vertex 0 -0.0250666458 -0.198422939
   vertex 0 -0.0497379787 -0.19371663
  endloop
 endfacet
 facet normal -0 0.187381 0.982287
  outer loop
   vertex 1 -0.0250666458 -0.198422939
   vertex 0 -0.0250666458 -0.198422939
   vertex 1 -0.0497379787 -0.19371663
  endloop
 endfacet
 facet normal 0 0.309017 0.951057
  outer loop
   vertex 1 -0.0736249089 -0.185955301
   vertex 0 -0.0497379787 -0.19371663
   vertex 0 -0.0736249089 -0.185955301
  endloop
 endfacet
 facet normal -0 0.309017 0.951057
  outer loop
   vertex 1 -0.0497379787 -0.19371663
   vertex 0 -0.0497379787 -0.19371663
   vertex 1 -0.0736249089 -0.185955301
  endloop
 endfacet
 facet normal 0 0.425779 0.904827
  outer loop
   vertex 1 -0.0963507369 -0.175261334
   vertex 0 -0.0736249089 -0.185955301
   vertex 0 -0.0963507369 -0.175261334
  endloop
 endfacet
 facet normal -0 0.425779 0.904827
  outer loop
   vertex 1 -0.0736249089 -0.185955301
   vertex 0 -0.0736249089 -0.185955301
   vertex 1 -0.0963507369 -0.175261334
  endloop
 endfacet
 facet normal 0 0.535827 0.844328
  outer loop
   vertex 1 -0.117557049 -0.161803395
   vertex 0 -0.0963507369 -0.175261334
   vertex 0 -0.117557049 -0.161803395
  endloop
 endfacet
 facet normal -0 0.535827 0.844328
  outer loop
   vertex 1 -0.0963507369 -0.175261334
   vertex 0 -0.0963507369 -0.175261334
   vertex 1 -0.117557049 -0.161803395
  endloop
 endfacet
 facet normal 0 0.637424 0.770513
  outer loop
   vertex 1 -0.136909425 -0.145793721
   vertex 0 -0.117557049 -0.161803395
   vertex 0 -0.136909425 -0.145793721
  endloop
 endfacet
 facet normal -0 0.637424 0.770513
  outer loop
   vertex 1 -0.117557049 -0.161803395
   vertex 0 -0.117557049 -0.161803395
   vertex 1 -0.136909425 -0.145793721
  endloop
 endfacet
 facet normal 0 0.728969 0.684547
  outer loop
   vertex 1 -0.154102653 -0.127484798
   vertex 0 -0.136909425 -0.145793721
   vertex 0 -0.154102653 -0.127484798
  endloop
 endfacet
 facet normal -0 0.728969 0.684547
  outer loop
   vertex 1 -0.136909425 -0.145793721
   vertex 0 -0.136909425 -0.145793721
   vertex 1 -0.154102653 -0.127484798
  endloop
 endfacet
 facet normal 0 0.809017 0.587785
  outer loop
   vertex 1 -0.168865591 -0.107165359
   vertex 0 -0.154102653 -0.127484798
   vertex 0 -0.168865591 -0.107165359
  endloop
 endfacet
 facet normal -0 0.809017 0.587785
  outer loop
   vertex 1 -0.154102653 -0.127484798
   vertex 0 -0.154102653 -0.127484798
   vertex 1 -0.168865591 -0.107165359
  endloop
 endfacet
 facet normal 0 0.876307 0.481753
  outer loop
   vertex 1 -0.180965409 -0.0851558596
   vertex 0 -0.168865591 -0.107165359
   vertex 0 -0.180965409 -0.0851558596
  endloop
 endfacet
 facet normal -0 0.876307 0.481753
  outer loop
   vertex 1 -0.168865591 -0.107165359
   vertex 0 -0.168865591 -0.107165359
   vertex 1 -0.180965409 -0.0851558596
  endloop
 endfacet
 facet normal 0 0.929777 0.368124
  outer loop
   vertex 1 -0.190211296 -0.0618034005
   vertex 0 -0.180965409 -0.0851558596
   vertex 0 -0.190211296 -0.0618034005
  endloop
 endfacet
 facet normal -0 0.929777 0.368124
  outer loop
   vertex 1 -0.180965409 -0.0851558596
   vertex 0 -0.180965409 -0.0851558596
   vertex 1 -0.190211296 -0.0618034005
  endloop
 endfacet
 facet normal 0 0.968583 0.24869
  outer loop
   vertex 1 -0.196457446 -0.0374762639
   vertex 0 -0.190211296 -0.0618034005
   vertex 0 -0.196457446 -0.0374762639
  endloop
 endfacet
 facet normal -0 0.968583 0.24869
  outer loop
   vertex 1 -0.190211296 -0.0618034005
   vertex 0 -0.190211296 -0.0618034005
   vertex 1 -0.196457446 -0.0374762639
  endloop
 endfacet
 facet normal 0 0.992115 0.125333
  outer loop
   vertex 1 -0.199605346 -0.0125581035
   vertex 0 -0.196457446 -0.0374762639
   vertex 0 -0.199605346 -0.0125581035
  endloop
 endfacet
 facet normal -0 0.992115 0.125333
  outer loop
   vertex 1 -0.196457446 -0.0374762639
   vertex 0 -0.196457446 -0.0374762639
   vertex 1 -0.199605346 -0.0125581035
  endloop
 endfacet
 facet normal 0 1 0
  outer loop
   vertex 1 -0.199605346 0.0125581035
   vertex 0 -0.199605346 -0.0125581035
   vertex 0 -0.199605346 0.0125581035
  endloop
 endfacet
 facet normal 0 1 0
  outer loop
   vertex 1 -0.199605346 -0.0125581035
   vertex 0 -0.199605346 -0.0125581035
   vertex 1 -0.199605346 0.0125581035
  endloop
 endfacet
 facet normal 0 0.992115 -0.125333
  outer loop
   vertex 1 -0.196457446 0.0374762639
   vertex 0 -0.199605346 0.0125581035
   vertex 0 -0.196457446 0.0374762639
  endloop
 endfacet
 facet normal 0 0.992115 -0.125333
  outer loop
   vertex 1 -0.199605346 0.0125581035
   vertex 0 -0.199605346 0.0125581035
   vertex 1 -0.196457446 0.0374762639
  endloop
 endfacet
 facet normal 0 0.968583 -0.24869
  outer loop
   vertex 1 -0.190211296 0.0618034005
   vertex 0 -0.196457446 0.0374762639
   vertex 0 -0.190211296 0.0618034005
  endloop
 endfacet
 facet normal 0 0.968583 -0.24869
  outer loop
   vertex 1 -0.196457446 0.0374762639
   vertex 0 -0.196457446 0.0374762639
   vertex 1 -0.190211296 0.0618034005
  endloop
 endfacet
 facet normal 0 0.929777 -0.368124
  outer loop
   vertex 1 -0.180965409 0.0851558596
   vertex 0 -0.190211296 0.0618034005
   vertex 0 -0.180965409 0.0851558596
  endloop
 endfacet
 facet normal 0 0.929777 -0.368124
  outer loop
   vertex 1 -0.190211296 0.0618034005
   vertex 0 -0.190211296 0.0618034005
   vertex 1 -0.180965409 0.0851558596
  endloop
 endfacet
 facet normal 0 0.876307 -0.481753
  outer loop
   vertex 1 -0.168865591 0.107165359
   vertex 0 -0.180965409 0.0851558596
   vertex 0 -0.168865591 0.107165359
  endloop
 endfacet
 facet normal 0 0.876307 -0.481753
  outer loop
   vertex 1 -0.180965409 0.0851558596
   vertex 0 -0.180965409 0.0851558596
   vertex 1 -0.168865591 0.107165359
  endloop
 endfacet
 facet normal 0 0.809017 -0.587785
  outer loop
   vertex 1 -0.154102653 0.127484798
   vertex 0 -0.168865591 0.107165359
   vertex 0 -0.154102653 0.127484798
  endloop
 endfacet
 facet normal 0 0.809017 -0.587785
  outer loop
   vertex 1 -0.168865591 0.107165359
   vertex 0 -0.168865591 0.107165359
   vertex 1 -0.154102653 0.127484798
  endloop
 endfacet
 facet normal 0 0.728969 -0.684547
  outer loop
   vertex 1 -0.136909425 0.145793721
   vertex 0 -0.154102653 0.127484798
   vertex 0 -0.136909425 0.145793721
  endloop
 endfacet
 facet normal 0 0.728969 -0.684547
  outer loop
   vertex 1 -0.154102653 0.127484798
   vertex 0 -0.154102653 0.127484798
   vertex 1 -0.136909425 0.145793721
  endloop
 endfacet
 facet normal 0 0.637424 -0.770513
  outer loop
   vertex 1 -0.117557049 0.161803395
   vertex 0 -0.136909425 0.145793721
   vertex 0 -0.117557049 0.161803395
  endloop
 endfacet
 facet normal 0 0.637424 -0.770513
  outer loop
   vertex 1 -0.136909425 0.145793721
   vertex 0 -0.136909425 0.145793721
   vertex 1 -0.117557049 0.161803395
  endloop
 endfacet
 facet normal 0 0.535827 -0.844328
  outer loop
   vertex 1 -0.0963507369 0.175261334
   vertex 0 -0.117557049 0.161803395
   vertex 0 -0.0963507369 0.175261334
  endloop
 endfacet
 facet normal 0 0.535827 -0.844328
  outer loop
   vertex 1 -0.117557049 0.161803395
   vertex 0 -0.117557049 0.161803395
   vertex 1 -0.0963507369 0.175261334
  endloop
 endfacet
 facet normal 0 0.425779 -0.904827
  outer loop
   vertex 1 -0.0736249089 0.185955301
   vertex 0 -0.0963507369 0.175261334
   vertex 0 -0.0736249089 0.185955301
  endloop
 endfacet
 facet normal 0 0.425779 -0.904827
  outer loop
   vertex 1 -0.0963507369 0.175261334
   vertex 0 -0.0963507369 0.175261334
   vertex 1 -0.0736249089 0.185955301
  endloop
 endfacet
 facet normal 0 0.309017 -0.951057
  outer loop
   vertex 1 -0.0497379787 0.19371663
   vertex 0 -0.0736249089 0.185955301
   vertex 0 -0.0497379787 0.19371663
  endloop
 endfacet
 facet normal 0 0.309017 -0.951057
  outer loop
   vertex 1 -0.0736249089 0.185955301
   vertex 0 -0.0736249089 0.185955301
   vertex 1 -0.0497379787 0.19371663
  endloop
 endfacet
 facet normal 0 0.187381 -0.982287
  outer loop
   vertex 1 -0.0250666458 0.198422939
   vertex 0 -0.0497379787 0.19371663
   vertex 0 -0.0250666458 0.198422939
  endloop
 endfacet
 facet normal 0 0.187381 -0.982287
  outer loop
   vertex 1 -0.0497379787 0.19371663
   vertex 0 -0.0497379787 0.19371663
   vertex 1 -0.0250666458 0.198422939
  endloop
 endfacet
 facet normal 0 0.0627907 -0.998027
  outer loop
   vertex 1 0 0.200000003
   vertex 0 -0.0250666458 0.198422939
   vertex 0 0 0.200000003
  endloop
 endfacet
 facet normal 0 0.0627907 -0.998027
  outer loop
   vertex 1 -0.0250666458 0.198422939
   vertex 0 -0.0250666458 0.198422939
   vertex 1 0 0.200000003
  endloop
 endfacet
 facet normal -1 0 0
  outer loop
   vertex 0 0 0.200000003
   vertex 0 0 0.400000006
   vertex 0 0.0501332916 0.396845877
  endloop
 endfacet
 facet normal -1 0 0
  outer loop
   vertex 0 0 0.200000003
   vertex 0 0.0501332916 0.396845877
   vertex 0 0.0250666458 0.198422939
  endloop
 endfacet
 facet normal 1 0 0
  outer loop
   vertex 1 0.0501332916 0.396845877
   vertex 1 0 0.400000006
   vertex 1 0 0.200000003
  endloop
 endfacet
 facet normal 1 0 -0
  outer loop
   vertex 1 0 0.200000003
   vertex 1 0.0250666458 0.198422939
   vertex 1 0.0501332916 0.396845877
  endloop
 endfacet
 facet normal -1 0 -0
  outer loop
   vertex 0 0.0250666458 0.198422939
   vertex 0 0.0501332916 0.396845877
   vertex 0 0.0994759575 0.387433261
  endloop
 endfacet
 facet normal -1 0 0
  outer loop
   vertex 0 0.0250666458 0.198422939
   vertex 0 0.0994759575 0.387433261
   vertex 0 0.0497379787 0.19371663
  endloop
 endfacet
 facet normal 1 0 0
  outer loop
   vertex 1 0.0994759575 0.387433261
   vertex 1 0.0501332916 0.396845877
   vertex 1 0.0250666458 0.198422939
  endloop
 endfacet
 facet normal 1 0 -0
  outer loop
   vertex 1 0.0250666458 0.198422939
   vertex 1 0.0497379787 0.19371663
   vertex 1 0.0994759575 0.387433261
  endloop
 endfacet
 facet normal -1 0 -0
  outer loop
   vertex 0 0.0497379787 0.19371663
   vertex 0 0.0994759575 0.387433261
   vertex 0 0.147249818 0.371910602
  endloop
 endfacet
 facet normal -1 0 0
  outer loop
   vertex 0 0.0497379787 0.19371663
   vertex 0 0.147249818 0.371910602
   vertex 0 0.0736249089 0.185955301
  endloop
 endfacet
 facet normal 1 0 0
  outer loop
   vertex 1 0.147249818 0.371910602
   vertex 1 0.0994759575 0.387433261
   vertex 1 0.0497379787 0.19371663
  endloop
 endfacet
 facet normal 1 0 -0
  outer loop
   vertex 1 0.0497379787 0.19371663
   vertex 1 0.0736249089 0.185955301
   vertex 1 0.147249818 0.371910602
  endloop
 endfacet
 facet normal -1 0 -0
  outer loop
   vertex 0 0.0736249089 0.185955301
   vertex 0 0.147249818 0.371910602
   vertex 0 0.192701474 0.350522667
  endloop
 endfacet
 facet normal -1 0 0
  outer loop
   vertex 0 0.0736249089 0.185955301
   vertex 0 0.192701474 0.350522667
   vertex 0 0.0963507369 0.175261334
  endloop
 endfacet
 facet normal 1 0 0
  outer loop
   vertex 1 0.192701474 0.350522667
   vertex 1 0.147249818 0.371910602
   vertex 1 0.0736249089 0.185955301
  endloop
 endfacet
 facet normal 1 0 -0
  outer loop
   vertex 1 0.0736249089 0.185955301
   vertex 1 0.0963507369 0.175261334
   vertex 1 0.192701474 0.350522667
  endloop
 endfacet
 facet normal -1 0 -0
  outer loop
   vertex 0 0.0963507369 0.175261334
   vertex 0 0.192701474 0.350522667
   vertex 0 0.235114098 0.323606789
  endloop
 endfacet
 facet normal -1 0 0
  outer loop
   vertex 0 0.0963507369 0.175261334
   vertex 0 0.235114098 0.323606789
   vertex 0 0.117557049 0.161803395
  endloop
 endfacet
 facet normal 1 0 0
  outer loop
   vertex 1 0.235114098 0.323606789
   vertex 1 0.192701474 0.350522667
   vertex 1 0.0963507369 0.175261334
  endloop
 endfacet
 facet normal 1 0 -0
  outer loop
   vertex 1 0.0963507369 0.175261334
   vertex 1 0.117557049 0.161803395
   vertex 1 0.235114098 0.323606789
  endloop
 endfacet
 facet normal -1 0 -0
  outer loop
   vertex 0 0.117557049 0.161803395
   vertex 0 0.235114098 0.323606789
   vertex 0 0.273818851 0.291587442
  endloop
 endfacet
 facet normal -1 0 0
  outer loop
   vertex 0 0.117557049 0.161803395
   vertex 0 0.273818851 0.291587442
   vertex 0 0.136909425 0.145793721
  endloop
 endfacet
 facet normal 1 0 0
  outer loop
   vertex 1 0.273818851 0.291587442
   vertex 1 0.235114098 0.323606789
   vertex 1 0.117557049 0.161803395
  endloop
 endfacet
 facet normal 1 0 -0
  outer loop
   vertex 1 0.117557049 0.161803395
   vertex 1 0.136909425 0.145793721
   vertex 1 0.273818851 0.291587442
  endloop
 endfacet
 facet normal -1 0 -0
  outer loop
   vertex 0 0.136909425 0.145793721
   vertex 0 0.273818851 0.291587442
   vertex 0 0.308205307 0.254969597
  endloop
 endfacet
 facet normal -1 0 0
  outer loop
   vertex 0 0.136909425 0.145793721
   vertex 0 0.308205307 0.254969597
   vertex 0 0.154102653 0.127484798
  endloop
 endfacet
 facet normal 1 0 0
  outer loop
   vertex 1 0.308205307 0.254969597
   vertex 1 0.273818851 0.291587442
   vertex 1 0.136909425 0.145793721
  endloop
 endfacet
 facet normal 1 0 -0
  outer loop
   vertex 1 0.136909425 0.145793721
   vertex 1 0.154102653 0.127484798
   vertex 1 0.308205307 0.254969597
  endloop
 endfacet
 facet normal -1 0 -0
  outer loop
   vertex 0 0.154102653 0.127484798
   vertex 0 0.308205307 0.254969597
   vertex 0 0.337731183 0.214330718
  endloop
 endfacet
 facet normal -1 0 0
  outer loop
   vertex 0 0.154102653 0.127484798
   vertex 0 0.337731183 0.214330718
   vertex 0 0.168865591 0.107165359
  endloop
 endfacet
 facet normal 1 0 0
  outer loop
   vertex 1 0.337731183 0.214330718
   vertex 1 0.308205307 0.254969597
   vertex 1 0.154102653 0.127484798
  endloop
 endfacet
 facet normal 1 0 -0
  outer loop
   vertex 1 0.154102653 0.127484798
   vertex 1 0.168865591 0.107165359
   vertex 1 0.337731183 0.214330718
  endloop
 endfacet
 facet normal -1 0 -0
  outer loop
   vertex 0 0.168865591 0.107165359
   vertex 0 0.337731183 0.214330718
   vertex 0 0.361930817 0.170311719
  endloop
 endfacet
 facet normal -1 0 0
  outer loop
   vertex 0 0.168865591 0.107165359
   vertex 0 0.361930817 0.170311719
   vertex 0 0.180965409 0.0851558596
  endloop
 endfacet
 facet normal 1 0 0
  outer loop
   vertex 1 0.361930817 0.170311719
   vertex 1 0.337731183 0.214330718
   vertex 1 0.168865591 0.107165359
  endloop
 endfacet
 facet normal 1 0 -0
  outer loop
   vertex 1 0.168865591 0.107165359
   vertex 1 0.180965409 0.0851558596
   vertex 1 0.361930817 0.170311719
  endloop
 endfacet
 facet normal -1 0 -0
  outer loop
   vertex 0 0.180965409 0.0851558596
   vertex 0 0.361930817 0.170311719
   vertex 0 0.380422592 0.123606801
  endloop
 endfacet
 facet normal -1 0 0
  outer loop
   vertex 0 0.180965409 0.0851558596
   vertex 0 0.380422592 0.123606801
   vertex 0 0.190211296 0.0618034005
  endloop
 endfacet
 facet normal 1 0 0
  outer loop
   vertex 1 0.380422592 0.123606801
   vertex 1 0.361930817 0.170311719
   vertex 1 0.180965409 0.0851558596
  endloop
 endfacet
 facet normal 1 0 -0
  outer loop
   vertex 1 0.180965409 0.0851558596
   vertex 1 0.190211296 0.0618034005
   vertex 1 0.380422592 0.123606801
  endloop
 endfacet
 facet normal -1 0 -0
  outer loop
   vertex 0 0.190211296 0.0618034005
   vertex 0 0.380422592 0.123606801
   vertex 0 0.392914891 0.0749525279
  endloop
 endfacet
 facet normal -1 0 0
  outer loop
   vertex 0 0.190211296 0.0618034005
   vertex 0 0.392914891 0.0749525279
   vertex 0 0.196457446 0.0374762639
  endloop
 endfacet
 facet normal 1 0 0
  outer loop
   vertex 1 0.392914891 0.0749525279
   vertex 1 0.380422592 0.123606801
   vertex 1 0.190211296 0.0618034005
  endloop
 endfacet
 facet normal 1 0 -0
  outer loop
   vertex 1 0.190211296 0.0618034005
   vertex 1 0.196457446 0.0374762639
   vertex 1 0.392914891 0.0749525279
  endloop
 endfacet
 facet normal -1 0 -0
  outer loop
   vertex 0 0.196457446 0.0374762639
   vertex 0 0.392914891 0.0749525279
   vertex 0 0.399210691 0.0251162071
  endloop
 endfacet
 facet normal -1 -0 0
  outer loop
   vertex 0 0.196457446 0.0374762639
   vertex 0 0.399210691 0.0251162071
   vertex 0 0.199605346 0.0125581035
  endloop
 endfacet
 facet normal 1 0 0
  outer loop
   vertex 1 0.399210691 0.0251162071
   vertex 1 0.392914891 0.0749525279
   vertex 1 0.196457446 0.0374762639
  endloop
 endfacet
 facet normal 1 0 -0
  outer loop
   vertex 1 0.196457446 0.0374762639
   vertex 1 0.199605346 0.0125581035
   vertex 1 0.399210691 0.0251162071
  endloop
 endfacet
 facet normal -1 0 -0
  outer loop
   vertex 0 0.199605346 0.0125581035
   vertex 0 0.399210691 0.0251162071
   vertex 0 0.399210691 -0.0251162071
  endloop
 endfacet
 facet normal -1 0 0
  outer loop
   vertex 0 0.199605346 0.0125581035
   vertex 0 0.399210691 -0.0251162071
   vertex 0 0.199605346 -0.0125581035
  endloop
 endfacet
 facet normal 1 0 0
  outer loop
   vertex 1 0.399210691 -0.0251162071
   vertex 1 0.399210691 0.0251162071
   vertex 1 0.199605346 0.0125581035
  endloop
 endfacet
 facet normal 1 -0 0
  outer loop
   vertex 1 0.199605346 0.0125581035
   vertex 1 0.199605346 -0.0125581035
   vertex 1 0.399210691 -0.0251162071
  endloop
 endfacet
 facet normal -1 -0 0
  outer loop
   vertex 0 0.199605346 -0.0125581035
   vertex 0 0.399210691 -0.0251162071
   vertex 0 0.392914891 -0.0749525279
  endloop
 endfacet
 facet normal -1 0 0
  outer loop
   vertex 0 0.199605346 -0.0125581035
   vertex 0 0.392914891 -0.0749525279
   vertex 0 0.196457446 -0.0374762639
  endloop
 endfacet
 facet normal 1 0 0
  outer loop
   vertex 1 0.392914891 -0.0749525279
   vertex 1 0.399210691 -0.0251162071
   vertex 1 0.199605346 -0.0125581035
  endloop
 endfacet
 facet normal 1 -0 0
  outer loop
   vertex 1 0.199605346 -0.0125581035
   vertex 1 0.196457446 -0.0374762639
   vertex 1 0.392914891 -0.0749525279
  endloop
 endfacet
 facet normal -1 -0 0
  outer loop
   vertex 0 0.196457446 -0.0374762639
   vertex 0 0.392914891 -0.0749525279
   vertex 0 0.380422592 -0.123606801
  endloop
 endfacet
 facet normal -1 0 0
  outer loop
   vertex 0 0.196457446 -0.0374762639
   vertex 0 0.380422592 -0.123606801
   vertex 0 0.190211296 -0.0618034005
  endloop
 endfacet
 facet normal 1 0 0
  outer loop
   vertex 1 0.380422592 -0.123606801
   vertex 1 0.392914891 -0.0749525279
   vertex 1 0.196457446 -0.0374762639
  endloop
 endfacet
 facet normal 1 -0 0
  outer loop
   vertex 1 0.196457446 -0.0374762639
   vertex 1 0.190211296 -0.0618034005
   vertex 1 0.380422592 -0.123606801
  endloop
 endfacet
 facet normal -1 -0 0
  outer loop
   vertex 0 0.190211296 -0.0618034005
   vertex 0 0.380422592 -0.123606801
   vertex 0 0.361930817 -0.170311719
  endloop
 endfacet
 facet normal -1 0 0
  outer loop
   vertex 0 0.190211296 -0.0618034005
   vertex 0 0.361930817 -0.170311719
   vertex 0 0.180965409 -0.0851558596
  endloop
 endfacet
 facet normal 1 0 0
  outer loop
   vertex 1 0.361930817 -0.170311719
   vertex 1 0.380422592 -0.123606801
   vertex 1 0.190211296 -0.0618034005
  endloop
 endfacet
 facet normal 1 -0 0
  outer loop
   vertex 1 0.190211296 -0.0618034005
   vertex 1 0.180965409 -0.0851558596
   vertex 1 0.361930817 -0.170311719
  endloop
 endfacet
 facet normal -1 -0 0
  outer loop
   vertex 0 0.180965409 -0.0851558596
   vertex 0 0.361930817 -0.170311719
   vertex 0 0.337731183 -0.214330718
  endloop
 endfacet
 facet normal -1 0 0
  outer loop
   vertex 0 0.180965409 -0.0851558596
   vertex 0 0.337731183 -0.214330718
   vertex 0 0.168865591 -0.107165359
  endloop
 endfacet
 facet normal 1 0 0
  outer loop
   vertex 1 0.337731183 -0.214330718
   vertex 1 0.361930817 -0.170311719
   vertex 1 0.180965409 -0.0851558596
  endloop
 endfacet
 facet normal 1 -0 0
  outer loop
   vertex 1 0.180965409 -0.0851558596
   vertex 1 0.168865591 -0.107165359
   vertex 1 0.337731183 -0.214330718
  endloop
 endfacet
 facet normal -1 -0 0
  outer loop
   vertex 0 0.168865591 -0.107165359
   vertex 0 0.337731183 -0.214330718
   vertex 0 0.308205307 -0.254969597
  endloop
 endfacet
 facet normal -1 0 0
  outer loop
   vertex 0 0.168865591 -0.107165359
   vertex 0 0.308205307 -0.254969597
   vertex 0 0.154102653 -0.127484798
  endloop
 endfacet
 facet normal 1 0 0
  outer loop
   vertex 1 0.308205307 -0.254969597
   vertex 1 0.337731183 -0.214330718
   vertex 1 0.168865591 -0.107165359
  endloop
 endfacet
 facet normal 1 -0 0
  outer loop
   vertex 1 0.168865591 -0.107165359
   vertex 1 0.154102653 -0.127484798
   vertex 1 0.308205307 -0.254969597
  endloop
 endfacet
 facet normal -1 -0 0
  outer loop
   vertex 0 0.154102653 -0.127484798
   vertex 0 0.308205307 -0.254969597
   vertex 0 0.273818851 -0.291587442
  endloop
 endfacet
 facet normal -1 0 0
  outer loop
   vertex 0 0.154102653 -0.127484798
   vertex 0 0.273818851 -0.291587442
   vertex 0 0.136909425 -0.145793721
  endloop
 endfacet
 facet normal 1 0 0
  outer loop
   vertex 1 0.273818851 -0.291587442
   vertex 1 0.308205307 -0.254969597
   vertex 1 0.154102653 -0.127484798
  endloop
 endfacet
 facet normal 1 -0 0
  outer loop
   vertex 1 0.154102653 -0.127484798
   vertex 1 0.136909425 -0.145793721
   vertex 1 0.273818851 -0.291587442
  endloop
 endfacet
 facet normal -1 -0 0
  outer loop
   vertex 0 0.136909425 -0.145793721
   vertex 0 0.273818851 -0.291587442
   vertex 0 0.235114098 -0.323606789
  endloop
 endfacet
 facet normal -1 0 0
  outer loop
   vertex 0 0.136909425 -0.145793721
   vertex 0 0.235114098 -0.323606789
   vertex 0 0.117557049 -0.161803395
  endloop
 endfacet
 facet normal 1 0 0
  outer loop
   vertex 1 0.235114098 -0.323606789
   vertex 1 0.273818851 -0.291587442
   vertex 1 0.136909425 -0.145793721
  endloop
 endfacet
 facet normal 1 -0 0
  outer loop
   vertex 1 0.136909425 -0.145793721
   vertex 1 0.117557049 -0.161803395
   vertex 1 0.235114098 -0.323606789
  endloop
 endfacet
 facet normal -1 -0 0
  outer loop
   vertex 0 0.117557049 -0.161803395
   vertex 0 0.235114098 -0.323606789
   vertex 0 0.192701474 -0.350522667
  endloop
 endfacet
 facet normal -1 0 0
  outer loop
   vertex 0 0.117557049 -0.161803395
   vertex 0 0.192701474 -0.350522667
   vertex 0 0.0963507369 -0.175261334
  endloop
 endfacet
 facet normal 1 0 0
  outer loop
   vertex 1 0.192701474 -0.350522667
   vertex 1 0.235114098 -0.323606789
   vertex 1 0.117557049 -0.161803395
  endloop
 endfacet
 facet normal 1 -0 0
  outer loop
   vertex 1 0.117557049 -0.161803395
   vertex 1 0.0963507369 -0.175261334
   vertex 1 0.192701474 -0.350522667
  endloop
 endfacet
 facet normal -1 -0 0
  outer loop
   vertex 0 0.0963507369 -0.175261334
   vertex 0 0.192701474 -0.350522667
   vertex 0 0.147249818 -0.371910602
  endloop
 endfacet
 facet normal -1 0 0
  outer loop
   vertex 0 0.0963507369 -0.175261334
   vertex 0 0.147249818 -0.371910602
   vertex 0 0.0736249089 -0.185955301
  endloop
 endfacet
 facet normal 1 0 0
  outer loop
   vertex 1 0.147249818 -0.371910602
   vertex 1 0.192701474 -0.350522667
   vertex 1 0.0963507369 -0.175261334
  endloop
 endfacet
 facet normal 1 -0 0
  outer loop
   vertex 1 0.0963507369 -0.175261334
   vertex 1 0.0736249089 -0.185955301
   vertex 1 0.147249818 -0.371910602
  endloop
 endfacet
 facet normal -1 -0 0
  outer loop
   vertex 0 0.0736249089 -0.185955301
   vertex 0 0.147249818 -0.371910602
   vertex 0 0.0994759575 -0.387433261
  endloop
 endfacet
 facet normal -1 0 0
  outer loop
   vertex 0 0.0736249089 -0.185955301
   vertex 0 0.0994759575 -0.387433261
   vertex 0 0.0497379787 -0.19371663
  endloop
 endfacet
 facet normal 1 0 0
  outer loop
   vertex 1 0.0994759575 -0.387433261
   vertex 1 0.147249818 -0.371910602
   vertex 1 0.0736249089 -0.185955301
  endloop
 endfacet
 facet normal 1 -0 0
  outer loop
   vertex 1 0.0736249089 -0.185955301
   vertex 1 0.0497379787 -0.19371663
   vertex 1 0.0994759575 -0.387433261
  endloop
 endfacet
 facet normal -1 -0 0
  outer loop
   vertex 0 0.0497379787 -0.19371663
   vertex 0 0.0994759575 -0.387433261
   vertex 0 0.0501332916 -0.396845877
  endloop
 endfacet
 facet normal -1 0 0
  outer loop
   vertex 0 0.0497379787 -0.19371663
   vertex 0 0.0501332916 -0.396845877
   vertex 0 0.0250666458 -0.198422939
  endloop
 endfacet
 facet normal 1 0 0
  outer loop
   vertex 1 0.0501332916 -0.396845877
   vertex 1 0.0994759575 -0.387433261
   vertex 1 0.0497379787 -0.19371663
  endloop
 endfacet
 facet normal 1 -0 0
  outer loop
   vertex 1 0.0497379787 -0.19371663
   vertex 1 0.0250666458 -0.198422939
   vertex 1 0.0501332916 -0.396845877
  endloop
 endfacet
 facet normal -1 -0 0
  outer loop
   vertex 0 0.0250666458 -0.198422939
   vertex 0 0.0501332916 -0.396845877
   vertex 0 -1.28649812e-16 -0.400000006
  endloop
 endfacet
 facet normal -1 0 0
  outer loop
   vertex 0 0.0250666458 -0.198422939
   vertex 0 -1.28649812e-16 -0.400000006
   vertex 0 -6.43249062e-17 -0.200000003
  endloop
 endfacet
 facet normal 1 0 0
  outer loop
   vertex 1 -1.28649812e-16 -0.400000006
   vertex 1 0.0501332916 -0.396845877
   vertex 1 0.0250666458 -0.198422939
  endloop
 endfacet
 facet normal 1 -0 0
  outer loop
   vertex 1 0.0250666458 -0.198422939
   vertex 1 -6.43249062e-17 -0.200000003
   vertex 1 -1.28649812e-16 -0.400000006
  endloop
 endfacet
 facet normal -1 0 0
  outer loop
   vertex 0 -6.43249062e-17 -0.200000003
   vertex 0 -1.28649812e-16 -0.400000006
   vertex 0 -0.0501332916 -0.396845877
  endloop
 endfacet
 facet normal -1 0 0
  outer loop
   vertex 0 -6.43249062e-17 -0.200000003
   vertex 0 -0.0501332916 -0.396845877
   vertex 0 -0.0250666458 -0.198422939
  endloop
 endfacet
 facet normal 1 0 -0
  outer loop
   vertex 1 -0.0501332916 -0.396845877
   vertex 1 -1.28649812e-16 -0.400000006
   vertex 1 -6.43249062e-17 -0.200000003
  endloop
 endfacet
 facet normal 1 0 0
  outer loop
   vertex 1 -6.43249062e-17 -0.200000003
   vertex 1 -0.0250666458 -0.198422939
   vertex 1 -0.0501332916 -0.396845877
  endloop
 endfacet
 facet normal -1 0 0
  outer loop
   vertex 0 -0.0250666458 -0.198422939
   vertex 0 -0.0501332916 -0.396845877
   vertex 0 -0.0994759575 -0.387433261
  endloop
 endfacet
 facet normal -1 0 0
  outer loop
   vertex 0 -0.0250666458 -0.198422939
   vertex 0 -0.0994759575 -0.387433261
   vertex 0 -0.0497379787 -0.19371663
  endloop
 endfacet
 facet normal 1 0 -0
  outer loop
   vertex 1 -0.0994759575 -0.387433261
   vertex 1 -0.0501332916 -0.396845877
   vertex 1 -0.0250666458 -0.198422939
  endloop
 endfacet
 facet normal 1 0 0
  outer loop
   vertex 1 -0.0250666458 -0.198422939
   vertex 1 -0.0497379787 -0.19371663
   vertex 1 -0.0994759575 -0.387433261
  endloop
 endfacet
 facet normal -1 0 0
  outer loop
   vertex 0 -0.0497379787 -0.19371663
   vertex 0 -0.0994759575 -0.387433261
   vertex 0 -0.147249818 -0.371910602
  endloop
 endfacet
 facet normal -1 0 0
  outer loop
   vertex 0 -0.0497379787 -0.19371663
   vertex 0 -0.147249818 -0.371910602
   vertex 0 -0.0736249089 -0.185955301
  endloop
 endfacet
 facet normal 1 0 -0
  outer loop
   vertex 1 -0.147249818 -0.371910602
   vertex 1 -0.0994759575 -0.387433261
   vertex 1 -0.0497379787 -0.19371663
  endloop
 endfacet
 facet normal 1 0 0
  outer loop
   vertex 1 -0.0497379787 -0.19371663
   vertex 1 -0.0736249089 -0.185955301
   vertex 1 -0.147249818 -0.371910602
  endloop
 endfacet
 facet normal -1 0 0
  outer loop
   vertex 0 -0.0736249089 -0.185955301
   vertex 0 -0.147249818 -0.371910602
   vertex 0 -0.192701474 -0.350522667
  endloop
 endfacet
 facet normal -1 0 0
  outer loop
   vertex 0 -0.0736249089 -0.185955301
   vertex 0 -0.192701474 -0.350522667
   vertex 0 -0.0963507369 -0.175261334
  endloop
 endfacet
 facet normal 1 0 -0
  outer loop
   vertex 1 -0.192701474 -0.350522667
   vertex 1 -0.147249818 -0.371910602
   vertex 1 -0.0736249089 -0.185955301
  endloop
 endfacet
 facet normal 1 0 0
  outer loop
   vertex 1 -0.0736249089 -0.185955301
   vertex 1 -0.0963507369 -0.175261334
   vertex 1 -0.192701474 -0.350522667
  endloop
 endfacet
 facet normal -1 0 0
  outer loop
   vertex 0 -0.0963507369 -0.175261334
   vertex 0 -0.192701474 -0.350522667
   vertex 0 -0.235114098 -0.323606789
  endloop
 endfacet
 facet normal -1 0 0
  outer loop
   vertex 0 -0.0963507369 -0.175261334
   vertex 0 -0.235114098 -0.323606789
   vertex 0 -0.117557049 -0.161803395
  endloop
 endfacet
 facet normal 1 0 -0
  outer loop
   vertex 1 -0.235114098 -0.323606789
   vertex 1 -0.192701474 -0.350522667
   vertex 1 -0.0963507369 -0.175261334
  endloop
 endfacet
 facet normal 1 0 0
  outer loop
   vertex 1 -0.0963507369 -0.175261334
   vertex 1 -0.117557049 -0.161803395
   vertex 1 -0.235114098 -0.323606789
  endloop
 endfacet
 facet normal -1 0 0
  outer loop
   vertex 0 -0.117557049 -0.161803395
   vertex 0 -0.235114098 -0.323606789
   vertex 0 -0.273818851 -0.291587442
  endloop
 endfacet
 facet normal -1 0 0
  outer loop
   vertex 0 -0.117557049 -0.161803395
   vertex 0 -0.273818851 -0.291587442
   vertex 0 -0.136909425 -0.145793721
  endloop
 endfacet
 facet normal 1 0 -0
  outer loop
   vertex 1 -0.273818851 -0.291587442
   vertex 1 -0.235114098 -0.323606789
   vertex 1 -0.117557049 -0.161803395
  endloop
 endfacet
 facet normal 1 0 0
  outer loop
   vertex 1 -0.117557049 -0.161803395
   vertex 1 -0.136909425 -0.145793721
   vertex 1 -0.273818851 -0.291587442
  endloop
 endfacet
 facet normal -1 0 0
  outer loop
   vertex 0 -0.136909425 -0.145793721
   vertex 0 -0.273818851 -0.291587442
   vertex 0 -0.308205307 -0.254969597
  endloop
 endfacet
 facet normal -1 0 0
  outer loop
   vertex 0 -0.136909425 -0.145793721
   vertex 0 -0.308205307 -0.254969597
   vertex 0 -0.154102653 -0.127484798
  endloop
 endfacet
 facet normal 1 0 -0
  outer loop
   vertex 1 -0.308205307 -0.254969597
   vertex 1 -0.273818851 -0.291587442
   vertex 1 -0.136909425 -0.145793721
  endloop
 endfacet
 facet normal 1 0 0
  outer loop
   vertex 1 -0.136909425 -0.145793721
   vertex 1 -0.154102653 -0.127484798
   vertex 1 -0.308205307 -0.254969597
  endloop
 endfacet
 facet normal -1 0 0
  outer loop
   vertex 0 -0.154102653 -0.127484798
   vertex 0 -0.308205307 -0.254969597
   vertex 0 -0.337731183 -0.214330718
  endloop
 endfacet
 facet normal -1 0 0
  outer loop
   vertex 0 -0.154102653 -0.127484798
   vertex 0 -0.337731183 -0.214330718
   vertex 0 -0.168865591 -0.107165359
  endloop
 endfacet
 facet normal 1 0 -0
  outer loop
   vertex 1 -0.337731183 -0.214330718
   vertex 1 -0.308205307 -0.254969597
   vertex 1 -0.154102653 -0.127484798
  endloop
 endfacet
 facet normal 1 0 0
  outer loop
   vertex 1 -0.154102653 -0.127484798
   vertex 1 -0.168865591 -0.107165359
   vertex 1 -0.337731183 -0.214330718
  endloop
 endfacet
 facet normal -1 0 0
  outer loop
   vertex 0 -0.168865591 -0.107165359
   vertex 0 -0.337731183 -0.214330718
   vertex 0 -0.361930817 -0.170311719
  endloop
 endfacet
 facet normal -1 0 0
  outer loop
   vertex 0 -0.168865591 -0.107165359
   vertex 0 -0.361930817 -0.170311719
   vertex 0 -0.180965409 -0.0851558596
  endloop
 endfacet
 facet normal 1 0 -0
  outer loop
   vertex 1 -0.361930817 -0.170311719
   vertex 1 -0.337731183 -0.214330718
   vertex 1 -0.168865591 -0.107165359
  endloop
 endfacet
 facet normal 1 0 0
  outer loop
   vertex 1 -0.168865591 -0.107165359
   vertex 1 -0.180965409 -0.0851558596
   vertex 1 -0.361930817 -0.170311719
  endloop
 endfacet
 facet normal -1 0 0
  outer loop
   vertex 0 -0.180965409 -0.0851558596
   vertex 0 -0.361930817 -0.170311719
   vertex 0 -0.380422592 -0.123606801
  endloop
 endfacet
 facet normal -1 0 0
  outer loop
   vertex 0 -0.180965409 -0.0851558596
   vertex 0 -0.380422592 -0.123606801
   vertex 0 -0.190211296 -0.0618034005
  endloop
 endfacet
 facet normal 1 0 -0
  outer loop
   vertex 1 -0.380422592 -0.123606801
   vertex 1 -0.361930817 -0.170311719
   vertex 1 -0.180965409 -0.0851558596
  endloop
 endfacet
 facet normal 1 0 0
  outer loop
   vertex 1 -0.180965409 -0.0851558596
   vertex 1 -0.190211296 -0.0618034005
   vertex 1 -0.380422592 -0.123606801
  endloop
 endfacet
 facet normal -1 0 0
  outer loop
   vertex 0 -0.190211296 -0.0618034005
   vertex 0 -0.380422592 -0.123606801
   vertex 0 -0.392914891 -0.0749525279
  endloop
 endfacet
 facet normal -1 0 0
  outer loop
   vertex 0 -0.190211296 -0.0618034005
   vertex 0 -0.392914891 -0.0749525279
   vertex 0 -0.196457446 -0.0374762639
  endloop
 endfacet
 facet normal 1 0 -0
  outer loop
   vertex 1 -0.392914891 -0.0749525279
   vertex 1 -0.380422592 -0.123606801
   vertex 1 -0.190211296 -0.0618034005
  endloop
 endfacet
 facet normal 1 0 0
  outer loop
   vertex 1 -0.190211296 -0.0618034005
   vertex 1 -0.196457446 -0.0374762639
   vertex 1 -0.392914891 -0.0749525279
  endloop
 endfacet
 facet normal -1 0 0
  outer loop
   vertex 0 -0.196457446 -0.0374762639
   vertex 0 -0.392914891 -0.0749525279
   vertex 0 -0.399210691 -0.0251162071
  endloop
 endfacet
 facet normal -1 0 0
  outer loop
   vertex 0 -0.196457446 -0.0374762639
   vertex 0 -0.399210691 -0.0251162071
   vertex 0 -0.199605346 -0.0125581035
  endloop
 endfacet
 facet normal 1 0 -0
  outer loop
   vertex 1 -0.399210691 -0.0251162071
   vertex 1 -0.392914891 -0.0749525279
   vertex 1 -0.196457446 -0.0374762639
  endloop
 endfacet
 facet normal 1 0 0
  outer loop
   vertex 1 -0.196457446 -0.0374762639
   vertex 1 -0.199605346 -0.0125581035
   vertex 1 -0.399210691 -0.0251162071
  endloop
 endfacet
 facet normal -1 0 0
  outer loop
   vertex 0 -0.199605346 -0.0125581035
   vertex 0 -0.399210691 -0.0251162071
   vertex 0 -0.399210691 0.0251162071
  endloop
 endfacet
 facet normal -1 0 0
  outer loop
   vertex 0 -0.199605346 -0.0125581035
   vertex 0 -0.399210691 0.0251162071
   vertex 0 -0.199605346 0.0125581035
  endloop
 endfacet
 facet normal 1 0 0
  outer loop
   vertex 1 -0.399210691 0.0251162071
   vertex 1 -0.399210691 -0.0251162071
   vertex 1 -0.199605346 -0.0125581035
  endloop
 endfacet
 facet normal 1 0 0
  outer loop
   vertex 1 -0.199605346 -0.0125581035
   vertex 1 -0.199605346 0.0125581035
   vertex 1 -0.399210691 0.0251162071
  endloop
 endfacet
 facet normal -1 0 0
  outer loop
   vertex 0 -0.199605346 0.0125581035
   vertex 0 -0.399210691 0.0251162071
   vertex 0 -0.392914891 0.0749525279
  endloop
 endfacet
 facet normal -1 0 0
  outer loop
   vertex 0 -0.199605346 0.0125581035
   vertex 0 -0.392914891 0.0749525279
   vertex 0 -0.196457446 0.0374762639
  endloop
 endfacet
 facet normal 1 -0 0
  outer loop
   vertex 1 -0.392914891 0.0749525279
   vertex 1 -0.399210691 0.0251162071
   vertex 1 -0.199605346 0.0125581035
  endloop
 endfacet
 facet normal 1 0 0
  outer loop
   vertex 1 -0.199605346 0.0125581035
   vertex 1 -0.196457446 0.0374762639
   vertex 1 -0.392914891 0.0749525279
  endloop
 endfacet
 facet normal -1 0 0
  outer loop
   vertex 0 -0.196457446 0.0374762639
   vertex 0 -0.392914891 0.0749525279
   vertex 0 -0.380422592 0.123606801
  endloop
 endfacet
 facet normal -1 0 0
  outer loop
   vertex 0 -0.196457446 0.0374762639
   vertex 0 -0.380422592 0.123606801
   vertex 0 -0.190211296 0.0618034005
  endloop
 endfacet
 facet normal 1 -0 0
  outer loop
   vertex 1 -0.380422592 0.123606801
   vertex 1 -0.392914891 0.0749525279
   vertex 1 -0.196457446 0.0374762639
  endloop
 endfacet
 facet normal 1 0 0
  outer loop
   vertex 1 -0.196457446 0.0374762639
   vertex 1 -0.190211296 0.0618034005
   vertex 1 -0.380422592 0.123606801
  endloop
 endfacet
 facet normal -1 0 0
  outer loop
   vertex 0 -0.190211296 0.0618034005
   vertex 0 -0.380422592 0.123606801
   vertex 0 -0.361930817 0.170311719
  endloop
 endfacet
 facet normal -1 0 0
  outer loop
   vertex 0 -0.190211296 0.0618034005
   vertex 0 -0.361930817 0.170311719
   vertex 0 -0.180965409 0.0851558596
  endloop
 endfacet
 facet normal 1 -0 0
  outer loop
   vertex 1 -0.361930817 0.170311719
   vertex 1 -0.380422592 0.123606801
   vertex 1 -0.190211296 0.0618034005
  endloop
 endfacet
 facet normal 1 0 0
  outer loop
   vertex 1 -0.190211296 0.0618034005
   vertex 1 -0.180965409 0.0851558596
   vertex 1 -0.361930817 0.170311719
  endloop
 endfacet
 facet normal -1 0 0
  outer loop
   vertex 0 -0.180965409 0.0851558596
   vertex 0 -0.361930817 0.170311719
   vertex 0 -0.337731183 0.214330718
  endloop
 endfacet
 facet normal -1 0 0
  outer loop
   vertex 0 -0.180965409 0.0851558596
   vertex 0 -0.337731183 0.214330718
   vertex 0 -0.168865591 0.107165359
  endloop
 endfacet
 facet normal 1 -0 0
  outer loop
   vertex 1 -0.337731183 0.214330718
   vertex 1 -0.361930817 0.170311719
   vertex 1 -0.180965409 0.0851558596
  endloop
 endfacet
 facet normal 1 0 0
  outer loop
   vertex 1 -0.180965409 0.0851558596
   vertex 1 -0.168865591 0.107165359
   vertex 1 -0.337731183 0.214330718
  endloop
 endfacet
 facet normal -1 0 0
  outer loop
   vertex 0 -0.168865591 0.107165359
   vertex 0 -0.337731183 0.214330718
   vertex 0 -0.308205307 0.254969597
  endloop
 endfacet
 facet normal -1 0 0
  outer loop
   vertex 0 -0.168865591 0.107165359
   vertex 0 -0.308205307 0.254969597
   vertex 0 -0.154102653 0.127484798
  endloop
 endfacet
 facet normal 1 -0 0
  outer loop
   vertex 1 -0.308205307 0.254969597
   vertex 1 -0.337731183 0.214330718
   vertex 1 -0.168865591 0.107165359
  endloop
 endfacet
 facet normal 1 0 0
  outer loop
   vertex 1 -0.168865591 0.107165359
   vertex 1 -0.154102653 0.127484798
   vertex 1 -0.308205307 0.254969597
  endloop
 endfacet
 facet normal -1 0 0
  outer loop
   vertex 0 -0.154102653 0.127484798
   vertex 0 -0.308205307 0.254969597
   vertex 0 -0.273818851 0.291587442
  endloop
 endfacet
 facet normal -1 0 0
  outer loop
   vertex 0 -0.154102653 0.127484798
   vertex 0 -0.273818851 0.291587442
   vertex 0 -0.136909425 0.145793721
  endloop
 endfacet
 facet normal 1 -0 0
  outer loop
   vertex 1 -0.273818851 0.291587442
   vertex 1 -0.308205307 0.254969597
   vertex 1 -0.154102653 0.127484798
  endloop
 endfacet
 facet normal 1 0 0
  outer loop
   vertex 1 -0.154102653 0.127484798
   vertex 1 -0.136909425 0.145793721
   vertex 1 -0.273818851 0.291587442
  endloop
 endfacet
 facet normal -1 0 0
  outer loop
   vertex 0 -0.136909425 0.145793721
   vertex 0 -0.273818851 0.291587442
   vertex 0 -0.235114098 0.323606789
  endloop
 endfacet
 facet normal -1 0 0
  outer loop
   vertex 0 -0.136909425 0.145793721
   vertex 0 -0.235114098 0.323606789
   vertex 0 -0.117557049 0.161803395
  endloop
 endfacet
 facet normal 1 -0 0
  outer loop
   vertex 1 -0.235114098 0.323606789
   vertex 1 -0.273818851 0.291587442
   vertex 1 -0.136909425 0.145793721
  endloop
 endfacet
 facet normal 1 0 0
  outer loop
   vertex 1 -0.136909425 0.145793721
   vertex 1 -0.117557049 0.161803395
   vertex 1 -0.235114098 0.323606789
  endloop
 endfacet
 facet normal -1 0 0
  outer loop
   vertex 0 -0.117557049 0.161803395
   vertex 0 -0.235114098 0.323606789
   vertex 0 -0.192701474 0.350522667
  endloop
 endfacet
 facet normal -1 0 0
  outer loop
   vertex 0 -0.117557049 0.161803395
   vertex 0 -0.192701474 0.350522667
   vertex 0 -0.0963507369 0.175261334
  endloop
 endfacet
 facet normal 1 -0 0
  outer loop
   vertex 1 -0.192701474 0.350522667
   vertex 1 -0.235114098 0.323606789
   vertex 1 -0.117557049 0.161803395
  endloop
 endfacet
 facet normal 1 0 0
  outer loop
   vertex 1 -0.117557049 0.161803395
   vertex 1 -0.0963507369 0.175261334
   vertex 1 -0.192701474 0.350522667
  endloop
 endfacet
 facet normal -1 0 0
  outer loop
   vertex 0 -0.0963507369 0.175261334
   vertex 0 -0.192701474 0.350522667
   vertex 0 -0.147249818 0.371910602
  endloop
 endfacet
 facet normal -1 0 0
  outer loop
   vertex 0 -0.0963507369 0.175261334
   vertex 0 -0.147249818 0.371910602
   vertex 0 -0.0736249089 0.185955301
  endloop
 endfacet
 facet normal 1 -0 0
  outer loop
   vertex 1 -0.147249818 0.371910602
   vertex 1 -0.192701474 0.350522667
   vertex 1 -0.0963507369 0.175261334
  endloop
 endfacet
 facet normal 1 0 0
  outer loop
   vertex 1 -0.0963507369 0.175261334
   vertex 1 -0.0736249089 0.185955301
   vertex 1 -0.147249818 0.371910602
  endloop
 endfacet
 facet normal -1 0 0
  outer loop
   vertex 0 -0.0736249089 0.185955301
   vertex 0 -0.147249818 0.371910602
   vertex 0 -0.0994759575 0.387433261
  endloop
 endfacet
 facet normal -1 0 0
  outer loop
   vertex 0 -0.0736249089 0.185955301
   vertex 0 -0.0994759575 0.387433261
   vertex 0 -0.0497379787 0.19371663
  endloop
 endfacet
 facet normal 1 -0 0
  outer loop
   vertex 1 -0.0994759575 0.387433261
   vertex 1 -0.147249818 0.371910602
   vertex 1 -0.0736249089 0.185955301
  endloop
 endfacet
 facet normal 1 0 0
  outer loop
   vertex 1 -0.0736249089 0.185955301
   vertex 1 -0.0497379787 0.19371663
   vertex 1 -0.0994759575 0.387433261
  endloop
 endfacet
 facet normal -1 0 0
  outer loop
   vertex 0 -0.0497379787 0.19371663
   vertex 0 -0.0994759575 0.387433261
   vertex 0 -0.0501332916 0.396845877
  endloop
 endfacet
 facet normal -1 0 0
  outer loop
   vertex 0 -0.0497379787 0.19371663
   vertex 0 -0.0501332916 0.396845877
   vertex 0 -0.0250666458 0.198422939
  endloop
 endfacet
 facet normal 1 -0 0
  outer loop
   vertex 1 -0.0501332916 0.396845877
   vertex 1 -0.0994759575 0.387433261
   vertex 1 -0.0497379787 0.19371663
  endloop
 endfacet
 facet normal 1 0 0
  outer loop
   vertex 1 -0.0497379787 0.19371663
   vertex 1 -0.0250666458 0.198422939
   vertex 1 -0.0501332916 0.396845877
  endloop
 endfacet
 facet normal -1 0 0
  outer loop
   vertex 0 -0.0250666458 0.198422939
   vertex 0 -0.0501332916 0.396845877
   vertex 0 0 0.400000006
  endloop
 endfacet
 facet normal -1 0 -0
  outer loop
   vertex 0 -0.0250666458 0.198422939
   vertex 0 0 0.400000006
   vertex 0 0 0.200000003
  endloop
 endfacet
 facet normal 1 -0 0
  outer loop
   vertex 1 0 0.400000006
   vertex 1 -0.0501332916 0.396845877
   vertex 1 -0.0250666458 0.198422939
  endloop
 endfacet
 facet normal 1 0 -0
  outer loop
   vertex 1 -0.0250666458 0.198422939
   vertex 1 0 0.200000003
   vertex 1 0 0.400000006
  endloop
 endfacet
endsolid
