solid building
 facet normal -1 0 0
  outer loop
   vertex 0 -100 0
   vertex 0 -100 200
   vertex 0 100 0
  endloop
 endfacet
 facet normal -1 0 0
  outer loop
   vertex 0 100 200
   vertex 0 100 0
   vertex 0 -100 200
  endloop
 endfacet
 facet normal 1 0 0
  outer loop
   vertex 200 -100 0
   vertex 200 100 0
   vertex 200 -100 200
  endloop
 endfacet
 facet normal 1 -0 0
  outer loop
   vertex 200 100 200
   vertex 200 -100 200
   vertex 200 100 0
  endloop
 endfacet
 facet normal 0 -1 0
  outer loop
   vertex 0 -100 0
   vertex 200 -100 0
   vertex 0 -100 200
  endloop
 endfacet
 facet normal 0 -1 0
  outer loop
   vertex 200 -100 200
   vertex 0 -100 200
   vertex 200 -100 0
  endloop
 endfacet
 facet normal 0 1 0
  outer loop
   vertex 0 100 0
   vertex 0 100 200
   vertex 200 100 0
  endloop
 endfacet
 facet normal 0 1 -0
  outer loop
   vertex 200 100 200
   vertex 200 100 0
   vertex 0 100 200
  endloop
 endfacet
 facet normal 0 0 -1
  outer loop
   vertex 0 -100 0
   vertex 0 100 0
   vertex 200 -100 0
  endloop
 endfacet
 facet normal 0 0 -1
  outer loop
   vertex 200 100 0
   vertex 200 -100 0
   vertex 0 100 0
  endloop
 endfacet
 facet normal 0 0 1
  outer loop
   vertex 0 -100 200
   vertex 200 -100 200
   vertex 0 100 200
  endloop
 endfacet
 facet normal -0 0 1
  outer loop
   vertex 200 100 200
   vertex 0 100 200
   vertex 200 -100 200
  endloop
 endfacet
endsolid
