solid fire
 facet normal -1 0 0
  outer loop
   vertex -0.75 -0.75 -3
   vertex -0.75 -0.75 -2.5
   vertex -0.75 0.75 -3
  endloop
 endfacet
 facet normal -1 0 0
  outer loop
   vertex -0.75 0.75 -2.5
   vertex -0.75 0.75 -3
   vertex -0.75 -0.75 -2.5
  endloop
 endfacet
 facet normal 1 0 0
  outer loop
   vertex 0.75 -0.75 -3
   vertex 0.75 0.75 -3
   vertex 0.75 -0.75 -2.5
  endloop
 endfacet
 facet normal 1 -0 0
  outer loop
   vertex 0.75 0.75 -2.5
   vertex 0.75 -0.75 -2.5
   vertex 0.75 0.75 -3
  endloop
 endfacet
 facet normal 0 -1 0
  outer loop
   vertex -0.75 -0.75 -3
   vertex 0.75 -0.75 -3
   vertex -0.75 -0.75 -2.5
  endloop
 endfacet
 facet normal 0 -1 0
  outer loop
   vertex 0.75 -0.75 -2.5
   vertex -0.75 -0.75 -2.5
   vertex 0.75 -0.75 -3
  endloop
 endfacet
 facet normal 0 1 0
  outer loop
   vertex -0.75 0.75 -3
   vertex -0.75 0.75 -2.5
   vertex 0.75 0.75 -3
  endloop
 endfacet
 facet normal 0 1 -0
  outer loop
   vertex 0.75 0.75 -2.5
   vertex 0.75 0.75 -3
   vertex -0.75 0.75 -2.5
  endloop
 endfacet
 facet normal 0 0 -1
  outer loop
   vertex -0.75 -0.75 -3
   vertex -0.75 0.75 -3
   vertex 0.75 -0.75 -3
  endloop
 endfacet
 facet normal 0 0 -1
  outer loop
   vertex 0.75 0.75 -3
   vertex 0.75 -0.75 -3
   vertex -0.75 0.75 -3
  endloop
 endfacet
 facet normal 0 0 1
  outer loop
   vertex -0.75 -0.75 -2.5
   vertex 0.75 -0.75 -2.5
   vertex -0.75 0.75 -2.5
  endloop
 endfacet
 facet normal -0 0 1
  outer loop
   vertex 0.75 0.75 -2.5
   vertex -0.75 0.75 -2.5
   vertex 0.75 -0.75 -2.5
  endloop
 endfacet
endsolid
