solid interface
 facet normal 0.998026 0.0627957 -0
  outer loop
   vertex 0.005 -1e-18 0
   vertex 0.00496057 0.000626666 0
   vertex 0.005 -1e-18 0.05
  endloop
 endfacet
 facet normal 0.998026 0.0627957 0
  outer loop
   vertex 0.005 -1e-18 0.05
   vertex 0.00496057 0.000626666 0
   vertex 0.00496057 0.000626666 0.05
  endloop
 endfacet
 facet normal 0.98229 0.187369 0
  outer loop
   vertex 0.00496057 0.000626666 0.05
   vertex 0.00484292 0.00124345 0
   vertex 0.00484292 0.00124345 0.05
  endloop
 endfacet
 facet normal 0.98229 0.187369 -0
  outer loop
   vertex 0.00496057 0.000626666 0
   vertex 0.00484292 0.00124345 0
   vertex 0.00496057 0.000626666 0.05
  endloop
 endfacet
 facet normal 0.951053 0.309028 0
  outer loop
   vertex 0.00484292 0.00124345 0.05
   vertex 0.00464888 0.00184062 0
   vertex 0.00464888 0.00184062 0.05
  endloop
 endfacet
 facet normal 0.951053 0.309028 -0
  outer loop
   vertex 0.00484292 0.00124345 0
   vertex 0.00464888 0.00184062 0
   vertex 0.00484292 0.00124345 0.05
  endloop
 endfacet
 facet normal 0.904828 0.425778 0
  outer loop
   vertex 0.00464888 0.00184062 0.05
   vertex 0.00438153 0.00240877 0
   vertex 0.00438153 0.00240877 0.05
  endloop
 endfacet
 facet normal 0.844335 0.535815 0
  outer loop
   vertex 0.00438153 0.00240877 0.05
   vertex 0.00438153 0.00240877 0
   vertex 0.00404509 0.00293893 0.05
  endloop
 endfacet
 facet normal 0.904828 0.425778 -0
  outer loop
   vertex 0.00464888 0.00184062 0
   vertex 0.00438153 0.00240877 0
   vertex 0.00464888 0.00184062 0.05
  endloop
 endfacet
 facet normal 0.844335 0.535815 0
  outer loop
   vertex 0.00438153 0.00240877 0
   vertex 0.00404509 0.00293893 0
   vertex 0.00404509 0.00293893 0.05
  endloop
 endfacet
 facet normal 0.770507 0.637431 0
  outer loop
   vertex 0.00404509 0.00293893 0.05
   vertex 0.00364484 0.00342274 0
   vertex 0.00364484 0.00342274 0.05
  endloop
 endfacet
 facet normal 0.770507 0.637431 -0
  outer loop
   vertex 0.00404509 0.00293893 0
   vertex 0.00364484 0.00342274 0
   vertex 0.00404509 0.00293893 0.05
  endloop
 endfacet
 facet normal 0.684549 0.728967 0
  outer loop
   vertex 0.00364484 0.00342274 0.05
   vertex 0.00318712 0.00385257 0
   vertex 0.00318712 0.00385257 0.05
  endloop
 endfacet
 facet normal 0.684549 0.728967 -0
  outer loop
   vertex 0.00364484 0.00342274 0
   vertex 0.00318712 0.00385257 0
   vertex 0.00364484 0.00342274 0.05
  endloop
 endfacet
 facet normal 0.587779 0.809022 0
  outer loop
   vertex 0.00318712 0.00385257 0.05
   vertex 0.00267913 0.00422164 0
   vertex 0.00267913 0.00422164 0.05
  endloop
 endfacet
 facet normal 0.587779 0.809022 -0
  outer loop
   vertex 0.00318712 0.00385257 0
   vertex 0.00267913 0.00422164 0
   vertex 0.00318712 0.00385257 0.05
  endloop
 endfacet
 facet normal 0.481764 0.876301 0
  outer loop
   vertex 0.00267913 0.00422164 0.05
   vertex 0.0021289 0.00452414 0
   vertex 0.0021289 0.00452414 0.05
  endloop
 endfacet
 facet normal 0.36811 0.929782 0
  outer loop
   vertex 0.0021289 0.00452414 0.05
   vertex 0.0021289 0.00452414 0
   vertex 0.00154508 0.00475528 0.05
  endloop
 endfacet
 facet normal 0.481764 0.876301 -0
  outer loop
   vertex 0.00267913 0.00422164 0
   vertex 0.0021289 0.00452414 0
   vertex 0.00267913 0.00422164 0.05
  endloop
 endfacet
 facet normal 0.36811 0.929782 0
  outer loop
   vertex 0.0021289 0.00452414 0
   vertex 0.00154508 0.00475528 0
   vertex 0.00154508 0.00475528 0.05
  endloop
 endfacet
 facet normal 0.248702 0.96858 0
  outer loop
   vertex 0.00154508 0.00475528 0.05
   vertex 0.000936907 0.00491144 0
   vertex 0.000936907 0.00491144 0.05
  endloop
 endfacet
 facet normal 0.125322 0.992116 0
  outer loop
   vertex 0.000936907 0.00491144 0.05
   vertex 0.000936907 0.00491144 0
   vertex 0.000313953 0.00499013 0.05
  endloop
 endfacet
 facet normal 0.248702 0.96858 -0
  outer loop
   vertex 0.00154508 0.00475528 0
   vertex 0.000936907 0.00491144 0
   vertex 0.00154508 0.00475528 0.05
  endloop
 endfacet
 facet normal 0.125322 0.992116 0
  outer loop
   vertex 0.000936907 0.00491144 0
   vertex 0.000313953 0.00499013 0
   vertex 0.000313953 0.00499013 0.05
  endloop
 endfacet
 facet normal 0 1 0
  outer loop
   vertex 0.000313953 0.00499013 0.05
   vertex -0.000313953 0.00499013 0
   vertex -0.000313953 0.00499013 0.05
  endloop
 endfacet
 facet normal -0.125322 0.992116 0
  outer loop
   vertex -0.000313953 0.00499013 0.05
   vertex -0.000313953 0.00499013 0
   vertex -0.000936907 0.00491144 0.05
  endloop
 endfacet
 facet normal 0 1 -0
  outer loop
   vertex 0.000313953 0.00499013 0
   vertex -0.000313953 0.00499013 0
   vertex 0.000313953 0.00499013 0.05
  endloop
 endfacet
 facet normal -0.125322 0.992116 0
  outer loop
   vertex -0.000313953 0.00499013 0
   vertex -0.000936907 0.00491144 0
   vertex -0.000936907 0.00491144 0.05
  endloop
 endfacet
 facet normal -0.248702 0.96858 0
  outer loop
   vertex -0.000936907 0.00491144 0.05
   vertex -0.00154508 0.00475528 0
   vertex -0.00154508 0.00475528 0.05
  endloop
 endfacet
 facet normal -0.248702 0.96858 0
  outer loop
   vertex -0.000936907 0.00491144 0
   vertex -0.00154508 0.00475528 0
   vertex -0.000936907 0.00491144 0.05
  endloop
 endfacet
 facet normal -0.36811 0.929782 0
  outer loop
   vertex -0.00154508 0.00475528 0.05
   vertex -0.0021289 0.00452414 0
   vertex -0.0021289 0.00452414 0.05
  endloop
 endfacet
 facet normal -0.36811 0.929782 0
  outer loop
   vertex -0.00154508 0.00475528 0
   vertex -0.0021289 0.00452414 0
   vertex -0.00154508 0.00475528 0.05
  endloop
 endfacet
 facet normal -0.481764 0.876301 0
  outer loop
   vertex -0.0021289 0.00452414 0.05
   vertex -0.00267913 0.00422164 0
   vertex -0.00267913 0.00422164 0.05
  endloop
 endfacet
 facet normal -0.587779 0.809022 0
  outer loop
   vertex -0.00267913 0.00422164 0.05
   vertex -0.00267913 0.00422164 0
   vertex -0.00318712 0.00385257 0.05
  endloop
 endfacet
 facet normal -0.481764 0.876301 0
  outer loop
   vertex -0.0021289 0.00452414 0
   vertex -0.00267913 0.00422164 0
   vertex -0.0021289 0.00452414 0.05
  endloop
 endfacet
 facet normal -0.587779 0.809022 0
  outer loop
   vertex -0.00267913 0.00422164 0
   vertex -0.00318712 0.00385257 0
   vertex -0.00318712 0.00385257 0.05
  endloop
 endfacet
 facet normal -0.684549 0.728967 0
  outer loop
   vertex -0.00318712 0.00385257 0.05
   vertex -0.00364484 0.00342274 0
   vertex -0.00364484 0.00342274 0.05
  endloop
 endfacet
 facet normal -0.770507 0.637431 0
  outer loop
   vertex -0.00364484 0.00342274 0.05
   vertex -0.00364484 0.00342274 0
   vertex -0.00404509 0.00293893 0.05
  endloop
 endfacet
 facet normal -0.684549 0.728967 0
  outer loop
   vertex -0.00318712 0.00385257 0
   vertex -0.00364484 0.00342274 0
   vertex -0.00318712 0.00385257 0.05
  endloop
 endfacet
 facet normal -0.770507 0.637431 0
  outer loop
   vertex -0.00364484 0.00342274 0
   vertex -0.00404509 0.00293893 0
   vertex -0.00404509 0.00293893 0.05
  endloop
 endfacet
 facet normal -0.844335 0.535815 0
  outer loop
   vertex -0.00404509 0.00293893 0.05
   vertex -0.00438153 0.00240877 0
   vertex -0.00438153 0.00240877 0.05
  endloop
 endfacet
 facet normal -0.904828 0.425778 0
  outer loop
   vertex -0.00438153 0.00240877 0.05
   vertex -0.00438153 0.00240877 0
   vertex -0.00464888 0.00184062 0.05
  endloop
 endfacet
 facet normal -0.844335 0.535815 0
  outer loop
   vertex -0.00404509 0.00293893 0
   vertex -0.00438153 0.00240877 0
   vertex -0.00404509 0.00293893 0.05
  endloop
 endfacet
 facet normal -0.951053 0.309028 0
  outer loop
   vertex -0.00464888 0.00184062 0.05
   vertex -0.00464888 0.00184062 0
   vertex -0.00484292 0.00124345 0.05
  endloop
 endfacet
 facet normal -0.904828 0.425778 0
  outer loop
   vertex -0.00438153 0.00240877 0
   vertex -0.00464888 0.00184062 0
   vertex -0.00464888 0.00184062 0.05
  endloop
 endfacet
 facet normal -0.951053 0.309028 0
  outer loop
   vertex -0.00464888 0.00184062 0
   vertex -0.00484292 0.00124345 0
   vertex -0.00484292 0.00124345 0.05
  endloop
 endfacet
 facet normal -0.98229 0.187369 0
  outer loop
   vertex -0.00484292 0.00124345 0
   vertex -0.00496057 0.000626666 0
   vertex -0.00484292 0.00124345 0.05
  endloop
 endfacet
 facet normal -0.98229 0.187369 0
  outer loop
   vertex -0.00484292 0.00124345 0.05
   vertex -0.00496057 0.000626666 0
   vertex -0.00496057 0.000626666 0.05
  endloop
 endfacet
 facet normal -0.998026 0.0627957 0
  outer loop
   vertex -0.00496057 0.000626666 0
   vertex -0.005 -6.04901e-18 0
   vertex -0.00496057 0.000626666 0.05
  endloop
 endfacet
 facet normal -0.998026 0.0627957 0
  outer loop
   vertex -0.00496057 0.000626666 0.05
   vertex -0.005 -6.04901e-18 0
   vertex -0.005 -6.04901e-18 0.05
  endloop
 endfacet
 facet normal -0.998026 -0.0627957 0
  outer loop
   vertex -0.005 -6.04901e-18 0
   vertex -0.00496057 -0.000626666 0
   vertex -0.005 -6.04901e-18 0.05
  endloop
 endfacet
 facet normal -0.998026 -0.0627957 0
  outer loop
   vertex -0.005 -6.04901e-18 0.05
   vertex -0.00496057 -0.000626666 0
   vertex -0.00496057 -0.000626666 0.05
  endloop
 endfacet
 facet normal -0.98229 -0.187369 -0
  outer loop
   vertex -0.00496057 -0.000626666 0.05
   vertex -0.00496057 -0.000626666 0
   vertex -0.00484292 -0.00124345 0.05
  endloop
 endfacet
 facet normal -0.98229 -0.187369 0
  outer loop
   vertex -0.00496057 -0.000626666 0
   vertex -0.00484292 -0.00124345 0
   vertex -0.00484292 -0.00124345 0.05
  endloop
 endfacet
 facet normal -0.951053 -0.309028 0
  outer loop
   vertex -0.00484292 -0.00124345 0
   vertex -0.00464888 -0.00184062 0
   vertex -0.00484292 -0.00124345 0.05
  endloop
 endfacet
 facet normal -0.951053 -0.309028 0
  outer loop
   vertex -0.00484292 -0.00124345 0.05
   vertex -0.00464888 -0.00184062 0
   vertex -0.00464888 -0.00184062 0.05
  endloop
 endfacet
 facet normal -0.904828 -0.425778 0
  outer loop
   vertex -0.00464888 -0.00184062 0
   vertex -0.00438153 -0.00240877 0
   vertex -0.00464888 -0.00184062 0.05
  endloop
 endfacet
 facet normal -0.904828 -0.425778 0
  outer loop
   vertex -0.00464888 -0.00184062 0.05
   vertex -0.00438153 -0.00240877 0
   vertex -0.00438153 -0.00240877 0.05
  endloop
 endfacet
 facet normal -0.844335 -0.535815 0
  outer loop
   vertex -0.00438153 -0.00240877 0
   vertex -0.00404509 -0.00293893 0
   vertex -0.00438153 -0.00240877 0.05
  endloop
 endfacet
 facet normal -0.844335 -0.535815 0
  outer loop
   vertex -0.00438153 -0.00240877 0.05
   vertex -0.00404509 -0.00293893 0
   vertex -0.00404509 -0.00293893 0.05
  endloop
 endfacet
 facet normal -0.770507 -0.637431 0
  outer loop
   vertex -0.00404509 -0.00293893 0
   vertex -0.00364484 -0.00342274 0
   vertex -0.00404509 -0.00293893 0.05
  endloop
 endfacet
 facet normal -0.770507 -0.637431 0
  outer loop
   vertex -0.00404509 -0.00293893 0.05
   vertex -0.00364484 -0.00342274 0
   vertex -0.00364484 -0.00342274 0.05
  endloop
 endfacet
 facet normal -0.684549 -0.728967 0
  outer loop
   vertex -0.00364484 -0.00342274 0.05
   vertex -0.00318712 -0.00385257 0
   vertex -0.00318712 -0.00385257 0.05
  endloop
 endfacet
 facet normal -0.684549 -0.728967 0
  outer loop
   vertex -0.00364484 -0.00342274 0
   vertex -0.00318712 -0.00385257 0
   vertex -0.00364484 -0.00342274 0.05
  endloop
 endfacet
 facet normal -0.587779 -0.809022 0
  outer loop
   vertex -0.00318712 -0.00385257 0.05
   vertex -0.00267913 -0.00422164 0
   vertex -0.00267913 -0.00422164 0.05
  endloop
 endfacet
 facet normal -0.587779 -0.809022 0
  outer loop
   vertex -0.00318712 -0.00385257 0
   vertex -0.00267913 -0.00422164 0
   vertex -0.00318712 -0.00385257 0.05
  endloop
 endfacet
 facet normal -0.481764 -0.876301 0
  outer loop
   vertex -0.00267913 -0.00422164 0.05
   vertex -0.0021289 -0.00452414 0
   vertex -0.0021289 -0.00452414 0.05
  endloop
 endfacet
 facet normal -0.481764 -0.876301 0
  outer loop
   vertex -0.00267913 -0.00422164 0
   vertex -0.0021289 -0.00452414 0
   vertex -0.00267913 -0.00422164 0.05
  endloop
 endfacet
 facet normal -0.36811 -0.929782 0
  outer loop
   vertex -0.0021289 -0.00452414 0.05
   vertex -0.00154508 -0.00475528 0
   vertex -0.00154508 -0.00475528 0.05
  endloop
 endfacet
 facet normal -0.36811 -0.929782 0
  outer loop
   vertex -0.0021289 -0.00452414 0
   vertex -0.00154508 -0.00475528 0
   vertex -0.0021289 -0.00452414 0.05
  endloop
 endfacet
 facet normal -0.248702 -0.96858 0
  outer loop
   vertex -0.00154508 -0.00475528 0.05
   vertex -0.000936907 -0.00491144 0
   vertex -0.000936907 -0.00491144 0.05
  endloop
 endfacet
 facet normal -0.125322 -0.992116 -0
  outer loop
   vertex -0.000936907 -0.00491144 0.05
   vertex -0.000936907 -0.00491144 0
   vertex -0.000313953 -0.00499013 0.05
  endloop
 endfacet
 facet normal -0.248702 -0.96858 0
  outer loop
   vertex -0.00154508 -0.00475528 0
   vertex -0.000936907 -0.00491144 0
   vertex -0.00154508 -0.00475528 0.05
  endloop
 endfacet
 facet normal -0.125322 -0.992116 0
  outer loop
   vertex -0.000936907 -0.00491144 0
   vertex -0.000313953 -0.00499013 0
   vertex -0.000313953 -0.00499013 0.05
  endloop
 endfacet
 facet normal 0 -1 0
  outer loop
   vertex -0.000313953 -0.00499013 0.05
   vertex 0.000313953 -0.00499013 0
   vertex 0.000313953 -0.00499013 0.05
  endloop
 endfacet
 facet normal 0.125322 -0.992116 0
  outer loop
   vertex 0.000313953 -0.00499013 0.05
   vertex 0.000313953 -0.00499013 0
   vertex 0.000936907 -0.00491144 0.05
  endloop
 endfacet
 facet normal 0 -1 0
  outer loop
   vertex -0.000313953 -0.00499013 0
   vertex 0.000313953 -0.00499013 0
   vertex -0.000313953 -0.00499013 0.05
  endloop
 endfacet
 facet normal 0.125322 -0.992116 0
  outer loop
   vertex 0.000313953 -0.00499013 0
   vertex 0.000936907 -0.00491144 0
   vertex 0.000936907 -0.00491144 0.05
  endloop
 endfacet
 facet normal 0.248702 -0.96858 0
  outer loop
   vertex 0.000936907 -0.00491144 0.05
   vertex 0.00154508 -0.00475528 0
   vertex 0.00154508 -0.00475528 0.05
  endloop
 endfacet
 facet normal 0.36811 -0.929782 0
  outer loop
   vertex 0.00154508 -0.00475528 0.05
   vertex 0.00154508 -0.00475528 0
   vertex 0.0021289 -0.00452414 0.05
  endloop
 endfacet
 facet normal 0.248702 -0.96858 0
  outer loop
   vertex 0.000936907 -0.00491144 0
   vertex 0.00154508 -0.00475528 0
   vertex 0.000936907 -0.00491144 0.05
  endloop
 endfacet
 facet normal 0.36811 -0.929782 0
  outer loop
   vertex 0.00154508 -0.00475528 0
   vertex 0.0021289 -0.00452414 0
   vertex 0.0021289 -0.00452414 0.05
  endloop
 endfacet
 facet normal 0.481764 -0.876301 0
  outer loop
   vertex 0.0021289 -0.00452414 0.05
   vertex 0.00267913 -0.00422164 0
   vertex 0.00267913 -0.00422164 0.05
  endloop
 endfacet
 facet normal 0.481764 -0.876301 0
  outer loop
   vertex 0.0021289 -0.00452414 0
   vertex 0.00267913 -0.00422164 0
   vertex 0.0021289 -0.00452414 0.05
  endloop
 endfacet
 facet normal 0.587779 -0.809022 0
  outer loop
   vertex 0.00267913 -0.00422164 0.05
   vertex 0.00318712 -0.00385257 0
   vertex 0.00318712 -0.00385257 0.05
  endloop
 endfacet
 facet normal 0.587779 -0.809022 0
  outer loop
   vertex 0.00267913 -0.00422164 0
   vertex 0.00318712 -0.00385257 0
   vertex 0.00267913 -0.00422164 0.05
  endloop
 endfacet
 facet normal 0.684549 -0.728967 0
  outer loop
   vertex 0.00318712 -0.00385257 0.05
   vertex 0.00364484 -0.00342274 0
   vertex 0.00364484 -0.00342274 0.05
  endloop
 endfacet
 facet normal 0.770507 -0.637431 0
  outer loop
   vertex 0.00364484 -0.00342274 0.05
   vertex 0.00364484 -0.00342274 0
   vertex 0.00404509 -0.00293893 0.05
  endloop
 endfacet
 facet normal 0.684549 -0.728967 0
  outer loop
   vertex 0.00318712 -0.00385257 0
   vertex 0.00364484 -0.00342274 0
   vertex 0.00318712 -0.00385257 0.05
  endloop
 endfacet
 facet normal 0.770507 -0.637431 0
  outer loop
   vertex 0.00364484 -0.00342274 0
   vertex 0.00404509 -0.00293893 0
   vertex 0.00404509 -0.00293893 0.05
  endloop
 endfacet
 facet normal 0.844335 -0.535815 0
  outer loop
   vertex 0.00404509 -0.00293893 0.05
   vertex 0.00438153 -0.00240877 0
   vertex 0.00438153 -0.00240877 0.05
  endloop
 endfacet
 facet normal 0.904828 -0.425778 0
  outer loop
   vertex 0.00438153 -0.00240877 0.05
   vertex 0.00438153 -0.00240877 0
   vertex 0.00464888 -0.00184062 0.05
  endloop
 endfacet
 facet normal 0.844335 -0.535815 0
  outer loop
   vertex 0.00404509 -0.00293893 0
   vertex 0.00438153 -0.00240877 0
   vertex 0.00404509 -0.00293893 0.05
  endloop
 endfacet
 facet normal 0.904828 -0.425778 0
  outer loop
   vertex 0.00438153 -0.00240877 0
   vertex 0.00464888 -0.00184062 0
   vertex 0.00464888 -0.00184062 0.05
  endloop
 endfacet
 facet normal 0.951053 -0.309028 0
  outer loop
   vertex 0.00464888 -0.00184062 0.05
   vertex 0.00484292 -0.00124345 0
   vertex 0.00484292 -0.00124345 0.05
  endloop
 endfacet
 facet normal 0.951053 -0.309028 0
  outer loop
   vertex 0.00464888 -0.00184062 0
   vertex 0.00484292 -0.00124345 0
   vertex 0.00464888 -0.00184062 0.05
  endloop
 endfacet
 facet normal 0.98229 -0.187369 0
  outer loop
   vertex 0.00484292 -0.00124345 0
   vertex 0.00496057 -0.000626666 0
   vertex 0.00484292 -0.00124345 0.05
  endloop
 endfacet
 facet normal 0.98229 -0.187369 0
  outer loop
   vertex 0.00484292 -0.00124345 0.05
   vertex 0.00496057 -0.000626666 0
   vertex 0.00496057 -0.000626666 0.05
  endloop
 endfacet
 facet normal 0.998026 -0.0627957 0
  outer loop
   vertex 0.00496057 -0.000626666 0
   vertex 0.005 -1e-18 0
   vertex 0.00496057 -0.000626666 0.05
  endloop
 endfacet
 facet normal 0.998026 -0.0627957 0
  outer loop
   vertex 0.00496057 -0.000626666 0.05
   vertex 0.005 -1e-18 0
   vertex 0.005 -1e-18 0.05
  endloop
 endfacet
endsolid interface
