solid cylinder
 facet normal 0 0.0627907 0.998027
  outer loop
   vertex 0 0.0250666 0.198423
   vertex 0 0 0.2
   vertex 5 0.0250666 0.198423
  endloop
 endfacet
 facet normal -0 0.0627907 0.998027
  outer loop
   vertex 5 0.0250666 0.198423
   vertex 0 0 0.2
   vertex 5 0 0.2
  endloop
 endfacet
 facet normal 0 0.187381 0.982287
  outer loop
   vertex 0 0.049738 0.193717
   vertex 0 0.0250666 0.198423
   vertex 5 0.049738 0.193717
  endloop
 endfacet
 facet normal -0 0.187381 0.982287
  outer loop
   vertex 5 0.049738 0.193717
   vertex 0 0.0250666 0.198423
   vertex 5 0.0250666 0.198423
  endloop
 endfacet
 facet normal 0 0.309017 0.951057
  outer loop
   vertex 0 0.0736249 0.185955
   vertex 0 0.049738 0.193717
   vertex 5 0.0736249 0.185955
  endloop
 endfacet
 facet normal -0 0.309017 0.951057
  outer loop
   vertex 5 0.0736249 0.185955
   vertex 0 0.049738 0.193717
   vertex 5 0.049738 0.193717
  endloop
 endfacet
 facet normal 0 0.425779 0.904827
  outer loop
   vertex 0 0.0963507 0.175261
   vertex 0 0.0736249 0.185955
   vertex 5 0.0963507 0.175261
  endloop
 endfacet
 facet normal -0 0.425779 0.904827
  outer loop
   vertex 5 0.0963507 0.175261
   vertex 0 0.0736249 0.185955
   vertex 5 0.0736249 0.185955
  endloop
 endfacet
 facet normal 0 0.535827 0.844328
  outer loop
   vertex 0 0.117557 0.161803
   vertex 0 0.0963507 0.175261
   vertex 5 0.117557 0.161803
  endloop
 endfacet
 facet normal -0 0.535827 0.844328
  outer loop
   vertex 5 0.117557 0.161803
   vertex 0 0.0963507 0.175261
   vertex 5 0.0963507 0.175261
  endloop
 endfacet
 facet normal 0 0.637424 0.770513
  outer loop
   vertex 0 0.136909 0.145794
   vertex 0 0.117557 0.161803
   vertex 5 0.136909 0.145794
  endloop
 endfacet
 facet normal -0 0.637424 0.770513
  outer loop
   vertex 5 0.136909 0.145794
   vertex 0 0.117557 0.161803
   vertex 5 0.117557 0.161803
  endloop
 endfacet
 facet normal 0 0.728969 0.684547
  outer loop
   vertex 0 0.154103 0.127485
   vertex 0 0.136909 0.145794
   vertex 5 0.154103 0.127485
  endloop
 endfacet
 facet normal -0 0.728969 0.684547
  outer loop
   vertex 5 0.154103 0.127485
   vertex 0 0.136909 0.145794
   vertex 5 0.136909 0.145794
  endloop
 endfacet
 facet normal 0 0.809017 0.587785
  outer loop
   vertex 0 0.168866 0.107165
   vertex 0 0.154103 0.127485
   vertex 5 0.168866 0.107165
  endloop
 endfacet
 facet normal -0 0.809017 0.587785
  outer loop
   vertex 5 0.168866 0.107165
   vertex 0 0.154103 0.127485
   vertex 5 0.154103 0.127485
  endloop
 endfacet
 facet normal 0 0.876307 0.481753
  outer loop
   vertex 0 0.180965 0.0851559
   vertex 0 0.168866 0.107165
   vertex 5 0.180965 0.0851559
  endloop
 endfacet
 facet normal -0 0.876307 0.481753
  outer loop
   vertex 5 0.180965 0.0851559
   vertex 0 0.168866 0.107165
   vertex 5 0.168866 0.107165
  endloop
 endfacet
 facet normal 0 0.929777 0.368124
  outer loop
   vertex 0 0.190211 0.0618034
   vertex 0 0.180965 0.0851559
   vertex 5 0.190211 0.0618034
  endloop
 endfacet
 facet normal -0 0.929777 0.368124
  outer loop
   vertex 5 0.190211 0.0618034
   vertex 0 0.180965 0.0851559
   vertex 5 0.180965 0.0851559
  endloop
 endfacet
 facet normal 0 0.968583 0.24869
  outer loop
   vertex 0 0.196457 0.0374763
   vertex 0 0.190211 0.0618034
   vertex 5 0.196457 0.0374763
  endloop
 endfacet
 facet normal -0 0.968583 0.24869
  outer loop
   vertex 5 0.196457 0.0374763
   vertex 0 0.190211 0.0618034
   vertex 5 0.190211 0.0618034
  endloop
 endfacet
 facet normal 0 0.992115 0.125333
  outer loop
   vertex 0 0.199605 0.0125581
   vertex 0 0.196457 0.0374763
   vertex 5 0.199605 0.0125581
  endloop
 endfacet
 facet normal -0 0.992115 0.125333
  outer loop
   vertex 5 0.199605 0.0125581
   vertex 0 0.196457 0.0374763
   vertex 5 0.196457 0.0374763
  endloop
 endfacet
 facet normal 0 1 0
  outer loop
   vertex 0 0.199605 -0.0125581
   vertex 0 0.199605 0.0125581
   vertex 5 0.199605 -0.0125581
  endloop
 endfacet
 facet normal -0 1 0
  outer loop
   vertex 5 0.199605 -0.0125581
   vertex 0 0.199605 0.0125581
   vertex 5 0.199605 0.0125581
  endloop
 endfacet
 facet normal 0 0.992115 -0.125333
  outer loop
   vertex 0 0.196457 -0.0374763
   vertex 0 0.199605 -0.0125581
   vertex 5 0.196457 -0.0374763
  endloop
 endfacet
 facet normal 0 0.992115 -0.125333
  outer loop
   vertex 5 0.196457 -0.0374763
   vertex 0 0.199605 -0.0125581
   vertex 5 0.199605 -0.0125581
  endloop
 endfacet
 facet normal 0 0.968583 -0.24869
  outer loop
   vertex 0 0.190211 -0.0618034
   vertex 0 0.196457 -0.0374763
   vertex 5 0.190211 -0.0618034
  endloop
 endfacet
 facet normal 0 0.968583 -0.24869
  outer loop
   vertex 5 0.190211 -0.0618034
   vertex 0 0.196457 -0.0374763
   vertex 5 0.196457 -0.0374763
  endloop
 endfacet
 facet normal 0 0.929777 -0.368124
  outer loop
   vertex 0 0.180965 -0.0851559
   vertex 0 0.190211 -0.0618034
   vertex 5 0.180965 -0.0851559
  endloop
 endfacet
 facet normal 0 0.929777 -0.368124
  outer loop
   vertex 5 0.180965 -0.0851559
   vertex 0 0.190211 -0.0618034
   vertex 5 0.190211 -0.0618034
  endloop
 endfacet
 facet normal 0 0.876307 -0.481753
  outer loop
   vertex 0 0.168866 -0.107165
   vertex 0 0.180965 -0.0851559
   vertex 5 0.168866 -0.107165
  endloop
 endfacet
 facet normal 0 0.876307 -0.481753
  outer loop
   vertex 5 0.168866 -0.107165
   vertex 0 0.180965 -0.0851559
   vertex 5 0.180965 -0.0851559
  endloop
 endfacet
 facet normal 0 0.809017 -0.587785
  outer loop
   vertex 0 0.154103 -0.127485
   vertex 0 0.168866 -0.107165
   vertex 5 0.154103 -0.127485
  endloop
 endfacet
 facet normal 0 0.809017 -0.587785
  outer loop
   vertex 5 0.154103 -0.127485
   vertex 0 0.168866 -0.107165
   vertex 5 0.168866 -0.107165
  endloop
 endfacet
 facet normal 0 0.728969 -0.684547
  outer loop
   vertex 0 0.136909 -0.145794
   vertex 0 0.154103 -0.127485
   vertex 5 0.136909 -0.145794
  endloop
 endfacet
 facet normal 0 0.728969 -0.684547
  outer loop
   vertex 5 0.136909 -0.145794
   vertex 0 0.154103 -0.127485
   vertex 5 0.154103 -0.127485
  endloop
 endfacet
 facet normal 0 0.637424 -0.770513
  outer loop
   vertex 0 0.117557 -0.161803
   vertex 0 0.136909 -0.145794
   vertex 5 0.117557 -0.161803
  endloop
 endfacet
 facet normal 0 0.637424 -0.770513
  outer loop
   vertex 5 0.117557 -0.161803
   vertex 0 0.136909 -0.145794
   vertex 5 0.136909 -0.145794
  endloop
 endfacet
 facet normal 0 0.535827 -0.844328
  outer loop
   vertex 0 0.0963507 -0.175261
   vertex 0 0.117557 -0.161803
   vertex 5 0.0963507 -0.175261
  endloop
 endfacet
 facet normal 0 0.535827 -0.844328
  outer loop
   vertex 5 0.0963507 -0.175261
   vertex 0 0.117557 -0.161803
   vertex 5 0.117557 -0.161803
  endloop
 endfacet
 facet normal 0 0.425779 -0.904827
  outer loop
   vertex 0 0.0736249 -0.185955
   vertex 0 0.0963507 -0.175261
   vertex 5 0.0736249 -0.185955
  endloop
 endfacet
 facet normal 0 0.425779 -0.904827
  outer loop
   vertex 5 0.0736249 -0.185955
   vertex 0 0.0963507 -0.175261
   vertex 5 0.0963507 -0.175261
  endloop
 endfacet
 facet normal 0 0.309017 -0.951057
  outer loop
   vertex 0 0.049738 -0.193717
   vertex 0 0.0736249 -0.185955
   vertex 5 0.049738 -0.193717
  endloop
 endfacet
 facet normal 0 0.309017 -0.951057
  outer loop
   vertex 5 0.049738 -0.193717
   vertex 0 0.0736249 -0.185955
   vertex 5 0.0736249 -0.185955
  endloop
 endfacet
 facet normal 0 0.187381 -0.982287
  outer loop
   vertex 0 0.0250666 -0.198423
   vertex 0 0.049738 -0.193717
   vertex 5 0.0250666 -0.198423
  endloop
 endfacet
 facet normal 0 0.187381 -0.982287
  outer loop
   vertex 5 0.0250666 -0.198423
   vertex 0 0.049738 -0.193717
   vertex 5 0.049738 -0.193717
  endloop
 endfacet
 facet normal 0 0.0627907 -0.998027
  outer loop
   vertex 0 -6.43249e-17 -0.2
   vertex 0 0.0250666 -0.198423
   vertex 5 -6.43249e-17 -0.2
  endloop
 endfacet
 facet normal 0 0.0627907 -0.998027
  outer loop
   vertex 5 -6.43249e-17 -0.2
   vertex 0 0.0250666 -0.198423
   vertex 5 0.0250666 -0.198423
  endloop
 endfacet
 facet normal 0 -0.0627907 -0.998027
  outer loop
   vertex 0 -0.0250666 -0.198423
   vertex 0 -6.43249e-17 -0.2
   vertex 5 -0.0250666 -0.198423
  endloop
 endfacet
 facet normal 0 -0.0627907 -0.998027
  outer loop
   vertex 5 -0.0250666 -0.198423
   vertex 0 -6.43249e-17 -0.2
   vertex 5 -6.43249e-17 -0.2
  endloop
 endfacet
 facet normal 0 -0.187381 -0.982287
  outer loop
   vertex 0 -0.049738 -0.193717
   vertex 0 -0.0250666 -0.198423
   vertex 5 -0.049738 -0.193717
  endloop
 endfacet
 facet normal 0 -0.187381 -0.982287
  outer loop
   vertex 5 -0.049738 -0.193717
   vertex 0 -0.0250666 -0.198423
   vertex 5 -0.0250666 -0.198423
  endloop
 endfacet
 facet normal 0 -0.309017 -0.951057
  outer loop
   vertex 0 -0.0736249 -0.185955
   vertex 0 -0.049738 -0.193717
   vertex 5 -0.0736249 -0.185955
  endloop
 endfacet
 facet normal 0 -0.309017 -0.951057
  outer loop
   vertex 5 -0.0736249 -0.185955
   vertex 0 -0.049738 -0.193717
   vertex 5 -0.049738 -0.193717
  endloop
 endfacet
 facet normal 0 -0.425779 -0.904827
  outer loop
   vertex 0 -0.0963507 -0.175261
   vertex 0 -0.0736249 -0.185955
   vertex 5 -0.0963507 -0.175261
  endloop
 endfacet
 facet normal 0 -0.425779 -0.904827
  outer loop
   vertex 5 -0.0963507 -0.175261
   vertex 0 -0.0736249 -0.185955
   vertex 5 -0.0736249 -0.185955
  endloop
 endfacet
 facet normal 0 -0.535827 -0.844328
  outer loop
   vertex 0 -0.117557 -0.161803
   vertex 0 -0.0963507 -0.175261
   vertex 5 -0.117557 -0.161803
  endloop
 endfacet
 facet normal 0 -0.535827 -0.844328
  outer loop
   vertex 5 -0.117557 -0.161803
   vertex 0 -0.0963507 -0.175261
   vertex 5 -0.0963507 -0.175261
  endloop
 endfacet
 facet normal 0 -0.637424 -0.770513
  outer loop
   vertex 0 -0.136909 -0.145794
   vertex 0 -0.117557 -0.161803
   vertex 5 -0.136909 -0.145794
  endloop
 endfacet
 facet normal 0 -0.637424 -0.770513
  outer loop
   vertex 5 -0.136909 -0.145794
   vertex 0 -0.117557 -0.161803
   vertex 5 -0.117557 -0.161803
  endloop
 endfacet
 facet normal 0 -0.728969 -0.684547
  outer loop
   vertex 0 -0.154103 -0.127485
   vertex 0 -0.136909 -0.145794
   vertex 5 -0.154103 -0.127485
  endloop
 endfacet
 facet normal 0 -0.728969 -0.684547
  outer loop
   vertex 5 -0.154103 -0.127485
   vertex 0 -0.136909 -0.145794
   vertex 5 -0.136909 -0.145794
  endloop
 endfacet
 facet normal 0 -0.809017 -0.587785
  outer loop
   vertex 0 -0.168866 -0.107165
   vertex 0 -0.154103 -0.127485
   vertex 5 -0.168866 -0.107165
  endloop
 endfacet
 facet normal 0 -0.809017 -0.587785
  outer loop
   vertex 5 -0.168866 -0.107165
   vertex 0 -0.154103 -0.127485
   vertex 5 -0.154103 -0.127485
  endloop
 endfacet
 facet normal 0 -0.876307 -0.481753
  outer loop
   vertex 0 -0.180965 -0.0851559
   vertex 0 -0.168866 -0.107165
   vertex 5 -0.180965 -0.0851559
  endloop
 endfacet
 facet normal 0 -0.876307 -0.481753
  outer loop
   vertex 5 -0.180965 -0.0851559
   vertex 0 -0.168866 -0.107165
   vertex 5 -0.168866 -0.107165
  endloop
 endfacet
 facet normal 0 -0.929777 -0.368124
  outer loop
   vertex 0 -0.190211 -0.0618034
   vertex 0 -0.180965 -0.0851559
   vertex 5 -0.190211 -0.0618034
  endloop
 endfacet
 facet normal 0 -0.929777 -0.368124
  outer loop
   vertex 5 -0.190211 -0.0618034
   vertex 0 -0.180965 -0.0851559
   vertex 5 -0.180965 -0.0851559
  endloop
 endfacet
 facet normal 0 -0.968583 -0.24869
  outer loop
   vertex 0 -0.196457 -0.0374763
   vertex 0 -0.190211 -0.0618034
   vertex 5 -0.196457 -0.0374763
  endloop
 endfacet
 facet normal 0 -0.968583 -0.24869
  outer loop
   vertex 5 -0.196457 -0.0374763
   vertex 0 -0.190211 -0.0618034
   vertex 5 -0.190211 -0.0618034
  endloop
 endfacet
 facet normal 0 -0.992115 -0.125333
  outer loop
   vertex 0 -0.199605 -0.0125581
   vertex 0 -0.196457 -0.0374763
   vertex 5 -0.199605 -0.0125581
  endloop
 endfacet
 facet normal 0 -0.992115 -0.125333
  outer loop
   vertex 5 -0.199605 -0.0125581
   vertex 0 -0.196457 -0.0374763
   vertex 5 -0.196457 -0.0374763
  endloop
 endfacet
 facet normal 0 -1 0
  outer loop
   vertex 0 -0.199605 0.0125581
   vertex 0 -0.199605 -0.0125581
   vertex 5 -0.199605 0.0125581
  endloop
 endfacet
 facet normal 0 -1 0
  outer loop
   vertex 5 -0.199605 0.0125581
   vertex 0 -0.199605 -0.0125581
   vertex 5 -0.199605 -0.0125581
  endloop
 endfacet
 facet normal 0 -0.992115 0.125333
  outer loop
   vertex 0 -0.196457 0.0374763
   vertex 0 -0.199605 0.0125581
   vertex 5 -0.196457 0.0374763
  endloop
 endfacet
 facet normal 0 -0.992115 0.125333
  outer loop
   vertex 5 -0.196457 0.0374763
   vertex 0 -0.199605 0.0125581
   vertex 5 -0.199605 0.0125581
  endloop
 endfacet
 facet normal 0 -0.968583 0.24869
  outer loop
   vertex 0 -0.190211 0.0618034
   vertex 0 -0.196457 0.0374763
   vertex 5 -0.190211 0.0618034
  endloop
 endfacet
 facet normal 0 -0.968583 0.24869
  outer loop
   vertex 5 -0.190211 0.0618034
   vertex 0 -0.196457 0.0374763
   vertex 5 -0.196457 0.0374763
  endloop
 endfacet
 facet normal 0 -0.929777 0.368124
  outer loop
   vertex 0 -0.180965 0.0851559
   vertex 0 -0.190211 0.0618034
   vertex 5 -0.180965 0.0851559
  endloop
 endfacet
 facet normal 0 -0.929777 0.368124
  outer loop
   vertex 5 -0.180965 0.0851559
   vertex 0 -0.190211 0.0618034
   vertex 5 -0.190211 0.0618034
  endloop
 endfacet
 facet normal 0 -0.876307 0.481753
  outer loop
   vertex 0 -0.168866 0.107165
   vertex 0 -0.180965 0.0851559
   vertex 5 -0.168866 0.107165
  endloop
 endfacet
 facet normal 0 -0.876307 0.481753
  outer loop
   vertex 5 -0.168866 0.107165
   vertex 0 -0.180965 0.0851559
   vertex 5 -0.180965 0.0851559
  endloop
 endfacet
 facet normal 0 -0.809017 0.587785
  outer loop
   vertex 0 -0.154103 0.127485
   vertex 0 -0.168866 0.107165
   vertex 5 -0.154103 0.127485
  endloop
 endfacet
 facet normal 0 -0.809017 0.587785
  outer loop
   vertex 5 -0.154103 0.127485
   vertex 0 -0.168866 0.107165
   vertex 5 -0.168866 0.107165
  endloop
 endfacet
 facet normal 0 -0.728969 0.684547
  outer loop
   vertex 0 -0.136909 0.145794
   vertex 0 -0.154103 0.127485
   vertex 5 -0.136909 0.145794
  endloop
 endfacet
 facet normal 0 -0.728969 0.684547
  outer loop
   vertex 5 -0.136909 0.145794
   vertex 0 -0.154103 0.127485
   vertex 5 -0.154103 0.127485
  endloop
 endfacet
 facet normal 0 -0.637424 0.770513
  outer loop
   vertex 0 -0.117557 0.161803
   vertex 0 -0.136909 0.145794
   vertex 5 -0.117557 0.161803
  endloop
 endfacet
 facet normal 0 -0.637424 0.770513
  outer loop
   vertex 5 -0.117557 0.161803
   vertex 0 -0.136909 0.145794
   vertex 5 -0.136909 0.145794
  endloop
 endfacet
 facet normal 0 -0.535827 0.844328
  outer loop
   vertex 0 -0.0963507 0.175261
   vertex 0 -0.117557 0.161803
   vertex 5 -0.0963507 0.175261
  endloop
 endfacet
 facet normal 0 -0.535827 0.844328
  outer loop
   vertex 5 -0.0963507 0.175261
   vertex 0 -0.117557 0.161803
   vertex 5 -0.117557 0.161803
  endloop
 endfacet
 facet normal 0 -0.425779 0.904827
  outer loop
   vertex 0 -0.0736249 0.185955
   vertex 0 -0.0963507 0.175261
   vertex 5 -0.0736249 0.185955
  endloop
 endfacet
 facet normal 0 -0.425779 0.904827
  outer loop
   vertex 5 -0.0736249 0.185955
   vertex 0 -0.0963507 0.175261
   vertex 5 -0.0963507 0.175261
  endloop
 endfacet
 facet normal 0 -0.309017 0.951057
  outer loop
   vertex 0 -0.049738 0.193717
   vertex 0 -0.0736249 0.185955
   vertex 5 -0.049738 0.193717
  endloop
 endfacet
 facet normal 0 -0.309017 0.951057
  outer loop
   vertex 5 -0.049738 0.193717
   vertex 0 -0.0736249 0.185955
   vertex 5 -0.0736249 0.185955
  endloop
 endfacet
 facet normal 0 -0.187381 0.982287
  outer loop
   vertex 0 -0.0250666 0.198423
   vertex 0 -0.049738 0.193717
   vertex 5 -0.0250666 0.198423
  endloop
 endfacet
 facet normal 0 -0.187381 0.982287
  outer loop
   vertex 5 -0.0250666 0.198423
   vertex 0 -0.049738 0.193717
   vertex 5 -0.049738 0.193717
  endloop
 endfacet
 facet normal 0 -0.0627907 0.998027
  outer loop
   vertex 0 0 0.2
   vertex 0 -0.0250666 0.198423
   vertex 5 0 0.2
  endloop
 endfacet
 facet normal 0 -0.0627907 0.998027
  outer loop
   vertex 5 0 0.2
   vertex 0 -0.0250666 0.198423
   vertex 5 -0.0250666 0.198423
  endloop
 endfacet
endsolid cylinder
