solid Visualization Toolkit generated SLA File
 facet normal -0.724248 -0.68954 0
  outer loop
   vertex 0.114142 0.0641421 0
   vertex 0.114819 0.0634312 0
   vertex 0.114142 0.0641421 0.01
  endloop
 endfacet
 facet normal -0.724248 -0.68954 0
  outer loop
   vertex 0.114819 0.0634312 0.01
   vertex 0.114142 0.0641421 0.01
   vertex 0.114819 0.0634312 0
  endloop
 endfacet
 facet normal -0.757208 -0.653174 0
  outer loop
   vertex 0.114819 0.0634312 0
   vertex 0.11546 0.0626879 0
   vertex 0.114819 0.0634312 0.01
  endloop
 endfacet
 facet normal -0.757208 -0.653174 0
  outer loop
   vertex 0.11546 0.0626879 0.01
   vertex 0.114819 0.0634312 0.01
   vertex 0.11546 0.0626879 0
  endloop
 endfacet
 facet normal -0.788346 -0.615233 0
  outer loop
   vertex 0.11546 0.0626879 0
   vertex 0.116064 0.061914 0
   vertex 0.11546 0.0626879 0.01
  endloop
 endfacet
 facet normal -0.788346 -0.615233 0
  outer loop
   vertex 0.116064 0.061914 0.01
   vertex 0.11546 0.0626879 0.01
   vertex 0.116064 0.061914 0
  endloop
 endfacet
 facet normal -0.817586 -0.575806 0
  outer loop
   vertex 0.116064 0.061914 0
   vertex 0.116629 0.0611114 0
   vertex 0.116064 0.061914 0.01
  endloop
 endfacet
 facet normal -0.817586 -0.575806 0
  outer loop
   vertex 0.116629 0.0611114 0.01
   vertex 0.116064 0.061914 0.01
   vertex 0.116629 0.0611114 0
  endloop
 endfacet
 facet normal -0.844855 -0.534995 0
  outer loop
   vertex 0.116629 0.0611114 0
   vertex 0.117155 0.0602821 0
   vertex 0.116629 0.0611114 0.01
  endloop
 endfacet
 facet normal -0.844855 -0.534995 0
  outer loop
   vertex 0.117155 0.0602821 0.01
   vertex 0.116629 0.0611114 0.01
   vertex 0.117155 0.0602821 0
  endloop
 endfacet
 facet normal -0.870086 -0.4929 0
  outer loop
   vertex 0.117155 0.0602821 0
   vertex 0.117638 0.0594279 0
   vertex 0.117155 0.0602821 0.01
  endloop
 endfacet
 facet normal -0.870086 -0.4929 -0
  outer loop
   vertex 0.117638 0.0594279 0
   vertex 0.117638 0.0594279 0.01
   vertex 0.117155 0.0602821 0.01
  endloop
 endfacet
 facet normal -0.893222 -0.449615 0
  outer loop
   vertex 0.117638 0.0594279 0
   vertex 0.11808 0.0585511 0
   vertex 0.117638 0.0594279 0.01
  endloop
 endfacet
 facet normal -0.893222 -0.449615 0
  outer loop
   vertex 0.11808 0.0585511 0.01
   vertex 0.117638 0.0594279 0.01
   vertex 0.11808 0.0585511 0
  endloop
 endfacet
 facet normal -0.914211 -0.405238 0
  outer loop
   vertex 0.11808 0.0585511 0
   vertex 0.118478 0.0576537 0
   vertex 0.11808 0.0585511 0.01
  endloop
 endfacet
 facet normal -0.914211 -0.405238 0
  outer loop
   vertex 0.118478 0.0576537 0.01
   vertex 0.11808 0.0585511 0.01
   vertex 0.118478 0.0576537 0
  endloop
 endfacet
 facet normal -0.932993 -0.359895 0
  outer loop
   vertex 0.118478 0.0576537 0
   vertex 0.118831 0.0567378 0
   vertex 0.118478 0.0576537 0.01
  endloop
 endfacet
 facet normal -0.932993 -0.359895 0
  outer loop
   vertex 0.118831 0.0567378 0.01
   vertex 0.118478 0.0576537 0.01
   vertex 0.118831 0.0567378 0
  endloop
 endfacet
 facet normal -0.949528 -0.313682 0
  outer loop
   vertex 0.118831 0.0567378 0
   vertex 0.119139 0.0558057 0
   vertex 0.118831 0.0567378 0.01
  endloop
 endfacet
 facet normal -0.949528 -0.313682 0
  outer loop
   vertex 0.119139 0.0558057 0.01
   vertex 0.118831 0.0567378 0.01
   vertex 0.119139 0.0558057 0
  endloop
 endfacet
 facet normal -0.963775 -0.266715 0
  outer loop
   vertex 0.119139 0.0558057 0
   vertex 0.119401 0.0548596 0
   vertex 0.119139 0.0558057 0.01
  endloop
 endfacet
 facet normal -0.963775 -0.266715 -0
  outer loop
   vertex 0.119401 0.0548596 0
   vertex 0.119401 0.0548596 0.01
   vertex 0.119139 0.0558057 0.01
  endloop
 endfacet
 facet normal -0.975703 -0.219097 0
  outer loop
   vertex 0.119401 0.0548596 0
   vertex 0.119616 0.0539018 0
   vertex 0.119401 0.0548596 0.01
  endloop
 endfacet
 facet normal -0.975703 -0.219097 0
  outer loop
   vertex 0.119616 0.0539018 0.01
   vertex 0.119401 0.0548596 0.01
   vertex 0.119616 0.0539018 0
  endloop
 endfacet
 facet normal -0.985278 -0.170962 0
  outer loop
   vertex 0.119616 0.0539018 0
   vertex 0.119784 0.0529346 0
   vertex 0.119616 0.0539018 0.01
  endloop
 endfacet
 facet normal -0.985278 -0.170962 0
  outer loop
   vertex 0.119784 0.0529346 0.01
   vertex 0.119616 0.0539018 0.01
   vertex 0.119784 0.0529346 0
  endloop
 endfacet
 facet normal -0.99248 -0.122409 0
  outer loop
   vertex 0.119784 0.0529346 0
   vertex 0.119904 0.0519603 0
   vertex 0.119784 0.0529346 0.01
  endloop
 endfacet
 facet normal -0.99248 -0.122409 0
  outer loop
   vertex 0.119904 0.0519603 0.01
   vertex 0.119784 0.0529346 0.01
   vertex 0.119904 0.0519603 0
  endloop
 endfacet
 facet normal -0.99729 -0.0735686 0
  outer loop
   vertex 0.119904 0.0519603 0
   vertex 0.119976 0.0509814 0
   vertex 0.119904 0.0519603 0.01
  endloop
 endfacet
 facet normal -0.99729 -0.0735686 0
  outer loop
   vertex 0.119976 0.0509814 0.01
   vertex 0.119904 0.0519603 0.01
   vertex 0.119976 0.0509814 0
  endloop
 endfacet
 facet normal -0.999699 -0.024538 0
  outer loop
   vertex 0.119976 0.0509814 0
   vertex 0.12 0.05 0
   vertex 0.119976 0.0509814 0.01
  endloop
 endfacet
 facet normal -0.999699 -0.024538 0
  outer loop
   vertex 0.119976 0.0509814 0.01
   vertex 0.12 0.05 0
   vertex 0.12 0.05 0.01
  endloop
 endfacet
 facet normal -0.999699 0.024538 0
  outer loop
   vertex 0.12 0.05 0
   vertex 0.119976 0.0490186 0
   vertex 0.12 0.05 0.01
  endloop
 endfacet
 facet normal -0.999699 0.024538 0
  outer loop
   vertex 0.119976 0.0490186 0.01
   vertex 0.12 0.05 0.01
   vertex 0.119976 0.0490186 0
  endloop
 endfacet
 facet normal -0.99729 0.0735683 0
  outer loop
   vertex 0.119976 0.0490186 0
   vertex 0.119904 0.0480397 0
   vertex 0.119976 0.0490186 0.01
  endloop
 endfacet
 facet normal -0.99729 0.0735683 0
  outer loop
   vertex 0.119904 0.0480397 0.01
   vertex 0.119976 0.0490186 0.01
   vertex 0.119904 0.0480397 0
  endloop
 endfacet
 facet normal -0.99248 0.12241 0
  outer loop
   vertex 0.119904 0.0480397 0
   vertex 0.119784 0.0470654 0
   vertex 0.119904 0.0480397 0.01
  endloop
 endfacet
 facet normal -0.99248 0.12241 0
  outer loop
   vertex 0.119784 0.0470654 0.01
   vertex 0.119904 0.0480397 0.01
   vertex 0.119784 0.0470654 0
  endloop
 endfacet
 facet normal -0.985278 0.170962 0
  outer loop
   vertex 0.119784 0.0470654 0
   vertex 0.119616 0.0460982 0
   vertex 0.119784 0.0470654 0.01
  endloop
 endfacet
 facet normal -0.985278 0.170962 0
  outer loop
   vertex 0.119616 0.0460982 0.01
   vertex 0.119784 0.0470654 0.01
   vertex 0.119616 0.0460982 0
  endloop
 endfacet
 facet normal -0.975703 0.219097 0
  outer loop
   vertex 0.119616 0.0460982 0
   vertex 0.119401 0.0451404 0
   vertex 0.119616 0.0460982 0.01
  endloop
 endfacet
 facet normal -0.975703 0.219097 0
  outer loop
   vertex 0.119401 0.0451404 0.01
   vertex 0.119616 0.0460982 0.01
   vertex 0.119401 0.0451404 0
  endloop
 endfacet
 facet normal -0.963775 0.266715 0
  outer loop
   vertex 0.119401 0.0451404 0
   vertex 0.119139 0.0441943 0
   vertex 0.119401 0.0451404 0.01
  endloop
 endfacet
 facet normal -0.963775 0.266715 0
  outer loop
   vertex 0.119139 0.0441943 0
   vertex 0.119139 0.0441943 0.01
   vertex 0.119401 0.0451404 0.01
  endloop
 endfacet
 facet normal -0.949528 0.313681 0
  outer loop
   vertex 0.119139 0.0441943 0
   vertex 0.118831 0.0432622 0
   vertex 0.119139 0.0441943 0.01
  endloop
 endfacet
 facet normal -0.949528 0.313681 0
  outer loop
   vertex 0.118831 0.0432622 0.01
   vertex 0.119139 0.0441943 0.01
   vertex 0.118831 0.0432622 0
  endloop
 endfacet
 facet normal -0.932992 0.359896 0
  outer loop
   vertex 0.118831 0.0432622 0
   vertex 0.118478 0.0423463 0
   vertex 0.118831 0.0432622 0.01
  endloop
 endfacet
 facet normal -0.932992 0.359896 0
  outer loop
   vertex 0.118478 0.0423463 0.01
   vertex 0.118831 0.0432622 0.01
   vertex 0.118478 0.0423463 0
  endloop
 endfacet
 facet normal -0.914211 0.405238 0
  outer loop
   vertex 0.118478 0.0423463 0
   vertex 0.11808 0.0414489 0
   vertex 0.118478 0.0423463 0.01
  endloop
 endfacet
 facet normal -0.914211 0.405238 0
  outer loop
   vertex 0.11808 0.0414489 0.01
   vertex 0.118478 0.0423463 0.01
   vertex 0.11808 0.0414489 0
  endloop
 endfacet
 facet normal -0.893222 0.449615 0
  outer loop
   vertex 0.11808 0.0414489 0
   vertex 0.117638 0.0405721 0
   vertex 0.11808 0.0414489 0.01
  endloop
 endfacet
 facet normal -0.893222 0.449615 0
  outer loop
   vertex 0.117638 0.0405721 0.01
   vertex 0.11808 0.0414489 0.01
   vertex 0.117638 0.0405721 0
  endloop
 endfacet
 facet normal -0.870086 0.4929 0
  outer loop
   vertex 0.117638 0.0405721 0
   vertex 0.117155 0.0397179 0
   vertex 0.117638 0.0405721 0.01
  endloop
 endfacet
 facet normal -0.870086 0.4929 0
  outer loop
   vertex 0.117155 0.0397179 0
   vertex 0.117155 0.0397179 0.01
   vertex 0.117638 0.0405721 0.01
  endloop
 endfacet
 facet normal -0.844855 0.534995 0
  outer loop
   vertex 0.117155 0.0397179 0
   vertex 0.116629 0.0388886 0
   vertex 0.117155 0.0397179 0.01
  endloop
 endfacet
 facet normal -0.844855 0.534995 0
  outer loop
   vertex 0.116629 0.0388886 0.01
   vertex 0.117155 0.0397179 0.01
   vertex 0.116629 0.0388886 0
  endloop
 endfacet
 facet normal -0.817587 0.575805 0
  outer loop
   vertex 0.116629 0.0388886 0
   vertex 0.116064 0.038086 0
   vertex 0.116629 0.0388886 0.01
  endloop
 endfacet
 facet normal -0.817587 0.575805 0
  outer loop
   vertex 0.116064 0.038086 0.01
   vertex 0.116629 0.0388886 0.01
   vertex 0.116064 0.038086 0
  endloop
 endfacet
 facet normal -0.788344 0.615235 0
  outer loop
   vertex 0.116064 0.038086 0
   vertex 0.11546 0.0373121 0
   vertex 0.116064 0.038086 0.01
  endloop
 endfacet
 facet normal -0.788344 0.615235 0
  outer loop
   vertex 0.11546 0.0373121 0.01
   vertex 0.116064 0.038086 0.01
   vertex 0.11546 0.0373121 0
  endloop
 endfacet
 facet normal -0.757208 0.653174 0
  outer loop
   vertex 0.11546 0.0373121 0
   vertex 0.114819 0.0365688 0
   vertex 0.11546 0.0373121 0.01
  endloop
 endfacet
 facet normal -0.757208 0.653174 0
  outer loop
   vertex 0.114819 0.0365688 0.01
   vertex 0.11546 0.0373121 0.01
   vertex 0.114819 0.0365688 0
  endloop
 endfacet
 facet normal -0.724248 0.68954 0
  outer loop
   vertex 0.114819 0.0365688 0
   vertex 0.114142 0.0358579 0
   vertex 0.114819 0.0365688 0.01
  endloop
 endfacet
 facet normal -0.724248 0.68954 0
  outer loop
   vertex 0.114142 0.0358579 0.01
   vertex 0.114819 0.0365688 0.01
   vertex 0.114142 0.0358579 0
  endloop
 endfacet
 facet normal -0.68954 0.724248 0
  outer loop
   vertex 0.114142 0.0358579 0
   vertex 0.113431 0.035181 0
   vertex 0.114142 0.0358579 0.01
  endloop
 endfacet
 facet normal -0.68954 0.724248 0
  outer loop
   vertex 0.114142 0.0358579 0.01
   vertex 0.113431 0.035181 0
   vertex 0.113431 0.035181 0.01
  endloop
 endfacet
 facet normal -0.653174 0.757208 0
  outer loop
   vertex 0.113431 0.035181 0
   vertex 0.112688 0.0345398 0
   vertex 0.113431 0.035181 0.01
  endloop
 endfacet
 facet normal -0.653174 0.757208 0
  outer loop
   vertex 0.112688 0.0345398 0.01
   vertex 0.113431 0.035181 0.01
   vertex 0.112688 0.0345398 0
  endloop
 endfacet
 facet normal -0.615232 0.788346 0
  outer loop
   vertex 0.112688 0.0345398 0
   vertex 0.111914 0.0339358 0
   vertex 0.112688 0.0345398 0.01
  endloop
 endfacet
 facet normal -0.615232 0.788346 0
  outer loop
   vertex 0.111914 0.0339358 0.01
   vertex 0.112688 0.0345398 0.01
   vertex 0.111914 0.0339358 0
  endloop
 endfacet
 facet normal -0.575807 0.817585 0
  outer loop
   vertex 0.111914 0.0339358 0
   vertex 0.111111 0.0333706 0
   vertex 0.111914 0.0339358 0.01
  endloop
 endfacet
 facet normal -0.575807 0.817585 0
  outer loop
   vertex 0.111111 0.0333706 0.01
   vertex 0.111914 0.0339358 0.01
   vertex 0.111111 0.0333706 0
  endloop
 endfacet
 facet normal -0.534997 0.844854 0
  outer loop
   vertex 0.111111 0.0333706 0
   vertex 0.110282 0.0328454 0
   vertex 0.111111 0.0333706 0.01
  endloop
 endfacet
 facet normal -0.534997 0.844854 0
  outer loop
   vertex 0.110282 0.0328454 0.01
   vertex 0.111111 0.0333706 0.01
   vertex 0.110282 0.0328454 0
  endloop
 endfacet
 facet normal -0.4929 0.870086 0
  outer loop
   vertex 0.110282 0.0328454 0
   vertex 0.109428 0.0323616 0
   vertex 0.110282 0.0328454 0.01
  endloop
 endfacet
 facet normal -0.4929 0.870086 0
  outer loop
   vertex 0.109428 0.0323616 0
   vertex 0.109428 0.0323616 0.01
   vertex 0.110282 0.0328454 0.01
  endloop
 endfacet
 facet normal -0.44961 0.893225 0
  outer loop
   vertex 0.109428 0.0323616 0
   vertex 0.108551 0.0319202 0
   vertex 0.109428 0.0323616 0.01
  endloop
 endfacet
 facet normal -0.44961 0.893225 0
  outer loop
   vertex 0.108551 0.0319202 0.01
   vertex 0.109428 0.0323616 0.01
   vertex 0.108551 0.0319202 0
  endloop
 endfacet
 facet normal -0.405243 0.914209 0
  outer loop
   vertex 0.108551 0.0319202 0
   vertex 0.107654 0.0315224 0
   vertex 0.108551 0.0319202 0.01
  endloop
 endfacet
 facet normal -0.405243 0.914209 0
  outer loop
   vertex 0.107654 0.0315224 0.01
   vertex 0.108551 0.0319202 0.01
   vertex 0.107654 0.0315224 0
  endloop
 endfacet
 facet normal -0.359895 0.932993 0
  outer loop
   vertex 0.107654 0.0315224 0
   vertex 0.106738 0.0311691 0
   vertex 0.107654 0.0315224 0.01
  endloop
 endfacet
 facet normal -0.359895 0.932993 0
  outer loop
   vertex 0.106738 0.0311691 0.01
   vertex 0.107654 0.0315224 0.01
   vertex 0.106738 0.0311691 0
  endloop
 endfacet
 facet normal -0.313681 0.949528 0
  outer loop
   vertex 0.106738 0.0311691 0
   vertex 0.105806 0.0308612 0
   vertex 0.106738 0.0311691 0.01
  endloop
 endfacet
 facet normal -0.313681 0.949528 0
  outer loop
   vertex 0.105806 0.0308612 0.01
   vertex 0.106738 0.0311691 0.01
   vertex 0.105806 0.0308612 0
  endloop
 endfacet
 facet normal -0.266713 0.963776 0
  outer loop
   vertex 0.105806 0.0308612 0
   vertex 0.10486 0.0305994 0
   vertex 0.105806 0.0308612 0.01
  endloop
 endfacet
 facet normal -0.266713 0.963776 0
  outer loop
   vertex 0.10486 0.0305994 0
   vertex 0.10486 0.0305994 0.01
   vertex 0.105806 0.0308612 0.01
  endloop
 endfacet
 facet normal -0.219099 0.975703 0
  outer loop
   vertex 0.10486 0.0305994 0
   vertex 0.103902 0.0303843 0
   vertex 0.10486 0.0305994 0.01
  endloop
 endfacet
 facet normal -0.219099 0.975703 0
  outer loop
   vertex 0.103902 0.0303843 0.01
   vertex 0.10486 0.0305994 0.01
   vertex 0.103902 0.0303843 0
  endloop
 endfacet
 facet normal -0.170962 0.985278 0
  outer loop
   vertex 0.103902 0.0303843 0
   vertex 0.102935 0.0302165 0
   vertex 0.103902 0.0303843 0.01
  endloop
 endfacet
 facet normal -0.170962 0.985278 0
  outer loop
   vertex 0.102935 0.0302165 0.01
   vertex 0.103902 0.0303843 0.01
   vertex 0.102935 0.0302165 0
  endloop
 endfacet
 facet normal -0.122412 0.992479 0
  outer loop
   vertex 0.102935 0.0302165 0
   vertex 0.10196 0.0300963 0
   vertex 0.102935 0.0302165 0.01
  endloop
 endfacet
 facet normal -0.122412 0.992479 0
  outer loop
   vertex 0.10196 0.0300963 0.01
   vertex 0.102935 0.0302165 0.01
   vertex 0.10196 0.0300963 0
  endloop
 endfacet
 facet normal -0.0735646 0.99729 0
  outer loop
   vertex 0.10196 0.0300963 0
   vertex 0.100981 0.0300241 0
   vertex 0.10196 0.0300963 0.01
  endloop
 endfacet
 facet normal -0.0735646 0.99729 0
  outer loop
   vertex 0.100981 0.0300241 0.01
   vertex 0.10196 0.0300963 0.01
   vertex 0.100981 0.0300241 0
  endloop
 endfacet
 facet normal -0.0245418 0.999699 0
  outer loop
   vertex 0.100981 0.0300241 0
   vertex 0.1 0.03 0
   vertex 0.100981 0.0300241 0.01
  endloop
 endfacet
 facet normal -0.0245418 0.999699 0
  outer loop
   vertex 0.100981 0.0300241 0.01
   vertex 0.1 0.03 0
   vertex 0.1 0.03 0.01
  endloop
 endfacet
 facet normal 0.0245418 0.999699 0
  outer loop
   vertex 0.1 0.03 0
   vertex 0.0990186 0.0300241 0
   vertex 0.1 0.03 0.01
  endloop
 endfacet
 facet normal 0.0245418 0.999699 0
  outer loop
   vertex 0.0990186 0.0300241 0.01
   vertex 0.1 0.03 0.01
   vertex 0.0990186 0.0300241 0
  endloop
 endfacet
 facet normal 0.0735646 0.99729 0
  outer loop
   vertex 0.0990186 0.0300241 0
   vertex 0.0980397 0.0300963 0
   vertex 0.0990186 0.0300241 0.01
  endloop
 endfacet
 facet normal 0.0735646 0.99729 0
  outer loop
   vertex 0.0980397 0.0300963 0.01
   vertex 0.0990186 0.0300241 0.01
   vertex 0.0980397 0.0300963 0
  endloop
 endfacet
 facet normal 0.122411 0.992479 0
  outer loop
   vertex 0.0980397 0.0300963 0
   vertex 0.0970654 0.0302165 0
   vertex 0.0980397 0.0300963 0.01
  endloop
 endfacet
 facet normal 0.122411 0.992479 0
  outer loop
   vertex 0.0970654 0.0302165 0.01
   vertex 0.0980397 0.0300963 0.01
   vertex 0.0970654 0.0302165 0
  endloop
 endfacet
 facet normal 0.170962 0.985278 0
  outer loop
   vertex 0.0970654 0.0302165 0
   vertex 0.0960982 0.0303843 0
   vertex 0.0970654 0.0302165 0.01
  endloop
 endfacet
 facet normal 0.170962 0.985278 0
  outer loop
   vertex 0.0960982 0.0303843 0.01
   vertex 0.0970654 0.0302165 0.01
   vertex 0.0960982 0.0303843 0
  endloop
 endfacet
 facet normal 0.219101 0.975702 0
  outer loop
   vertex 0.0960982 0.0303843 0
   vertex 0.0951404 0.0305994 0
   vertex 0.0960982 0.0303843 0.01
  endloop
 endfacet
 facet normal 0.219101 0.975702 0
  outer loop
   vertex 0.0951404 0.0305994 0.01
   vertex 0.0960982 0.0303843 0.01
   vertex 0.0951404 0.0305994 0
  endloop
 endfacet
 facet normal 0.266713 0.963776 0
  outer loop
   vertex 0.0951404 0.0305994 0
   vertex 0.0941943 0.0308612 0
   vertex 0.0951404 0.0305994 0.01
  endloop
 endfacet
 facet normal 0.266713 0.963776 0
  outer loop
   vertex 0.0941943 0.0308612 0
   vertex 0.0941943 0.0308612 0.01
   vertex 0.0951404 0.0305994 0.01
  endloop
 endfacet
 facet normal 0.313681 0.949528 0
  outer loop
   vertex 0.0941943 0.0308612 0
   vertex 0.0932622 0.0311691 0
   vertex 0.0941943 0.0308612 0.01
  endloop
 endfacet
 facet normal 0.313681 0.949528 0
  outer loop
   vertex 0.0932622 0.0311691 0.01
   vertex 0.0941943 0.0308612 0.01
   vertex 0.0932622 0.0311691 0
  endloop
 endfacet
 facet normal 0.359895 0.932993 0
  outer loop
   vertex 0.0932622 0.0311691 0
   vertex 0.0923463 0.0315224 0
   vertex 0.0932622 0.0311691 0.01
  endloop
 endfacet
 facet normal 0.359895 0.932993 0
  outer loop
   vertex 0.0923463 0.0315224 0.01
   vertex 0.0932622 0.0311691 0.01
   vertex 0.0923463 0.0315224 0
  endloop
 endfacet
 facet normal 0.40524 0.91421 0
  outer loop
   vertex 0.0923463 0.0315224 0
   vertex 0.0914489 0.0319202 0
   vertex 0.0923463 0.0315224 0.01
  endloop
 endfacet
 facet normal 0.40524 0.91421 0
  outer loop
   vertex 0.0914489 0.0319202 0.01
   vertex 0.0923463 0.0315224 0.01
   vertex 0.0914489 0.0319202 0
  endloop
 endfacet
 facet normal 0.449613 0.893223 0
  outer loop
   vertex 0.0914489 0.0319202 0
   vertex 0.0905721 0.0323616 0
   vertex 0.0914489 0.0319202 0.01
  endloop
 endfacet
 facet normal 0.449613 0.893223 0
  outer loop
   vertex 0.0905721 0.0323616 0.01
   vertex 0.0914489 0.0319202 0.01
   vertex 0.0905721 0.0323616 0
  endloop
 endfacet
 facet normal 0.4929 0.870086 0
  outer loop
   vertex 0.0905721 0.0323616 0
   vertex 0.0897179 0.0328454 0
   vertex 0.0905721 0.0323616 0.01
  endloop
 endfacet
 facet normal 0.4929 0.870086 0
  outer loop
   vertex 0.0897179 0.0328454 0
   vertex 0.0897179 0.0328454 0.01
   vertex 0.0905721 0.0323616 0.01
  endloop
 endfacet
 facet normal 0.534993 0.844856 0
  outer loop
   vertex 0.0897179 0.0328454 0
   vertex 0.0888886 0.0333706 0
   vertex 0.0897179 0.0328454 0.01
  endloop
 endfacet
 facet normal 0.534993 0.844856 0
  outer loop
   vertex 0.0888886 0.0333706 0.01
   vertex 0.0897179 0.0328454 0.01
   vertex 0.0888886 0.0333706 0
  endloop
 endfacet
 facet normal 0.575811 0.817583 0
  outer loop
   vertex 0.0888886 0.0333706 0
   vertex 0.088086 0.0339358 0
   vertex 0.0888886 0.0333706 0.01
  endloop
 endfacet
 facet normal 0.575811 0.817583 0
  outer loop
   vertex 0.088086 0.0339358 0.01
   vertex 0.0888886 0.0333706 0.01
   vertex 0.088086 0.0339358 0
  endloop
 endfacet
 facet normal 0.615228 0.788349 0
  outer loop
   vertex 0.088086 0.0339358 0
   vertex 0.0873121 0.0345398 0
   vertex 0.088086 0.0339358 0.01
  endloop
 endfacet
 facet normal 0.615228 0.788349 0
  outer loop
   vertex 0.0873121 0.0345398 0.01
   vertex 0.088086 0.0339358 0.01
   vertex 0.0873121 0.0345398 0
  endloop
 endfacet
 facet normal 0.653174 0.757208 0
  outer loop
   vertex 0.0873121 0.0345398 0
   vertex 0.0865688 0.035181 0
   vertex 0.0873121 0.0345398 0.01
  endloop
 endfacet
 facet normal 0.653174 0.757208 0
  outer loop
   vertex 0.0865688 0.035181 0.01
   vertex 0.0873121 0.0345398 0.01
   vertex 0.0865688 0.035181 0
  endloop
 endfacet
 facet normal 0.689543 0.724244 0
  outer loop
   vertex 0.0865688 0.035181 0
   vertex 0.0858579 0.0358579 0
   vertex 0.0865688 0.035181 0.01
  endloop
 endfacet
 facet normal 0.689543 0.724244 -0
  outer loop
   vertex 0.0865688 0.035181 0.01
   vertex 0.0858579 0.0358579 0
   vertex 0.0858579 0.0358579 0.01
  endloop
 endfacet
 facet normal 0.724244 0.689544 0
  outer loop
   vertex 0.0858579 0.0358579 0
   vertex 0.085181 0.0365688 0
   vertex 0.0858579 0.0358579 0.01
  endloop
 endfacet
 facet normal 0.724244 0.689544 0
  outer loop
   vertex 0.085181 0.0365688 0.01
   vertex 0.0858579 0.0358579 0.01
   vertex 0.085181 0.0365688 0
  endloop
 endfacet
 facet normal 0.757212 0.65317 0
  outer loop
   vertex 0.085181 0.0365688 0
   vertex 0.0845398 0.0373121 0
   vertex 0.085181 0.0365688 0.01
  endloop
 endfacet
 facet normal 0.757212 0.65317 0
  outer loop
   vertex 0.0845398 0.0373121 0
   vertex 0.0845398 0.0373121 0.01
   vertex 0.085181 0.0365688 0.01
  endloop
 endfacet
 facet normal 0.788344 0.615235 0
  outer loop
   vertex 0.0845398 0.0373121 0
   vertex 0.0839358 0.038086 0
   vertex 0.0845398 0.0373121 0.01
  endloop
 endfacet
 facet normal 0.788344 0.615235 0
  outer loop
   vertex 0.0839358 0.038086 0.01
   vertex 0.0845398 0.0373121 0.01
   vertex 0.0839358 0.038086 0
  endloop
 endfacet
 facet normal 0.817587 0.575805 0
  outer loop
   vertex 0.0839358 0.038086 0
   vertex 0.0833706 0.0388886 0
   vertex 0.0839358 0.038086 0.01
  endloop
 endfacet
 facet normal 0.817587 0.575805 0
  outer loop
   vertex 0.0833706 0.0388886 0.01
   vertex 0.0839358 0.038086 0.01
   vertex 0.0833706 0.0388886 0
  endloop
 endfacet
 facet normal 0.844852 0.535 0
  outer loop
   vertex 0.0833706 0.0388886 0
   vertex 0.0828454 0.0397179 0
   vertex 0.0833706 0.0388886 0.01
  endloop
 endfacet
 facet normal 0.844852 0.535 0
  outer loop
   vertex 0.0828454 0.0397179 0.01
   vertex 0.0833706 0.0388886 0.01
   vertex 0.0828454 0.0397179 0
  endloop
 endfacet
 facet normal 0.870086 0.4929 0
  outer loop
   vertex 0.0828454 0.0397179 0
   vertex 0.0823616 0.0405721 0
   vertex 0.0828454 0.0397179 0.01
  endloop
 endfacet
 facet normal 0.870086 0.4929 0
  outer loop
   vertex 0.0823616 0.0405721 0
   vertex 0.0823616 0.0405721 0.01
   vertex 0.0828454 0.0397179 0.01
  endloop
 endfacet
 facet normal 0.893226 0.449609 0
  outer loop
   vertex 0.0823616 0.0405721 0
   vertex 0.0819202 0.0414489 0
   vertex 0.0823616 0.0405721 0.01
  endloop
 endfacet
 facet normal 0.893226 0.449609 0
  outer loop
   vertex 0.0819202 0.0414489 0.01
   vertex 0.0823616 0.0405721 0.01
   vertex 0.0819202 0.0414489 0
  endloop
 endfacet
 facet normal 0.914211 0.405238 0
  outer loop
   vertex 0.0819202 0.0414489 0
   vertex 0.0815224 0.0423463 0
   vertex 0.0819202 0.0414489 0.01
  endloop
 endfacet
 facet normal 0.914211 0.405238 0
  outer loop
   vertex 0.0815224 0.0423463 0.01
   vertex 0.0819202 0.0414489 0.01
   vertex 0.0815224 0.0423463 0
  endloop
 endfacet
 facet normal 0.932992 0.359896 0
  outer loop
   vertex 0.0815224 0.0423463 0
   vertex 0.0811691 0.0432622 0
   vertex 0.0815224 0.0423463 0.01
  endloop
 endfacet
 facet normal 0.932992 0.359896 0
  outer loop
   vertex 0.0811691 0.0432622 0.01
   vertex 0.0815224 0.0423463 0.01
   vertex 0.0811691 0.0432622 0
  endloop
 endfacet
 facet normal 0.949528 0.313681 0
  outer loop
   vertex 0.0811691 0.0432622 0
   vertex 0.0808612 0.0441943 0
   vertex 0.0811691 0.0432622 0.01
  endloop
 endfacet
 facet normal 0.949528 0.313681 0
  outer loop
   vertex 0.0808612 0.0441943 0.01
   vertex 0.0811691 0.0432622 0.01
   vertex 0.0808612 0.0441943 0
  endloop
 endfacet
 facet normal 0.963775 0.266715 0
  outer loop
   vertex 0.0808612 0.0441943 0
   vertex 0.0805994 0.0451404 0
   vertex 0.0808612 0.0441943 0.01
  endloop
 endfacet
 facet normal 0.963775 0.266715 0
  outer loop
   vertex 0.0805994 0.0451404 0
   vertex 0.0805994 0.0451404 0.01
   vertex 0.0808612 0.0441943 0.01
  endloop
 endfacet
 facet normal 0.975702 0.219104 0
  outer loop
   vertex 0.0805994 0.0451404 0
   vertex 0.0803843 0.0460982 0
   vertex 0.0805994 0.0451404 0.01
  endloop
 endfacet
 facet normal 0.975702 0.219104 0
  outer loop
   vertex 0.0803843 0.0460982 0.01
   vertex 0.0805994 0.0451404 0.01
   vertex 0.0803843 0.0460982 0
  endloop
 endfacet
 facet normal 0.985278 0.170962 0
  outer loop
   vertex 0.0803843 0.0460982 0
   vertex 0.0802165 0.0470654 0
   vertex 0.0803843 0.0460982 0.01
  endloop
 endfacet
 facet normal 0.985278 0.170962 0
  outer loop
   vertex 0.0802165 0.0470654 0.01
   vertex 0.0803843 0.0460982 0.01
   vertex 0.0802165 0.0470654 0
  endloop
 endfacet
 facet normal 0.99248 0.12241 0
  outer loop
   vertex 0.0802165 0.0470654 0
   vertex 0.0800963 0.0480397 0
   vertex 0.0802165 0.0470654 0.01
  endloop
 endfacet
 facet normal 0.99248 0.12241 0
  outer loop
   vertex 0.0800963 0.0480397 0.01
   vertex 0.0802165 0.0470654 0.01
   vertex 0.0800963 0.0480397 0
  endloop
 endfacet
 facet normal 0.997291 0.0735608 0
  outer loop
   vertex 0.0800963 0.0480397 0
   vertex 0.0800241 0.0490186 0
   vertex 0.0800963 0.0480397 0.01
  endloop
 endfacet
 facet normal 0.997291 0.0735608 0
  outer loop
   vertex 0.0800241 0.0490186 0.01
   vertex 0.0800963 0.0480397 0.01
   vertex 0.0800241 0.0490186 0
  endloop
 endfacet
 facet normal 0.999699 0.0245456 0
  outer loop
   vertex 0.0800241 0.0490186 0
   vertex 0.08 0.05 0
   vertex 0.0800241 0.0490186 0.01
  endloop
 endfacet
 facet normal 0.999699 0.0245456 0
  outer loop
   vertex 0.08 0.05 0.01
   vertex 0.0800241 0.0490186 0.01
   vertex 0.08 0.05 0
  endloop
 endfacet
 facet normal 0.999699 -0.0245456 0
  outer loop
   vertex 0.08 0.05 0
   vertex 0.0800241 0.0509814 0
   vertex 0.08 0.05 0.01
  endloop
 endfacet
 facet normal 0.999699 -0.0245456 0
  outer loop
   vertex 0.08 0.05 0.01
   vertex 0.0800241 0.0509814 0
   vertex 0.0800241 0.0509814 0.01
  endloop
 endfacet
 facet normal 0.997291 -0.0735611 0
  outer loop
   vertex 0.0800241 0.0509814 0
   vertex 0.0800963 0.0519603 0
   vertex 0.0800241 0.0509814 0.01
  endloop
 endfacet
 facet normal 0.997291 -0.0735611 0
  outer loop
   vertex 0.0800963 0.0519603 0.01
   vertex 0.0800241 0.0509814 0.01
   vertex 0.0800963 0.0519603 0
  endloop
 endfacet
 facet normal 0.99248 -0.122409 0
  outer loop
   vertex 0.0800963 0.0519603 0
   vertex 0.0802165 0.0529346 0
   vertex 0.0800963 0.0519603 0.01
  endloop
 endfacet
 facet normal 0.99248 -0.122409 0
  outer loop
   vertex 0.0802165 0.0529346 0.01
   vertex 0.0800963 0.0519603 0.01
   vertex 0.0802165 0.0529346 0
  endloop
 endfacet
 facet normal 0.985278 -0.170962 0
  outer loop
   vertex 0.0802165 0.0529346 0
   vertex 0.0803843 0.0539018 0
   vertex 0.0802165 0.0529346 0.01
  endloop
 endfacet
 facet normal 0.985278 -0.170962 0
  outer loop
   vertex 0.0803843 0.0539018 0.01
   vertex 0.0802165 0.0529346 0.01
   vertex 0.0803843 0.0539018 0
  endloop
 endfacet
 facet normal 0.975702 -0.219104 0
  outer loop
   vertex 0.0803843 0.0539018 0
   vertex 0.0805994 0.0548596 0
   vertex 0.0803843 0.0539018 0.01
  endloop
 endfacet
 facet normal 0.975702 -0.219104 0
  outer loop
   vertex 0.0805994 0.0548596 0.01
   vertex 0.0803843 0.0539018 0.01
   vertex 0.0805994 0.0548596 0
  endloop
 endfacet
 facet normal 0.963775 -0.266715 0
  outer loop
   vertex 0.0805994 0.0548596 0
   vertex 0.0808612 0.0558057 0
   vertex 0.0805994 0.0548596 0.01
  endloop
 endfacet
 facet normal 0.963775 -0.266715 0
  outer loop
   vertex 0.0808612 0.0558057 0
   vertex 0.0808612 0.0558057 0.01
   vertex 0.0805994 0.0548596 0.01
  endloop
 endfacet
 facet normal 0.949528 -0.313682 0
  outer loop
   vertex 0.0808612 0.0558057 0
   vertex 0.0811691 0.0567378 0
   vertex 0.0808612 0.0558057 0.01
  endloop
 endfacet
 facet normal 0.949528 -0.313682 0
  outer loop
   vertex 0.0811691 0.0567378 0.01
   vertex 0.0808612 0.0558057 0.01
   vertex 0.0811691 0.0567378 0
  endloop
 endfacet
 facet normal 0.932993 -0.359895 0
  outer loop
   vertex 0.0811691 0.0567378 0
   vertex 0.0815224 0.0576537 0
   vertex 0.0811691 0.0567378 0.01
  endloop
 endfacet
 facet normal 0.932993 -0.359895 0
  outer loop
   vertex 0.0815224 0.0576537 0.01
   vertex 0.0811691 0.0567378 0.01
   vertex 0.0815224 0.0576537 0
  endloop
 endfacet
 facet normal 0.914211 -0.405238 0
  outer loop
   vertex 0.0815224 0.0576537 0
   vertex 0.0819202 0.0585511 0
   vertex 0.0815224 0.0576537 0.01
  endloop
 endfacet
 facet normal 0.914211 -0.405238 0
  outer loop
   vertex 0.0819202 0.0585511 0.01
   vertex 0.0815224 0.0576537 0.01
   vertex 0.0819202 0.0585511 0
  endloop
 endfacet
 facet normal 0.893226 -0.449609 0
  outer loop
   vertex 0.0819202 0.0585511 0
   vertex 0.0823616 0.0594279 0
   vertex 0.0819202 0.0585511 0.01
  endloop
 endfacet
 facet normal 0.893226 -0.449609 0
  outer loop
   vertex 0.0823616 0.0594279 0.01
   vertex 0.0819202 0.0585511 0.01
   vertex 0.0823616 0.0594279 0
  endloop
 endfacet
 facet normal 0.870086 -0.4929 0
  outer loop
   vertex 0.0823616 0.0594279 0
   vertex 0.0828454 0.0602821 0
   vertex 0.0823616 0.0594279 0.01
  endloop
 endfacet
 facet normal 0.870086 -0.4929 0
  outer loop
   vertex 0.0828454 0.0602821 0
   vertex 0.0828454 0.0602821 0.01
   vertex 0.0823616 0.0594279 0.01
  endloop
 endfacet
 facet normal 0.844852 -0.535 0
  outer loop
   vertex 0.0828454 0.0602821 0
   vertex 0.0833706 0.0611114 0
   vertex 0.0828454 0.0602821 0.01
  endloop
 endfacet
 facet normal 0.844852 -0.535 0
  outer loop
   vertex 0.0833706 0.0611114 0.01
   vertex 0.0828454 0.0602821 0.01
   vertex 0.0833706 0.0611114 0
  endloop
 endfacet
 facet normal 0.817586 -0.575806 0
  outer loop
   vertex 0.0833706 0.0611114 0
   vertex 0.0839358 0.061914 0
   vertex 0.0833706 0.0611114 0.01
  endloop
 endfacet
 facet normal 0.817586 -0.575806 0
  outer loop
   vertex 0.0839358 0.061914 0.01
   vertex 0.0833706 0.0611114 0.01
   vertex 0.0839358 0.061914 0
  endloop
 endfacet
 facet normal 0.788346 -0.615233 0
  outer loop
   vertex 0.0839358 0.061914 0
   vertex 0.0845398 0.0626879 0
   vertex 0.0839358 0.061914 0.01
  endloop
 endfacet
 facet normal 0.788346 -0.615233 0
  outer loop
   vertex 0.0845398 0.0626879 0.01
   vertex 0.0839358 0.061914 0.01
   vertex 0.0845398 0.0626879 0
  endloop
 endfacet
 facet normal 0.757212 -0.65317 0
  outer loop
   vertex 0.0845398 0.0626879 0
   vertex 0.085181 0.0634312 0
   vertex 0.0845398 0.0626879 0.01
  endloop
 endfacet
 facet normal 0.757212 -0.65317 0
  outer loop
   vertex 0.085181 0.0634312 0.01
   vertex 0.0845398 0.0626879 0.01
   vertex 0.085181 0.0634312 0
  endloop
 endfacet
 facet normal 0.724244 -0.689544 0
  outer loop
   vertex 0.085181 0.0634312 0
   vertex 0.0858579 0.0641421 0
   vertex 0.085181 0.0634312 0.01
  endloop
 endfacet
 facet normal 0.724244 -0.689544 0
  outer loop
   vertex 0.085181 0.0634312 0.01
   vertex 0.0858579 0.0641421 0
   vertex 0.0858579 0.0641421 0.01
  endloop
 endfacet
 facet normal 0.689543 -0.724244 0
  outer loop
   vertex 0.0858579 0.0641421 0
   vertex 0.0865688 0.064819 0
   vertex 0.0858579 0.0641421 0.01
  endloop
 endfacet
 facet normal 0.689543 -0.724244 0
  outer loop
   vertex 0.0865688 0.064819 0.01
   vertex 0.0858579 0.0641421 0.01
   vertex 0.0865688 0.064819 0
  endloop
 endfacet
 facet normal 0.653174 -0.757208 0
  outer loop
   vertex 0.0865688 0.064819 0
   vertex 0.0873121 0.0654602 0
   vertex 0.0865688 0.064819 0.01
  endloop
 endfacet
 facet normal 0.653174 -0.757208 0
  outer loop
   vertex 0.0873121 0.0654602 0.01
   vertex 0.0865688 0.064819 0.01
   vertex 0.0873121 0.0654602 0
  endloop
 endfacet
 facet normal 0.615226 -0.788351 0
  outer loop
   vertex 0.0873121 0.0654602 0
   vertex 0.088086 0.0660641 0
   vertex 0.0873121 0.0654602 0.01
  endloop
 endfacet
 facet normal 0.615226 -0.788351 0
  outer loop
   vertex 0.088086 0.0660641 0.01
   vertex 0.0873121 0.0654602 0.01
   vertex 0.088086 0.0660641 0
  endloop
 endfacet
 facet normal 0.575813 -0.817581 0
  outer loop
   vertex 0.088086 0.0660641 0
   vertex 0.0888886 0.0666294 0
   vertex 0.088086 0.0660641 0.01
  endloop
 endfacet
 facet normal 0.575813 -0.817581 0
  outer loop
   vertex 0.0888886 0.0666294 0.01
   vertex 0.088086 0.0660641 0.01
   vertex 0.0888886 0.0666294 0
  endloop
 endfacet
 facet normal 0.534993 -0.844856 0
  outer loop
   vertex 0.0888886 0.0666294 0
   vertex 0.0897179 0.0671546 0
   vertex 0.0888886 0.0666294 0.01
  endloop
 endfacet
 facet normal 0.534993 -0.844856 0
  outer loop
   vertex 0.0897179 0.0671546 0.01
   vertex 0.0888886 0.0666294 0.01
   vertex 0.0897179 0.0671546 0
  endloop
 endfacet
 facet normal 0.4929 -0.870086 0
  outer loop
   vertex 0.0897179 0.0671546 0
   vertex 0.0905721 0.0676384 0
   vertex 0.0897179 0.0671546 0.01
  endloop
 endfacet
 facet normal 0.4929 -0.870086 0
  outer loop
   vertex 0.0905721 0.0676384 0
   vertex 0.0905721 0.0676384 0.01
   vertex 0.0897179 0.0671546 0.01
  endloop
 endfacet
 facet normal 0.44961 -0.893225 0
  outer loop
   vertex 0.0905721 0.0676384 0
   vertex 0.0914489 0.0680798 0
   vertex 0.0905721 0.0676384 0.01
  endloop
 endfacet
 facet normal 0.44961 -0.893225 0
  outer loop
   vertex 0.0914489 0.0680798 0.01
   vertex 0.0905721 0.0676384 0.01
   vertex 0.0914489 0.0680798 0
  endloop
 endfacet
 facet normal 0.405243 -0.914209 0
  outer loop
   vertex 0.0914489 0.0680798 0
   vertex 0.0923463 0.0684776 0
   vertex 0.0914489 0.0680798 0.01
  endloop
 endfacet
 facet normal 0.405243 -0.914209 0
  outer loop
   vertex 0.0923463 0.0684776 0.01
   vertex 0.0914489 0.0680798 0.01
   vertex 0.0923463 0.0684776 0
  endloop
 endfacet
 facet normal 0.359896 -0.932992 0
  outer loop
   vertex 0.0923463 0.0684776 0
   vertex 0.0932622 0.0688309 0
   vertex 0.0923463 0.0684776 0.01
  endloop
 endfacet
 facet normal 0.359896 -0.932992 0
  outer loop
   vertex 0.0932622 0.0688309 0.01
   vertex 0.0923463 0.0684776 0.01
   vertex 0.0932622 0.0688309 0
  endloop
 endfacet
 facet normal 0.313674 -0.949531 0
  outer loop
   vertex 0.0932622 0.0688309 0
   vertex 0.0941943 0.0691388 0
   vertex 0.0932622 0.0688309 0.01
  endloop
 endfacet
 facet normal 0.313674 -0.949531 0
  outer loop
   vertex 0.0941943 0.0691388 0.01
   vertex 0.0932622 0.0688309 0.01
   vertex 0.0941943 0.0691388 0
  endloop
 endfacet
 facet normal 0.266715 -0.963775 0
  outer loop
   vertex 0.0941943 0.0691388 0
   vertex 0.0951404 0.0694006 0
   vertex 0.0941943 0.0691388 0.01
  endloop
 endfacet
 facet normal 0.266715 -0.963775 0
  outer loop
   vertex 0.0951404 0.0694006 0
   vertex 0.0951404 0.0694006 0.01
   vertex 0.0941943 0.0691388 0.01
  endloop
 endfacet
 facet normal 0.219105 -0.975701 0
  outer loop
   vertex 0.0951404 0.0694006 0
   vertex 0.0960982 0.0696157 0
   vertex 0.0951404 0.0694006 0.01
  endloop
 endfacet
 facet normal 0.219105 -0.975701 0
  outer loop
   vertex 0.0960982 0.0696157 0.01
   vertex 0.0951404 0.0694006 0.01
   vertex 0.0960982 0.0696157 0
  endloop
 endfacet
 facet normal 0.170962 -0.985278 0
  outer loop
   vertex 0.0960982 0.0696157 0
   vertex 0.0970654 0.0697835 0
   vertex 0.0960982 0.0696157 0.01
  endloop
 endfacet
 facet normal 0.170962 -0.985278 0
  outer loop
   vertex 0.0970654 0.0697835 0.01
   vertex 0.0960982 0.0696157 0.01
   vertex 0.0970654 0.0697835 0
  endloop
 endfacet
 facet normal 0.122409 -0.99248 0
  outer loop
   vertex 0.0970654 0.0697835 0
   vertex 0.0980397 0.0699037 0
   vertex 0.0970654 0.0697835 0.01
  endloop
 endfacet
 facet normal 0.122409 -0.99248 0
  outer loop
   vertex 0.0980397 0.0699037 0.01
   vertex 0.0970654 0.0697835 0.01
   vertex 0.0980397 0.0699037 0
  endloop
 endfacet
 facet normal 0.0735683 -0.99729 0
  outer loop
   vertex 0.0980397 0.0699037 0
   vertex 0.0990186 0.0699759 0
   vertex 0.0980397 0.0699037 0.01
  endloop
 endfacet
 facet normal 0.0735683 -0.99729 0
  outer loop
   vertex 0.0990186 0.0699759 0.01
   vertex 0.0980397 0.0699037 0.01
   vertex 0.0990186 0.0699759 0
  endloop
 endfacet
 facet normal 0.024538 -0.999699 0
  outer loop
   vertex 0.0990186 0.0699759 0
   vertex 0.1 0.07 0
   vertex 0.0990186 0.0699759 0.01
  endloop
 endfacet
 facet normal 0.024538 -0.999699 0
  outer loop
   vertex 0.1 0.07 0.01
   vertex 0.0990186 0.0699759 0.01
   vertex 0.1 0.07 0
  endloop
 endfacet
 facet normal -0.024538 -0.999699 0
  outer loop
   vertex 0.1 0.07 0
   vertex 0.100981 0.0699759 0
   vertex 0.1 0.07 0.01
  endloop
 endfacet
 facet normal -0.024538 -0.999699 0
  outer loop
   vertex 0.1 0.07 0.01
   vertex 0.100981 0.0699759 0
   vertex 0.100981 0.0699759 0.01
  endloop
 endfacet
 facet normal -0.0735683 -0.99729 0
  outer loop
   vertex 0.100981 0.0699759 0
   vertex 0.10196 0.0699037 0
   vertex 0.100981 0.0699759 0.01
  endloop
 endfacet
 facet normal -0.0735683 -0.99729 0
  outer loop
   vertex 0.10196 0.0699037 0.01
   vertex 0.100981 0.0699759 0.01
   vertex 0.10196 0.0699037 0
  endloop
 endfacet
 facet normal -0.12241 -0.99248 0
  outer loop
   vertex 0.10196 0.0699037 0
   vertex 0.102935 0.0697835 0
   vertex 0.10196 0.0699037 0.01
  endloop
 endfacet
 facet normal -0.12241 -0.99248 0
  outer loop
   vertex 0.102935 0.0697835 0.01
   vertex 0.10196 0.0699037 0.01
   vertex 0.102935 0.0697835 0
  endloop
 endfacet
 facet normal -0.170962 -0.985278 0
  outer loop
   vertex 0.102935 0.0697835 0
   vertex 0.103902 0.0696157 0
   vertex 0.102935 0.0697835 0.01
  endloop
 endfacet
 facet normal -0.170962 -0.985278 0
  outer loop
   vertex 0.103902 0.0696157 0.01
   vertex 0.102935 0.0697835 0.01
   vertex 0.103902 0.0696157 0
  endloop
 endfacet
 facet normal -0.219103 -0.975702 0
  outer loop
   vertex 0.103902 0.0696157 0
   vertex 0.10486 0.0694006 0
   vertex 0.103902 0.0696157 0.01
  endloop
 endfacet
 facet normal -0.219103 -0.975702 0
  outer loop
   vertex 0.10486 0.0694006 0.01
   vertex 0.103902 0.0696157 0.01
   vertex 0.10486 0.0694006 0
  endloop
 endfacet
 facet normal -0.266715 -0.963775 0
  outer loop
   vertex 0.10486 0.0694006 0
   vertex 0.105806 0.0691388 0
   vertex 0.10486 0.0694006 0.01
  endloop
 endfacet
 facet normal -0.266715 -0.963775 -0
  outer loop
   vertex 0.105806 0.0691388 0
   vertex 0.105806 0.0691388 0.01
   vertex 0.10486 0.0694006 0.01
  endloop
 endfacet
 facet normal -0.313674 -0.949531 0
  outer loop
   vertex 0.105806 0.0691388 0
   vertex 0.106738 0.0688309 0
   vertex 0.105806 0.0691388 0.01
  endloop
 endfacet
 facet normal -0.313674 -0.949531 0
  outer loop
   vertex 0.106738 0.0688309 0.01
   vertex 0.105806 0.0691388 0.01
   vertex 0.106738 0.0688309 0
  endloop
 endfacet
 facet normal -0.359896 -0.932992 0
  outer loop
   vertex 0.106738 0.0688309 0
   vertex 0.107654 0.0684776 0
   vertex 0.106738 0.0688309 0.01
  endloop
 endfacet
 facet normal -0.359896 -0.932992 0
  outer loop
   vertex 0.107654 0.0684776 0.01
   vertex 0.106738 0.0688309 0.01
   vertex 0.107654 0.0684776 0
  endloop
 endfacet
 facet normal -0.405246 -0.914208 0
  outer loop
   vertex 0.107654 0.0684776 0
   vertex 0.108551 0.0680798 0
   vertex 0.107654 0.0684776 0.01
  endloop
 endfacet
 facet normal -0.405246 -0.914208 0
  outer loop
   vertex 0.108551 0.0680798 0.01
   vertex 0.107654 0.0684776 0.01
   vertex 0.108551 0.0680798 0
  endloop
 endfacet
 facet normal -0.449607 -0.893226 0
  outer loop
   vertex 0.108551 0.0680798 0
   vertex 0.109428 0.0676384 0
   vertex 0.108551 0.0680798 0.01
  endloop
 endfacet
 facet normal -0.449607 -0.893226 0
  outer loop
   vertex 0.109428 0.0676384 0.01
   vertex 0.108551 0.0680798 0.01
   vertex 0.109428 0.0676384 0
  endloop
 endfacet
 facet normal -0.4929 -0.870086 0
  outer loop
   vertex 0.109428 0.0676384 0
   vertex 0.110282 0.0671546 0
   vertex 0.109428 0.0676384 0.01
  endloop
 endfacet
 facet normal -0.4929 -0.870086 -0
  outer loop
   vertex 0.110282 0.0671546 0
   vertex 0.110282 0.0671546 0.01
   vertex 0.109428 0.0676384 0.01
  endloop
 endfacet
 facet normal -0.534997 -0.844854 0
  outer loop
   vertex 0.110282 0.0671546 0
   vertex 0.111111 0.0666294 0
   vertex 0.110282 0.0671546 0.01
  endloop
 endfacet
 facet normal -0.534997 -0.844854 0
  outer loop
   vertex 0.111111 0.0666294 0.01
   vertex 0.110282 0.0671546 0.01
   vertex 0.111111 0.0666294 0
  endloop
 endfacet
 facet normal -0.57581 -0.817584 0
  outer loop
   vertex 0.111111 0.0666294 0
   vertex 0.111914 0.0660641 0
   vertex 0.111111 0.0666294 0.01
  endloop
 endfacet
 facet normal -0.57581 -0.817584 0
  outer loop
   vertex 0.111914 0.0660641 0.01
   vertex 0.111111 0.0666294 0.01
   vertex 0.111914 0.0660641 0
  endloop
 endfacet
 facet normal -0.61523 -0.788348 0
  outer loop
   vertex 0.111914 0.0660641 0
   vertex 0.112688 0.0654602 0
   vertex 0.111914 0.0660641 0.01
  endloop
 endfacet
 facet normal -0.61523 -0.788348 0
  outer loop
   vertex 0.112688 0.0654602 0.01
   vertex 0.111914 0.0660641 0.01
   vertex 0.112688 0.0654602 0
  endloop
 endfacet
 facet normal -0.653174 -0.757208 0
  outer loop
   vertex 0.112688 0.0654602 0
   vertex 0.113431 0.064819 0
   vertex 0.112688 0.0654602 0.01
  endloop
 endfacet
 facet normal -0.653174 -0.757208 0
  outer loop
   vertex 0.113431 0.064819 0.01
   vertex 0.112688 0.0654602 0.01
   vertex 0.113431 0.064819 0
  endloop
 endfacet
 facet normal -0.68954 -0.724248 0
  outer loop
   vertex 0.113431 0.064819 0
   vertex 0.114142 0.0641421 0
   vertex 0.113431 0.064819 0.01
  endloop
 endfacet
 facet normal -0.68954 -0.724248 0
  outer loop
   vertex 0.114142 0.0641421 0.01
   vertex 0.113431 0.064819 0.01
   vertex 0.114142 0.0641421 0
  endloop
 endfacet
 facet normal -0.707107 0.707107 0
  outer loop
   vertex 0.114142 0.0641421 0
   vertex 0.114142 0.0641421 0.01
   vertex 0.115468 0.065468 0
  endloop
 endfacet
 facet normal -0.707107 0.707107 0
  outer loop
   vertex 0.115468 0.065468 0.01
   vertex 0.115468 0.065468 0
   vertex 0.114142 0.0641421 0.01
  endloop
 endfacet
 facet normal -0.707105 0.707109 0
  outer loop
   vertex 0.115468 0.065468 0
   vertex 0.115468 0.065468 0.01
   vertex 0.116794 0.0667938 0
  endloop
 endfacet
 facet normal -0.707105 0.707109 0
  outer loop
   vertex 0.116794 0.0667938 0.01
   vertex 0.116794 0.0667938 0
   vertex 0.115468 0.065468 0.01
  endloop
 endfacet
 facet normal -0.707107 0.707107 0
  outer loop
   vertex 0.116794 0.0667938 0
   vertex 0.116794 0.0667938 0.01
   vertex 0.11812 0.0681196 0
  endloop
 endfacet
 facet normal -0.707107 0.707107 0
  outer loop
   vertex 0.11812 0.0681196 0.01
   vertex 0.11812 0.0681196 0
   vertex 0.116794 0.0667938 0.01
  endloop
 endfacet
 facet normal -0.707109 0.707105 0
  outer loop
   vertex 0.11812 0.0681196 0
   vertex 0.11812 0.0681196 0.01
   vertex 0.119445 0.0694454 0
  endloop
 endfacet
 facet normal -0.707109 0.707105 0
  outer loop
   vertex 0.119445 0.0694454 0.01
   vertex 0.119445 0.0694454 0
   vertex 0.11812 0.0681196 0.01
  endloop
 endfacet
 facet normal -0.707107 0.707107 0
  outer loop
   vertex 0.119445 0.0694454 0
   vertex 0.119445 0.0694454 0.01
   vertex 0.120771 0.0707713 0
  endloop
 endfacet
 facet normal -0.707107 0.707107 0
  outer loop
   vertex 0.120771 0.0707713 0.01
   vertex 0.120771 0.0707713 0
   vertex 0.119445 0.0694454 0.01
  endloop
 endfacet
 facet normal -0.707105 0.707109 0
  outer loop
   vertex 0.120771 0.0707713 0
   vertex 0.120771 0.0707713 0.01
   vertex 0.122097 0.0720971 0
  endloop
 endfacet
 facet normal -0.707105 0.707109 0
  outer loop
   vertex 0.122097 0.0720971 0.01
   vertex 0.122097 0.0720971 0
   vertex 0.120771 0.0707713 0.01
  endloop
 endfacet
 facet normal -0.707107 0.707107 0
  outer loop
   vertex 0.122097 0.0720971 0
   vertex 0.122097 0.0720971 0.01
   vertex 0.123423 0.0734229 0
  endloop
 endfacet
 facet normal -0.707107 0.707107 0
  outer loop
   vertex 0.123423 0.0734229 0.01
   vertex 0.123423 0.0734229 0
   vertex 0.122097 0.0720971 0.01
  endloop
 endfacet
 facet normal -0.707109 0.707105 0
  outer loop
   vertex 0.123423 0.0734229 0
   vertex 0.123423 0.0734229 0.01
   vertex 0.124749 0.0747487 0
  endloop
 endfacet
 facet normal -0.707109 0.707105 0
  outer loop
   vertex 0.124749 0.0747487 0.01
   vertex 0.124749 0.0747487 0
   vertex 0.123423 0.0734229 0.01
  endloop
 endfacet
 facet normal -0.707105 0.707109 0
  outer loop
   vertex 0.124749 0.0747487 0
   vertex 0.124749 0.0747487 0.01
   vertex 0.126075 0.0760746 0
  endloop
 endfacet
 facet normal -0.707105 0.707109 0
  outer loop
   vertex 0.126075 0.0760746 0.01
   vertex 0.126075 0.0760746 0
   vertex 0.124749 0.0747487 0.01
  endloop
 endfacet
 facet normal -0.707109 0.707105 0
  outer loop
   vertex 0.126075 0.0760746 0
   vertex 0.126075 0.0760746 0.01
   vertex 0.1274 0.0774004 0
  endloop
 endfacet
 facet normal -0.707109 0.707105 0
  outer loop
   vertex 0.1274 0.0774004 0.01
   vertex 0.1274 0.0774004 0
   vertex 0.126075 0.0760746 0.01
  endloop
 endfacet
 facet normal -0.707105 0.707109 0
  outer loop
   vertex 0.1274 0.0774004 0
   vertex 0.1274 0.0774004 0.01
   vertex 0.128726 0.0787262 0
  endloop
 endfacet
 facet normal -0.707105 0.707109 0
  outer loop
   vertex 0.128726 0.0787262 0.01
   vertex 0.128726 0.0787262 0
   vertex 0.1274 0.0774004 0.01
  endloop
 endfacet
 facet normal -0.707107 0.707107 0
  outer loop
   vertex 0.128726 0.0787262 0
   vertex 0.128726 0.0787262 0.01
   vertex 0.130052 0.080052 0
  endloop
 endfacet
 facet normal -0.707107 0.707107 0
  outer loop
   vertex 0.130052 0.080052 0.01
   vertex 0.130052 0.080052 0
   vertex 0.128726 0.0787262 0.01
  endloop
 endfacet
 facet normal -0.707109 0.707105 0
  outer loop
   vertex 0.130052 0.080052 0
   vertex 0.130052 0.080052 0.01
   vertex 0.131378 0.0813779 0
  endloop
 endfacet
 facet normal -0.707109 0.707105 0
  outer loop
   vertex 0.131378 0.0813779 0.01
   vertex 0.131378 0.0813779 0
   vertex 0.130052 0.080052 0.01
  endloop
 endfacet
 facet normal -0.707105 0.707109 0
  outer loop
   vertex 0.131378 0.0813779 0
   vertex 0.131378 0.0813779 0.01
   vertex 0.132704 0.0827037 0
  endloop
 endfacet
 facet normal -0.707105 0.707109 0
  outer loop
   vertex 0.132704 0.0827037 0.01
   vertex 0.132704 0.0827037 0
   vertex 0.131378 0.0813779 0.01
  endloop
 endfacet
 facet normal -0.707109 0.707105 0
  outer loop
   vertex 0.132704 0.0827037 0
   vertex 0.132704 0.0827037 0.01
   vertex 0.13403 0.0840295 0
  endloop
 endfacet
 facet normal -0.707109 0.707105 0
  outer loop
   vertex 0.13403 0.0840295 0.01
   vertex 0.13403 0.0840295 0
   vertex 0.132704 0.0827037 0.01
  endloop
 endfacet
 facet normal -0.707107 0.707107 0
  outer loop
   vertex 0.13403 0.0840295 0
   vertex 0.13403 0.0840295 0.01
   vertex 0.135355 0.0853553 0
  endloop
 endfacet
 facet normal -0.707107 0.707107 0
  outer loop
   vertex 0.135355 0.0853553 0.01
   vertex 0.135355 0.0853553 0
   vertex 0.13403 0.0840295 0.01
  endloop
 endfacet
 facet normal 0.707107 -0.707107 0
  outer loop
   vertex 0.114142 0.0641421 0
   vertex 0.115468 0.065468 0
   vertex 0.114142 0.0641421 0.01
  endloop
 endfacet
 facet normal 0.707107 -0.707107 0
  outer loop
   vertex 0.115468 0.065468 0.01
   vertex 0.114142 0.0641421 0.01
   vertex 0.115468 0.065468 0
  endloop
 endfacet
 facet normal 0.707105 -0.707109 0
  outer loop
   vertex 0.115468 0.065468 0
   vertex 0.116794 0.0667938 0
   vertex 0.115468 0.065468 0.01
  endloop
 endfacet
 facet normal 0.707105 -0.707109 0
  outer loop
   vertex 0.116794 0.0667938 0.01
   vertex 0.115468 0.065468 0.01
   vertex 0.116794 0.0667938 0
  endloop
 endfacet
 facet normal 0.707107 -0.707107 0
  outer loop
   vertex 0.116794 0.0667938 0
   vertex 0.11812 0.0681196 0
   vertex 0.116794 0.0667938 0.01
  endloop
 endfacet
 facet normal 0.707107 -0.707107 0
  outer loop
   vertex 0.11812 0.0681196 0.01
   vertex 0.116794 0.0667938 0.01
   vertex 0.11812 0.0681196 0
  endloop
 endfacet
 facet normal 0.707109 -0.707105 0
  outer loop
   vertex 0.11812 0.0681196 0
   vertex 0.119445 0.0694454 0
   vertex 0.11812 0.0681196 0.01
  endloop
 endfacet
 facet normal 0.707109 -0.707105 0
  outer loop
   vertex 0.119445 0.0694454 0.01
   vertex 0.11812 0.0681196 0.01
   vertex 0.119445 0.0694454 0
  endloop
 endfacet
 facet normal 0.707107 -0.707107 0
  outer loop
   vertex 0.119445 0.0694454 0
   vertex 0.120771 0.0707713 0
   vertex 0.119445 0.0694454 0.01
  endloop
 endfacet
 facet normal 0.707107 -0.707107 0
  outer loop
   vertex 0.120771 0.0707713 0.01
   vertex 0.119445 0.0694454 0.01
   vertex 0.120771 0.0707713 0
  endloop
 endfacet
 facet normal 0.707105 -0.707109 0
  outer loop
   vertex 0.120771 0.0707713 0
   vertex 0.122097 0.0720971 0
   vertex 0.120771 0.0707713 0.01
  endloop
 endfacet
 facet normal 0.707105 -0.707109 0
  outer loop
   vertex 0.122097 0.0720971 0.01
   vertex 0.120771 0.0707713 0.01
   vertex 0.122097 0.0720971 0
  endloop
 endfacet
 facet normal 0.707107 -0.707107 0
  outer loop
   vertex 0.122097 0.0720971 0
   vertex 0.123423 0.0734229 0
   vertex 0.122097 0.0720971 0.01
  endloop
 endfacet
 facet normal 0.707107 -0.707107 0
  outer loop
   vertex 0.123423 0.0734229 0.01
   vertex 0.122097 0.0720971 0.01
   vertex 0.123423 0.0734229 0
  endloop
 endfacet
 facet normal 0.707109 -0.707105 0
  outer loop
   vertex 0.123423 0.0734229 0
   vertex 0.124749 0.0747487 0
   vertex 0.123423 0.0734229 0.01
  endloop
 endfacet
 facet normal 0.707109 -0.707105 0
  outer loop
   vertex 0.124749 0.0747487 0.01
   vertex 0.123423 0.0734229 0.01
   vertex 0.124749 0.0747487 0
  endloop
 endfacet
 facet normal 0.707105 -0.707109 0
  outer loop
   vertex 0.124749 0.0747487 0
   vertex 0.126075 0.0760746 0
   vertex 0.124749 0.0747487 0.01
  endloop
 endfacet
 facet normal 0.707105 -0.707109 0
  outer loop
   vertex 0.126075 0.0760746 0.01
   vertex 0.124749 0.0747487 0.01
   vertex 0.126075 0.0760746 0
  endloop
 endfacet
 facet normal 0.707109 -0.707105 0
  outer loop
   vertex 0.126075 0.0760746 0
   vertex 0.1274 0.0774004 0
   vertex 0.126075 0.0760746 0.01
  endloop
 endfacet
 facet normal 0.707109 -0.707105 0
  outer loop
   vertex 0.1274 0.0774004 0.01
   vertex 0.126075 0.0760746 0.01
   vertex 0.1274 0.0774004 0
  endloop
 endfacet
 facet normal 0.707105 -0.707109 0
  outer loop
   vertex 0.1274 0.0774004 0
   vertex 0.128726 0.0787262 0
   vertex 0.1274 0.0774004 0.01
  endloop
 endfacet
 facet normal 0.707105 -0.707109 0
  outer loop
   vertex 0.128726 0.0787262 0.01
   vertex 0.1274 0.0774004 0.01
   vertex 0.128726 0.0787262 0
  endloop
 endfacet
 facet normal 0.707107 -0.707107 0
  outer loop
   vertex 0.128726 0.0787262 0
   vertex 0.130052 0.080052 0
   vertex 0.128726 0.0787262 0.01
  endloop
 endfacet
 facet normal 0.707107 -0.707107 0
  outer loop
   vertex 0.130052 0.080052 0.01
   vertex 0.128726 0.0787262 0.01
   vertex 0.130052 0.080052 0
  endloop
 endfacet
 facet normal 0.707109 -0.707105 0
  outer loop
   vertex 0.130052 0.080052 0
   vertex 0.131378 0.0813779 0
   vertex 0.130052 0.080052 0.01
  endloop
 endfacet
 facet normal 0.707109 -0.707105 0
  outer loop
   vertex 0.131378 0.0813779 0.01
   vertex 0.130052 0.080052 0.01
   vertex 0.131378 0.0813779 0
  endloop
 endfacet
 facet normal 0.707105 -0.707109 0
  outer loop
   vertex 0.131378 0.0813779 0
   vertex 0.132704 0.0827037 0
   vertex 0.131378 0.0813779 0.01
  endloop
 endfacet
 facet normal 0.707105 -0.707109 0
  outer loop
   vertex 0.132704 0.0827037 0.01
   vertex 0.131378 0.0813779 0.01
   vertex 0.132704 0.0827037 0
  endloop
 endfacet
 facet normal 0.707109 -0.707105 0
  outer loop
   vertex 0.132704 0.0827037 0
   vertex 0.13403 0.0840295 0
   vertex 0.132704 0.0827037 0.01
  endloop
 endfacet
 facet normal 0.707109 -0.707105 0
  outer loop
   vertex 0.13403 0.0840295 0.01
   vertex 0.132704 0.0827037 0.01
   vertex 0.13403 0.0840295 0
  endloop
 endfacet
 facet normal 0.707107 -0.707107 0
  outer loop
   vertex 0.13403 0.0840295 0
   vertex 0.135355 0.0853553 0
   vertex 0.13403 0.0840295 0.01
  endloop
 endfacet
 facet normal 0.707107 -0.707107 0
  outer loop
   vertex 0.135355 0.0853553 0.01
   vertex 0.13403 0.0840295 0.01
   vertex 0.135355 0.0853553 0
  endloop
 endfacet
 facet normal 0.707107 0.707107 0
  outer loop
   vertex 0.114142 0.0358579 0
   vertex 0.114142 0.0358579 0.01
   vertex 0.115468 0.034532 0
  endloop
 endfacet
 facet normal 0.707107 0.707107 -0
  outer loop
   vertex 0.115468 0.034532 0.01
   vertex 0.115468 0.034532 0
   vertex 0.114142 0.0358579 0.01
  endloop
 endfacet
 facet normal 0.707106 0.707108 0
  outer loop
   vertex 0.115468 0.034532 0
   vertex 0.115468 0.034532 0.01
   vertex 0.116794 0.0332062 0
  endloop
 endfacet
 facet normal 0.707106 0.707108 -0
  outer loop
   vertex 0.116794 0.0332062 0.01
   vertex 0.116794 0.0332062 0
   vertex 0.115468 0.034532 0.01
  endloop
 endfacet
 facet normal 0.707107 0.707107 0
  outer loop
   vertex 0.116794 0.0332062 0
   vertex 0.116794 0.0332062 0.01
   vertex 0.11812 0.0318804 0
  endloop
 endfacet
 facet normal 0.707107 0.707107 -0
  outer loop
   vertex 0.11812 0.0318804 0.01
   vertex 0.11812 0.0318804 0
   vertex 0.116794 0.0332062 0.01
  endloop
 endfacet
 facet normal 0.707108 0.707106 0
  outer loop
   vertex 0.11812 0.0318804 0
   vertex 0.11812 0.0318804 0.01
   vertex 0.119445 0.0305546 0
  endloop
 endfacet
 facet normal 0.707108 0.707106 -0
  outer loop
   vertex 0.119445 0.0305546 0.01
   vertex 0.119445 0.0305546 0
   vertex 0.11812 0.0318804 0.01
  endloop
 endfacet
 facet normal 0.707107 0.707106 0
  outer loop
   vertex 0.119445 0.0305546 0
   vertex 0.119445 0.0305546 0.01
   vertex 0.120771 0.0292287 0
  endloop
 endfacet
 facet normal 0.707107 0.707106 -0
  outer loop
   vertex 0.120771 0.0292287 0.01
   vertex 0.120771 0.0292287 0
   vertex 0.119445 0.0305546 0.01
  endloop
 endfacet
 facet normal 0.707105 0.707108 0
  outer loop
   vertex 0.120771 0.0292287 0
   vertex 0.120771 0.0292287 0.01
   vertex 0.122097 0.0279029 0
  endloop
 endfacet
 facet normal 0.707105 0.707108 -0
  outer loop
   vertex 0.122097 0.0279029 0.01
   vertex 0.122097 0.0279029 0
   vertex 0.120771 0.0292287 0.01
  endloop
 endfacet
 facet normal 0.707107 0.707107 0
  outer loop
   vertex 0.122097 0.0279029 0
   vertex 0.122097 0.0279029 0.01
   vertex 0.123423 0.0265771 0
  endloop
 endfacet
 facet normal 0.707107 0.707107 -0
  outer loop
   vertex 0.123423 0.0265771 0.01
   vertex 0.123423 0.0265771 0
   vertex 0.122097 0.0279029 0.01
  endloop
 endfacet
 facet normal 0.707108 0.707106 0
  outer loop
   vertex 0.123423 0.0265771 0
   vertex 0.123423 0.0265771 0.01
   vertex 0.124749 0.0252513 0
  endloop
 endfacet
 facet normal 0.707108 0.707106 -0
  outer loop
   vertex 0.124749 0.0252513 0.01
   vertex 0.124749 0.0252513 0
   vertex 0.123423 0.0265771 0.01
  endloop
 endfacet
 facet normal 0.707105 0.707109 0
  outer loop
   vertex 0.124749 0.0252513 0
   vertex 0.124749 0.0252513 0.01
   vertex 0.126075 0.0239254 0
  endloop
 endfacet
 facet normal 0.707105 0.707109 -0
  outer loop
   vertex 0.126075 0.0239254 0.01
   vertex 0.126075 0.0239254 0
   vertex 0.124749 0.0252513 0.01
  endloop
 endfacet
 facet normal 0.70711 0.707104 0
  outer loop
   vertex 0.126075 0.0239254 0
   vertex 0.126075 0.0239254 0.01
   vertex 0.1274 0.0225996 0
  endloop
 endfacet
 facet normal 0.70711 0.707104 -0
  outer loop
   vertex 0.1274 0.0225996 0.01
   vertex 0.1274 0.0225996 0
   vertex 0.126075 0.0239254 0.01
  endloop
 endfacet
 facet normal 0.707105 0.707109 0
  outer loop
   vertex 0.1274 0.0225996 0
   vertex 0.1274 0.0225996 0.01
   vertex 0.128726 0.0212738 0
  endloop
 endfacet
 facet normal 0.707105 0.707109 -0
  outer loop
   vertex 0.128726 0.0212738 0.01
   vertex 0.128726 0.0212738 0
   vertex 0.1274 0.0225996 0.01
  endloop
 endfacet
 facet normal 0.707106 0.707108 0
  outer loop
   vertex 0.128726 0.0212738 0
   vertex 0.128726 0.0212738 0.01
   vertex 0.130052 0.019948 0
  endloop
 endfacet
 facet normal 0.707106 0.707108 -0
  outer loop
   vertex 0.130052 0.019948 0.01
   vertex 0.130052 0.019948 0
   vertex 0.128726 0.0212738 0.01
  endloop
 endfacet
 facet normal 0.707109 0.707105 0
  outer loop
   vertex 0.130052 0.019948 0
   vertex 0.130052 0.019948 0.01
   vertex 0.131378 0.0186221 0
  endloop
 endfacet
 facet normal 0.707109 0.707105 -0
  outer loop
   vertex 0.131378 0.0186221 0.01
   vertex 0.131378 0.0186221 0
   vertex 0.130052 0.019948 0.01
  endloop
 endfacet
 facet normal 0.707106 0.707108 0
  outer loop
   vertex 0.131378 0.0186221 0
   vertex 0.131378 0.0186221 0.01
   vertex 0.132704 0.0172963 0
  endloop
 endfacet
 facet normal 0.707106 0.707108 -0
  outer loop
   vertex 0.132704 0.0172963 0.01
   vertex 0.132704 0.0172963 0
   vertex 0.131378 0.0186221 0.01
  endloop
 endfacet
 facet normal 0.707109 0.707105 0
  outer loop
   vertex 0.132704 0.0172963 0
   vertex 0.132704 0.0172963 0.01
   vertex 0.13403 0.0159705 0
  endloop
 endfacet
 facet normal 0.707109 0.707105 -0
  outer loop
   vertex 0.13403 0.0159705 0.01
   vertex 0.13403 0.0159705 0
   vertex 0.132704 0.0172963 0.01
  endloop
 endfacet
 facet normal 0.707106 0.707108 0
  outer loop
   vertex 0.13403 0.0159705 0
   vertex 0.13403 0.0159705 0.01
   vertex 0.135355 0.0146447 0
  endloop
 endfacet
 facet normal 0.707106 0.707108 -0
  outer loop
   vertex 0.135355 0.0146447 0.01
   vertex 0.135355 0.0146447 0
   vertex 0.13403 0.0159705 0.01
  endloop
 endfacet
 facet normal -0.707107 -0.707107 0
  outer loop
   vertex 0.114142 0.0358579 0
   vertex 0.115468 0.034532 0
   vertex 0.114142 0.0358579 0.01
  endloop
 endfacet
 facet normal -0.707107 -0.707107 0
  outer loop
   vertex 0.115468 0.034532 0.01
   vertex 0.114142 0.0358579 0.01
   vertex 0.115468 0.034532 0
  endloop
 endfacet
 facet normal -0.707106 -0.707108 0
  outer loop
   vertex 0.115468 0.034532 0
   vertex 0.116794 0.0332062 0
   vertex 0.115468 0.034532 0.01
  endloop
 endfacet
 facet normal -0.707106 -0.707108 0
  outer loop
   vertex 0.116794 0.0332062 0.01
   vertex 0.115468 0.034532 0.01
   vertex 0.116794 0.0332062 0
  endloop
 endfacet
 facet normal -0.707107 -0.707107 0
  outer loop
   vertex 0.116794 0.0332062 0
   vertex 0.11812 0.0318804 0
   vertex 0.116794 0.0332062 0.01
  endloop
 endfacet
 facet normal -0.707107 -0.707107 0
  outer loop
   vertex 0.11812 0.0318804 0.01
   vertex 0.116794 0.0332062 0.01
   vertex 0.11812 0.0318804 0
  endloop
 endfacet
 facet normal -0.707108 -0.707106 0
  outer loop
   vertex 0.11812 0.0318804 0
   vertex 0.119445 0.0305546 0
   vertex 0.11812 0.0318804 0.01
  endloop
 endfacet
 facet normal -0.707108 -0.707106 0
  outer loop
   vertex 0.119445 0.0305546 0.01
   vertex 0.11812 0.0318804 0.01
   vertex 0.119445 0.0305546 0
  endloop
 endfacet
 facet normal -0.707107 -0.707106 0
  outer loop
   vertex 0.119445 0.0305546 0
   vertex 0.120771 0.0292287 0
   vertex 0.119445 0.0305546 0.01
  endloop
 endfacet
 facet normal -0.707107 -0.707106 0
  outer loop
   vertex 0.120771 0.0292287 0.01
   vertex 0.119445 0.0305546 0.01
   vertex 0.120771 0.0292287 0
  endloop
 endfacet
 facet normal -0.707105 -0.707108 0
  outer loop
   vertex 0.120771 0.0292287 0
   vertex 0.122097 0.0279029 0
   vertex 0.120771 0.0292287 0.01
  endloop
 endfacet
 facet normal -0.707105 -0.707108 0
  outer loop
   vertex 0.122097 0.0279029 0.01
   vertex 0.120771 0.0292287 0.01
   vertex 0.122097 0.0279029 0
  endloop
 endfacet
 facet normal -0.707107 -0.707107 0
  outer loop
   vertex 0.122097 0.0279029 0
   vertex 0.123423 0.0265771 0
   vertex 0.122097 0.0279029 0.01
  endloop
 endfacet
 facet normal -0.707107 -0.707107 0
  outer loop
   vertex 0.123423 0.0265771 0.01
   vertex 0.122097 0.0279029 0.01
   vertex 0.123423 0.0265771 0
  endloop
 endfacet
 facet normal -0.707108 -0.707106 0
  outer loop
   vertex 0.123423 0.0265771 0
   vertex 0.124749 0.0252513 0
   vertex 0.123423 0.0265771 0.01
  endloop
 endfacet
 facet normal -0.707108 -0.707106 0
  outer loop
   vertex 0.124749 0.0252513 0.01
   vertex 0.123423 0.0265771 0.01
   vertex 0.124749 0.0252513 0
  endloop
 endfacet
 facet normal -0.707105 -0.707109 0
  outer loop
   vertex 0.124749 0.0252513 0
   vertex 0.126075 0.0239254 0
   vertex 0.124749 0.0252513 0.01
  endloop
 endfacet
 facet normal -0.707105 -0.707109 0
  outer loop
   vertex 0.126075 0.0239254 0.01
   vertex 0.124749 0.0252513 0.01
   vertex 0.126075 0.0239254 0
  endloop
 endfacet
 facet normal -0.70711 -0.707104 0
  outer loop
   vertex 0.126075 0.0239254 0
   vertex 0.1274 0.0225996 0
   vertex 0.126075 0.0239254 0.01
  endloop
 endfacet
 facet normal -0.70711 -0.707104 0
  outer loop
   vertex 0.1274 0.0225996 0.01
   vertex 0.126075 0.0239254 0.01
   vertex 0.1274 0.0225996 0
  endloop
 endfacet
 facet normal -0.707105 -0.707109 0
  outer loop
   vertex 0.1274 0.0225996 0
   vertex 0.128726 0.0212738 0
   vertex 0.1274 0.0225996 0.01
  endloop
 endfacet
 facet normal -0.707105 -0.707109 0
  outer loop
   vertex 0.128726 0.0212738 0.01
   vertex 0.1274 0.0225996 0.01
   vertex 0.128726 0.0212738 0
  endloop
 endfacet
 facet normal -0.707106 -0.707108 0
  outer loop
   vertex 0.128726 0.0212738 0
   vertex 0.130052 0.019948 0
   vertex 0.128726 0.0212738 0.01
  endloop
 endfacet
 facet normal -0.707106 -0.707108 0
  outer loop
   vertex 0.130052 0.019948 0.01
   vertex 0.128726 0.0212738 0.01
   vertex 0.130052 0.019948 0
  endloop
 endfacet
 facet normal -0.707109 -0.707105 0
  outer loop
   vertex 0.130052 0.019948 0
   vertex 0.131378 0.0186221 0
   vertex 0.130052 0.019948 0.01
  endloop
 endfacet
 facet normal -0.707109 -0.707105 0
  outer loop
   vertex 0.131378 0.0186221 0.01
   vertex 0.130052 0.019948 0.01
   vertex 0.131378 0.0186221 0
  endloop
 endfacet
 facet normal -0.707106 -0.707108 0
  outer loop
   vertex 0.131378 0.0186221 0
   vertex 0.132704 0.0172963 0
   vertex 0.131378 0.0186221 0.01
  endloop
 endfacet
 facet normal -0.707106 -0.707108 0
  outer loop
   vertex 0.132704 0.0172963 0.01
   vertex 0.131378 0.0186221 0.01
   vertex 0.132704 0.0172963 0
  endloop
 endfacet
 facet normal -0.707109 -0.707105 0
  outer loop
   vertex 0.132704 0.0172963 0
   vertex 0.13403 0.0159705 0
   vertex 0.132704 0.0172963 0.01
  endloop
 endfacet
 facet normal -0.707109 -0.707105 0
  outer loop
   vertex 0.13403 0.0159705 0.01
   vertex 0.132704 0.0172963 0.01
   vertex 0.13403 0.0159705 0
  endloop
 endfacet
 facet normal -0.707106 -0.707108 0
  outer loop
   vertex 0.13403 0.0159705 0
   vertex 0.135355 0.0146447 0
   vertex 0.13403 0.0159705 0.01
  endloop
 endfacet
 facet normal -0.707106 -0.707108 0
  outer loop
   vertex 0.135355 0.0146447 0.01
   vertex 0.13403 0.0159705 0.01
   vertex 0.135355 0.0146447 0
  endloop
 endfacet
 facet normal 0.707105 -0.707109 0
  outer loop
   vertex 0.0858579 0.0358579 0
   vertex 0.0858579 0.0358579 0.01
   vertex 0.084532 0.034532 0
  endloop
 endfacet
 facet normal 0.707105 -0.707109 0
  outer loop
   vertex 0.084532 0.034532 0.01
   vertex 0.084532 0.034532 0
   vertex 0.0858579 0.0358579 0.01
  endloop
 endfacet
 facet normal 0.707108 -0.707106 0
  outer loop
   vertex 0.084532 0.034532 0
   vertex 0.084532 0.034532 0.01
   vertex 0.0832062 0.0332062 0
  endloop
 endfacet
 facet normal 0.707108 -0.707106 0
  outer loop
   vertex 0.0832062 0.0332062 0.01
   vertex 0.0832062 0.0332062 0
   vertex 0.084532 0.034532 0.01
  endloop
 endfacet
 facet normal 0.707107 -0.707107 0
  outer loop
   vertex 0.0832062 0.0332062 0
   vertex 0.0832062 0.0332062 0.01
   vertex 0.0818804 0.0318804 0
  endloop
 endfacet
 facet normal 0.707107 -0.707107 0
  outer loop
   vertex 0.0818804 0.0318804 0.01
   vertex 0.0818804 0.0318804 0
   vertex 0.0832062 0.0332062 0.01
  endloop
 endfacet
 facet normal 0.707108 -0.707106 0
  outer loop
   vertex 0.0818804 0.0318804 0
   vertex 0.0818804 0.0318804 0.01
   vertex 0.0805546 0.0305546 0
  endloop
 endfacet
 facet normal 0.707108 -0.707106 0
  outer loop
   vertex 0.0805546 0.0305546 0.01
   vertex 0.0805546 0.0305546 0
   vertex 0.0818804 0.0318804 0.01
  endloop
 endfacet
 facet normal 0.707105 -0.707108 0
  outer loop
   vertex 0.0805546 0.0305546 0
   vertex 0.0805546 0.0305546 0.01
   vertex 0.0792287 0.0292287 0
  endloop
 endfacet
 facet normal 0.707105 -0.707108 0
  outer loop
   vertex 0.0792287 0.0292287 0.01
   vertex 0.0792287 0.0292287 0
   vertex 0.0805546 0.0305546 0.01
  endloop
 endfacet
 facet normal 0.707107 -0.707106 0
  outer loop
   vertex 0.0792287 0.0292287 0
   vertex 0.0792287 0.0292287 0.01
   vertex 0.0779029 0.0279029 0
  endloop
 endfacet
 facet normal 0.707107 -0.707106 0
  outer loop
   vertex 0.0779029 0.0279029 0.01
   vertex 0.0779029 0.0279029 0
   vertex 0.0792287 0.0292287 0.01
  endloop
 endfacet
 facet normal 0.707107 -0.707107 0
  outer loop
   vertex 0.0779029 0.0279029 0
   vertex 0.0779029 0.0279029 0.01
   vertex 0.0765771 0.0265771 0
  endloop
 endfacet
 facet normal 0.707107 -0.707107 0
  outer loop
   vertex 0.0765771 0.0265771 0.01
   vertex 0.0765771 0.0265771 0
   vertex 0.0779029 0.0279029 0.01
  endloop
 endfacet
 facet normal 0.707106 -0.707108 0
  outer loop
   vertex 0.0765771 0.0265771 0
   vertex 0.0765771 0.0265771 0.01
   vertex 0.0752513 0.0252513 0
  endloop
 endfacet
 facet normal 0.707106 -0.707108 0
  outer loop
   vertex 0.0752513 0.0252513 0.01
   vertex 0.0752513 0.0252513 0
   vertex 0.0765771 0.0265771 0.01
  endloop
 endfacet
 facet normal 0.707107 -0.707107 0
  outer loop
   vertex 0.0752513 0.0252513 0
   vertex 0.0752513 0.0252513 0.01
   vertex 0.0739254 0.0239254 0
  endloop
 endfacet
 facet normal 0.707107 -0.707107 0
  outer loop
   vertex 0.0739254 0.0239254 0.01
   vertex 0.0739254 0.0239254 0
   vertex 0.0752513 0.0252513 0.01
  endloop
 endfacet
 facet normal 0.707108 -0.707106 0
  outer loop
   vertex 0.0739254 0.0239254 0
   vertex 0.0739254 0.0239254 0.01
   vertex 0.0725996 0.0225996 0
  endloop
 endfacet
 facet normal 0.707108 -0.707106 0
  outer loop
   vertex 0.0725996 0.0225996 0.01
   vertex 0.0725996 0.0225996 0
   vertex 0.0739254 0.0239254 0.01
  endloop
 endfacet
 facet normal 0.707107 -0.707107 0
  outer loop
   vertex 0.0725996 0.0225996 0
   vertex 0.0725996 0.0225996 0.01
   vertex 0.0712738 0.0212738 0
  endloop
 endfacet
 facet normal 0.707107 -0.707107 0
  outer loop
   vertex 0.0712738 0.0212738 0.01
   vertex 0.0712738 0.0212738 0
   vertex 0.0725996 0.0225996 0.01
  endloop
 endfacet
 facet normal 0.707106 -0.707108 0
  outer loop
   vertex 0.0712738 0.0212738 0
   vertex 0.0712738 0.0212738 0.01
   vertex 0.069948 0.019948 0
  endloop
 endfacet
 facet normal 0.707106 -0.707108 0
  outer loop
   vertex 0.069948 0.019948 0.01
   vertex 0.069948 0.019948 0
   vertex 0.0712738 0.0212738 0.01
  endloop
 endfacet
 facet normal 0.707107 -0.707107 0
  outer loop
   vertex 0.069948 0.019948 0
   vertex 0.069948 0.019948 0.01
   vertex 0.0686221 0.0186221 0
  endloop
 endfacet
 facet normal 0.707107 -0.707107 0
  outer loop
   vertex 0.0686221 0.0186221 0.01
   vertex 0.0686221 0.0186221 0
   vertex 0.069948 0.019948 0.01
  endloop
 endfacet
 facet normal 0.707108 -0.707106 0
  outer loop
   vertex 0.0686221 0.0186221 0
   vertex 0.0686221 0.0186221 0.01
   vertex 0.0672963 0.0172963 0
  endloop
 endfacet
 facet normal 0.707108 -0.707106 0
  outer loop
   vertex 0.0672963 0.0172963 0.01
   vertex 0.0672963 0.0172963 0
   vertex 0.0686221 0.0186221 0.01
  endloop
 endfacet
 facet normal 0.707107 -0.707107 0
  outer loop
   vertex 0.0672963 0.0172963 0
   vertex 0.0672963 0.0172963 0.01
   vertex 0.0659705 0.0159705 0
  endloop
 endfacet
 facet normal 0.707107 -0.707107 0
  outer loop
   vertex 0.0659705 0.0159705 0.01
   vertex 0.0659705 0.0159705 0
   vertex 0.0672963 0.0172963 0.01
  endloop
 endfacet
 facet normal 0.707106 -0.707108 0
  outer loop
   vertex 0.0659705 0.0159705 0
   vertex 0.0659705 0.0159705 0.01
   vertex 0.0646447 0.0146447 0
  endloop
 endfacet
 facet normal 0.707106 -0.707108 0
  outer loop
   vertex 0.0646447 0.0146447 0.01
   vertex 0.0646447 0.0146447 0
   vertex 0.0659705 0.0159705 0.01
  endloop
 endfacet
 facet normal -0.707105 0.707109 0
  outer loop
   vertex 0.0858579 0.0358579 0
   vertex 0.084532 0.034532 0
   vertex 0.0858579 0.0358579 0.01
  endloop
 endfacet
 facet normal -0.707105 0.707109 0
  outer loop
   vertex 0.084532 0.034532 0.01
   vertex 0.0858579 0.0358579 0.01
   vertex 0.084532 0.034532 0
  endloop
 endfacet
 facet normal -0.707108 0.707106 0
  outer loop
   vertex 0.084532 0.034532 0
   vertex 0.0832062 0.0332062 0
   vertex 0.084532 0.034532 0.01
  endloop
 endfacet
 facet normal -0.707108 0.707106 0
  outer loop
   vertex 0.0832062 0.0332062 0.01
   vertex 0.084532 0.034532 0.01
   vertex 0.0832062 0.0332062 0
  endloop
 endfacet
 facet normal -0.707107 0.707107 0
  outer loop
   vertex 0.0832062 0.0332062 0
   vertex 0.0818804 0.0318804 0
   vertex 0.0832062 0.0332062 0.01
  endloop
 endfacet
 facet normal -0.707107 0.707107 0
  outer loop
   vertex 0.0818804 0.0318804 0.01
   vertex 0.0832062 0.0332062 0.01
   vertex 0.0818804 0.0318804 0
  endloop
 endfacet
 facet normal -0.707108 0.707106 0
  outer loop
   vertex 0.0818804 0.0318804 0
   vertex 0.0805546 0.0305546 0
   vertex 0.0818804 0.0318804 0.01
  endloop
 endfacet
 facet normal -0.707108 0.707106 0
  outer loop
   vertex 0.0805546 0.0305546 0.01
   vertex 0.0818804 0.0318804 0.01
   vertex 0.0805546 0.0305546 0
  endloop
 endfacet
 facet normal -0.707105 0.707108 0
  outer loop
   vertex 0.0805546 0.0305546 0
   vertex 0.0792287 0.0292287 0
   vertex 0.0805546 0.0305546 0.01
  endloop
 endfacet
 facet normal -0.707105 0.707108 0
  outer loop
   vertex 0.0792287 0.0292287 0.01
   vertex 0.0805546 0.0305546 0.01
   vertex 0.0792287 0.0292287 0
  endloop
 endfacet
 facet normal -0.707107 0.707106 0
  outer loop
   vertex 0.0792287 0.0292287 0
   vertex 0.0779029 0.0279029 0
   vertex 0.0792287 0.0292287 0.01
  endloop
 endfacet
 facet normal -0.707107 0.707106 0
  outer loop
   vertex 0.0779029 0.0279029 0.01
   vertex 0.0792287 0.0292287 0.01
   vertex 0.0779029 0.0279029 0
  endloop
 endfacet
 facet normal -0.707107 0.707107 0
  outer loop
   vertex 0.0779029 0.0279029 0
   vertex 0.0765771 0.0265771 0
   vertex 0.0779029 0.0279029 0.01
  endloop
 endfacet
 facet normal -0.707107 0.707107 0
  outer loop
   vertex 0.0765771 0.0265771 0.01
   vertex 0.0779029 0.0279029 0.01
   vertex 0.0765771 0.0265771 0
  endloop
 endfacet
 facet normal -0.707106 0.707108 0
  outer loop
   vertex 0.0765771 0.0265771 0
   vertex 0.0752513 0.0252513 0
   vertex 0.0765771 0.0265771 0.01
  endloop
 endfacet
 facet normal -0.707106 0.707108 0
  outer loop
   vertex 0.0752513 0.0252513 0.01
   vertex 0.0765771 0.0265771 0.01
   vertex 0.0752513 0.0252513 0
  endloop
 endfacet
 facet normal -0.707107 0.707107 0
  outer loop
   vertex 0.0752513 0.0252513 0
   vertex 0.0739254 0.0239254 0
   vertex 0.0752513 0.0252513 0.01
  endloop
 endfacet
 facet normal -0.707107 0.707107 0
  outer loop
   vertex 0.0739254 0.0239254 0.01
   vertex 0.0752513 0.0252513 0.01
   vertex 0.0739254 0.0239254 0
  endloop
 endfacet
 facet normal -0.707108 0.707106 0
  outer loop
   vertex 0.0739254 0.0239254 0
   vertex 0.0725996 0.0225996 0
   vertex 0.0739254 0.0239254 0.01
  endloop
 endfacet
 facet normal -0.707108 0.707106 0
  outer loop
   vertex 0.0725996 0.0225996 0.01
   vertex 0.0739254 0.0239254 0.01
   vertex 0.0725996 0.0225996 0
  endloop
 endfacet
 facet normal -0.707107 0.707107 0
  outer loop
   vertex 0.0725996 0.0225996 0
   vertex 0.0712738 0.0212738 0
   vertex 0.0725996 0.0225996 0.01
  endloop
 endfacet
 facet normal -0.707107 0.707107 0
  outer loop
   vertex 0.0712738 0.0212738 0.01
   vertex 0.0725996 0.0225996 0.01
   vertex 0.0712738 0.0212738 0
  endloop
 endfacet
 facet normal -0.707106 0.707108 0
  outer loop
   vertex 0.0712738 0.0212738 0
   vertex 0.069948 0.019948 0
   vertex 0.0712738 0.0212738 0.01
  endloop
 endfacet
 facet normal -0.707106 0.707108 0
  outer loop
   vertex 0.069948 0.019948 0.01
   vertex 0.0712738 0.0212738 0.01
   vertex 0.069948 0.019948 0
  endloop
 endfacet
 facet normal -0.707107 0.707107 0
  outer loop
   vertex 0.069948 0.019948 0
   vertex 0.0686221 0.0186221 0
   vertex 0.069948 0.019948 0.01
  endloop
 endfacet
 facet normal -0.707107 0.707107 0
  outer loop
   vertex 0.0686221 0.0186221 0.01
   vertex 0.069948 0.019948 0.01
   vertex 0.0686221 0.0186221 0
  endloop
 endfacet
 facet normal -0.707108 0.707106 0
  outer loop
   vertex 0.0686221 0.0186221 0
   vertex 0.0672963 0.0172963 0
   vertex 0.0686221 0.0186221 0.01
  endloop
 endfacet
 facet normal -0.707108 0.707106 0
  outer loop
   vertex 0.0672963 0.0172963 0.01
   vertex 0.0686221 0.0186221 0.01
   vertex 0.0672963 0.0172963 0
  endloop
 endfacet
 facet normal -0.707107 0.707107 0
  outer loop
   vertex 0.0672963 0.0172963 0
   vertex 0.0659705 0.0159705 0
   vertex 0.0672963 0.0172963 0.01
  endloop
 endfacet
 facet normal -0.707107 0.707107 0
  outer loop
   vertex 0.0659705 0.0159705 0.01
   vertex 0.0672963 0.0172963 0.01
   vertex 0.0659705 0.0159705 0
  endloop
 endfacet
 facet normal -0.707106 0.707108 0
  outer loop
   vertex 0.0659705 0.0159705 0
   vertex 0.0646447 0.0146447 0
   vertex 0.0659705 0.0159705 0.01
  endloop
 endfacet
 facet normal -0.707106 0.707108 0
  outer loop
   vertex 0.0646447 0.0146447 0.01
   vertex 0.0659705 0.0159705 0.01
   vertex 0.0646447 0.0146447 0
  endloop
 endfacet
 facet normal -0.707105 -0.707109 -0
  outer loop
   vertex 0.0858579 0.0641421 0
   vertex 0.0858579 0.0641421 0.01
   vertex 0.084532 0.065468 0
  endloop
 endfacet
 facet normal -0.707105 -0.707109 0
  outer loop
   vertex 0.084532 0.065468 0.01
   vertex 0.084532 0.065468 0
   vertex 0.0858579 0.0641421 0.01
  endloop
 endfacet
 facet normal -0.707107 -0.707107 -0
  outer loop
   vertex 0.084532 0.065468 0
   vertex 0.084532 0.065468 0.01
   vertex 0.0832062 0.0667938 0
  endloop
 endfacet
 facet normal -0.707107 -0.707107 0
  outer loop
   vertex 0.0832062 0.0667938 0.01
   vertex 0.0832062 0.0667938 0
   vertex 0.084532 0.065468 0.01
  endloop
 endfacet
 facet normal -0.707107 -0.707107 -0
  outer loop
   vertex 0.0832062 0.0667938 0
   vertex 0.0832062 0.0667938 0.01
   vertex 0.0818804 0.0681196 0
  endloop
 endfacet
 facet normal -0.707107 -0.707107 0
  outer loop
   vertex 0.0818804 0.0681196 0.01
   vertex 0.0818804 0.0681196 0
   vertex 0.0832062 0.0667938 0.01
  endloop
 endfacet
 facet normal -0.707109 -0.707105 -0
  outer loop
   vertex 0.0818804 0.0681196 0
   vertex 0.0818804 0.0681196 0.01
   vertex 0.0805546 0.0694454 0
  endloop
 endfacet
 facet normal -0.707109 -0.707105 0
  outer loop
   vertex 0.0805546 0.0694454 0.01
   vertex 0.0805546 0.0694454 0
   vertex 0.0818804 0.0681196 0.01
  endloop
 endfacet
 facet normal -0.707105 -0.707109 -0
  outer loop
   vertex 0.0805546 0.0694454 0
   vertex 0.0805546 0.0694454 0.01
   vertex 0.0792287 0.0707713 0
  endloop
 endfacet
 facet normal -0.707105 -0.707109 0
  outer loop
   vertex 0.0792287 0.0707713 0.01
   vertex 0.0792287 0.0707713 0
   vertex 0.0805546 0.0694454 0.01
  endloop
 endfacet
 facet normal -0.707107 -0.707107 -0
  outer loop
   vertex 0.0792287 0.0707713 0
   vertex 0.0792287 0.0707713 0.01
   vertex 0.0779029 0.0720971 0
  endloop
 endfacet
 facet normal -0.707107 -0.707107 0
  outer loop
   vertex 0.0779029 0.0720971 0.01
   vertex 0.0779029 0.0720971 0
   vertex 0.0792287 0.0707713 0.01
  endloop
 endfacet
 facet normal -0.707107 -0.707107 -0
  outer loop
   vertex 0.0779029 0.0720971 0
   vertex 0.0779029 0.0720971 0.01
   vertex 0.0765771 0.0734229 0
  endloop
 endfacet
 facet normal -0.707107 -0.707107 0
  outer loop
   vertex 0.0765771 0.0734229 0.01
   vertex 0.0765771 0.0734229 0
   vertex 0.0779029 0.0720971 0.01
  endloop
 endfacet
 facet normal -0.707107 -0.707107 -0
  outer loop
   vertex 0.0765771 0.0734229 0
   vertex 0.0765771 0.0734229 0.01
   vertex 0.0752513 0.0747487 0
  endloop
 endfacet
 facet normal -0.707107 -0.707107 0
  outer loop
   vertex 0.0752513 0.0747487 0.01
   vertex 0.0752513 0.0747487 0
   vertex 0.0765771 0.0734229 0.01
  endloop
 endfacet
 facet normal -0.707107 -0.707107 -0
  outer loop
   vertex 0.0752513 0.0747487 0
   vertex 0.0752513 0.0747487 0.01
   vertex 0.0739254 0.0760746 0
  endloop
 endfacet
 facet normal -0.707107 -0.707107 0
  outer loop
   vertex 0.0739254 0.0760746 0.01
   vertex 0.0739254 0.0760746 0
   vertex 0.0752513 0.0747487 0.01
  endloop
 endfacet
 facet normal -0.707107 -0.707107 -0
  outer loop
   vertex 0.0739254 0.0760746 0
   vertex 0.0739254 0.0760746 0.01
   vertex 0.0725996 0.0774004 0
  endloop
 endfacet
 facet normal -0.707107 -0.707107 0
  outer loop
   vertex 0.0725996 0.0774004 0.01
   vertex 0.0725996 0.0774004 0
   vertex 0.0739254 0.0760746 0.01
  endloop
 endfacet
 facet normal -0.707107 -0.707107 -0
  outer loop
   vertex 0.0725996 0.0774004 0
   vertex 0.0725996 0.0774004 0.01
   vertex 0.0712738 0.0787262 0
  endloop
 endfacet
 facet normal -0.707107 -0.707107 0
  outer loop
   vertex 0.0712738 0.0787262 0.01
   vertex 0.0712738 0.0787262 0
   vertex 0.0725996 0.0774004 0.01
  endloop
 endfacet
 facet normal -0.707107 -0.707107 -0
  outer loop
   vertex 0.0712738 0.0787262 0
   vertex 0.0712738 0.0787262 0.01
   vertex 0.069948 0.080052 0
  endloop
 endfacet
 facet normal -0.707107 -0.707107 0
  outer loop
   vertex 0.069948 0.080052 0.01
   vertex 0.069948 0.080052 0
   vertex 0.0712738 0.0787262 0.01
  endloop
 endfacet
 facet normal -0.707107 -0.707107 -0
  outer loop
   vertex 0.069948 0.080052 0
   vertex 0.069948 0.080052 0.01
   vertex 0.0686221 0.0813779 0
  endloop
 endfacet
 facet normal -0.707107 -0.707107 0
  outer loop
   vertex 0.0686221 0.0813779 0.01
   vertex 0.0686221 0.0813779 0
   vertex 0.069948 0.080052 0.01
  endloop
 endfacet
 facet normal -0.707107 -0.707107 -0
  outer loop
   vertex 0.0686221 0.0813779 0
   vertex 0.0686221 0.0813779 0.01
   vertex 0.0672963 0.0827037 0
  endloop
 endfacet
 facet normal -0.707107 -0.707107 0
  outer loop
   vertex 0.0672963 0.0827037 0.01
   vertex 0.0672963 0.0827037 0
   vertex 0.0686221 0.0813779 0.01
  endloop
 endfacet
 facet normal -0.707107 -0.707107 -0
  outer loop
   vertex 0.0672963 0.0827037 0
   vertex 0.0672963 0.0827037 0.01
   vertex 0.0659705 0.0840295 0
  endloop
 endfacet
 facet normal -0.707107 -0.707107 0
  outer loop
   vertex 0.0659705 0.0840295 0.01
   vertex 0.0659705 0.0840295 0
   vertex 0.0672963 0.0827037 0.01
  endloop
 endfacet
 facet normal -0.707107 -0.707107 -0
  outer loop
   vertex 0.0659705 0.0840295 0
   vertex 0.0659705 0.0840295 0.01
   vertex 0.0646447 0.0853553 0
  endloop
 endfacet
 facet normal -0.707107 -0.707107 0
  outer loop
   vertex 0.0646447 0.0853553 0.01
   vertex 0.0646447 0.0853553 0
   vertex 0.0659705 0.0840295 0.01
  endloop
 endfacet
 facet normal 0.707105 0.707109 0
  outer loop
   vertex 0.0858579 0.0641421 0
   vertex 0.084532 0.065468 0
   vertex 0.0858579 0.0641421 0.01
  endloop
 endfacet
 facet normal 0.707105 0.707109 0
  outer loop
   vertex 0.084532 0.065468 0.01
   vertex 0.0858579 0.0641421 0.01
   vertex 0.084532 0.065468 0
  endloop
 endfacet
 facet normal 0.707107 0.707107 0
  outer loop
   vertex 0.084532 0.065468 0
   vertex 0.0832062 0.0667938 0
   vertex 0.084532 0.065468 0.01
  endloop
 endfacet
 facet normal 0.707107 0.707107 0
  outer loop
   vertex 0.0832062 0.0667938 0.01
   vertex 0.084532 0.065468 0.01
   vertex 0.0832062 0.0667938 0
  endloop
 endfacet
 facet normal 0.707107 0.707107 0
  outer loop
   vertex 0.0832062 0.0667938 0
   vertex 0.0818804 0.0681196 0
   vertex 0.0832062 0.0667938 0.01
  endloop
 endfacet
 facet normal 0.707107 0.707107 0
  outer loop
   vertex 0.0818804 0.0681196 0.01
   vertex 0.0832062 0.0667938 0.01
   vertex 0.0818804 0.0681196 0
  endloop
 endfacet
 facet normal 0.707109 0.707105 0
  outer loop
   vertex 0.0818804 0.0681196 0
   vertex 0.0805546 0.0694454 0
   vertex 0.0818804 0.0681196 0.01
  endloop
 endfacet
 facet normal 0.707109 0.707105 0
  outer loop
   vertex 0.0805546 0.0694454 0.01
   vertex 0.0818804 0.0681196 0.01
   vertex 0.0805546 0.0694454 0
  endloop
 endfacet
 facet normal 0.707105 0.707109 0
  outer loop
   vertex 0.0805546 0.0694454 0
   vertex 0.0792287 0.0707713 0
   vertex 0.0805546 0.0694454 0.01
  endloop
 endfacet
 facet normal 0.707105 0.707109 0
  outer loop
   vertex 0.0792287 0.0707713 0.01
   vertex 0.0805546 0.0694454 0.01
   vertex 0.0792287 0.0707713 0
  endloop
 endfacet
 facet normal 0.707107 0.707107 0
  outer loop
   vertex 0.0792287 0.0707713 0
   vertex 0.0779029 0.0720971 0
   vertex 0.0792287 0.0707713 0.01
  endloop
 endfacet
 facet normal 0.707107 0.707107 0
  outer loop
   vertex 0.0779029 0.0720971 0.01
   vertex 0.0792287 0.0707713 0.01
   vertex 0.0779029 0.0720971 0
  endloop
 endfacet
 facet normal 0.707107 0.707107 0
  outer loop
   vertex 0.0779029 0.0720971 0
   vertex 0.0765771 0.0734229 0
   vertex 0.0779029 0.0720971 0.01
  endloop
 endfacet
 facet normal 0.707107 0.707107 0
  outer loop
   vertex 0.0765771 0.0734229 0.01
   vertex 0.0779029 0.0720971 0.01
   vertex 0.0765771 0.0734229 0
  endloop
 endfacet
 facet normal 0.707107 0.707107 0
  outer loop
   vertex 0.0765771 0.0734229 0
   vertex 0.0752513 0.0747487 0
   vertex 0.0765771 0.0734229 0.01
  endloop
 endfacet
 facet normal 0.707107 0.707107 0
  outer loop
   vertex 0.0752513 0.0747487 0.01
   vertex 0.0765771 0.0734229 0.01
   vertex 0.0752513 0.0747487 0
  endloop
 endfacet
 facet normal 0.707107 0.707107 0
  outer loop
   vertex 0.0752513 0.0747487 0
   vertex 0.0739254 0.0760746 0
   vertex 0.0752513 0.0747487 0.01
  endloop
 endfacet
 facet normal 0.707107 0.707107 0
  outer loop
   vertex 0.0739254 0.0760746 0.01
   vertex 0.0752513 0.0747487 0.01
   vertex 0.0739254 0.0760746 0
  endloop
 endfacet
 facet normal 0.707107 0.707107 0
  outer loop
   vertex 0.0739254 0.0760746 0
   vertex 0.0725996 0.0774004 0
   vertex 0.0739254 0.0760746 0.01
  endloop
 endfacet
 facet normal 0.707107 0.707107 0
  outer loop
   vertex 0.0725996 0.0774004 0.01
   vertex 0.0739254 0.0760746 0.01
   vertex 0.0725996 0.0774004 0
  endloop
 endfacet
 facet normal 0.707107 0.707107 0
  outer loop
   vertex 0.0725996 0.0774004 0
   vertex 0.0712738 0.0787262 0
   vertex 0.0725996 0.0774004 0.01
  endloop
 endfacet
 facet normal 0.707107 0.707107 0
  outer loop
   vertex 0.0712738 0.0787262 0.01
   vertex 0.0725996 0.0774004 0.01
   vertex 0.0712738 0.0787262 0
  endloop
 endfacet
 facet normal 0.707107 0.707107 0
  outer loop
   vertex 0.0712738 0.0787262 0
   vertex 0.069948 0.080052 0
   vertex 0.0712738 0.0787262 0.01
  endloop
 endfacet
 facet normal 0.707107 0.707107 0
  outer loop
   vertex 0.069948 0.080052 0.01
   vertex 0.0712738 0.0787262 0.01
   vertex 0.069948 0.080052 0
  endloop
 endfacet
 facet normal 0.707107 0.707107 0
  outer loop
   vertex 0.069948 0.080052 0
   vertex 0.0686221 0.0813779 0
   vertex 0.069948 0.080052 0.01
  endloop
 endfacet
 facet normal 0.707107 0.707107 0
  outer loop
   vertex 0.0686221 0.0813779 0.01
   vertex 0.069948 0.080052 0.01
   vertex 0.0686221 0.0813779 0
  endloop
 endfacet
 facet normal 0.707107 0.707107 0
  outer loop
   vertex 0.0686221 0.0813779 0
   vertex 0.0672963 0.0827037 0
   vertex 0.0686221 0.0813779 0.01
  endloop
 endfacet
 facet normal 0.707107 0.707107 0
  outer loop
   vertex 0.0672963 0.0827037 0.01
   vertex 0.0686221 0.0813779 0.01
   vertex 0.0672963 0.0827037 0
  endloop
 endfacet
 facet normal 0.707107 0.707107 0
  outer loop
   vertex 0.0672963 0.0827037 0
   vertex 0.0659705 0.0840295 0
   vertex 0.0672963 0.0827037 0.01
  endloop
 endfacet
 facet normal 0.707107 0.707107 0
  outer loop
   vertex 0.0659705 0.0840295 0.01
   vertex 0.0672963 0.0827037 0.01
   vertex 0.0659705 0.0840295 0
  endloop
 endfacet
 facet normal 0.707107 0.707107 0
  outer loop
   vertex 0.0659705 0.0840295 0
   vertex 0.0646447 0.0853553 0
   vertex 0.0659705 0.0840295 0.01
  endloop
 endfacet
 facet normal 0.707107 0.707107 0
  outer loop
   vertex 0.0646447 0.0853553 0.01
   vertex 0.0659705 0.0840295 0.01
   vertex 0.0646447 0.0853553 0
  endloop
 endfacet
endsolid
