solid zone0
 facet normal 0 0 -1
  outer loop
   vertex -1500 -1500 0
   vertex -1500 -1000 0
   vertex -1000 -1000 0
  endloop
 endfacet
 facet normal 0 0 -1
  outer loop
   vertex -1500 -1500 0
   vertex -1000 -1000 0
   vertex -1000 -1500 0
  endloop
 endfacet
 facet normal 0 0 -1
  outer loop
   vertex -1000 -1500 0
   vertex -1000 -1000 0
   vertex -500 -1000 0
  endloop
 endfacet
 facet normal 0 0 -1
  outer loop
   vertex -1000 -1500 0
   vertex -500 -1000 0
   vertex -500 -1500 0
  endloop
 endfacet
 facet normal 0 0 -1
  outer loop
   vertex -1500 -1000 0
   vertex -1500 -500 0
   vertex -1000 -500 0
  endloop
 endfacet
 facet normal 0 0 -1
  outer loop
   vertex -1500 -1000 0
   vertex -1000 -500 0
   vertex -1000 -1000 0
  endloop
 endfacet
 facet normal 0 0 -1
  outer loop
   vertex -1000 -1000 0
   vertex -1000 -500 0
   vertex -500 -500 0
  endloop
 endfacet
 facet normal 0 0 -1
  outer loop
   vertex -1000 -1000 0
   vertex -500 -500 0
   vertex -500 -1000 0
  endloop
 endfacet
 facet normal 0 0 -1
  outer loop
   vertex -1500 -500 0
   vertex -1500 0 0
   vertex -1000 0 0
  endloop
 endfacet
 facet normal 0 0 -1
  outer loop
   vertex -1500 -500 0
   vertex -1000 0 0
   vertex -1000 -500 0
  endloop
 endfacet
 facet normal 0 0 -1
  outer loop
   vertex -1000 -500 0
   vertex -1000 0 0
   vertex -500 0 0
  endloop
 endfacet
 facet normal 0 0 -1
  outer loop
   vertex -1000 -500 0
   vertex -500 0 0
   vertex -500 -500 0
  endloop
 endfacet
 facet normal 0 0 -1
  outer loop
   vertex -500 -1500 0
   vertex -500 -1000 0
   vertex 0 -1000 0
  endloop
 endfacet
 facet normal 0 0 -1
  outer loop
   vertex -500 -1500 0
   vertex 0 -1000 0
   vertex 0 -1500 0
  endloop
 endfacet
 facet normal 0 0 -1
  outer loop
   vertex -500 -1000 0
   vertex -500 -500 0
   vertex 0 -500 0
  endloop
 endfacet
 facet normal 0 0 -1
  outer loop
   vertex -500 -1000 0
   vertex 0 -500 0
   vertex 0 -1000 0
  endloop
 endfacet
 facet normal 0 0 -1
  outer loop
   vertex -500 -500 0
   vertex -500 0 0
   vertex 0 0 0
  endloop
 endfacet
 facet normal 0 0 -1
  outer loop
   vertex -500 -500 0
   vertex 0 0 0
   vertex 0 -500 0
  endloop
 endfacet
endsolid zone0
