solid zone0
 facet normal -1 0 0
  outer loop
   vertex -1500 -1500 0
   vertex -1500 -1500 500
   vertex -1500 -1000 500
  endloop
 endfacet
 facet normal -1 0 0
  outer loop
   vertex -1500 -1500 0
   vertex -1500 -1000 500
   vertex -1500 -1000 0
  endloop
 endfacet
 facet normal -1 0 0
  outer loop
   vertex -1500 -1500 500
   vertex -1500 -1500 1000
   vertex -1500 -1000 1000
  endloop
 endfacet
 facet normal -1 0 0
  outer loop
   vertex -1500 -1500 500
   vertex -1500 -1000 1000
   vertex -1500 -1000 500
  endloop
 endfacet
 facet normal -1 0 0
  outer loop
   vertex -1500 -1000 0
   vertex -1500 -1000 500
   vertex -1500 -500 500
  endloop
 endfacet
 facet normal -1 0 0
  outer loop
   vertex -1500 -1000 0
   vertex -1500 -500 500
   vertex -1500 -500 0
  endloop
 endfacet
 facet normal -1 0 0
  outer loop
   vertex -1500 -1000 500
   vertex -1500 -1000 1000
   vertex -1500 -500 1000
  endloop
 endfacet
 facet normal -1 0 0
  outer loop
   vertex -1500 -1000 500
   vertex -1500 -500 1000
   vertex -1500 -500 500
  endloop
 endfacet
 facet normal -1 0 0
  outer loop
   vertex -1500 -500 0
   vertex -1500 -500 500
   vertex -1500 0 500
  endloop
 endfacet
 facet normal -1 0 0
  outer loop
   vertex -1500 -500 0
   vertex -1500 0 500
   vertex -1500 0 0
  endloop
 endfacet
 facet normal -1 0 0
  outer loop
   vertex -1500 -500 500
   vertex -1500 -500 1000
   vertex -1500 0 1000
  endloop
 endfacet
 facet normal -1 0 0
  outer loop
   vertex -1500 -500 500
   vertex -1500 0 1000
   vertex -1500 0 500
  endloop
 endfacet
endsolid zone0
