solid zone0
 facet normal 1 0 0
  outer loop
   vertex 0 -1500 0
   vertex 0 -1000 0
   vertex 0 -1000 500
  endloop
 endfacet
 facet normal 1 0 0
  outer loop
   vertex 0 -1500 0
   vertex 0 -1000 500
   vertex 0 -1500 500
  endloop
 endfacet
 facet normal 1 0 0
  outer loop
   vertex 0 -1500 500
   vertex 0 -1000 500
   vertex 0 -1000 1000
  endloop
 endfacet
 facet normal 1 0 0
  outer loop
   vertex 0 -1500 500
   vertex 0 -1000 1000
   vertex 0 -1500 1000
  endloop
 endfacet
 facet normal 1 0 0
  outer loop
   vertex 0 -1000 0
   vertex 0 -500 0
   vertex 0 -500 500
  endloop
 endfacet
 facet normal 1 0 0
  outer loop
   vertex 0 -1000 0
   vertex 0 -500 500
   vertex 0 -1000 500
  endloop
 endfacet
 facet normal 1 -0 0
  outer loop
   vertex 0 -1000 500
   vertex 0 -500 500
   vertex 0 -500 1000
  endloop
 endfacet
 facet normal 1 -0 0
  outer loop
   vertex 0 -1000 500
   vertex 0 -500 1000
   vertex 0 -1000 1000
  endloop
 endfacet
 facet normal 1 0 0
  outer loop
   vertex 0 -500 0
   vertex 0 0 0
   vertex 0 0 500
  endloop
 endfacet
 facet normal 1 0 0
  outer loop
   vertex 0 -500 0
   vertex 0 0 500
   vertex 0 -500 500
  endloop
 endfacet
 facet normal 1 0 0
  outer loop
   vertex 0 -500 500
   vertex 0 0 500
   vertex 0 0 1000
  endloop
 endfacet
 facet normal 1 0 0
  outer loop
   vertex 0 -500 500
   vertex 0 0 1000
   vertex 0 -500 1000
  endloop
 endfacet
endsolid zone0
