solid zone0
 facet normal 0 -1 0
  outer loop
   vertex -1500 -1500 0
   vertex -1000 -1500 0
   vertex -1000 -1500 500
  endloop
 endfacet
 facet normal 0 -1 0
  outer loop
   vertex -1500 -1500 0
   vertex -1000 -1500 500
   vertex -1500 -1500 500
  endloop
 endfacet
 facet normal 0 -1 0
  outer loop
   vertex -1500 -1500 500
   vertex -1000 -1500 500
   vertex -1000 -1500 1000
  endloop
 endfacet
 facet normal 0 -1 0
  outer loop
   vertex -1500 -1500 500
   vertex -1000 -1500 1000
   vertex -1500 -1500 1000
  endloop
 endfacet
 facet normal 0 -1 0
  outer loop
   vertex -1000 -1500 0
   vertex -500 -1500 0
   vertex -500 -1500 500
  endloop
 endfacet
 facet normal 0 -1 0
  outer loop
   vertex -1000 -1500 0
   vertex -500 -1500 500
   vertex -1000 -1500 500
  endloop
 endfacet
 facet normal 0 -1 0
  outer loop
   vertex -1000 -1500 500
   vertex -500 -1500 500
   vertex -500 -1500 1000
  endloop
 endfacet
 facet normal 0 -1 0
  outer loop
   vertex -1000 -1500 500
   vertex -500 -1500 1000
   vertex -1000 -1500 1000
  endloop
 endfacet
 facet normal 0 -1 0
  outer loop
   vertex -500 -1500 0
   vertex 0 -1500 0
   vertex 0 -1500 500
  endloop
 endfacet
 facet normal 0 -1 0
  outer loop
   vertex -500 -1500 0
   vertex 0 -1500 500
   vertex -500 -1500 500
  endloop
 endfacet
 facet normal 0 -1 0
  outer loop
   vertex -500 -1500 500
   vertex 0 -1500 500
   vertex 0 -1500 1000
  endloop
 endfacet
 facet normal 0 -1 0
  outer loop
   vertex -500 -1500 500
   vertex 0 -1500 1000
   vertex -500 -1500 1000
  endloop
 endfacet
endsolid zone0
