solid zone0
 facet normal 0 1 0
  outer loop
   vertex -1500 0 0
   vertex -1500 0 500
   vertex -1000 0 500
  endloop
 endfacet
 facet normal 0 1 0
  outer loop
   vertex -1500 0 0
   vertex -1000 0 500
   vertex -1000 0 0
  endloop
 endfacet
 facet normal 0 1 0
  outer loop
   vertex -1500 0 500
   vertex -1500 0 1000
   vertex -1000 0 1000
  endloop
 endfacet
 facet normal 0 1 0
  outer loop
   vertex -1500 0 500
   vertex -1000 0 1000
   vertex -1000 0 500
  endloop
 endfacet
 facet normal 0 1 0
  outer loop
   vertex -1000 0 0
   vertex -1000 0 500
   vertex -500 0 500
  endloop
 endfacet
 facet normal 0 1 0
  outer loop
   vertex -1000 0 0
   vertex -500 0 500
   vertex -500 0 0
  endloop
 endfacet
 facet normal 0 1 0
  outer loop
   vertex -1000 0 500
   vertex -1000 0 1000
   vertex -500 0 1000
  endloop
 endfacet
 facet normal 0 1 0
  outer loop
   vertex -1000 0 500
   vertex -500 0 1000
   vertex -500 0 500
  endloop
 endfacet
 facet normal 0 1 0
  outer loop
   vertex -500 0 0
   vertex -500 0 500
   vertex 0 0 500
  endloop
 endfacet
 facet normal 0 1 0
  outer loop
   vertex -500 0 0
   vertex 0 0 500
   vertex 0 0 0
  endloop
 endfacet
 facet normal 0 1 0
  outer loop
   vertex -500 0 500
   vertex -500 0 1000
   vertex 0 0 1000
  endloop
 endfacet
 facet normal 0 1 0
  outer loop
   vertex -500 0 500
   vertex 0 0 1000
   vertex 0 0 500
  endloop
 endfacet
endsolid zone0
