solid box
 facet normal -1 0 0
  outer loop
   vertex 0.0268002916 0.0255079661 0.00611241302
   vertex 0.0268002916 0.0255079661 0.0423890688
   vertex 0.0268002916 0.0734954178 0.00611241302
  endloop
 endfacet
 facet normal -1 0 0
  outer loop
   vertex 0.0268002916 0.0734954178 0.0423890688
   vertex 0.0268002916 0.0734954178 0.00611241302
   vertex 0.0268002916 0.0255079661 0.0423890688
  endloop
 endfacet
 facet normal 1 0 0
  outer loop
   vertex 0.0763442069 0.0255079661 0.00611241302
   vertex 0.0763442069 0.0734954178 0.00611241302
   vertex 0.0763442069 0.0255079661 0.0423890688
  endloop
 endfacet
 facet normal 1 -0 0
  outer loop
   vertex 0.0763442069 0.0734954178 0.0423890688
   vertex 0.0763442069 0.0255079661 0.0423890688
   vertex 0.0763442069 0.0734954178 0.00611241302
  endloop
 endfacet
 facet normal 0 -1 0
  outer loop
   vertex 0.0268002916 0.0255079661 0.00611241302
   vertex 0.0763442069 0.0255079661 0.00611241302
   vertex 0.0268002916 0.0255079661 0.0423890688
  endloop
 endfacet
 facet normal 0 -1 0
  outer loop
   vertex 0.0763442069 0.0255079661 0.0423890688
   vertex 0.0268002916 0.0255079661 0.0423890688
   vertex 0.0763442069 0.0255079661 0.00611241302
  endloop
 endfacet
 facet normal 0 1 0
  outer loop
   vertex 0.0268002916 0.0734954178 0.00611241302
   vertex 0.0268002916 0.0734954178 0.0423890688
   vertex 0.0763442069 0.0734954178 0.00611241302
  endloop
 endfacet
 facet normal 0 1 -0
  outer loop
   vertex 0.0763442069 0.0734954178 0.0423890688
   vertex 0.0763442069 0.0734954178 0.00611241302
   vertex 0.0268002916 0.0734954178 0.0423890688
  endloop
 endfacet
 facet normal 0 0 -1
  outer loop
   vertex 0.0268002916 0.0255079661 0.00611241302
   vertex 0.0268002916 0.0734954178 0.00611241302
   vertex 0.0763442069 0.0255079661 0.00611241302
  endloop
 endfacet
 facet normal 0 0 -1
  outer loop
   vertex 0.0763442069 0.0734954178 0.00611241302
   vertex 0.0763442069 0.0255079661 0.00611241302
   vertex 0.0268002916 0.0734954178 0.00611241302
  endloop
 endfacet
 facet normal 0 0 1
  outer loop
   vertex 0.0268002916 0.0255079661 0.0423890688
   vertex 0.0763442069 0.0255079661 0.0423890688
   vertex 0.0268002916 0.0734954178 0.0423890688
  endloop
 endfacet
 facet normal -0 0 1
  outer loop
   vertex 0.0763442069 0.0734954178 0.0423890688
   vertex 0.0268002916 0.0734954178 0.0423890688
   vertex 0.0763442069 0.0255079661 0.0423890688
  endloop
 endfacet
endsolid
