solid Modell
 facet normal 1 0 0
  outer loop
   vertex 0.0 5.0 0
   vertex 0.0 -5 20
   vertex 0.0 -5 0
  endloop
 endfacet
 facet normal 1 0 -0
  outer loop
   vertex 0.0 -5 20
   vertex 0.0 5.0 0
   vertex 0.0 5.0 20
  endloop
 endfacet
 facet normal -1 0 0
  outer loop
   vertex 10.0 5.0 20
   vertex 10.0 -5 0
   vertex 10.0 -5 20
  endloop
 endfacet
 facet normal -1 0 -0
  outer loop
   vertex 10.0 -5 0
   vertex 10.0 5.0 20
   vertex 10.0 5.0 0
  endloop
 endfacet
 facet normal 0 1 0
  outer loop
   vertex 0.0 -5 20
   vertex 10.0 -5 0
   vertex 0.0 -5 0
  endloop
 endfacet
 facet normal -0 1 0
  outer loop
   vertex 10.0 -5 0
   vertex 0.0 -5 20
   vertex 10.0 -5 20
  endloop
 endfacet
 facet normal 0 -1 0
  outer loop
   vertex 10.0 5.0 20
   vertex 0.0 5.0 0
   vertex 10.0 5.0 0
  endloop
 endfacet
 facet normal -0 -1 0
  outer loop
   vertex 0.0 5.0 0
   vertex 10.0 5.0 20
   vertex 0.0 5.0 20
  endloop
 endfacet
endsolid Modell
