solid Base
 facet normal 1 -0 0
  outer loop
   vertex 0.085 0.03 0.11
   vertex 0.085 0.07 0.1
   vertex 0.085 0.07 0.11
  endloop
 endfacet
 facet normal 1 0 0
  outer loop
   vertex 0.085 0.03 0.11
   vertex 0.085 0.03 0.1
   vertex 0.085 0.07 0.1
  endloop
 endfacet
 facet normal 0 1 0
  outer loop
   vertex 0.085 0.07 0.11
   vertex 0.085 0.07 0.1
   vertex 0.015 0.07 0.1
  endloop
 endfacet
 facet normal 0 1 0
  outer loop
   vertex 0.085 0.07 0.11
   vertex 0.015 0.07 0.1
   vertex 0.015 0.07 0.11
  endloop
 endfacet
 facet normal 0 -1 0
  outer loop
   vertex 0.085 0.03 0.1
   vertex 0.085 0.03 0.11
   vertex 0.015 0.03 0.1
  endloop
 endfacet
 facet normal 0 -1 0
  outer loop
   vertex 0.015 0.03 0.1
   vertex 0.085 0.03 0.11
   vertex 0.015 0.03 0.11
  endloop
 endfacet
 facet normal 0.130527 -0.991445 0
  outer loop
   vertex 0.0312941 0.0451704 0.1
   vertex 0.03 0.045 0.1
   vertex 0.03 0.045 0.05
  endloop
 endfacet
 facet normal 0.130527 -0.991445 0
  outer loop
   vertex 0.0312941 0.0451704 0.1
   vertex 0.03 0.045 0.05
   vertex 0.0312941 0.0451704 0.05
  endloop
 endfacet
 facet normal 0.382682 -0.92388 0
  outer loop
   vertex 0.0325 0.0456699 0.1
   vertex 0.0312941 0.0451704 0.1
   vertex 0.0312941 0.0451704 0.05
  endloop
 endfacet
 facet normal 0.382682 -0.92388 0
  outer loop
   vertex 0.0325 0.0456699 0.1
   vertex 0.0312941 0.0451704 0.05
   vertex 0.0325 0.0456699 0.05
  endloop
 endfacet
 facet normal 0.608762 -0.793353 0
  outer loop
   vertex 0.0335355 0.0464645 0.1
   vertex 0.0325 0.0456699 0.1
   vertex 0.0325 0.0456699 0.05
  endloop
 endfacet
 facet normal 0.991445 0.130527 0
  outer loop
   vertex 0.0348296 0.0512941 0.1
   vertex 0.035 0.05 0.05
   vertex 0.0348296 0.0512941 0.05
  endloop
 endfacet
 facet normal 0.608762 -0.793353 0
  outer loop
   vertex 0.0335355 0.0464645 0.1
   vertex 0.0325 0.0456699 0.05
   vertex 0.0335355 0.0464645 0.05
  endloop
 endfacet
 facet normal 0.991445 0.130527 0
  outer loop
   vertex 0.0348296 0.0512941 0.1
   vertex 0.035 0.05 0.1
   vertex 0.035 0.05 0.05
  endloop
 endfacet
 facet normal 0.793353 -0.608762 0
  outer loop
   vertex 0.0343301 0.0475 0.1
   vertex 0.0335355 0.0464645 0.1
   vertex 0.0335355 0.0464645 0.05
  endloop
 endfacet
 facet normal 0.92388 0.382682 0
  outer loop
   vertex 0.0343301 0.0525 0.1
   vertex 0.0348296 0.0512941 0.05
   vertex 0.0343301 0.0525 0.05
  endloop
 endfacet
 facet normal 0.793353 -0.608762 0
  outer loop
   vertex 0.0343301 0.0475 0.1
   vertex 0.0335355 0.0464645 0.05
   vertex 0.0343301 0.0475 0.05
  endloop
 endfacet
 facet normal 0.92388 0.382682 0
  outer loop
   vertex 0.0343301 0.0525 0.1
   vertex 0.0348296 0.0512941 0.1
   vertex 0.0348296 0.0512941 0.05
  endloop
 endfacet
 facet normal 0.92388 -0.382682 0
  outer loop
   vertex 0.0348296 0.0487059 0.1
   vertex 0.0343301 0.0475 0.1
   vertex 0.0343301 0.0475 0.05
  endloop
 endfacet
 facet normal 0.92388 -0.382682 0
  outer loop
   vertex 0.0348296 0.0487059 0.1
   vertex 0.0343301 0.0475 0.05
   vertex 0.0348296 0.0487059 0.05
  endloop
 endfacet
 facet normal 0.991445 -0.130527 0
  outer loop
   vertex 0.0348296 0.0487059 0.1
   vertex 0.0348296 0.0487059 0.05
   vertex 0.035 0.05 0.05
  endloop
 endfacet
 facet normal 0.793353 0.608762 0
  outer loop
   vertex 0.0335355 0.0535355 0.1
   vertex 0.0343301 0.0525 0.05
   vertex 0.0335355 0.0535355 0.05
  endloop
 endfacet
 facet normal 0.793353 0.608762 0
  outer loop
   vertex 0.0335355 0.0535355 0.1
   vertex 0.0343301 0.0525 0.1
   vertex 0.0343301 0.0525 0.05
  endloop
 endfacet
 facet normal 0.991445 -0.130527 0
  outer loop
   vertex 0.035 0.05 0.1
   vertex 0.0348296 0.0487059 0.1
   vertex 0.035 0.05 0.05
  endloop
 endfacet
 facet normal 0.608762 0.793353 0
  outer loop
   vertex 0.0325 0.0543301 0.1
   vertex 0.0335355 0.0535355 0.05
   vertex 0.0325 0.0543301 0.05
  endloop
 endfacet
 facet normal 0.608762 0.793353 0
  outer loop
   vertex 0.0325 0.0543301 0.1
   vertex 0.0335355 0.0535355 0.1
   vertex 0.0335355 0.0535355 0.05
  endloop
 endfacet
 facet normal 0.382682 0.92388 0
  outer loop
   vertex 0.0312941 0.0548296 0.1
   vertex 0.0325 0.0543301 0.05
   vertex 0.0312941 0.0548296 0.05
  endloop
 endfacet
 facet normal 0.382682 0.92388 0
  outer loop
   vertex 0.0312941 0.0548296 0.1
   vertex 0.0325 0.0543301 0.1
   vertex 0.0325 0.0543301 0.05
  endloop
 endfacet
 facet normal 0.130527 0.991445 0
  outer loop
   vertex 0.03 0.055 0.1
   vertex 0.0312941 0.0548296 0.05
   vertex 0.03 0.055 0.05
  endloop
 endfacet
 facet normal 0.130527 0.991445 0
  outer loop
   vertex 0.03 0.055 0.1
   vertex 0.0312941 0.0548296 0.1
   vertex 0.0312941 0.0548296 0.05
  endloop
 endfacet
 facet normal -0.130527 0.991445 0
  outer loop
   vertex 0.0287059 0.0548296 0.1
   vertex 0.03 0.055 0.05
   vertex 0.0287059 0.0548296 0.05
  endloop
 endfacet
 facet normal -0.130527 0.991445 0
  outer loop
   vertex 0.0287059 0.0548296 0.1
   vertex 0.03 0.055 0.1
   vertex 0.03 0.055 0.05
  endloop
 endfacet
 facet normal -0.382682 0.92388 0
  outer loop
   vertex 0.0275 0.0543301 0.1
   vertex 0.0287059 0.0548296 0.05
   vertex 0.0275 0.0543301 0.05
  endloop
 endfacet
 facet normal -0.382682 0.92388 0
  outer loop
   vertex 0.0275 0.0543301 0.1
   vertex 0.0287059 0.0548296 0.1
   vertex 0.0287059 0.0548296 0.05
  endloop
 endfacet
 facet normal -0.608762 0.793353 0
  outer loop
   vertex 0.0264645 0.0535355 0.1
   vertex 0.0275 0.0543301 0.05
   vertex 0.0264645 0.0535355 0.05
  endloop
 endfacet
 facet normal -0.608762 0.793353 0
  outer loop
   vertex 0.0264645 0.0535355 0.1
   vertex 0.0275 0.0543301 0.1
   vertex 0.0275 0.0543301 0.05
  endloop
 endfacet
 facet normal -0.793353 0.608762 0
  outer loop
   vertex 0.0256699 0.0525 0.1
   vertex 0.0264645 0.0535355 0.05
   vertex 0.0256699 0.0525 0.05
  endloop
 endfacet
 facet normal -0.793353 0.608762 0
  outer loop
   vertex 0.0256699 0.0525 0.1
   vertex 0.0264645 0.0535355 0.1
   vertex 0.0264645 0.0535355 0.05
  endloop
 endfacet
 facet normal -0.92388 0.382683 0
  outer loop
   vertex 0.0251704 0.0512941 0.1
   vertex 0.0256699 0.0525 0.05
   vertex 0.0251704 0.0512941 0.05
  endloop
 endfacet
 facet normal -0.92388 0.382683 0
  outer loop
   vertex 0.0251704 0.0512941 0.1
   vertex 0.0256699 0.0525 0.1
   vertex 0.0256699 0.0525 0.05
  endloop
 endfacet
 facet normal -0.991445 0.130526 0
  outer loop
   vertex 0.025 0.05 0.1
   vertex 0.0251704 0.0512941 0.1
   vertex 0.0251704 0.0512941 0.05
  endloop
 endfacet
 facet normal -0.991445 0.130526 0
  outer loop
   vertex 0.025 0.05 0.1
   vertex 0.0251704 0.0512941 0.05
   vertex 0.025 0.05 0.05
  endloop
 endfacet
 facet normal -0.991445 -0.130526 0
  outer loop
   vertex 0.0251704 0.0487059 0.1
   vertex 0.025 0.05 0.1
   vertex 0.025 0.05 0.05
  endloop
 endfacet
 facet normal -0.991445 -0.130526 -0
  outer loop
   vertex 0.0251704 0.0487059 0.1
   vertex 0.025 0.05 0.05
   vertex 0.0251704 0.0487059 0.05
  endloop
 endfacet
 facet normal -0.92388 -0.382683 0
  outer loop
   vertex 0.0256699 0.0475 0.1
   vertex 0.0251704 0.0487059 0.1
   vertex 0.0251704 0.0487059 0.05
  endloop
 endfacet
 facet normal -0.92388 -0.382683 -0
  outer loop
   vertex 0.0256699 0.0475 0.1
   vertex 0.0251704 0.0487059 0.05
   vertex 0.0256699 0.0475 0.05
  endloop
 endfacet
 facet normal -0.793353 -0.608762 0
  outer loop
   vertex 0.0264645 0.0464645 0.1
   vertex 0.0256699 0.0475 0.1
   vertex 0.0256699 0.0475 0.05
  endloop
 endfacet
 facet normal -0.793353 -0.608762 -0
  outer loop
   vertex 0.0264645 0.0464645 0.1
   vertex 0.0256699 0.0475 0.05
   vertex 0.0264645 0.0464645 0.05
  endloop
 endfacet
 facet normal -0.608762 -0.793353 0
  outer loop
   vertex 0.0275 0.0456699 0.1
   vertex 0.0264645 0.0464645 0.1
   vertex 0.0264645 0.0464645 0.05
  endloop
 endfacet
 facet normal -0.608762 -0.793353 -0
  outer loop
   vertex 0.0275 0.0456699 0.1
   vertex 0.0264645 0.0464645 0.05
   vertex 0.0275 0.0456699 0.05
  endloop
 endfacet
 facet normal -0.382682 -0.92388 0
  outer loop
   vertex 0.0287059 0.0451704 0.1
   vertex 0.0275 0.0456699 0.1
   vertex 0.0275 0.0456699 0.05
  endloop
 endfacet
 facet normal -0.382682 -0.92388 -0
  outer loop
   vertex 0.0287059 0.0451704 0.1
   vertex 0.0275 0.0456699 0.05
   vertex 0.0287059 0.0451704 0.05
  endloop
 endfacet
 facet normal -0.130527 -0.991445 0
  outer loop
   vertex 0.03 0.045 0.1
   vertex 0.0287059 0.0451704 0.1
   vertex 0.0287059 0.0451704 0.05
  endloop
 endfacet
 facet normal -0.130527 -0.991445 -0
  outer loop
   vertex 0.03 0.045 0.1
   vertex 0.0287059 0.0451704 0.05
   vertex 0.03 0.045 0.05
  endloop
 endfacet
 facet normal 0.793356 -0.608758 0
  outer loop
   vertex 0.0743301 0.0475 0.1
   vertex 0.0735355 0.0464645 0.1
   vertex 0.0735355 0.0464645 0.05
  endloop
 endfacet
 facet normal 0.793356 -0.608758 0
  outer loop
   vertex 0.0743301 0.0475 0.1
   vertex 0.0735355 0.0464645 0.05
   vertex 0.0743301 0.0475 0.05
  endloop
 endfacet
 facet normal 0.923879 -0.382684 0
  outer loop
   vertex 0.0748296 0.0487059 0.1
   vertex 0.0743301 0.0475 0.1
   vertex 0.0743301 0.0475 0.05
  endloop
 endfacet
 facet normal 0.923879 -0.382684 0
  outer loop
   vertex 0.0748296 0.0487059 0.1
   vertex 0.0743301 0.0475 0.05
   vertex 0.0748296 0.0487059 0.05
  endloop
 endfacet
 facet normal 0.991445 -0.130527 0
  outer loop
   vertex 0.075 0.05 0.1
   vertex 0.0748296 0.0487059 0.1
   vertex 0.0748296 0.0487059 0.05
  endloop
 endfacet
 facet normal 0.60876 0.793354 0
  outer loop
   vertex 0.0725 0.0543301 0.1
   vertex 0.0735355 0.0535355 0.05
   vertex 0.0725 0.0543301 0.05
  endloop
 endfacet
 facet normal 0.991445 -0.130527 0
  outer loop
   vertex 0.075 0.05 0.1
   vertex 0.0748296 0.0487059 0.05
   vertex 0.075 0.05 0.05
  endloop
 endfacet
 facet normal 0.60876 0.793354 0
  outer loop
   vertex 0.0725 0.0543301 0.1
   vertex 0.0735355 0.0535355 0.1
   vertex 0.0735355 0.0535355 0.05
  endloop
 endfacet
 facet normal 0.991445 0.130527 0
  outer loop
   vertex 0.0748296 0.0512941 0.1
   vertex 0.075 0.05 0.1
   vertex 0.075 0.05 0.05
  endloop
 endfacet
 facet normal 0.382683 0.92388 0
  outer loop
   vertex 0.0712941 0.0548296 0.1
   vertex 0.0725 0.0543301 0.05
   vertex 0.0712941 0.0548296 0.05
  endloop
 endfacet
 facet normal 0.991445 0.130527 0
  outer loop
   vertex 0.0748296 0.0512941 0.1
   vertex 0.075 0.05 0.05
   vertex 0.0748296 0.0512941 0.05
  endloop
 endfacet
 facet normal 0.382683 0.92388 0
  outer loop
   vertex 0.0712941 0.0548296 0.1
   vertex 0.0725 0.0543301 0.1
   vertex 0.0725 0.0543301 0.05
  endloop
 endfacet
 facet normal 0.923879 0.382684 0
  outer loop
   vertex 0.0743301 0.0525 0.1
   vertex 0.0748296 0.0512941 0.1
   vertex 0.0748296 0.0512941 0.05
  endloop
 endfacet
 facet normal 0.923879 0.382684 0
  outer loop
   vertex 0.0743301 0.0525 0.1
   vertex 0.0748296 0.0512941 0.05
   vertex 0.0743301 0.0525 0.05
  endloop
 endfacet
 facet normal 0.793356 0.608758 0
  outer loop
   vertex 0.0743301 0.0525 0.1
   vertex 0.0743301 0.0525 0.05
   vertex 0.0735355 0.0535355 0.05
  endloop
 endfacet
 facet normal 0.130527 0.991445 0
  outer loop
   vertex 0.07 0.055 0.1
   vertex 0.0712941 0.0548296 0.05
   vertex 0.07 0.055 0.05
  endloop
 endfacet
 facet normal 0.130527 0.991445 0
  outer loop
   vertex 0.07 0.055 0.1
   vertex 0.0712941 0.0548296 0.1
   vertex 0.0712941 0.0548296 0.05
  endloop
 endfacet
 facet normal 0.793356 0.608758 0
  outer loop
   vertex 0.0735355 0.0535355 0.1
   vertex 0.0743301 0.0525 0.1
   vertex 0.0735355 0.0535355 0.05
  endloop
 endfacet
 facet normal -0.130527 0.991445 0
  outer loop
   vertex 0.0687059 0.0548296 0.1
   vertex 0.07 0.055 0.05
   vertex 0.0687059 0.0548296 0.05
  endloop
 endfacet
 facet normal -0.130527 0.991445 0
  outer loop
   vertex 0.0687059 0.0548296 0.1
   vertex 0.07 0.055 0.1
   vertex 0.07 0.055 0.05
  endloop
 endfacet
 facet normal -0.382683 0.92388 0
  outer loop
   vertex 0.0675 0.0543301 0.1
   vertex 0.0687059 0.0548296 0.05
   vertex 0.0675 0.0543301 0.05
  endloop
 endfacet
 facet normal -0.382683 0.92388 0
  outer loop
   vertex 0.0675 0.0543301 0.1
   vertex 0.0687059 0.0548296 0.1
   vertex 0.0687059 0.0548296 0.05
  endloop
 endfacet
 facet normal -0.60876 0.793354 0
  outer loop
   vertex 0.0664645 0.0535355 0.1
   vertex 0.0675 0.0543301 0.05
   vertex 0.0664645 0.0535355 0.05
  endloop
 endfacet
 facet normal -0.60876 0.793354 0
  outer loop
   vertex 0.0664645 0.0535355 0.1
   vertex 0.0675 0.0543301 0.1
   vertex 0.0675 0.0543301 0.05
  endloop
 endfacet
 facet normal -0.793356 0.608758 0
  outer loop
   vertex 0.0656699 0.0525 0.1
   vertex 0.0664645 0.0535355 0.05
   vertex 0.0656699 0.0525 0.05
  endloop
 endfacet
 facet normal -0.793356 0.608758 0
  outer loop
   vertex 0.0656699 0.0525 0.1
   vertex 0.0664645 0.0535355 0.1
   vertex 0.0664645 0.0535355 0.05
  endloop
 endfacet
 facet normal -0.923879 0.382684 0
  outer loop
   vertex 0.0651704 0.0512941 0.1
   vertex 0.0656699 0.0525 0.05
   vertex 0.0651704 0.0512941 0.05
  endloop
 endfacet
 facet normal -0.923879 0.382684 0
  outer loop
   vertex 0.0651704 0.0512941 0.1
   vertex 0.0656699 0.0525 0.1
   vertex 0.0656699 0.0525 0.05
  endloop
 endfacet
 facet normal -0.991445 0.130527 0
  outer loop
   vertex 0.065 0.05 0.1
   vertex 0.0651704 0.0512941 0.05
   vertex 0.065 0.05 0.05
  endloop
 endfacet
 facet normal -0.991445 0.130527 0
  outer loop
   vertex 0.065 0.05 0.1
   vertex 0.0651704 0.0512941 0.1
   vertex 0.0651704 0.0512941 0.05
  endloop
 endfacet
 facet normal -0.991445 -0.130527 -0
  outer loop
   vertex 0.0651704 0.0487059 0.1
   vertex 0.065 0.05 0.05
   vertex 0.0651704 0.0487059 0.05
  endloop
 endfacet
 facet normal -0.991445 -0.130527 0
  outer loop
   vertex 0.0651704 0.0487059 0.1
   vertex 0.065 0.05 0.1
   vertex 0.065 0.05 0.05
  endloop
 endfacet
 facet normal -0.923879 -0.382684 -0
  outer loop
   vertex 0.0656699 0.0475 0.1
   vertex 0.0651704 0.0487059 0.05
   vertex 0.0656699 0.0475 0.05
  endloop
 endfacet
 facet normal -0.923879 -0.382684 0
  outer loop
   vertex 0.0656699 0.0475 0.1
   vertex 0.0651704 0.0487059 0.1
   vertex 0.0651704 0.0487059 0.05
  endloop
 endfacet
 facet normal -0.793356 -0.608758 0
  outer loop
   vertex 0.0664645 0.0464645 0.1
   vertex 0.0656699 0.0475 0.1
   vertex 0.0656699 0.0475 0.05
  endloop
 endfacet
 facet normal -0.793356 -0.608758 -0
  outer loop
   vertex 0.0664645 0.0464645 0.1
   vertex 0.0656699 0.0475 0.05
   vertex 0.0664645 0.0464645 0.05
  endloop
 endfacet
 facet normal -0.60876 -0.793354 0
  outer loop
   vertex 0.0675 0.0456699 0.1
   vertex 0.0664645 0.0464645 0.1
   vertex 0.0664645 0.0464645 0.05
  endloop
 endfacet
 facet normal -0.60876 -0.793354 -0
  outer loop
   vertex 0.0675 0.0456699 0.1
   vertex 0.0664645 0.0464645 0.05
   vertex 0.0675 0.0456699 0.05
  endloop
 endfacet
 facet normal -0.382683 -0.92388 0
  outer loop
   vertex 0.0687059 0.0451704 0.1
   vertex 0.0675 0.0456699 0.1
   vertex 0.0675 0.0456699 0.05
  endloop
 endfacet
 facet normal -0.382683 -0.92388 -0
  outer loop
   vertex 0.0687059 0.0451704 0.1
   vertex 0.0675 0.0456699 0.05
   vertex 0.0687059 0.0451704 0.05
  endloop
 endfacet
 facet normal -0.130527 -0.991445 0
  outer loop
   vertex 0.07 0.045 0.1
   vertex 0.0687059 0.0451704 0.1
   vertex 0.0687059 0.0451704 0.05
  endloop
 endfacet
 facet normal -0.130527 -0.991445 -0
  outer loop
   vertex 0.07 0.045 0.1
   vertex 0.0687059 0.0451704 0.05
   vertex 0.07 0.045 0.05
  endloop
 endfacet
 facet normal 0.130527 -0.991445 0
  outer loop
   vertex 0.0712941 0.0451704 0.1
   vertex 0.07 0.045 0.1
   vertex 0.07 0.045 0.05
  endloop
 endfacet
 facet normal 0.130527 -0.991445 0
  outer loop
   vertex 0.0712941 0.0451704 0.1
   vertex 0.07 0.045 0.05
   vertex 0.0712941 0.0451704 0.05
  endloop
 endfacet
 facet normal 0.382683 -0.92388 0
  outer loop
   vertex 0.0725 0.0456699 0.1
   vertex 0.0712941 0.0451704 0.1
   vertex 0.0712941 0.0451704 0.05
  endloop
 endfacet
 facet normal 0.382683 -0.92388 0
  outer loop
   vertex 0.0725 0.0456699 0.1
   vertex 0.0712941 0.0451704 0.05
   vertex 0.0725 0.0456699 0.05
  endloop
 endfacet
 facet normal 0.60876 -0.793354 0
  outer loop
   vertex 0.0735355 0.0464645 0.1
   vertex 0.0725 0.0456699 0.1
   vertex 0.0725 0.0456699 0.05
  endloop
 endfacet
 facet normal 0.60876 -0.793354 0
  outer loop
   vertex 0.0735355 0.0464645 0.1
   vertex 0.0725 0.0456699 0.05
   vertex 0.0735355 0.0464645 0.05
  endloop
 endfacet
 facet normal 0 0 1
  outer loop
   vertex 0.085 0.03 0.11
   vertex 0.015 0.07 0.11
   vertex 0.015 0.03 0.11
  endloop
 endfacet
 facet normal 0 0 1
  outer loop
   vertex 0.085 0.07 0.11
   vertex 0.015 0.07 0.11
   vertex 0.085 0.03 0.11
  endloop
 endfacet
 facet normal -1 0 0
  outer loop
   vertex 0.015 0.07 0.1
   vertex 0.015 0.03 0.11
   vertex 0.015 0.07 0.11
  endloop
 endfacet
 facet normal -1 0 0
  outer loop
   vertex 0.015 0.03 0.1
   vertex 0.015 0.03 0.11
   vertex 0.015 0.07 0.1
  endloop
 endfacet
 facet normal 0 0 -1
  outer loop
   vertex 0.0348296 0.0487059 0.1
   vertex 0.065 0.05 0.1
   vertex 0.0651704 0.0487059 0.1
  endloop
 endfacet
 facet normal 0 -0 -1
  outer loop
   vertex 0.035 0.05 0.1
   vertex 0.065 0.05 0.1
   vertex 0.0348296 0.0487059 0.1
  endloop
 endfacet
 facet normal 0 0 -1
  outer loop
   vertex 0.0348296 0.0512941 0.1
   vertex 0.0651704 0.0512941 0.1
   vertex 0.035 0.05 0.1
  endloop
 endfacet
 facet normal 0 0 -1
  outer loop
   vertex 0.015 0.03 0.1
   vertex 0.0256699 0.0475 0.1
   vertex 0.0264645 0.0464645 0.1
  endloop
 endfacet
 facet normal 0 0 -1
  outer loop
   vertex 0.035 0.05 0.1
   vertex 0.0651704 0.0512941 0.1
   vertex 0.065 0.05 0.1
  endloop
 endfacet
 facet normal 0 -0 -1
  outer loop
   vertex 0.0264645 0.0464645 0.1
   vertex 0.0275 0.0456699 0.1
   vertex 0.015 0.03 0.1
  endloop
 endfacet
 facet normal 0 0 -1
  outer loop
   vertex 0.07 0.045 0.1
   vertex 0.0712941 0.0451704 0.1
   vertex 0.085 0.03 0.1
  endloop
 endfacet
 facet normal 0 0 -1
  outer loop
   vertex 0.015 0.03 0.1
   vertex 0.0251704 0.0487059 0.1
   vertex 0.0256699 0.0475 0.1
  endloop
 endfacet
 facet normal 0 0 -1
  outer loop
   vertex 0.0343301 0.0525 0.1
   vertex 0.0656699 0.0525 0.1
   vertex 0.0348296 0.0512941 0.1
  endloop
 endfacet
 facet normal 0 -0 -1
  outer loop
   vertex 0.0275 0.0456699 0.1
   vertex 0.0287059 0.0451704 0.1
   vertex 0.015 0.03 0.1
  endloop
 endfacet
 facet normal 0 0 -1
  outer loop
   vertex 0.0348296 0.0512941 0.1
   vertex 0.0656699 0.0525 0.1
   vertex 0.0651704 0.0512941 0.1
  endloop
 endfacet
 facet normal 0 -0 -1
  outer loop
   vertex 0.0287059 0.0451704 0.1
   vertex 0.03 0.045 0.1
   vertex 0.015 0.03 0.1
  endloop
 endfacet
 facet normal 0 0 -1
  outer loop
   vertex 0.0712941 0.0451704 0.1
   vertex 0.0725 0.0456699 0.1
   vertex 0.085 0.03 0.1
  endloop
 endfacet
 facet normal 0 0 -1
  outer loop
   vertex 0.015 0.03 0.1
   vertex 0.025 0.05 0.1
   vertex 0.0251704 0.0487059 0.1
  endloop
 endfacet
 facet normal 0 0 -1
  outer loop
   vertex 0.0335355 0.0535355 0.1
   vertex 0.0664645 0.0535355 0.1
   vertex 0.0343301 0.0525 0.1
  endloop
 endfacet
 facet normal 0 0 -1
  outer loop
   vertex 0.0343301 0.0525 0.1
   vertex 0.0664645 0.0535355 0.1
   vertex 0.0656699 0.0525 0.1
  endloop
 endfacet
 facet normal 0 -0 -1
  outer loop
   vertex 0.03 0.045 0.1
   vertex 0.0312941 0.0451704 0.1
   vertex 0.015 0.03 0.1
  endloop
 endfacet
 facet normal 0 -0 -1
  outer loop
   vertex 0.0312941 0.0451704 0.1
   vertex 0.0325 0.0456699 0.1
   vertex 0.015 0.03 0.1
  endloop
 endfacet
 facet normal 0 0 -1
  outer loop
   vertex 0.0725 0.0456699 0.1
   vertex 0.0735355 0.0464645 0.1
   vertex 0.085 0.03 0.1
  endloop
 endfacet
 facet normal 0 0 -1
  outer loop
   vertex 0.0325 0.0543301 0.1
   vertex 0.0675 0.0543301 0.1
   vertex 0.0335355 0.0535355 0.1
  endloop
 endfacet
 facet normal 0 0 -1
  outer loop
   vertex 0.0335355 0.0535355 0.1
   vertex 0.0675 0.0543301 0.1
   vertex 0.0664645 0.0535355 0.1
  endloop
 endfacet
 facet normal 0 0 -1
  outer loop
   vertex 0.0735355 0.0464645 0.1
   vertex 0.0743301 0.0475 0.1
   vertex 0.085 0.03 0.1
  endloop
 endfacet
 facet normal 0 0 -1
  outer loop
   vertex 0.0743301 0.0475 0.1
   vertex 0.0748296 0.0487059 0.1
   vertex 0.085 0.03 0.1
  endloop
 endfacet
 facet normal 0 0 -1
  outer loop
   vertex 0.0748296 0.0487059 0.1
   vertex 0.075 0.05 0.1
   vertex 0.085 0.03 0.1
  endloop
 endfacet
 facet normal 0 0 -1
  outer loop
   vertex 0.0275 0.0543301 0.1
   vertex 0.015 0.07 0.1
   vertex 0.0287059 0.0548296 0.1
  endloop
 endfacet
 facet normal 0 0 -1
  outer loop
   vertex 0.0264645 0.0535355 0.1
   vertex 0.015 0.07 0.1
   vertex 0.0275 0.0543301 0.1
  endloop
 endfacet
 facet normal 0 0 -1
  outer loop
   vertex 0.0256699 0.0525 0.1
   vertex 0.015 0.07 0.1
   vertex 0.0264645 0.0535355 0.1
  endloop
 endfacet
 facet normal 0 0 -1
  outer loop
   vertex 0.0251704 0.0512941 0.1
   vertex 0.015 0.07 0.1
   vertex 0.0256699 0.0525 0.1
  endloop
 endfacet
 facet normal 0 0 -1
  outer loop
   vertex 0.025 0.05 0.1
   vertex 0.015 0.07 0.1
   vertex 0.0251704 0.0512941 0.1
  endloop
 endfacet
 facet normal 0 0 -1
  outer loop
   vertex 0.015 0.03 0.1
   vertex 0.015 0.07 0.1
   vertex 0.025 0.05 0.1
  endloop
 endfacet
 facet normal 0 0 -1
  outer loop
   vertex 0.015 0.07 0.1
   vertex 0.03 0.055 0.1
   vertex 0.0287059 0.0548296 0.1
  endloop
 endfacet
 facet normal 0 0 -1
  outer loop
   vertex 0.015 0.07 0.1
   vertex 0.0312941 0.0548296 0.1
   vertex 0.03 0.055 0.1
  endloop
 endfacet
 facet normal 0 0 -1
  outer loop
   vertex 0.015 0.07 0.1
   vertex 0.085 0.07 0.1
   vertex 0.0325 0.0543301 0.1
  endloop
 endfacet
 facet normal 0 0 -1
  outer loop
   vertex 0.0325 0.0543301 0.1
   vertex 0.085 0.07 0.1
   vertex 0.0675 0.0543301 0.1
  endloop
 endfacet
 facet normal 0 0 -1
  outer loop
   vertex 0.0725 0.0543301 0.1
   vertex 0.085 0.07 0.1
   vertex 0.0735355 0.0535355 0.1
  endloop
 endfacet
 facet normal 0 0 -1
  outer loop
   vertex 0.0712941 0.0548296 0.1
   vertex 0.085 0.07 0.1
   vertex 0.0725 0.0543301 0.1
  endloop
 endfacet
 facet normal 0 0 -1
  outer loop
   vertex 0.015 0.07 0.1
   vertex 0.0325 0.0543301 0.1
   vertex 0.0312941 0.0548296 0.1
  endloop
 endfacet
 facet normal 0 0 -1
  outer loop
   vertex 0.07 0.055 0.1
   vertex 0.085 0.07 0.1
   vertex 0.0712941 0.0548296 0.1
  endloop
 endfacet
 facet normal 0 0 -1
  outer loop
   vertex 0.0687059 0.0548296 0.1
   vertex 0.085 0.07 0.1
   vertex 0.07 0.055 0.1
  endloop
 endfacet
 facet normal 0 0 -1
  outer loop
   vertex 0.0675 0.0543301 0.1
   vertex 0.085 0.07 0.1
   vertex 0.0687059 0.0548296 0.1
  endloop
 endfacet
 facet normal 0 0 -1
  outer loop
   vertex 0.075 0.05 0.1
   vertex 0.085 0.07 0.1
   vertex 0.085 0.03 0.1
  endloop
 endfacet
 facet normal 0 0 -1
  outer loop
   vertex 0.0748296 0.0512941 0.1
   vertex 0.085 0.07 0.1
   vertex 0.075 0.05 0.1
  endloop
 endfacet
 facet normal 0 0 -1
  outer loop
   vertex 0.0743301 0.0525 0.1
   vertex 0.085 0.07 0.1
   vertex 0.0748296 0.0512941 0.1
  endloop
 endfacet
 facet normal 0 0 -1
  outer loop
   vertex 0.0735355 0.0535355 0.1
   vertex 0.085 0.07 0.1
   vertex 0.0743301 0.0525 0.1
  endloop
 endfacet
 facet normal 0 -0 -1
  outer loop
   vertex 0.0335355 0.0464645 0.1
   vertex 0.0664645 0.0464645 0.1
   vertex 0.0325 0.0456699 0.1
  endloop
 endfacet
 facet normal 0 -0 -1
  outer loop
   vertex 0.0343301 0.0475 0.1
   vertex 0.0656699 0.0475 0.1
   vertex 0.0335355 0.0464645 0.1
  endloop
 endfacet
 facet normal 0 0 -1
  outer loop
   vertex 0.0335355 0.0464645 0.1
   vertex 0.0656699 0.0475 0.1
   vertex 0.0664645 0.0464645 0.1
  endloop
 endfacet
 facet normal 0 -0 -1
  outer loop
   vertex 0.0325 0.0456699 0.1
   vertex 0.0675 0.0456699 0.1
   vertex 0.015 0.03 0.1
  endloop
 endfacet
 facet normal 0 -0 -1
  outer loop
   vertex 0.0664645 0.0464645 0.1
   vertex 0.0675 0.0456699 0.1
   vertex 0.0325 0.0456699 0.1
  endloop
 endfacet
 facet normal 0 -0 -1
  outer loop
   vertex 0.0348296 0.0487059 0.1
   vertex 0.0651704 0.0487059 0.1
   vertex 0.0343301 0.0475 0.1
  endloop
 endfacet
 facet normal 0 0 -1
  outer loop
   vertex 0.0343301 0.0475 0.1
   vertex 0.0651704 0.0487059 0.1
   vertex 0.0656699 0.0475 0.1
  endloop
 endfacet
 facet normal 0 -0 -1
  outer loop
   vertex 0.0675 0.0456699 0.1
   vertex 0.085 0.03 0.1
   vertex 0.015 0.03 0.1
  endloop
 endfacet
 facet normal -0 -0 -1
  outer loop
   vertex 0.0687059 0.0451704 0.1
   vertex 0.085 0.03 0.1
   vertex 0.0675 0.0456699 0.1
  endloop
 endfacet
 facet normal -0 -0 -1
  outer loop
   vertex 0.07 0.045 0.1
   vertex 0.085 0.03 0.1
   vertex 0.0687059 0.0451704 0.1
  endloop
 endfacet
endsolid Base
solid Paddle1
 facet normal 0 1 0
  outer loop
   vertex 0.031 0.074 0.04
   vertex 0.029 0.074 0
   vertex 0.029 0.074 0.04
  endloop
 endfacet
 facet normal 0 1 0
  outer loop
   vertex 0.031 0.074 0.04
   vertex 0.031 0.074 0
   vertex 0.029 0.074 0
  endloop
 endfacet
 facet normal -0.851592 -0.524205 -0.000641738
  outer loop
   vertex 0.0256699 0.0475 0.05
   vertex 0.0254656 0.0478931 0
   vertex 0.0260765 0.0469006 0
  endloop
 endfacet
 facet normal -0.923879 -0.382683 0.00076615
  outer loop
   vertex 0.0256699 0.0475 0.05
   vertex 0.0251704 0.0487059 0.05
   vertex 0.0254656 0.0478931 0
  endloop
 endfacet
 facet normal 0.999437 0.0335499 0
  outer loop
   vertex 0.0349887 0.0503353 0.045
   vertex 0.035 0.05 0.05
   vertex 0.035 0.05 0.045
  endloop
 endfacet
 facet normal -0.707107 -0.707107 -0.000681444
  outer loop
   vertex 0.0264645 0.0464645 0.05
   vertex 0.0260765 0.0469006 0
   vertex 0.0269006 0.0460765 0
  endloop
 endfacet
 facet normal -0.793353 -0.608762 0.000845572
  outer loop
   vertex 0.0264645 0.0464645 0.05
   vertex 0.0256699 0.0475 0.05
   vertex 0.0260765 0.0469006 0
  endloop
 endfacet
 facet normal 0.994926 0.100513 0.00450135
  outer loop
   vertex 0.034955 0.0506692 0.045
   vertex 0.035 0.05 0.05
   vertex 0.0349887 0.0503353 0.045
  endloop
 endfacet
 facet normal -0.524206 -0.851591 -0.000641742
  outer loop
   vertex 0.0275 0.0456699 0.05
   vertex 0.0269006 0.0460765 0
   vertex 0.0278931 0.0454656 0
  endloop
 endfacet
 facet normal -0.608762 -0.793353 0.000845565
  outer loop
   vertex 0.0275 0.0456699 0.05
   vertex 0.0264645 0.0464645 0.05
   vertex 0.0269006 0.0460765 0
  endloop
 endfacet
 facet normal 0.949811 0.312825 0
  outer loop
   vertex 0.034899 0.051 0.045
   vertex 0.034899 0.051 0
   vertex 0.0345344 0.0521069 0
  endloop
 endfacet
 facet normal -0.312825 -0.949811 -0
  outer loop
   vertex 0.029 0.045101 0.04
   vertex 0.0278931 0.0454656 0
   vertex 0.029 0.045101 0
  endloop
 endfacet
 facet normal 0.985948 0.16701 0.00385202
  outer loop
   vertex 0.0348296 0.0512941 0.05
   vertex 0.034955 0.0506692 0.045
   vertex 0.034899 0.051 0.045
  endloop
 endfacet
 facet normal -0.348217 -0.937413 0.0010924
  outer loop
   vertex 0.029 0.045101 0.04
   vertex 0.0275 0.0456699 0.05
   vertex 0.0278931 0.0454656 0
  endloop
 endfacet
 facet normal 0.967016 0.254709 -0.00156896
  outer loop
   vertex 0.0348296 0.0512941 0.05
   vertex 0.034899 0.051 0.045
   vertex 0.0345344 0.0521069 0
  endloop
 endfacet
 facet normal 0.991409 0.130522 0.00854926
  outer loop
   vertex 0.0348296 0.0512941 0.05
   vertex 0.035 0.05 0.05
   vertex 0.034955 0.0506692 0.045
  endloop
 endfacet
 facet normal -0.382678 -0.923869 -0.00484726
  outer loop
   vertex 0.0287059 0.0451704 0.05
   vertex 0.0275 0.0456699 0.05
   vertex 0.029 0.045101 0.04
  endloop
 endfacet
 facet normal -0.133837 -0.990999 0.0029366
  outer loop
   vertex 0.0296647 0.0450113 0.04
   vertex 0.0287059 0.0451704 0.05
   vertex 0.029 0.045101 0.04
  endloop
 endfacet
 facet normal 0.851591 0.524207 -0.00064175
  outer loop
   vertex 0.0343301 0.0525 0.05
   vertex 0.0345344 0.0521069 0
   vertex 0.0339235 0.0530994 0
  endloop
 endfacet
 facet normal 0.92388 0.382682 0.000766162
  outer loop
   vertex 0.0343301 0.0525 0.05
   vertex 0.0348296 0.0512941 0.05
   vertex 0.0345344 0.0521069 0
  endloop
 endfacet
 facet normal 0 -0.999999 -0.00112572
  outer loop
   vertex 0.03 0.045 0.05
   vertex 0.0296647 0.0450113 0.04
   vertex 0.0303353 0.0450113 0.04
  endloop
 endfacet
 facet normal 0.707107 0.707107 -0.000681471
  outer loop
   vertex 0.0335355 0.0535355 0.05
   vertex 0.0339235 0.0530994 0
   vertex 0.0330994 0.0539235 0
  endloop
 endfacet
 facet normal -0.130526 -0.991439 0.00326104
  outer loop
   vertex 0.03 0.045 0.05
   vertex 0.0287059 0.0451704 0.05
   vertex 0.0296647 0.0450113 0.04
  endloop
 endfacet
 facet normal 0.793353 0.608762 0.000845542
  outer loop
   vertex 0.0335355 0.0535355 0.05
   vertex 0.0343301 0.0525 0.05
   vertex 0.0339235 0.0530994 0
  endloop
 endfacet
 facet normal 0.312825 -0.949811 0
  outer loop
   vertex 0.031 0.045101 0.04
   vertex 0.031 0.045101 0
   vertex 0.0321069 0.0454656 0
  endloop
 endfacet
 facet normal 0.524207 0.851591 -0.00064175
  outer loop
   vertex 0.0325 0.0543301 0.05
   vertex 0.0330994 0.0539235 0
   vertex 0.0321069 0.0545344 0
  endloop
 endfacet
 facet normal 0.608762 0.793353 0.000845542
  outer loop
   vertex 0.0325 0.0543301 0.05
   vertex 0.0335355 0.0535355 0.05
   vertex 0.0330994 0.0539235 0
  endloop
 endfacet
 facet normal 0.133837 -0.990999 0.0029366
  outer loop
   vertex 0.0312941 0.0451704 0.05
   vertex 0.0303353 0.0450113 0.04
   vertex 0.031 0.045101 0.04
  endloop
 endfacet
 facet normal 0.312825 0.949811 0
  outer loop
   vertex 0.031 0.054899 0.04
   vertex 0.0321069 0.0545344 0
   vertex 0.031 0.054899 0
  endloop
 endfacet
 facet normal 0.130526 -0.991439 0.00326104
  outer loop
   vertex 0.0312941 0.0451704 0.05
   vertex 0.03 0.045 0.05
   vertex 0.0303353 0.0450113 0.04
  endloop
 endfacet
 facet normal 0.348217 0.937413 0.0010924
  outer loop
   vertex 0.031 0.054899 0.04
   vertex 0.0325 0.0543301 0.05
   vertex 0.0321069 0.0545344 0
  endloop
 endfacet
 facet normal 0.382678 0.923869 -0.00484726
  outer loop
   vertex 0.0312941 0.0548296 0.05
   vertex 0.0325 0.0543301 0.05
   vertex 0.031 0.054899 0.04
  endloop
 endfacet
 facet normal 0.524207 -0.851591 -0.00064175
  outer loop
   vertex 0.0325 0.0456699 0.05
   vertex 0.0321069 0.0454656 0
   vertex 0.0330994 0.0460765 0
  endloop
 endfacet
 facet normal 0.133837 0.990999 0.0029366
  outer loop
   vertex 0.0303353 0.0549887 0.04
   vertex 0.0312941 0.0548296 0.05
   vertex 0.031 0.054899 0.04
  endloop
 endfacet
 facet normal 0.382678 -0.923869 -0.00484726
  outer loop
   vertex 0.0325 0.0456699 0.05
   vertex 0.0312941 0.0451704 0.05
   vertex 0.031 0.045101 0.04
  endloop
 endfacet
 facet normal 0.348217 -0.937413 0.0010924
  outer loop
   vertex 0.0325 0.0456699 0.05
   vertex 0.031 0.045101 0.04
   vertex 0.0321069 0.0454656 0
  endloop
 endfacet
 facet normal 0.707107 -0.707107 -0.000681471
  outer loop
   vertex 0.0335355 0.0464645 0.05
   vertex 0.0330994 0.0460765 0
   vertex 0.0339235 0.0469006 0
  endloop
 endfacet
 facet normal 0.130526 0.991439 0.00326104
  outer loop
   vertex 0.03 0.055 0.05
   vertex 0.0312941 0.0548296 0.05
   vertex 0.0303353 0.0549887 0.04
  endloop
 endfacet
 facet normal 0 0.999999 -0.00112572
  outer loop
   vertex 0.03 0.055 0.05
   vertex 0.0303353 0.0549887 0.04
   vertex 0.0296647 0.0549887 0.04
  endloop
 endfacet
 facet normal 0.608762 -0.793353 0.000845542
  outer loop
   vertex 0.0335355 0.0464645 0.05
   vertex 0.0325 0.0456699 0.05
   vertex 0.0330994 0.0460765 0
  endloop
 endfacet
 facet normal 0.851591 -0.524207 -0.00064175
  outer loop
   vertex 0.0343301 0.0475 0.05
   vertex 0.0339235 0.0469006 0
   vertex 0.0345344 0.0478931 0
  endloop
 endfacet
 facet normal 0.793353 -0.608762 0.000845542
  outer loop
   vertex 0.0343301 0.0475 0.05
   vertex 0.0335355 0.0464645 0.05
   vertex 0.0339235 0.0469006 0
  endloop
 endfacet
 facet normal -0.312825 0.949811 0
  outer loop
   vertex 0.029 0.054899 0.04
   vertex 0.029 0.054899 0
   vertex 0.0278931 0.0545344 0
  endloop
 endfacet
 facet normal -0.130526 0.991439 0.00326104
  outer loop
   vertex 0.0287059 0.0548296 0.05
   vertex 0.03 0.055 0.05
   vertex 0.0296647 0.0549887 0.04
  endloop
 endfacet
 facet normal 0.92388 -0.382682 0.000766162
  outer loop
   vertex 0.0348296 0.0487059 0.05
   vertex 0.0343301 0.0475 0.05
   vertex 0.0345344 0.0478931 0
  endloop
 endfacet
 facet normal -0.133837 0.990999 0.0029366
  outer loop
   vertex 0.0287059 0.0548296 0.05
   vertex 0.0296647 0.0549887 0.04
   vertex 0.029 0.054899 0.04
  endloop
 endfacet
 facet normal 0.949811 -0.312825 0
  outer loop
   vertex 0.034899 0.049 0.045
   vertex 0.0345344 0.0478931 0
   vertex 0.034899 0.049 0
  endloop
 endfacet
 facet normal 0.967016 -0.254709 -0.00156896
  outer loop
   vertex 0.034899 0.049 0.045
   vertex 0.0348296 0.0487059 0.05
   vertex 0.0345344 0.0478931 0
  endloop
 endfacet
 facet normal 0.985948 -0.16701 0.00385202
  outer loop
   vertex 0.034955 0.0493308 0.045
   vertex 0.0348296 0.0487059 0.05
   vertex 0.034899 0.049 0.045
  endloop
 endfacet
 facet normal -0.348217 0.937413 0.0010924
  outer loop
   vertex 0.0275 0.0543301 0.05
   vertex 0.029 0.054899 0.04
   vertex 0.0278931 0.0545344 0
  endloop
 endfacet
 facet normal -0.382678 0.923869 -0.00484726
  outer loop
   vertex 0.0275 0.0543301 0.05
   vertex 0.0287059 0.0548296 0.05
   vertex 0.029 0.054899 0.04
  endloop
 endfacet
 facet normal -0.524206 0.851591 -0.000641742
  outer loop
   vertex 0.0275 0.0543301 0.05
   vertex 0.0278931 0.0545344 0
   vertex 0.0269006 0.0539235 0
  endloop
 endfacet
 facet normal 0.991409 -0.130522 0.00854926
  outer loop
   vertex 0.035 0.05 0.05
   vertex 0.0348296 0.0487059 0.05
   vertex 0.034955 0.0493308 0.045
  endloop
 endfacet
 facet normal 0.994926 -0.100513 0.00450135
  outer loop
   vertex 0.035 0.05 0.05
   vertex 0.034955 0.0493308 0.045
   vertex 0.0349887 0.0496647 0.045
  endloop
 endfacet
 facet normal 0.999437 -0.0335499 0
  outer loop
   vertex 0.035 0.05 0.05
   vertex 0.0349887 0.0496647 0.045
   vertex 0.035 0.05 0.045
  endloop
 endfacet
 facet normal -0.608762 0.793353 0.000845565
  outer loop
   vertex 0.0264645 0.0535355 0.05
   vertex 0.0275 0.0543301 0.05
   vertex 0.0269006 0.0539235 0
  endloop
 endfacet
 facet normal -0.707107 0.707107 -0.000681444
  outer loop
   vertex 0.0264645 0.0535355 0.05
   vertex 0.0269006 0.0539235 0
   vertex 0.0260765 0.0530994 0
  endloop
 endfacet
 facet normal -0.851592 0.524205 -0.000641738
  outer loop
   vertex 0.0256699 0.0525 0.05
   vertex 0.0260765 0.0530994 0
   vertex 0.0254656 0.0521069 0
  endloop
 endfacet
 facet normal -0.793353 0.608762 0.000845572
  outer loop
   vertex 0.0256699 0.0525 0.05
   vertex 0.0264645 0.0535355 0.05
   vertex 0.0260765 0.0530994 0
  endloop
 endfacet
 facet normal -0.923879 0.382683 0.00076615
  outer loop
   vertex 0.0251704 0.0512941 0.05
   vertex 0.0256699 0.0525 0.05
   vertex 0.0254656 0.0521069 0
  endloop
 endfacet
 facet normal -0.967017 0.254705 -0.00156907
  outer loop
   vertex 0.025101 0.051 0.045
   vertex 0.0251704 0.0512941 0.05
   vertex 0.0254656 0.0521069 0
  endloop
 endfacet
 facet normal -0.949811 0.312825 0
  outer loop
   vertex 0.025101 0.051 0.045
   vertex 0.0254656 0.0521069 0
   vertex 0.025101 0.051 0
  endloop
 endfacet
 facet normal -0.990986 0.133833 0.00587294
  outer loop
   vertex 0.0250113 0.0503353 0.045
   vertex 0.0251704 0.0512941 0.05
   vertex 0.025101 0.051 0.045
  endloop
 endfacet
 facet normal -0.991424 0.130523 0.00652157
  outer loop
   vertex 0.025 0.05 0.05
   vertex 0.0251704 0.0512941 0.05
   vertex 0.0250113 0.0503353 0.045
  endloop
 endfacet
 facet normal -0.999997 0 -0.00225181
  outer loop
   vertex 0.0250113 0.0496647 0.045
   vertex 0.025 0.05 0.05
   vertex 0.0250113 0.0503353 0.045
  endloop
 endfacet
 facet normal -0.949811 -0.312825 -0
  outer loop
   vertex 0.025101 0.049 0.045
   vertex 0.025101 0.049 0
   vertex 0.0254656 0.0478931 0
  endloop
 endfacet
 facet normal -0.990986 -0.133833 0.00587294
  outer loop
   vertex 0.0251704 0.0487059 0.05
   vertex 0.0250113 0.0496647 0.045
   vertex 0.025101 0.049 0.045
  endloop
 endfacet
 facet normal -0.991424 -0.130523 0.00652157
  outer loop
   vertex 0.0251704 0.0487059 0.05
   vertex 0.025 0.05 0.05
   vertex 0.0250113 0.0496647 0.045
  endloop
 endfacet
 facet normal -0.967017 -0.254705 -0.00156907
  outer loop
   vertex 0.0251704 0.0487059 0.05
   vertex 0.025101 0.049 0.045
   vertex 0.0254656 0.0478931 0
  endloop
 endfacet
 facet normal 1 0 0
  outer loop
   vertex 0.031 0.045101 0
   vertex 0.031 0.026 0.04
   vertex 0.031 0.026 0
  endloop
 endfacet
 facet normal 1 0 -0
  outer loop
   vertex 0.031 0.045101 0
   vertex 0.031 0.045101 0.04
   vertex 0.031 0.026 0.04
  endloop
 endfacet
 facet normal -1 0 0
  outer loop
   vertex 0.029 0.026 0.04
   vertex 0.029 0.045101 0
   vertex 0.029 0.026 0
  endloop
 endfacet
 facet normal -1 -0 -0
  outer loop
   vertex 0.029 0.045101 0.04
   vertex 0.029 0.045101 0
   vertex 0.029 0.026 0.04
  endloop
 endfacet
 facet normal -0 0 1
  outer loop
   vertex 0.0303353 0.0450113 0.04
   vertex 0.031 0.026 0.04
   vertex 0.031 0.045101 0.04
  endloop
 endfacet
 facet normal 0 0 1
  outer loop
   vertex 0.0296647 0.0450113 0.04
   vertex 0.029 0.026 0.04
   vertex 0.031 0.026 0.04
  endloop
 endfacet
 facet normal -0 0 1
  outer loop
   vertex 0.0296647 0.0450113 0.04
   vertex 0.031 0.026 0.04
   vertex 0.0303353 0.0450113 0.04
  endloop
 endfacet
 facet normal 0 0 1
  outer loop
   vertex 0.029 0.045101 0.04
   vertex 0.029 0.026 0.04
   vertex 0.0296647 0.0450113 0.04
  endloop
 endfacet
 facet normal 0 0 -1
  outer loop
   vertex 0.025101 0.049 0
   vertex 0.026 0.049 0
   vertex 0.0254656 0.0478931 0
  endloop
 endfacet
 facet normal 0 0 -1
  outer loop
   vertex 0.0254656 0.0478931 0
   vertex 0.026 0.049 0
   vertex 0.0260765 0.0469006 0
  endloop
 endfacet
 facet normal 0 0 -1
  outer loop
   vertex 0.0260765 0.0469006 0
   vertex 0.029 0.046 0
   vertex 0.0269006 0.0460765 0
  endloop
 endfacet
 facet normal 0 0 -1
  outer loop
   vertex 0.0269006 0.0460765 0
   vertex 0.029 0.046 0
   vertex 0.0278931 0.0454656 0
  endloop
 endfacet
 facet normal 0 0 -1
  outer loop
   vertex 0.0278931 0.0454656 0
   vertex 0.029 0.046 0
   vertex 0.029 0.045101 0
  endloop
 endfacet
 facet normal 0 0 -1
  outer loop
   vertex 0.026 0.049 0
   vertex 0.029 0.046 0
   vertex 0.0260765 0.0469006 0
  endloop
 endfacet
 facet normal 0 0 -1
  outer loop
   vertex 0.026 0.049 0
   vertex 0.026 0.051 0
   vertex 0.029 0.046 0
  endloop
 endfacet
 facet normal 0 0 -1
  outer loop
   vertex 0.025101 0.051 0
   vertex 0.0254656 0.0521069 0
   vertex 0.026 0.051 0
  endloop
 endfacet
 facet normal 0 0 -1
  outer loop
   vertex 0.031 0.046 0
   vertex 0.0321069 0.0454656 0
   vertex 0.031 0.045101 0
  endloop
 endfacet
 facet normal 0 0 -1
  outer loop
   vertex 0.0254656 0.0521069 0
   vertex 0.0260765 0.0530994 0
   vertex 0.026 0.051 0
  endloop
 endfacet
 facet normal 0 0 -1
  outer loop
   vertex 0.031 0.046 0
   vertex 0.0330994 0.0460765 0
   vertex 0.0321069 0.0454656 0
  endloop
 endfacet
 facet normal 0 -0 -1
  outer loop
   vertex 0.0260765 0.0530994 0
   vertex 0.0269006 0.0539235 0
   vertex 0.026 0.051 0
  endloop
 endfacet
 facet normal 0 0 -1
  outer loop
   vertex 0.031 0.046 0
   vertex 0.0339235 0.0469006 0
   vertex 0.0330994 0.0460765 0
  endloop
 endfacet
 facet normal 0 -0 -1
  outer loop
   vertex 0.0278931 0.0545344 0
   vertex 0.029 0.054 0
   vertex 0.0269006 0.0539235 0
  endloop
 endfacet
 facet normal 0 -0 -1
  outer loop
   vertex 0.0269006 0.0539235 0
   vertex 0.029 0.054 0
   vertex 0.026 0.051 0
  endloop
 endfacet
 facet normal 0 0 -1
  outer loop
   vertex 0.029 0.046 0
   vertex 0.034 0.049 0
   vertex 0.031 0.046 0
  endloop
 endfacet
 facet normal 0 0 -1
  outer loop
   vertex 0.0339235 0.0469006 0
   vertex 0.034 0.049 0
   vertex 0.0345344 0.0478931 0
  endloop
 endfacet
 facet normal 0 0 -1
  outer loop
   vertex 0.031 0.046 0
   vertex 0.034 0.049 0
   vertex 0.0339235 0.0469006 0
  endloop
 endfacet
 facet normal 0 0 -1
  outer loop
   vertex 0.0278931 0.0545344 0
   vertex 0.029 0.054899 0
   vertex 0.029 0.054 0
  endloop
 endfacet
 facet normal 0 0 -1
  outer loop
   vertex 0.034 0.049 0
   vertex 0.034899 0.049 0
   vertex 0.0345344 0.0478931 0
  endloop
 endfacet
 facet normal 0 0 -1
  outer loop
   vertex 0.026 0.051 0
   vertex 0.031 0.054 0
   vertex 0.029 0.046 0
  endloop
 endfacet
 facet normal 0 -0 -1
  outer loop
   vertex 0.029 0.054 0
   vertex 0.031 0.054 0
   vertex 0.026 0.051 0
  endloop
 endfacet
 facet normal 0 0 -1
  outer loop
   vertex 0.029 0.046 0
   vertex 0.034 0.051 0
   vertex 0.034 0.049 0
  endloop
 endfacet
 facet normal 0 -0 -1
  outer loop
   vertex 0.031 0.054 0
   vertex 0.034 0.051 0
   vertex 0.029 0.046 0
  endloop
 endfacet
 facet normal 0 0 -1
  outer loop
   vertex 0.034 0.051 0
   vertex 0.0345344 0.0521069 0
   vertex 0.034899 0.051 0
  endloop
 endfacet
 facet normal 0 0 -1
  outer loop
   vertex 0.031 0.054899 0
   vertex 0.0321069 0.0545344 0
   vertex 0.031 0.054 0
  endloop
 endfacet
 facet normal 0 0 -1
  outer loop
   vertex 0.034 0.051 0
   vertex 0.0339235 0.0530994 0
   vertex 0.0345344 0.0521069 0
  endloop
 endfacet
 facet normal 0 0 -1
  outer loop
   vertex 0.034 0.051 0
   vertex 0.0330994 0.0539235 0
   vertex 0.0339235 0.0530994 0
  endloop
 endfacet
 facet normal 0 0 -1
  outer loop
   vertex 0.031 0.054 0
   vertex 0.0330994 0.0539235 0
   vertex 0.034 0.051 0
  endloop
 endfacet
 facet normal 0 -0 -1
  outer loop
   vertex 0.0321069 0.0545344 0
   vertex 0.0330994 0.0539235 0
   vertex 0.031 0.054 0
  endloop
 endfacet
 facet normal 0 0 1
  outer loop
   vertex 0.054 0.049 0.045
   vertex 0.034955 0.0493308 0.045
   vertex 0.034899 0.049 0.045
  endloop
 endfacet
 facet normal 0 0 1
  outer loop
   vertex 0.054 0.049 0.045
   vertex 0.0349887 0.0496647 0.045
   vertex 0.034955 0.0493308 0.045
  endloop
 endfacet
 facet normal 0 0 1
  outer loop
   vertex 0.054 0.049 0.045
   vertex 0.035 0.05 0.045
   vertex 0.0349887 0.0496647 0.045
  endloop
 endfacet
 facet normal 0 0 1
  outer loop
   vertex 0.054 0.051 0.045
   vertex 0.0349887 0.0503353 0.045
   vertex 0.035 0.05 0.045
  endloop
 endfacet
 facet normal 0 0 1
  outer loop
   vertex 0.054 0.051 0.045
   vertex 0.034955 0.0506692 0.045
   vertex 0.0349887 0.0503353 0.045
  endloop
 endfacet
 facet normal 0 0 1
  outer loop
   vertex 0.054 0.051 0.045
   vertex 0.034899 0.051 0.045
   vertex 0.034955 0.0506692 0.045
  endloop
 endfacet
 facet normal 0 0 1
  outer loop
   vertex 0.054 0.051 0.045
   vertex 0.035 0.05 0.045
   vertex 0.054 0.049 0.045
  endloop
 endfacet
 facet normal 0 -1 0
  outer loop
   vertex 0.054 0.049 0
   vertex 0.054 0.049 0.045
   vertex 0.034899 0.049 0
  endloop
 endfacet
 facet normal 0 -1 0
  outer loop
   vertex 0.034899 0.049 0
   vertex 0.054 0.049 0.045
   vertex 0.034899 0.049 0.045
  endloop
 endfacet
 facet normal 0 0 -1
  outer loop
   vertex 0.034 0.051 0
   vertex 0.034899 0.051 0
   vertex 0.034 0.049 0
  endloop
 endfacet
 facet normal 0 0 -1
  outer loop
   vertex 0.034 0.049 0
   vertex 0.034899 0.051 0
   vertex 0.034899 0.049 0
  endloop
 endfacet
 facet normal 0 0 -1
  outer loop
   vertex 0.034899 0.049 0
   vertex 0.054 0.051 0
   vertex 0.054 0.049 0
  endloop
 endfacet
 facet normal 0 0 -1
  outer loop
   vertex 0.034899 0.051 0
   vertex 0.054 0.051 0
   vertex 0.034899 0.049 0
  endloop
 endfacet
 facet normal 0 0 -1
  outer loop
   vertex 0.029 0.026 0
   vertex 0.031 0.045101 0
   vertex 0.031 0.026 0
  endloop
 endfacet
 facet normal 0 0 -1
  outer loop
   vertex 0.031 0.045101 0
   vertex 0.029 0.045101 0
   vertex 0.031 0.046 0
  endloop
 endfacet
 facet normal 0 0 -1
  outer loop
   vertex 0.029 0.026 0
   vertex 0.029 0.045101 0
   vertex 0.031 0.045101 0
  endloop
 endfacet
 facet normal 0 0 -1
  outer loop
   vertex 0.029 0.045101 0
   vertex 0.029 0.046 0
   vertex 0.031 0.046 0
  endloop
 endfacet
 facet normal 0 0 -1
  outer loop
   vertex 0.006 0.051 0
   vertex 0.025101 0.051 0
   vertex 0.006 0.049 0
  endloop
 endfacet
 facet normal 0 0 -1
  outer loop
   vertex 0.006 0.049 0
   vertex 0.025101 0.051 0
   vertex 0.025101 0.049 0
  endloop
 endfacet
 facet normal 0 0 -1
  outer loop
   vertex 0.025101 0.049 0
   vertex 0.026 0.051 0
   vertex 0.026 0.049 0
  endloop
 endfacet
 facet normal 0 0 -1
  outer loop
   vertex 0.025101 0.051 0
   vertex 0.026 0.051 0
   vertex 0.025101 0.049 0
  endloop
 endfacet
 facet normal 0 0 -1
  outer loop
   vertex 0.029 0.054 0
   vertex 0.029 0.054899 0
   vertex 0.031 0.054 0
  endloop
 endfacet
 facet normal 0 0 -1
  outer loop
   vertex 0.031 0.054 0
   vertex 0.029 0.054899 0
   vertex 0.031 0.054899 0
  endloop
 endfacet
 facet normal 0 0 -1
  outer loop
   vertex 0.029 0.054899 0
   vertex 0.031 0.074 0
   vertex 0.031 0.054899 0
  endloop
 endfacet
 facet normal 0 0 -1
  outer loop
   vertex 0.029 0.054899 0
   vertex 0.029 0.074 0
   vertex 0.031 0.074 0
  endloop
 endfacet
 facet normal 0 -1 0
  outer loop
   vertex 0.029 0.026 0
   vertex 0.031 0.026 0.04
   vertex 0.029 0.026 0.04
  endloop
 endfacet
 facet normal 0 -1 0
  outer loop
   vertex 0.031 0.026 0
   vertex 0.031 0.026 0.04
   vertex 0.029 0.026 0
  endloop
 endfacet
 facet normal -1 0 0
  outer loop
   vertex 0.006 0.051 0
   vertex 0.006 0.049 0.045
   vertex 0.006 0.051 0.045
  endloop
 endfacet
 facet normal -1 0 0
  outer loop
   vertex 0.006 0.049 0
   vertex 0.006 0.049 0.045
   vertex 0.006 0.051 0
  endloop
 endfacet
 facet normal 0 -1 0
  outer loop
   vertex 0.025101 0.049 0
   vertex 0.025101 0.049 0.045
   vertex 0.006 0.049 0
  endloop
 endfacet
 facet normal 0 -1 0
  outer loop
   vertex 0.006 0.049 0
   vertex 0.025101 0.049 0.045
   vertex 0.006 0.049 0.045
  endloop
 endfacet
 facet normal 0 1 0
  outer loop
   vertex 0.006 0.051 0.045
   vertex 0.025101 0.051 0
   vertex 0.006 0.051 0
  endloop
 endfacet
 facet normal 0 1 0
  outer loop
   vertex 0.025101 0.051 0.045
   vertex 0.025101 0.051 0
   vertex 0.006 0.051 0.045
  endloop
 endfacet
 facet normal 0 0 1
  outer loop
   vertex 0.0250113 0.0496647 0.045
   vertex 0.006 0.049 0.045
   vertex 0.025101 0.049 0.045
  endloop
 endfacet
 facet normal 0 0 1
  outer loop
   vertex 0.0250113 0.0503353 0.045
   vertex 0.006 0.051 0.045
   vertex 0.006 0.049 0.045
  endloop
 endfacet
 facet normal 0 0 1
  outer loop
   vertex 0.0250113 0.0503353 0.045
   vertex 0.006 0.049 0.045
   vertex 0.0250113 0.0496647 0.045
  endloop
 endfacet
 facet normal 0 0 1
  outer loop
   vertex 0.025101 0.051 0.045
   vertex 0.006 0.051 0.045
   vertex 0.0250113 0.0503353 0.045
  endloop
 endfacet
 facet normal -1 0 0
  outer loop
   vertex 0.029 0.054899 0.04
   vertex 0.029 0.074 0
   vertex 0.029 0.054899 0
  endloop
 endfacet
 facet normal -1 -0 -0
  outer loop
   vertex 0.029 0.074 0.04
   vertex 0.029 0.074 0
   vertex 0.029 0.054899 0.04
  endloop
 endfacet
 facet normal 0 0 1
  outer loop
   vertex 0.031 0.074 0.04
   vertex 0.0303353 0.0549887 0.04
   vertex 0.031 0.054899 0.04
  endloop
 endfacet
 facet normal 0 0 1
  outer loop
   vertex 0.029 0.074 0.04
   vertex 0.0296647 0.0549887 0.04
   vertex 0.0303353 0.0549887 0.04
  endloop
 endfacet
 facet normal 0 0 1
  outer loop
   vertex 0.029 0.074 0.04
   vertex 0.029 0.054899 0.04
   vertex 0.0296647 0.0549887 0.04
  endloop
 endfacet
 facet normal -0 0 1
  outer loop
   vertex 0.029 0.074 0.04
   vertex 0.0303353 0.0549887 0.04
   vertex 0.031 0.074 0.04
  endloop
 endfacet
 facet normal 1 0 0
  outer loop
   vertex 0.031 0.074 0
   vertex 0.031 0.054899 0.04
   vertex 0.031 0.054899 0
  endloop
 endfacet
 facet normal 1 0 -0
  outer loop
   vertex 0.031 0.074 0
   vertex 0.031 0.074 0.04
   vertex 0.031 0.054899 0.04
  endloop
 endfacet
 facet normal 0 1 0
  outer loop
   vertex 0.054 0.051 0.045
   vertex 0.054 0.051 0
   vertex 0.034899 0.051 0
  endloop
 endfacet
 facet normal 0 1 0
  outer loop
   vertex 0.054 0.051 0.045
   vertex 0.034899 0.051 0
   vertex 0.034899 0.051 0.045
  endloop
 endfacet
 facet normal 1 -0 0
  outer loop
   vertex 0.054 0.049 0.045
   vertex 0.054 0.051 0
   vertex 0.054 0.051 0.045
  endloop
 endfacet
 facet normal 1 0 0
  outer loop
   vertex 0.054 0.049 0.045
   vertex 0.054 0.049 0
   vertex 0.054 0.051 0
  endloop
 endfacet
endsolid Paddle1
solid Paddle2
 facet normal -0.231494 -0.972836 -0.000641708
  outer loop
   vertex 0.0687059 0.0451704 0.05
   vertex 0.0682835 0.0453039 0
   vertex 0.0694173 0.0450341 0
  endloop
 endfacet
 facet normal -0.382683 -0.923879 0.000766197
  outer loop
   vertex 0.0687059 0.0451704 0.05
   vertex 0.0675 0.0456699 0.05
   vertex 0.0682835 0.0453039 0
  endloop
 endfacet
 facet normal 0.682981 0.730436 0
  outer loop
   vertex 0.0732905 0.0537647 0.045
   vertex 0.0735355 0.0535355 0.05
   vertex 0.0735355 0.0535355 0.045
  endloop
 endfacet
 facet normal 0 -1 -0.000681457
  outer loop
   vertex 0.07 0.045 0.05
   vertex 0.0694173 0.0450341 0
   vertex 0.0705827 0.0450341 0
  endloop
 endfacet
 facet normal -0.130527 -0.991444 0.000845558
  outer loop
   vertex 0.07 0.045 0.05
   vertex 0.0687059 0.0451704 0.05
   vertex 0.0694173 0.0450341 0
  endloop
 endfacet
 facet normal 0.632445 0.774592 0.00450095
  outer loop
   vertex 0.0730305 0.0539769 0.045
   vertex 0.0735355 0.0535355 0.05
   vertex 0.0732905 0.0537647 0.045
  endloop
 endfacet
 facet normal 0.231494 -0.972836 -0.000641708
  outer loop
   vertex 0.0712941 0.0451704 0.05
   vertex 0.0705827 0.0450341 0
   vertex 0.0717165 0.0453039 0
  endloop
 endfacet
 facet normal 0.130527 -0.991444 0.000845558
  outer loop
   vertex 0.0712941 0.0451704 0.05
   vertex 0.07 0.045 0.05
   vertex 0.0705827 0.0450341 0
  endloop
 endfacet
 facet normal 0.450418 0.892818 0
  outer loop
   vertex 0.072757 0.0541712 0.045
   vertex 0.072757 0.0541712 0
   vertex 0.0717165 0.0546961 0
  endloop
 endfacet
 facet normal 0.450418 -0.892818 0
  outer loop
   vertex 0.072757 0.0458288 0.04
   vertex 0.0717165 0.0453039 0
   vertex 0.072757 0.0458288 0
  endloop
 endfacet
 facet normal 0.579076 0.815265 0.00385162
  outer loop
   vertex 0.0725 0.0543301 0.05
   vertex 0.0730305 0.0539769 0.045
   vertex 0.072757 0.0541712 0.045
  endloop
 endfacet
 facet normal 0.416625 -0.909078 0.00109245
  outer loop
   vertex 0.072757 0.0458288 0.04
   vertex 0.0712941 0.0451704 0.05
   vertex 0.0717165 0.0453039 0
  endloop
 endfacet
 facet normal 0.503681 0.863888 -0.00156904
  outer loop
   vertex 0.0725 0.0543301 0.05
   vertex 0.072757 0.0541712 0.045
   vertex 0.0717165 0.0546961 0
  endloop
 endfacet
 facet normal 0.608738 0.793325 0.008549
  outer loop
   vertex 0.0725 0.0543301 0.05
   vertex 0.0735355 0.0535355 0.05
   vertex 0.0730305 0.0539769 0.045
  endloop
 endfacet
 facet normal 0.382678 -0.923869 -0.00484746
  outer loop
   vertex 0.0725 0.0456699 0.05
   vertex 0.0712941 0.0451704 0.05
   vertex 0.072757 0.0458288 0.04
  endloop
 endfacet
 facet normal 0.606104 -0.79538 0.00293645
  outer loop
   vertex 0.0732905 0.0462353 0.04
   vertex 0.0725 0.0456699 0.05
   vertex 0.072757 0.0458288 0.04
  endloop
 endfacet
 facet normal 0.231494 0.972836 -0.000641708
  outer loop
   vertex 0.0712941 0.0548296 0.05
   vertex 0.0717165 0.0546961 0
   vertex 0.0705827 0.0549659 0
  endloop
 endfacet
 facet normal 0.382683 0.923879 0.000766197
  outer loop
   vertex 0.0712941 0.0548296 0.05
   vertex 0.0725 0.0543301 0.05
   vertex 0.0717165 0.0546961 0
  endloop
 endfacet
 facet normal 0.707112 -0.707101 -0.00112616
  outer loop
   vertex 0.0735355 0.0464645 0.05
   vertex 0.0732905 0.0462353 0.04
   vertex 0.0737647 0.0467096 0.04
  endloop
 endfacet
 facet normal 0 1 -0.000681457
  outer loop
   vertex 0.07 0.055 0.05
   vertex 0.0705827 0.0549659 0
   vertex 0.0694173 0.0549659 0
  endloop
 endfacet
 facet normal 0.608757 -0.79335 0.00326091
  outer loop
   vertex 0.0735355 0.0464645 0.05
   vertex 0.0725 0.0456699 0.05
   vertex 0.0732905 0.0462353 0.04
  endloop
 endfacet
 facet normal 0.130527 0.991444 0.000845558
  outer loop
   vertex 0.07 0.055 0.05
   vertex 0.0712941 0.0548296 0.05
   vertex 0.0705827 0.0549659 0
  endloop
 endfacet
 facet normal 0.89282 -0.450415 0
  outer loop
   vertex 0.0741712 0.047243 0.04
   vertex 0.0741712 0.047243 0
   vertex 0.0746961 0.0482835 0
  endloop
 endfacet
 facet normal -0.231494 0.972836 -0.000641708
  outer loop
   vertex 0.0687059 0.0548296 0.05
   vertex 0.0694173 0.0549659 0
   vertex 0.0682835 0.0546961 0
  endloop
 endfacet
 facet normal -0.130527 0.991444 0.000845558
  outer loop
   vertex 0.0687059 0.0548296 0.05
   vertex 0.07 0.055 0.05
   vertex 0.0694173 0.0549659 0
  endloop
 endfacet
 facet normal 0.795372 -0.606114 0.00293743
  outer loop
   vertex 0.0743301 0.0475 0.05
   vertex 0.0737647 0.0467096 0.04
   vertex 0.0741712 0.047243 0.04
  endloop
 endfacet
 facet normal -0.450418 0.892818 0
  outer loop
   vertex 0.067243 0.0541712 0.04
   vertex 0.0682835 0.0546961 0
   vertex 0.067243 0.0541712 0
  endloop
 endfacet
 facet normal 0.793352 -0.608755 0.0032604
  outer loop
   vertex 0.0743301 0.0475 0.05
   vertex 0.0735355 0.0464645 0.05
   vertex 0.0737647 0.0467096 0.04
  endloop
 endfacet
 facet normal -0.416625 0.909078 0.00109245
  outer loop
   vertex 0.067243 0.0541712 0.04
   vertex 0.0687059 0.0548296 0.05
   vertex 0.0682835 0.0546961 0
  endloop
 endfacet
 facet normal -0.382678 0.923869 -0.00484746
  outer loop
   vertex 0.0675 0.0543301 0.05
   vertex 0.0687059 0.0548296 0.05
   vertex 0.067243 0.0541712 0.04
  endloop
 endfacet
 facet normal 0.972836 -0.231496 -0.000641695
  outer loop
   vertex 0.0748296 0.0487059 0.05
   vertex 0.0746961 0.0482835 0
   vertex 0.0749659 0.0494173 0
  endloop
 endfacet
 facet normal -0.606104 0.79538 0.00293645
  outer loop
   vertex 0.0667095 0.0537647 0.04
   vertex 0.0675 0.0543301 0.05
   vertex 0.067243 0.0541712 0.04
  endloop
 endfacet
 facet normal 0.923868 -0.38268 -0.00484671
  outer loop
   vertex 0.0748296 0.0487059 0.05
   vertex 0.0743301 0.0475 0.05
   vertex 0.0741712 0.047243 0.04
  endloop
 endfacet
 facet normal 0.909079 -0.416622 0.00109242
  outer loop
   vertex 0.0748296 0.0487059 0.05
   vertex 0.0741712 0.047243 0.04
   vertex 0.0746961 0.0482835 0
  endloop
 endfacet
 facet normal 1 0 -0.000681457
  outer loop
   vertex 0.075 0.05 0.05
   vertex 0.0749659 0.0494173 0
   vertex 0.0749659 0.0505827 0
  endloop
 endfacet
 facet normal -0.608757 0.79335 0.00326091
  outer loop
   vertex 0.0664645 0.0535355 0.05
   vertex 0.0675 0.0543301 0.05
   vertex 0.0667095 0.0537647 0.04
  endloop
 endfacet
 facet normal -0.707112 0.707101 -0.00112616
  outer loop
   vertex 0.0664645 0.0535355 0.05
   vertex 0.0667095 0.0537647 0.04
   vertex 0.0662353 0.0532904 0.04
  endloop
 endfacet
 facet normal 0.991444 -0.130527 0.000845573
  outer loop
   vertex 0.075 0.05 0.05
   vertex 0.0748296 0.0487059 0.05
   vertex 0.0749659 0.0494173 0
  endloop
 endfacet
 facet normal 0.972836 0.231496 -0.000641695
  outer loop
   vertex 0.0748296 0.0512941 0.05
   vertex 0.0749659 0.0505827 0
   vertex 0.0746961 0.0517165 0
  endloop
 endfacet
 facet normal 0.991444 0.130527 0.000845573
  outer loop
   vertex 0.0748296 0.0512941 0.05
   vertex 0.075 0.05 0.05
   vertex 0.0749659 0.0505827 0
  endloop
 endfacet
 facet normal -0.89282 0.450415 0
  outer loop
   vertex 0.0658288 0.052757 0.04
   vertex 0.0658288 0.052757 0
   vertex 0.0653039 0.0517165 0
  endloop
 endfacet
 facet normal -0.793352 0.608755 0.0032604
  outer loop
   vertex 0.0656699 0.0525 0.05
   vertex 0.0664645 0.0535355 0.05
   vertex 0.0662353 0.0532904 0.04
  endloop
 endfacet
 facet normal 0.923879 0.382684 0.000766211
  outer loop
   vertex 0.0743301 0.0525 0.05
   vertex 0.0748296 0.0512941 0.05
   vertex 0.0746961 0.0517165 0
  endloop
 endfacet
 facet normal -0.795372 0.606114 0.00293743
  outer loop
   vertex 0.0656699 0.0525 0.05
   vertex 0.0662353 0.0532904 0.04
   vertex 0.0658288 0.052757 0.04
  endloop
 endfacet
 facet normal 0.89282 0.450415 0
  outer loop
   vertex 0.0741712 0.052757 0.045
   vertex 0.0746961 0.0517165 0
   vertex 0.0741712 0.052757 0
  endloop
 endfacet
 facet normal 0.863896 0.503667 -0.00156872
  outer loop
   vertex 0.0741712 0.052757 0.045
   vertex 0.0743301 0.0525 0.05
   vertex 0.0746961 0.0517165 0
  endloop
 endfacet
 facet normal 0.815256 0.579089 0.00385382
  outer loop
   vertex 0.0739769 0.0530305 0.045
   vertex 0.0743301 0.0525 0.05
   vertex 0.0741712 0.052757 0.045
  endloop
 endfacet
 facet normal -0.909079 0.416622 0.00109242
  outer loop
   vertex 0.0651704 0.0512941 0.05
   vertex 0.0658288 0.052757 0.04
   vertex 0.0653039 0.0517165 0
  endloop
 endfacet
 facet normal -0.923868 0.38268 -0.00484671
  outer loop
   vertex 0.0651704 0.0512941 0.05
   vertex 0.0656699 0.0525 0.05
   vertex 0.0658288 0.052757 0.04
  endloop
 endfacet
 facet normal -0.972836 0.231496 -0.000641695
  outer loop
   vertex 0.0651704 0.0512941 0.05
   vertex 0.0653039 0.0517165 0
   vertex 0.0650341 0.0505827 0
  endloop
 endfacet
 facet normal 0.793327 0.608736 0.00854878
  outer loop
   vertex 0.0735355 0.0535355 0.05
   vertex 0.0743301 0.0525 0.05
   vertex 0.0739769 0.0530305 0.045
  endloop
 endfacet
 facet normal 0.774586 0.632452 0.00449917
  outer loop
   vertex 0.0735355 0.0535355 0.05
   vertex 0.0739769 0.0530305 0.045
   vertex 0.0737647 0.0532904 0.045
  endloop
 endfacet
 facet normal 0.730447 0.682969 0
  outer loop
   vertex 0.0735355 0.0535355 0.05
   vertex 0.0737647 0.0532904 0.045
   vertex 0.0735355 0.0535355 0.045
  endloop
 endfacet
 facet normal -0.991444 0.130527 0.000845573
  outer loop
   vertex 0.065 0.05 0.05
   vertex 0.0651704 0.0512941 0.05
   vertex 0.0650341 0.0505827 0
  endloop
 endfacet
 facet normal -1 0 -0.000681457
  outer loop
   vertex 0.065 0.05 0.05
   vertex 0.0650341 0.0505827 0
   vertex 0.0650341 0.0494173 0
  endloop
 endfacet
 facet normal -0.972836 -0.231496 -0.000641695
  outer loop
   vertex 0.0651704 0.0487059 0.05
   vertex 0.0650341 0.0494173 0
   vertex 0.0653039 0.0482835 0
  endloop
 endfacet
 facet normal -0.991444 -0.130527 0.000845573
  outer loop
   vertex 0.0651704 0.0487059 0.05
   vertex 0.065 0.05 0.05
   vertex 0.0650341 0.0494173 0
  endloop
 endfacet
 facet normal -0.923879 -0.382684 0.000766211
  outer loop
   vertex 0.0656699 0.0475 0.05
   vertex 0.0651704 0.0487059 0.05
   vertex 0.0653039 0.0482835 0
  endloop
 endfacet
 facet normal -0.863896 -0.503667 -0.00156872
  outer loop
   vertex 0.0658288 0.047243 0.045
   vertex 0.0656699 0.0475 0.05
   vertex 0.0653039 0.0482835 0
  endloop
 endfacet
 facet normal -0.89282 -0.450415 -0
  outer loop
   vertex 0.0658288 0.047243 0.045
   vertex 0.0653039 0.0482835 0
   vertex 0.0658288 0.047243 0
  endloop
 endfacet
 facet normal -0.795362 -0.606106 0.00587479
  outer loop
   vertex 0.0662353 0.0467096 0.045
   vertex 0.0656699 0.0475 0.05
   vertex 0.0658288 0.047243 0.045
  endloop
 endfacet
 facet normal -0.793339 -0.608745 0.00652069
  outer loop
   vertex 0.0664645 0.0464645 0.05
   vertex 0.0656699 0.0475 0.05
   vertex 0.0662353 0.0467096 0.045
  endloop
 endfacet
 facet normal -0.707111 -0.707099 -0.00225232
  outer loop
   vertex 0.0667095 0.0462353 0.045
   vertex 0.0664645 0.0464645 0.05
   vertex 0.0662353 0.0467096 0.045
  endloop
 endfacet
 facet normal -0.450418 -0.892818 -0
  outer loop
   vertex 0.067243 0.0458288 0.045
   vertex 0.067243 0.0458288 0
   vertex 0.0682835 0.0453039 0
  endloop
 endfacet
 facet normal -0.606097 -0.795369 0.00587283
  outer loop
   vertex 0.0675 0.0456699 0.05
   vertex 0.0667095 0.0462353 0.045
   vertex 0.067243 0.0458288 0.045
  endloop
 endfacet
 facet normal -0.608747 -0.793337 0.00652171
  outer loop
   vertex 0.0675 0.0456699 0.05
   vertex 0.0664645 0.0464645 0.05
   vertex 0.0667095 0.0462353 0.045
  endloop
 endfacet
 facet normal -0.503681 -0.863888 -0.00156904
  outer loop
   vertex 0.0675 0.0456699 0.05
   vertex 0.067243 0.0458288 0.045
   vertex 0.0682835 0.0453039 0
  endloop
 endfacet
 facet normal -0.707107 -0.707107 -0
  outer loop
   vertex 0.0862635 0.0323223 0.04
   vertex 0.072757 0.0458288 0
   vertex 0.0862635 0.0323223 0
  endloop
 endfacet
 facet normal -0.707107 -0.707107 -0
  outer loop
   vertex 0.072757 0.0458288 0.04
   vertex 0.072757 0.0458288 0
   vertex 0.0862635 0.0323223 0.04
  endloop
 endfacet
 facet normal -0 0 1
  outer loop
   vertex 0.0737647 0.0467096 0.04
   vertex 0.0876777 0.0337365 0.04
   vertex 0.0741712 0.047243 0.04
  endloop
 endfacet
 facet normal 0 0 1
  outer loop
   vertex 0.0732905 0.0462353 0.04
   vertex 0.0862635 0.0323223 0.04
   vertex 0.0876777 0.0337365 0.04
  endloop
 endfacet
 facet normal -0 0 1
  outer loop
   vertex 0.0732905 0.0462353 0.04
   vertex 0.0876777 0.0337365 0.04
   vertex 0.0737647 0.0467096 0.04
  endloop
 endfacet
 facet normal -0 0 1
  outer loop
   vertex 0.072757 0.0458288 0.04
   vertex 0.0862635 0.0323223 0.04
   vertex 0.0732905 0.0462353 0.04
  endloop
 endfacet
 facet normal 0 0 1
  outer loop
   vertex 0.0876777 0.0662635 0.045
   vertex 0.0739769 0.0530305 0.045
   vertex 0.0741712 0.052757 0.045
  endloop
 endfacet
 facet normal 0 0 1
  outer loop
   vertex 0.0876777 0.0662635 0.045
   vertex 0.0737647 0.0532904 0.045
   vertex 0.0739769 0.0530305 0.045
  endloop
 endfacet
 facet normal 0 0 1
  outer loop
   vertex 0.0876777 0.0662635 0.045
   vertex 0.0735355 0.0535355 0.045
   vertex 0.0737647 0.0532904 0.045
  endloop
 endfacet
 facet normal 0 0 1
  outer loop
   vertex 0.0862635 0.0676777 0.045
   vertex 0.0732905 0.0537647 0.045
   vertex 0.0735355 0.0535355 0.045
  endloop
 endfacet
 facet normal 0 0 1
  outer loop
   vertex 0.0862635 0.0676777 0.045
   vertex 0.0730305 0.0539769 0.045
   vertex 0.0732905 0.0537647 0.045
  endloop
 endfacet
 facet normal 0 0 1
  outer loop
   vertex 0.0862635 0.0676777 0.045
   vertex 0.072757 0.0541712 0.045
   vertex 0.0730305 0.0539769 0.045
  endloop
 endfacet
 facet normal 0 0 1
  outer loop
   vertex 0.0862635 0.0676777 0.045
   vertex 0.0735355 0.0535355 0.045
   vertex 0.0876777 0.0662635 0.045
  endloop
 endfacet
 facet normal 0.707107 -0.707107 0
  outer loop
   vertex 0.0876777 0.0662635 0
   vertex 0.0876777 0.0662635 0.045
   vertex 0.0741712 0.052757 0
  endloop
 endfacet
 facet normal 0.707107 -0.707107 0
  outer loop
   vertex 0.0741712 0.052757 0
   vertex 0.0876777 0.0662635 0.045
   vertex 0.0741712 0.052757 0.045
  endloop
 endfacet
 facet normal 0 0 -1
  outer loop
   vertex 0.067243 0.0458288 0
   vertex 0.0678787 0.0464645 0
   vertex 0.0682835 0.0453039 0
  endloop
 endfacet
 facet normal 0 0 -1
  outer loop
   vertex 0.0682835 0.0453039 0
   vertex 0.0678787 0.0464645 0
   vertex 0.0694173 0.0450341 0
  endloop
 endfacet
 facet normal 0 0 -1
  outer loop
   vertex 0.0694173 0.0450341 0
   vertex 0.0721213 0.0464645 0
   vertex 0.0705827 0.0450341 0
  endloop
 endfacet
 facet normal 0 0 -1
  outer loop
   vertex 0.0705827 0.0450341 0
   vertex 0.0721213 0.0464645 0
   vertex 0.0717165 0.0453039 0
  endloop
 endfacet
 facet normal 0 0 -1
  outer loop
   vertex 0.0717165 0.0453039 0
   vertex 0.0721213 0.0464645 0
   vertex 0.072757 0.0458288 0
  endloop
 endfacet
 facet normal 0 0 -1
  outer loop
   vertex 0.0678787 0.0464645 0
   vertex 0.0721213 0.0464645 0
   vertex 0.0694173 0.0450341 0
  endloop
 endfacet
 facet normal 0 0 -1
  outer loop
   vertex 0.0678787 0.0464645 0
   vertex 0.0664645 0.0478787 0
   vertex 0.0721213 0.0464645 0
  endloop
 endfacet
 facet normal 0 0 -1
  outer loop
   vertex 0.0658288 0.047243 0
   vertex 0.0653039 0.0482835 0
   vertex 0.0664645 0.0478787 0
  endloop
 endfacet
 facet normal 0 0 -1
  outer loop
   vertex 0.0735355 0.0478787 0
   vertex 0.0746961 0.0482835 0
   vertex 0.0741712 0.047243 0
  endloop
 endfacet
 facet normal 0 0 -1
  outer loop
   vertex 0.0653039 0.0482835 0
   vertex 0.0650341 0.0494173 0
   vertex 0.0664645 0.0478787 0
  endloop
 endfacet
 facet normal 0 0 -1
  outer loop
   vertex 0.0735355 0.0478787 0
   vertex 0.0749659 0.0494173 0
   vertex 0.0746961 0.0482835 0
  endloop
 endfacet
 facet normal 0 0 -1
  outer loop
   vertex 0.0650341 0.0494173 0
   vertex 0.0650341 0.0505827 0
   vertex 0.0664645 0.0478787 0
  endloop
 endfacet
 facet normal 0 0 -1
  outer loop
   vertex 0.0735355 0.0478787 0
   vertex 0.0749659 0.0505827 0
   vertex 0.0749659 0.0494173 0
  endloop
 endfacet
 facet normal 0 -0 -1
  outer loop
   vertex 0.0653039 0.0517165 0
   vertex 0.0664645 0.0521213 0
   vertex 0.0650341 0.0505827 0
  endloop
 endfacet
 facet normal 0 0 -1
  outer loop
   vertex 0.0650341 0.0505827 0
   vertex 0.0664645 0.0521213 0
   vertex 0.0664645 0.0478787 0
  endloop
 endfacet
 facet normal 0 0 -1
  outer loop
   vertex 0.0721213 0.0464645 0
   vertex 0.0735355 0.0521213 0
   vertex 0.0735355 0.0478787 0
  endloop
 endfacet
 facet normal 0 0 -1
  outer loop
   vertex 0.0749659 0.0505827 0
   vertex 0.0735355 0.0521213 0
   vertex 0.0746961 0.0517165 0
  endloop
 endfacet
 facet normal 0 0 -1
  outer loop
   vertex 0.0735355 0.0478787 0
   vertex 0.0735355 0.0521213 0
   vertex 0.0749659 0.0505827 0
  endloop
 endfacet
 facet normal 0 0 -1
  outer loop
   vertex 0.0653039 0.0517165 0
   vertex 0.0658288 0.052757 0
   vertex 0.0664645 0.0521213 0
  endloop
 endfacet
 facet normal 0 0 -1
  outer loop
   vertex 0.0735355 0.0521213 0
   vertex 0.0741712 0.052757 0
   vertex 0.0746961 0.0517165 0
  endloop
 endfacet
 facet normal 0 0 -1
  outer loop
   vertex 0.0664645 0.0478787 0
   vertex 0.0678787 0.0535355 0
   vertex 0.0721213 0.0464645 0
  endloop
 endfacet
 facet normal 0 0 -1
  outer loop
   vertex 0.0664645 0.0521213 0
   vertex 0.0678787 0.0535355 0
   vertex 0.0664645 0.0478787 0
  endloop
 endfacet
 facet normal 0 0 -1
  outer loop
   vertex 0.0721213 0.0464645 0
   vertex 0.0721213 0.0535355 0
   vertex 0.0735355 0.0521213 0
  endloop
 endfacet
 facet normal 0 0 -1
  outer loop
   vertex 0.0678787 0.0535355 0
   vertex 0.0721213 0.0535355 0
   vertex 0.0721213 0.0464645 0
  endloop
 endfacet
 facet normal 0 0 -1
  outer loop
   vertex 0.0721213 0.0535355 0
   vertex 0.0717165 0.0546961 0
   vertex 0.072757 0.0541712 0
  endloop
 endfacet
 facet normal 0 0 -1
  outer loop
   vertex 0.067243 0.0541712 0
   vertex 0.0682835 0.0546961 0
   vertex 0.0678787 0.0535355 0
  endloop
 endfacet
 facet normal 0 0 -1
  outer loop
   vertex 0.0721213 0.0535355 0
   vertex 0.0705827 0.0549659 0
   vertex 0.0717165 0.0546961 0
  endloop
 endfacet
 facet normal 0 0 -1
  outer loop
   vertex 0.0721213 0.0535355 0
   vertex 0.0694173 0.0549659 0
   vertex 0.0705827 0.0549659 0
  endloop
 endfacet
 facet normal 0 0 -1
  outer loop
   vertex 0.0678787 0.0535355 0
   vertex 0.0694173 0.0549659 0
   vertex 0.0721213 0.0535355 0
  endloop
 endfacet
 facet normal 0 -0 -1
  outer loop
   vertex 0.0682835 0.0546961 0
   vertex 0.0694173 0.0549659 0
   vertex 0.0678787 0.0535355 0
  endloop
 endfacet
 facet normal 0.707107 0.707107 0
  outer loop
   vertex 0.0741712 0.047243 0
   vertex 0.0876777 0.0337365 0.04
   vertex 0.0876777 0.0337365 0
  endloop
 endfacet
 facet normal 0.707107 0.707107 -0
  outer loop
   vertex 0.0741712 0.047243 0
   vertex 0.0741712 0.047243 0.04
   vertex 0.0876777 0.0337365 0.04
  endloop
 endfacet
 facet normal 0.707107 -0.707107 0
  outer loop
   vertex 0.067243 0.0458288 0
   vertex 0.067243 0.0458288 0.045
   vertex 0.0537365 0.0323223 0
  endloop
 endfacet
 facet normal 0.707107 -0.707107 0
  outer loop
   vertex 0.0537365 0.0323223 0
   vertex 0.067243 0.0458288 0.045
   vertex 0.0537365 0.0323223 0.045
  endloop
 endfacet
 facet normal -0.707107 0.707107 0
  outer loop
   vertex 0.0523223 0.0337365 0.045
   vertex 0.0658288 0.047243 0
   vertex 0.0523223 0.0337365 0
  endloop
 endfacet
 facet normal -0.707107 0.707107 0
  outer loop
   vertex 0.0658288 0.047243 0.045
   vertex 0.0658288 0.047243 0
   vertex 0.0523223 0.0337365 0.045
  endloop
 endfacet
 facet normal -0.707107 -0.707107 -0
  outer loop
   vertex 0.0658288 0.052757 0.04
   vertex 0.0523223 0.0662635 0
   vertex 0.0658288 0.052757 0
  endloop
 endfacet
 facet normal -0.707107 -0.707107 -0
  outer loop
   vertex 0.0523223 0.0662635 0.04
   vertex 0.0523223 0.0662635 0
   vertex 0.0658288 0.052757 0.04
  endloop
 endfacet
 facet normal 0 0 1
  outer loop
   vertex 0.0537365 0.0676777 0.04
   vertex 0.0667095 0.0537647 0.04
   vertex 0.067243 0.0541712 0.04
  endloop
 endfacet
 facet normal 0 0 1
  outer loop
   vertex 0.0523223 0.0662635 0.04
   vertex 0.0662353 0.0532904 0.04
   vertex 0.0667095 0.0537647 0.04
  endloop
 endfacet
 facet normal 0 0 1
  outer loop
   vertex 0.0523223 0.0662635 0.04
   vertex 0.0658288 0.052757 0.04
   vertex 0.0662353 0.0532904 0.04
  endloop
 endfacet
 facet normal -0 0 1
  outer loop
   vertex 0.0523223 0.0662635 0.04
   vertex 0.0667095 0.0537647 0.04
   vertex 0.0537365 0.0676777 0.04
  endloop
 endfacet
 facet normal 0.707107 0.707107 0
  outer loop
   vertex 0.0537365 0.0676777 0
   vertex 0.067243 0.0541712 0.04
   vertex 0.067243 0.0541712 0
  endloop
 endfacet
 facet normal 0.707107 0.707107 -0
  outer loop
   vertex 0.0537365 0.0676777 0
   vertex 0.0537365 0.0676777 0.04
   vertex 0.067243 0.0541712 0.04
  endloop
 endfacet
 facet normal -0.707107 0.707107 0
  outer loop
   vertex 0.0862635 0.0676777 0.045
   vertex 0.0862635 0.0676777 0
   vertex 0.072757 0.0541712 0
  endloop
 endfacet
 facet normal -0.707107 0.707107 0
  outer loop
   vertex 0.0862635 0.0676777 0.045
   vertex 0.072757 0.0541712 0
   vertex 0.072757 0.0541712 0.045
  endloop
 endfacet
 facet normal 0 0 -1
  outer loop
   vertex 0.0721213 0.0535355 0
   vertex 0.072757 0.0541712 0
   vertex 0.0735355 0.0521213 0
  endloop
 endfacet
 facet normal 0 0 -1
  outer loop
   vertex 0.0735355 0.0521213 0
   vertex 0.072757 0.0541712 0
   vertex 0.0741712 0.052757 0
  endloop
 endfacet
 facet normal 0 0 -1
  outer loop
   vertex 0.0741712 0.052757 0
   vertex 0.0862635 0.0676777 0
   vertex 0.0876777 0.0662635 0
  endloop
 endfacet
 facet normal 0 0 -1
  outer loop
   vertex 0.072757 0.0541712 0
   vertex 0.0862635 0.0676777 0
   vertex 0.0741712 0.052757 0
  endloop
 endfacet
 facet normal 0 0 -1
  outer loop
   vertex 0.0862635 0.0323223 0
   vertex 0.0741712 0.047243 0
   vertex 0.0876777 0.0337365 0
  endloop
 endfacet
 facet normal -0 0 -1
  outer loop
   vertex 0.0741712 0.047243 0
   vertex 0.072757 0.0458288 0
   vertex 0.0735355 0.0478787 0
  endloop
 endfacet
 facet normal 0 0 -1
  outer loop
   vertex 0.0862635 0.0323223 0
   vertex 0.072757 0.0458288 0
   vertex 0.0741712 0.047243 0
  endloop
 endfacet
 facet normal 0 0 -1
  outer loop
   vertex 0.072757 0.0458288 0
   vertex 0.0721213 0.0464645 0
   vertex 0.0735355 0.0478787 0
  endloop
 endfacet
 facet normal 0 0 -1
  outer loop
   vertex 0.0664645 0.0521213 0
   vertex 0.0658288 0.052757 0
   vertex 0.0678787 0.0535355 0
  endloop
 endfacet
 facet normal -0 0 -1
  outer loop
   vertex 0.0678787 0.0535355 0
   vertex 0.0658288 0.052757 0
   vertex 0.067243 0.0541712 0
  endloop
 endfacet
 facet normal 0 0 -1
  outer loop
   vertex 0.067243 0.0541712 0
   vertex 0.0523223 0.0662635 0
   vertex 0.0537365 0.0676777 0
  endloop
 endfacet
 facet normal 0 0 -1
  outer loop
   vertex 0.0658288 0.052757 0
   vertex 0.0523223 0.0662635 0
   vertex 0.067243 0.0541712 0
  endloop
 endfacet
 facet normal 0 0 -1
  outer loop
   vertex 0.0523223 0.0337365 0
   vertex 0.0658288 0.047243 0
   vertex 0.0537365 0.0323223 0
  endloop
 endfacet
 facet normal 0 0 -1
  outer loop
   vertex 0.0537365 0.0323223 0
   vertex 0.0658288 0.047243 0
   vertex 0.067243 0.0458288 0
  endloop
 endfacet
 facet normal 0 0 -1
  outer loop
   vertex 0.067243 0.0458288 0
   vertex 0.0664645 0.0478787 0
   vertex 0.0678787 0.0464645 0
  endloop
 endfacet
 facet normal 0 0 -1
  outer loop
   vertex 0.0658288 0.047243 0
   vertex 0.0664645 0.0478787 0
   vertex 0.067243 0.0458288 0
  endloop
 endfacet
 facet normal 0.707107 -0.707107 0
  outer loop
   vertex 0.0862635 0.0323223 0
   vertex 0.0876777 0.0337365 0.04
   vertex 0.0862635 0.0323223 0.04
  endloop
 endfacet
 facet normal 0.707107 -0.707107 0
  outer loop
   vertex 0.0876777 0.0337365 0
   vertex 0.0876777 0.0337365 0.04
   vertex 0.0862635 0.0323223 0
  endloop
 endfacet
 facet normal -0.707107 0.707107 0
  outer loop
   vertex 0.0537365 0.0676777 0.04
   vertex 0.0523223 0.0662635 0
   vertex 0.0523223 0.0662635 0.04
  endloop
 endfacet
 facet normal -0.707107 0.707107 0
  outer loop
   vertex 0.0537365 0.0676777 0.04
   vertex 0.0537365 0.0676777 0
   vertex 0.0523223 0.0662635 0
  endloop
 endfacet
 facet normal -0.707107 -0.707107 0
  outer loop
   vertex 0.0523223 0.0337365 0
   vertex 0.0537365 0.0323223 0.045
   vertex 0.0523223 0.0337365 0.045
  endloop
 endfacet
 facet normal -0.707107 -0.707107 0
  outer loop
   vertex 0.0537365 0.0323223 0
   vertex 0.0537365 0.0323223 0.045
   vertex 0.0523223 0.0337365 0
  endloop
 endfacet
 facet normal 0 0 1
  outer loop
   vertex 0.0667095 0.0462353 0.045
   vertex 0.0537365 0.0323223 0.045
   vertex 0.067243 0.0458288 0.045
  endloop
 endfacet
 facet normal 0 0 1
  outer loop
   vertex 0.0662353 0.0467096 0.045
   vertex 0.0523223 0.0337365 0.045
   vertex 0.0537365 0.0323223 0.045
  endloop
 endfacet
 facet normal 0 0 1
  outer loop
   vertex 0.0662353 0.0467096 0.045
   vertex 0.0537365 0.0323223 0.045
   vertex 0.0667095 0.0462353 0.045
  endloop
 endfacet
 facet normal 0 0 1
  outer loop
   vertex 0.0658288 0.047243 0.045
   vertex 0.0523223 0.0337365 0.045
   vertex 0.0662353 0.0467096 0.045
  endloop
 endfacet
 facet normal 0.707107 0.707107 0
  outer loop
   vertex 0.0876777 0.0662635 0.045
   vertex 0.0862635 0.0676777 0
   vertex 0.0862635 0.0676777 0.045
  endloop
 endfacet
 facet normal 0.707107 0.707107 0
  outer loop
   vertex 0.0876777 0.0662635 0.045
   vertex 0.0876777 0.0662635 0
   vertex 0.0862635 0.0676777 0
  endloop
 endfacet
endsolid Paddle2
