solid ExportedfromBlender-2.77(sub0)
 facet normal 1 0 0
  outer loop
   vertex 0.17 0.25 -0.001
   vertex 0.17 0.1 -0.001
   vertex 0.17 0.1 -0.011
  endloop
 endfacet
 facet normal 1 0 0
  outer loop
   vertex 0.17 0.1 -0.011
   vertex 0.17 0.25 -0.011
   vertex 0.17 0.25 -0.001
  endloop
 endfacet
 facet normal 0 0 1
  outer loop
   vertex -0.01 0.05 0.009
   vertex 0.17 0.1 0.009
   vertex 0.17 0.25 0.009
  endloop
 endfacet
 facet normal 0 0 1
  outer loop
   vertex 0.17 0.25 0.009
   vertex -0.01 0.25 0.009
   vertex -0.01 0.05 0.009
  endloop
 endfacet
 facet normal 1 0 0
  outer loop
   vertex 0.17 0.1 -0.001
   vertex 0.17 0.25 -0.001
   vertex 0.17 0.25 0.009
  endloop
 endfacet
 facet normal 1 0 0
  outer loop
   vertex 0.17 0.25 0.009
   vertex 0.17 0.1 0.009
   vertex 0.17 0.1 -0.001
  endloop
 endfacet
 facet normal -1 0 0
  outer loop
   vertex -0.01 0.25 -0.001
   vertex -0.01 0.05 -0.001
   vertex -0.01 0.05 0.009
  endloop
 endfacet
 facet normal -1 0 0
  outer loop
   vertex -0.01 0.05 0.009
   vertex -0.01 0.25 0.009
   vertex -0.01 0.25 -0.001
  endloop
 endfacet
 facet normal 0 1 0
  outer loop
   vertex 0.17 0.25 -0.001
   vertex -0.01 0.25 -0.001
   vertex -0.01 0.25 0.009
  endloop
 endfacet
 facet normal -0 1 0
  outer loop
   vertex -0.01 0.25 0.009
   vertex 0.17 0.25 0.009
   vertex 0.17 0.25 -0.001
  endloop
 endfacet
 facet normal 0.267644 -0.963518 0
  outer loop
   vertex -0.01 0.05 -0.001
   vertex 0.17 0.1 -0.001
   vertex 0.17 0.1 0.009
  endloop
 endfacet
 facet normal 0.267644 -0.963518 0
  outer loop
   vertex 0.17 0.1 0.009
   vertex -0.01 0.05 0.009
   vertex -0.01 0.05 -0.001
  endloop
 endfacet
 facet normal 0 0 -1
  outer loop
   vertex -0.01 0.05 -0.011
   vertex -0.01 0.25 -0.011
   vertex 0.17 0.25 -0.011
  endloop
 endfacet
 facet normal 0 -0 -1
  outer loop
   vertex 0.17 0.25 -0.011
   vertex 0.17 0.1 -0.011
   vertex -0.01 0.05 -0.011
  endloop
 endfacet
 facet normal -1 0 0
  outer loop
   vertex -0.01 0.05 -0.001
   vertex -0.01 0.25 -0.001
   vertex -0.01 0.25 -0.011
  endloop
 endfacet
 facet normal -1 0 0
  outer loop
   vertex -0.01 0.25 -0.011
   vertex -0.01 0.05 -0.011
   vertex -0.01 0.05 -0.001
  endloop
 endfacet
 facet normal -0 1 0
  outer loop
   vertex -0.01 0.25 -0.001
   vertex 0.17 0.25 -0.001
   vertex 0.17 0.25 -0.011
  endloop
 endfacet
 facet normal 0 1 0
  outer loop
   vertex 0.17 0.25 -0.011
   vertex -0.01 0.25 -0.011
   vertex -0.01 0.25 -0.001
  endloop
 endfacet
 facet normal 0.267644 -0.963518 0
  outer loop
   vertex 0.17 0.1 -0.001
   vertex -0.01 0.05 -0.001
   vertex -0.01 0.05 -0.011
  endloop
 endfacet
 facet normal 0.267644 -0.963518 0
  outer loop
   vertex -0.01 0.05 -0.011
   vertex 0.17 0.1 -0.011
   vertex 0.17 0.1 -0.001
  endloop
 endfacet
endsolid ExportedfromBlender-2.77(sub0)
