solid face0
 facet normal -1.0 0.0 0.0
  outer loop
    vertex 0.0 0.02 0.0
    vertex 0.0 0.0 0.02
    vertex 0.0 0.02 0.02
  endloop
 endfacet
 facet normal -1.0 0.0 0.0
  outer loop
    vertex 0.0 0.0 0.0
    vertex 0.0 0.0 0.02
    vertex 0.0 0.02 0.0
  endloop
 endfacet
endsolid face0
solid face1
 facet normal 1.0 -0.0 0.0
  outer loop
    vertex 0.1 0.0 0.02
    vertex 0.1 0.02 0.0
    vertex 0.1 0.02 0.02
  endloop
 endfacet
 facet normal 1.0 0.0 0.0
  outer loop
    vertex 0.1 0.0 0.02
    vertex 0.1 0.0 0.0
    vertex 0.1 0.02 0.0
  endloop
 endfacet
endsolid face1
solid face2
 facet normal 0.0 -1.0 0.0
  outer loop
    vertex 0.1 0.0 0.0
    vertex 0.1 0.0 0.02
    vertex 0.0 0.0 0.0
  endloop
 endfacet
 facet normal 0.0 -1.0 0.0
  outer loop
    vertex 0.0 0.0 0.0
    vertex 0.1 0.0 0.02
    vertex 0.0 0.0 0.02
  endloop
 endfacet
endsolid face2
solid face3
 facet normal 0.0 1.0 0.0
  outer loop
    vertex 0.1 0.02 0.02
    vertex 0.1 0.02 0.0
    vertex 0.0 0.02 0.0
  endloop
 endfacet
 facet normal 0.0 1.0 0.0
  outer loop
    vertex 0.1 0.02 0.02
    vertex 0.0 0.02 0.0
    vertex 0.0 0.02 0.02
  endloop
 endfacet
endsolid face3
solid face4
 facet normal 0.0 0.0 -1.0
  outer loop
    vertex 0.0 0.02 0.0
    vertex 0.1 0.02 0.0
    vertex 0.0 0.0 0.0
  endloop
 endfacet
 facet normal 0.0 0.0 -1.0
  outer loop
    vertex 0.0 0.0 0.0
    vertex 0.1 0.02 0.0
    vertex 0.1 0.0 0.0
  endloop
 endfacet
endsolid face4
solid face5
 facet normal 0.0 0.0 1.0
  outer loop
    vertex 0.1 0.02 0.02
    vertex 0.0 0.02 0.02
    vertex 0.0 0.0 0.02
  endloop
 endfacet
 facet normal 0.0 0.0 1.0
  outer loop
    vertex 0.1 0.02 0.02
    vertex 0.0 0.0 0.02
    vertex 0.1 0.0 0.02
  endloop
 endfacet
endsolid face5
