solid battery1
 facet normal 0.0627905 0.998027 0
  outer loop
   vertex 0.00112799916 0.0089290319 0
   vertex 0 0.00899999961 0
   vertex 0.00112799916 0.0089290319 0.0649999976
  endloop
 endfacet
 facet normal 0.0627905 0.998027 -0
  outer loop
   vertex 0.00112799916 0.0089290319 0.0649999976
   vertex 0 0.00899999961 0
   vertex 0 0.00899999961 0.0649999976
  endloop
 endfacet
 facet normal 0.187381 0.982287 0
  outer loop
   vertex 0.00223820889 0.00871724822 0
   vertex 0.00112799916 0.0089290319 0
   vertex 0.00223820889 0.00871724822 0.0649999976
  endloop
 endfacet
 facet normal 0.187381 0.982287 -0
  outer loop
   vertex 0.00223820889 0.00871724822 0.0649999976
   vertex 0.00112799916 0.0089290319 0
   vertex 0.00112799916 0.0089290319 0.0649999976
  endloop
 endfacet
 facet normal 0.309017 0.951057 0
  outer loop
   vertex 0.00331312092 0.00836798828 0
   vertex 0.00223820889 0.00871724822 0
   vertex 0.00331312092 0.00836798828 0.0649999976
  endloop
 endfacet
 facet normal 0.309017 0.951057 -0
  outer loop
   vertex 0.00331312092 0.00836798828 0.0649999976
   vertex 0.00223820889 0.00871724822 0
   vertex 0.00223820889 0.00871724822 0.0649999976
  endloop
 endfacet
 facet normal 0.425779 0.904827 0
  outer loop
   vertex 0.00433578296 0.00788675994 0
   vertex 0.00331312092 0.00836798828 0
   vertex 0.00433578296 0.00788675994 0.0649999976
  endloop
 endfacet
 facet normal 0.425779 0.904827 -0
  outer loop
   vertex 0.00433578296 0.00788675994 0.0649999976
   vertex 0.00331312092 0.00836798828 0
   vertex 0.00331312092 0.00836798828 0.0649999976
  endloop
 endfacet
 facet normal 0.535827 0.844328 0
  outer loop
   vertex 0.00529006729 0.007281153 0
   vertex 0.00433578296 0.00788675994 0
   vertex 0.00529006729 0.007281153 0.0649999976
  endloop
 endfacet
 facet normal 0.535827 0.844328 -0
  outer loop
   vertex 0.00529006729 0.007281153 0.0649999976
   vertex 0.00433578296 0.00788675994 0
   vertex 0.00433578296 0.00788675994 0.0649999976
  endloop
 endfacet
 facet normal 0.637424 0.770513 0
  outer loop
   vertex 0.00616092375 0.00656071771 0
   vertex 0.00529006729 0.007281153 0
   vertex 0.00616092375 0.00656071771 0.0649999976
  endloop
 endfacet
 facet normal 0.637424 0.770513 -0
  outer loop
   vertex 0.00616092375 0.00656071771 0.0649999976
   vertex 0.00529006729 0.007281153 0
   vertex 0.00529006729 0.007281153 0.0649999976
  endloop
 endfacet
 facet normal 0.728969 0.684547 0
  outer loop
   vertex 0.00693461904 0.00573681574 0
   vertex 0.00616092375 0.00656071771 0
   vertex 0.00693461904 0.00573681574 0.0649999976
  endloop
 endfacet
 facet normal 0.728969 0.684547 -0
  outer loop
   vertex 0.00693461904 0.00573681574 0.0649999976
   vertex 0.00616092375 0.00656071771 0
   vertex 0.00616092375 0.00656071771 0.0649999976
  endloop
 endfacet
 facet normal 0.809017 0.587786 0
  outer loop
   vertex 0.00759895146 0.00482244138 0
   vertex 0.00693461904 0.00573681574 0
   vertex 0.00759895146 0.00482244138 0.0649999976
  endloop
 endfacet
 facet normal 0.809017 0.587786 -0
  outer loop
   vertex 0.00759895146 0.00482244138 0.0649999976
   vertex 0.00693461904 0.00573681574 0
   vertex 0.00693461904 0.00573681574 0.0649999976
  endloop
 endfacet
 facet normal 0.876307 0.481754 0
  outer loop
   vertex 0.00814344361 0.00383201358 0
   vertex 0.00759895146 0.00482244138 0
   vertex 0.00814344361 0.00383201358 0.0649999976
  endloop
 endfacet
 facet normal 0.876307 0.481754 -0
  outer loop
   vertex 0.00814344361 0.00383201358 0.0649999976
   vertex 0.00759895146 0.00482244138 0
   vertex 0.00759895146 0.00482244138 0.0649999976
  endloop
 endfacet
 facet normal 0.929777 0.368124 0
  outer loop
   vertex 0.00855950825 0.00278115296 0
   vertex 0.00814344361 0.00383201358 0
   vertex 0.00855950825 0.00278115296 0.0649999976
  endloop
 endfacet
 facet normal 0.929777 0.368124 -0
  outer loop
   vertex 0.00855950825 0.00278115296 0.0649999976
   vertex 0.00814344361 0.00383201358 0
   vertex 0.00814344361 0.00383201358 0.0649999976
  endloop
 endfacet
 facet normal 0.968583 0.24869 0
  outer loop
   vertex 0.00884058513 0.00168643182 0
   vertex 0.00855950825 0.00278115296 0
   vertex 0.00884058513 0.00168643182 0.0649999976
  endloop
 endfacet
 facet normal 0.968583 0.24869 -0
  outer loop
   vertex 0.00884058513 0.00168643182 0.0649999976
   vertex 0.00855950825 0.00278115296 0
   vertex 0.00855950825 0.00278115296 0.0649999976
  endloop
 endfacet
 facet normal 0.992115 0.125333 0
  outer loop
   vertex 0.00898224022 0.000565114664 0
   vertex 0.00884058513 0.00168643182 0
   vertex 0.00898224022 0.000565114664 0.0649999976
  endloop
 endfacet
 facet normal 0.992115 0.125333 -0
  outer loop
   vertex 0.00898224022 0.000565114664 0.0649999976
   vertex 0.00884058513 0.00168643182 0
   vertex 0.00884058513 0.00168643182 0.0649999976
  endloop
 endfacet
 facet normal 1 0 0
  outer loop
   vertex 0.00898224022 -0.000565114664 0
   vertex 0.00898224022 0.000565114664 0
   vertex 0.00898224022 -0.000565114664 0.0649999976
  endloop
 endfacet
 facet normal 1 0 -0
  outer loop
   vertex 0.00898224022 -0.000565114664 0.0649999976
   vertex 0.00898224022 0.000565114664 0
   vertex 0.00898224022 0.000565114664 0.0649999976
  endloop
 endfacet
 facet normal 0.992115 -0.125333 0
  outer loop
   vertex 0.00884058513 -0.00168643182 0
   vertex 0.00898224022 -0.000565114664 0
   vertex 0.00884058513 -0.00168643182 0.0649999976
  endloop
 endfacet
 facet normal 0.992115 -0.125333 0
  outer loop
   vertex 0.00884058513 -0.00168643182 0.0649999976
   vertex 0.00898224022 -0.000565114664 0
   vertex 0.00898224022 -0.000565114664 0.0649999976
  endloop
 endfacet
 facet normal 0.968583 -0.24869 0
  outer loop
   vertex 0.00855950825 -0.00278115296 0
   vertex 0.00884058513 -0.00168643182 0
   vertex 0.00855950825 -0.00278115296 0.0649999976
  endloop
 endfacet
 facet normal 0.968583 -0.24869 0
  outer loop
   vertex 0.00855950825 -0.00278115296 0.0649999976
   vertex 0.00884058513 -0.00168643182 0
   vertex 0.00884058513 -0.00168643182 0.0649999976
  endloop
 endfacet
 facet normal 0.929777 -0.368124 0
  outer loop
   vertex 0.00814344361 -0.00383201358 0
   vertex 0.00855950825 -0.00278115296 0
   vertex 0.00814344361 -0.00383201358 0.0649999976
  endloop
 endfacet
 facet normal 0.929777 -0.368124 0
  outer loop
   vertex 0.00814344361 -0.00383201358 0.0649999976
   vertex 0.00855950825 -0.00278115296 0
   vertex 0.00855950825 -0.00278115296 0.0649999976
  endloop
 endfacet
 facet normal 0.876307 -0.481754 0
  outer loop
   vertex 0.00759895146 -0.00482244138 0
   vertex 0.00814344361 -0.00383201358 0
   vertex 0.00759895146 -0.00482244138 0.0649999976
  endloop
 endfacet
 facet normal 0.876307 -0.481754 0
  outer loop
   vertex 0.00759895146 -0.00482244138 0.0649999976
   vertex 0.00814344361 -0.00383201358 0
   vertex 0.00814344361 -0.00383201358 0.0649999976
  endloop
 endfacet
 facet normal 0.809017 -0.587786 0
  outer loop
   vertex 0.00693461904 -0.00573681574 0
   vertex 0.00759895146 -0.00482244138 0
   vertex 0.00693461904 -0.00573681574 0.0649999976
  endloop
 endfacet
 facet normal 0.809017 -0.587786 0
  outer loop
   vertex 0.00693461904 -0.00573681574 0.0649999976
   vertex 0.00759895146 -0.00482244138 0
   vertex 0.00759895146 -0.00482244138 0.0649999976
  endloop
 endfacet
 facet normal 0.728969 -0.684547 0
  outer loop
   vertex 0.00616092375 -0.00656071771 0
   vertex 0.00693461904 -0.00573681574 0
   vertex 0.00616092375 -0.00656071771 0.0649999976
  endloop
 endfacet
 facet normal 0.728969 -0.684547 0
  outer loop
   vertex 0.00616092375 -0.00656071771 0.0649999976
   vertex 0.00693461904 -0.00573681574 0
   vertex 0.00693461904 -0.00573681574 0.0649999976
  endloop
 endfacet
 facet normal 0.637424 -0.770513 0
  outer loop
   vertex 0.00529006729 -0.007281153 0
   vertex 0.00616092375 -0.00656071771 0
   vertex 0.00529006729 -0.007281153 0.0649999976
  endloop
 endfacet
 facet normal 0.637424 -0.770513 0
  outer loop
   vertex 0.00529006729 -0.007281153 0.0649999976
   vertex 0.00616092375 -0.00656071771 0
   vertex 0.00616092375 -0.00656071771 0.0649999976
  endloop
 endfacet
 facet normal 0.535827 -0.844328 0
  outer loop
   vertex 0.00433578296 -0.00788675994 0
   vertex 0.00529006729 -0.007281153 0
   vertex 0.00433578296 -0.00788675994 0.0649999976
  endloop
 endfacet
 facet normal 0.535827 -0.844328 0
  outer loop
   vertex 0.00433578296 -0.00788675994 0.0649999976
   vertex 0.00529006729 -0.007281153 0
   vertex 0.00529006729 -0.007281153 0.0649999976
  endloop
 endfacet
 facet normal 0.425779 -0.904827 0
  outer loop
   vertex 0.00331312092 -0.00836798828 0
   vertex 0.00433578296 -0.00788675994 0
   vertex 0.00331312092 -0.00836798828 0.0649999976
  endloop
 endfacet
 facet normal 0.425779 -0.904827 0
  outer loop
   vertex 0.00331312092 -0.00836798828 0.0649999976
   vertex 0.00433578296 -0.00788675994 0
   vertex 0.00433578296 -0.00788675994 0.0649999976
  endloop
 endfacet
 facet normal 0.309017 -0.951057 0
  outer loop
   vertex 0.00223820889 -0.00871724822 0
   vertex 0.00331312092 -0.00836798828 0
   vertex 0.00223820889 -0.00871724822 0.0649999976
  endloop
 endfacet
 facet normal 0.309017 -0.951057 0
  outer loop
   vertex 0.00223820889 -0.00871724822 0.0649999976
   vertex 0.00331312092 -0.00836798828 0
   vertex 0.00331312092 -0.00836798828 0.0649999976
  endloop
 endfacet
 facet normal 0.187381 -0.982287 0
  outer loop
   vertex 0.00112799916 -0.0089290319 0
   vertex 0.00223820889 -0.00871724822 0
   vertex 0.00112799916 -0.0089290319 0.0649999976
  endloop
 endfacet
 facet normal 0.187381 -0.982287 0
  outer loop
   vertex 0.00112799916 -0.0089290319 0.0649999976
   vertex 0.00223820889 -0.00871724822 0
   vertex 0.00223820889 -0.00871724822 0.0649999976
  endloop
 endfacet
 facet normal 0.0627905 -0.998027 0
  outer loop
   vertex -2.89462074e-18 -0.00899999961 0
   vertex 0.00112799916 -0.0089290319 0
   vertex -2.89462074e-18 -0.00899999961 0.0649999976
  endloop
 endfacet
 facet normal 0.0627905 -0.998027 0
  outer loop
   vertex -2.89462074e-18 -0.00899999961 0.0649999976
   vertex 0.00112799916 -0.0089290319 0
   vertex 0.00112799916 -0.0089290319 0.0649999976
  endloop
 endfacet
 facet normal -0.0627905 -0.998027 0
  outer loop
   vertex -0.00112799916 -0.0089290319 0
   vertex -2.89462074e-18 -0.00899999961 0
   vertex -0.00112799916 -0.0089290319 0.0649999976
  endloop
 endfacet
 facet normal -0.0627905 -0.998027 0
  outer loop
   vertex -0.00112799916 -0.0089290319 0.0649999976
   vertex -2.89462074e-18 -0.00899999961 0
   vertex -2.89462074e-18 -0.00899999961 0.0649999976
  endloop
 endfacet
 facet normal -0.187381 -0.982287 0
  outer loop
   vertex -0.00223820889 -0.00871724822 0
   vertex -0.00112799916 -0.0089290319 0
   vertex -0.00223820889 -0.00871724822 0.0649999976
  endloop
 endfacet
 facet normal -0.187381 -0.982287 0
  outer loop
   vertex -0.00223820889 -0.00871724822 0.0649999976
   vertex -0.00112799916 -0.0089290319 0
   vertex -0.00112799916 -0.0089290319 0.0649999976
  endloop
 endfacet
 facet normal -0.309017 -0.951057 0
  outer loop
   vertex -0.00331312092 -0.00836798828 0
   vertex -0.00223820889 -0.00871724822 0
   vertex -0.00331312092 -0.00836798828 0.0649999976
  endloop
 endfacet
 facet normal -0.309017 -0.951057 0
  outer loop
   vertex -0.00331312092 -0.00836798828 0.0649999976
   vertex -0.00223820889 -0.00871724822 0
   vertex -0.00223820889 -0.00871724822 0.0649999976
  endloop
 endfacet
 facet normal -0.425779 -0.904827 0
  outer loop
   vertex -0.00433578296 -0.00788675994 0
   vertex -0.00331312092 -0.00836798828 0
   vertex -0.00433578296 -0.00788675994 0.0649999976
  endloop
 endfacet
 facet normal -0.425779 -0.904827 0
  outer loop
   vertex -0.00433578296 -0.00788675994 0.0649999976
   vertex -0.00331312092 -0.00836798828 0
   vertex -0.00331312092 -0.00836798828 0.0649999976
  endloop
 endfacet
 facet normal -0.535827 -0.844328 0
  outer loop
   vertex -0.00529006729 -0.007281153 0
   vertex -0.00433578296 -0.00788675994 0
   vertex -0.00529006729 -0.007281153 0.0649999976
  endloop
 endfacet
 facet normal -0.535827 -0.844328 0
  outer loop
   vertex -0.00529006729 -0.007281153 0.0649999976
   vertex -0.00433578296 -0.00788675994 0
   vertex -0.00433578296 -0.00788675994 0.0649999976
  endloop
 endfacet
 facet normal -0.637424 -0.770513 0
  outer loop
   vertex -0.00616092375 -0.00656071771 0
   vertex -0.00529006729 -0.007281153 0
   vertex -0.00616092375 -0.00656071771 0.0649999976
  endloop
 endfacet
 facet normal -0.637424 -0.770513 0
  outer loop
   vertex -0.00616092375 -0.00656071771 0.0649999976
   vertex -0.00529006729 -0.007281153 0
   vertex -0.00529006729 -0.007281153 0.0649999976
  endloop
 endfacet
 facet normal -0.728969 -0.684547 0
  outer loop
   vertex -0.00693461904 -0.00573681574 0
   vertex -0.00616092375 -0.00656071771 0
   vertex -0.00693461904 -0.00573681574 0.0649999976
  endloop
 endfacet
 facet normal -0.728969 -0.684547 0
  outer loop
   vertex -0.00693461904 -0.00573681574 0.0649999976
   vertex -0.00616092375 -0.00656071771 0
   vertex -0.00616092375 -0.00656071771 0.0649999976
  endloop
 endfacet
 facet normal -0.809017 -0.587786 0
  outer loop
   vertex -0.00759895146 -0.00482244138 0
   vertex -0.00693461904 -0.00573681574 0
   vertex -0.00759895146 -0.00482244138 0.0649999976
  endloop
 endfacet
 facet normal -0.809017 -0.587786 0
  outer loop
   vertex -0.00759895146 -0.00482244138 0.0649999976
   vertex -0.00693461904 -0.00573681574 0
   vertex -0.00693461904 -0.00573681574 0.0649999976
  endloop
 endfacet
 facet normal -0.876307 -0.481754 0
  outer loop
   vertex -0.00814344361 -0.00383201358 0
   vertex -0.00759895146 -0.00482244138 0
   vertex -0.00814344361 -0.00383201358 0.0649999976
  endloop
 endfacet
 facet normal -0.876307 -0.481754 0
  outer loop
   vertex -0.00814344361 -0.00383201358 0.0649999976
   vertex -0.00759895146 -0.00482244138 0
   vertex -0.00759895146 -0.00482244138 0.0649999976
  endloop
 endfacet
 facet normal -0.929777 -0.368124 0
  outer loop
   vertex -0.00855950825 -0.00278115296 0
   vertex -0.00814344361 -0.00383201358 0
   vertex -0.00855950825 -0.00278115296 0.0649999976
  endloop
 endfacet
 facet normal -0.929777 -0.368124 0
  outer loop
   vertex -0.00855950825 -0.00278115296 0.0649999976
   vertex -0.00814344361 -0.00383201358 0
   vertex -0.00814344361 -0.00383201358 0.0649999976
  endloop
 endfacet
 facet normal -0.968583 -0.24869 0
  outer loop
   vertex -0.00884058513 -0.00168643182 0
   vertex -0.00855950825 -0.00278115296 0
   vertex -0.00884058513 -0.00168643182 0.0649999976
  endloop
 endfacet
 facet normal -0.968583 -0.24869 0
  outer loop
   vertex -0.00884058513 -0.00168643182 0.0649999976
   vertex -0.00855950825 -0.00278115296 0
   vertex -0.00855950825 -0.00278115296 0.0649999976
  endloop
 endfacet
 facet normal -0.992115 -0.125333 0
  outer loop
   vertex -0.00898224022 -0.000565114664 0
   vertex -0.00884058513 -0.00168643182 0
   vertex -0.00898224022 -0.000565114664 0.0649999976
  endloop
 endfacet
 facet normal -0.992115 -0.125333 0
  outer loop
   vertex -0.00898224022 -0.000565114664 0.0649999976
   vertex -0.00884058513 -0.00168643182 0
   vertex -0.00884058513 -0.00168643182 0.0649999976
  endloop
 endfacet
 facet normal -1 0 0
  outer loop
   vertex -0.00898224022 0.000565114664 0
   vertex -0.00898224022 -0.000565114664 0
   vertex -0.00898224022 0.000565114664 0.0649999976
  endloop
 endfacet
 facet normal -1 0 0
  outer loop
   vertex -0.00898224022 0.000565114664 0.0649999976
   vertex -0.00898224022 -0.000565114664 0
   vertex -0.00898224022 -0.000565114664 0.0649999976
  endloop
 endfacet
 facet normal -0.992115 0.125333 0
  outer loop
   vertex -0.00884058513 0.00168643182 0
   vertex -0.00898224022 0.000565114664 0
   vertex -0.00884058513 0.00168643182 0.0649999976
  endloop
 endfacet
 facet normal -0.992115 0.125333 0
  outer loop
   vertex -0.00884058513 0.00168643182 0.0649999976
   vertex -0.00898224022 0.000565114664 0
   vertex -0.00898224022 0.000565114664 0.0649999976
  endloop
 endfacet
 facet normal -0.968583 0.24869 0
  outer loop
   vertex -0.00855950825 0.00278115296 0
   vertex -0.00884058513 0.00168643182 0
   vertex -0.00855950825 0.00278115296 0.0649999976
  endloop
 endfacet
 facet normal -0.968583 0.24869 0
  outer loop
   vertex -0.00855950825 0.00278115296 0.0649999976
   vertex -0.00884058513 0.00168643182 0
   vertex -0.00884058513 0.00168643182 0.0649999976
  endloop
 endfacet
 facet normal -0.929777 0.368124 0
  outer loop
   vertex -0.00814344361 0.00383201358 0
   vertex -0.00855950825 0.00278115296 0
   vertex -0.00814344361 0.00383201358 0.0649999976
  endloop
 endfacet
 facet normal -0.929777 0.368124 0
  outer loop
   vertex -0.00814344361 0.00383201358 0.0649999976
   vertex -0.00855950825 0.00278115296 0
   vertex -0.00855950825 0.00278115296 0.0649999976
  endloop
 endfacet
 facet normal -0.876307 0.481754 0
  outer loop
   vertex -0.00759895146 0.00482244138 0
   vertex -0.00814344361 0.00383201358 0
   vertex -0.00759895146 0.00482244138 0.0649999976
  endloop
 endfacet
 facet normal -0.876307 0.481754 0
  outer loop
   vertex -0.00759895146 0.00482244138 0.0649999976
   vertex -0.00814344361 0.00383201358 0
   vertex -0.00814344361 0.00383201358 0.0649999976
  endloop
 endfacet
 facet normal -0.809017 0.587786 0
  outer loop
   vertex -0.00693461904 0.00573681574 0
   vertex -0.00759895146 0.00482244138 0
   vertex -0.00693461904 0.00573681574 0.0649999976
  endloop
 endfacet
 facet normal -0.809017 0.587786 0
  outer loop
   vertex -0.00693461904 0.00573681574 0.0649999976
   vertex -0.00759895146 0.00482244138 0
   vertex -0.00759895146 0.00482244138 0.0649999976
  endloop
 endfacet
 facet normal -0.728969 0.684547 0
  outer loop
   vertex -0.00616092375 0.00656071771 0
   vertex -0.00693461904 0.00573681574 0
   vertex -0.00616092375 0.00656071771 0.0649999976
  endloop
 endfacet
 facet normal -0.728969 0.684547 0
  outer loop
   vertex -0.00616092375 0.00656071771 0.0649999976
   vertex -0.00693461904 0.00573681574 0
   vertex -0.00693461904 0.00573681574 0.0649999976
  endloop
 endfacet
 facet normal -0.637424 0.770513 0
  outer loop
   vertex -0.00529006729 0.007281153 0
   vertex -0.00616092375 0.00656071771 0
   vertex -0.00529006729 0.007281153 0.0649999976
  endloop
 endfacet
 facet normal -0.637424 0.770513 0
  outer loop
   vertex -0.00529006729 0.007281153 0.0649999976
   vertex -0.00616092375 0.00656071771 0
   vertex -0.00616092375 0.00656071771 0.0649999976
  endloop
 endfacet
 facet normal -0.535827 0.844328 0
  outer loop
   vertex -0.00433578296 0.00788675994 0
   vertex -0.00529006729 0.007281153 0
   vertex -0.00433578296 0.00788675994 0.0649999976
  endloop
 endfacet
 facet normal -0.535827 0.844328 0
  outer loop
   vertex -0.00433578296 0.00788675994 0.0649999976
   vertex -0.00529006729 0.007281153 0
   vertex -0.00529006729 0.007281153 0.0649999976
  endloop
 endfacet
 facet normal -0.425779 0.904827 0
  outer loop
   vertex -0.00331312092 0.00836798828 0
   vertex -0.00433578296 0.00788675994 0
   vertex -0.00331312092 0.00836798828 0.0649999976
  endloop
 endfacet
 facet normal -0.425779 0.904827 0
  outer loop
   vertex -0.00331312092 0.00836798828 0.0649999976
   vertex -0.00433578296 0.00788675994 0
   vertex -0.00433578296 0.00788675994 0.0649999976
  endloop
 endfacet
 facet normal -0.309017 0.951057 0
  outer loop
   vertex -0.00223820889 0.00871724822 0
   vertex -0.00331312092 0.00836798828 0
   vertex -0.00223820889 0.00871724822 0.0649999976
  endloop
 endfacet
 facet normal -0.309017 0.951057 0
  outer loop
   vertex -0.00223820889 0.00871724822 0.0649999976
   vertex -0.00331312092 0.00836798828 0
   vertex -0.00331312092 0.00836798828 0.0649999976
  endloop
 endfacet
 facet normal -0.187381 0.982287 0
  outer loop
   vertex -0.00112799916 0.0089290319 0
   vertex -0.00223820889 0.00871724822 0
   vertex -0.00112799916 0.0089290319 0.0649999976
  endloop
 endfacet
 facet normal -0.187381 0.982287 0
  outer loop
   vertex -0.00112799916 0.0089290319 0.0649999976
   vertex -0.00223820889 0.00871724822 0
   vertex -0.00223820889 0.00871724822 0.0649999976
  endloop
 endfacet
 facet normal -0.0627905 0.998027 0
  outer loop
   vertex 0 0.00899999961 0
   vertex -0.00112799916 0.0089290319 0
   vertex 0 0.00899999961 0.0649999976
  endloop
 endfacet
 facet normal -0.0627905 0.998027 0
  outer loop
   vertex 0 0.00899999961 0.0649999976
   vertex -0.00112799916 0.0089290319 0
   vertex -0.00112799916 0.0089290319 0.0649999976
  endloop
 endfacet
 facet normal 0 0 -1
  outer loop
   vertex 0 0.00899999961 0
   vertex 0.00112799916 0.0089290319 0
   vertex -0.00112799916 0.0089290319 0
  endloop
 endfacet
 facet normal -0 -0 -1
  outer loop
   vertex -0.00112799916 0.0089290319 0
   vertex 0.00112799916 0.0089290319 0
   vertex 0.00223820889 0.00871724822 0
  endloop
 endfacet
 facet normal 0 0 -1
  outer loop
   vertex -0.00112799916 0.0089290319 0
   vertex 0.00223820889 0.00871724822 0
   vertex -0.00223820889 0.00871724822 0
  endloop
 endfacet
 facet normal -0 -0 -1
  outer loop
   vertex -0.00223820889 0.00871724822 0
   vertex 0.00223820889 0.00871724822 0
   vertex 0.00331312092 0.00836798828 0
  endloop
 endfacet
 facet normal 0 0 -1
  outer loop
   vertex -0.00223820889 0.00871724822 0
   vertex 0.00331312092 0.00836798828 0
   vertex -0.00331312092 0.00836798828 0
  endloop
 endfacet
 facet normal -0 -0 -1
  outer loop
   vertex -0.00331312092 0.00836798828 0
   vertex 0.00331312092 0.00836798828 0
   vertex 0.00433578296 0.00788675994 0
  endloop
 endfacet
 facet normal 0 0 -1
  outer loop
   vertex -0.00331312092 0.00836798828 0
   vertex 0.00433578296 0.00788675994 0
   vertex -0.00433578296 0.00788675994 0
  endloop
 endfacet
 facet normal -0 -0 -1
  outer loop
   vertex -0.00433578296 0.00788675994 0
   vertex 0.00433578296 0.00788675994 0
   vertex 0.00529006729 0.007281153 0
  endloop
 endfacet
 facet normal 0 0 -1
  outer loop
   vertex -0.00433578296 0.00788675994 0
   vertex 0.00529006729 0.007281153 0
   vertex -0.00529006729 0.007281153 0
  endloop
 endfacet
 facet normal -0 -0 -1
  outer loop
   vertex -0.00529006729 0.007281153 0
   vertex 0.00529006729 0.007281153 0
   vertex 0.00616092375 0.00656071771 0
  endloop
 endfacet
 facet normal 0 0 -1
  outer loop
   vertex -0.00529006729 0.007281153 0
   vertex 0.00616092375 0.00656071771 0
   vertex -0.00616092375 0.00656071771 0
  endloop
 endfacet
 facet normal -0 -0 -1
  outer loop
   vertex -0.00616092375 0.00656071771 0
   vertex 0.00616092375 0.00656071771 0
   vertex 0.00693461904 0.00573681574 0
  endloop
 endfacet
 facet normal 0 0 -1
  outer loop
   vertex -0.00616092375 0.00656071771 0
   vertex 0.00693461904 0.00573681574 0
   vertex -0.00693461904 0.00573681574 0
  endloop
 endfacet
 facet normal -0 -0 -1
  outer loop
   vertex -0.00693461904 0.00573681574 0
   vertex 0.00693461904 0.00573681574 0
   vertex 0.00759895146 0.00482244138 0
  endloop
 endfacet
 facet normal 0 0 -1
  outer loop
   vertex -0.00693461904 0.00573681574 0
   vertex 0.00759895146 0.00482244138 0
   vertex -0.00759895146 0.00482244138 0
  endloop
 endfacet
 facet normal -0 -0 -1
  outer loop
   vertex -0.00759895146 0.00482244138 0
   vertex 0.00759895146 0.00482244138 0
   vertex 0.00814344361 0.00383201358 0
  endloop
 endfacet
 facet normal 0 0 -1
  outer loop
   vertex -0.00759895146 0.00482244138 0
   vertex 0.00814344361 0.00383201358 0
   vertex -0.00814344361 0.00383201358 0
  endloop
 endfacet
 facet normal -0 -0 -1
  outer loop
   vertex -0.00814344361 0.00383201358 0
   vertex 0.00814344361 0.00383201358 0
   vertex 0.00855950825 0.00278115296 0
  endloop
 endfacet
 facet normal 0 0 -1
  outer loop
   vertex -0.00814344361 0.00383201358 0
   vertex 0.00855950825 0.00278115296 0
   vertex -0.00855950825 0.00278115296 0
  endloop
 endfacet
 facet normal -0 -0 -1
  outer loop
   vertex -0.00855950825 0.00278115296 0
   vertex 0.00855950825 0.00278115296 0
   vertex 0.00884058513 0.00168643182 0
  endloop
 endfacet
 facet normal 0 0 -1
  outer loop
   vertex -0.00855950825 0.00278115296 0
   vertex 0.00884058513 0.00168643182 0
   vertex -0.00884058513 0.00168643182 0
  endloop
 endfacet
 facet normal -0 -0 -1
  outer loop
   vertex -0.00884058513 0.00168643182 0
   vertex 0.00884058513 0.00168643182 0
   vertex 0.00898224022 0.000565114664 0
  endloop
 endfacet
 facet normal 0 0 -1
  outer loop
   vertex -0.00884058513 0.00168643182 0
   vertex 0.00898224022 0.000565114664 0
   vertex -0.00898224022 0.000565114664 0
  endloop
 endfacet
 facet normal -0 -0 -1
  outer loop
   vertex -0.00898224022 0.000565114664 0
   vertex 0.00898224022 0.000565114664 0
   vertex 0.00898224022 -0.000565114664 0
  endloop
 endfacet
 facet normal 0 0 -1
  outer loop
   vertex -0.00898224022 0.000565114664 0
   vertex 0.00898224022 -0.000565114664 0
   vertex -0.00898224022 -0.000565114664 0
  endloop
 endfacet
 facet normal -0 0 -1
  outer loop
   vertex -0.00898224022 -0.000565114664 0
   vertex 0.00898224022 -0.000565114664 0
   vertex 0.00884058513 -0.00168643182 0
  endloop
 endfacet
 facet normal 0 0 -1
  outer loop
   vertex -0.00898224022 -0.000565114664 0
   vertex 0.00884058513 -0.00168643182 0
   vertex -0.00884058513 -0.00168643182 0
  endloop
 endfacet
 facet normal -0 0 -1
  outer loop
   vertex -0.00884058513 -0.00168643182 0
   vertex 0.00884058513 -0.00168643182 0
   vertex 0.00855950825 -0.00278115296 0
  endloop
 endfacet
 facet normal 0 0 -1
  outer loop
   vertex -0.00884058513 -0.00168643182 0
   vertex 0.00855950825 -0.00278115296 0
   vertex -0.00855950825 -0.00278115296 0
  endloop
 endfacet
 facet normal -0 0 -1
  outer loop
   vertex -0.00855950825 -0.00278115296 0
   vertex 0.00855950825 -0.00278115296 0
   vertex 0.00814344361 -0.00383201358 0
  endloop
 endfacet
 facet normal 0 0 -1
  outer loop
   vertex -0.00855950825 -0.00278115296 0
   vertex 0.00814344361 -0.00383201358 0
   vertex -0.00814344361 -0.00383201358 0
  endloop
 endfacet
 facet normal -0 0 -1
  outer loop
   vertex -0.00814344361 -0.00383201358 0
   vertex 0.00814344361 -0.00383201358 0
   vertex 0.00759895146 -0.00482244138 0
  endloop
 endfacet
 facet normal 0 0 -1
  outer loop
   vertex -0.00814344361 -0.00383201358 0
   vertex 0.00759895146 -0.00482244138 0
   vertex -0.00759895146 -0.00482244138 0
  endloop
 endfacet
 facet normal -0 0 -1
  outer loop
   vertex -0.00759895146 -0.00482244138 0
   vertex 0.00759895146 -0.00482244138 0
   vertex 0.00693461904 -0.00573681574 0
  endloop
 endfacet
 facet normal 0 0 -1
  outer loop
   vertex -0.00759895146 -0.00482244138 0
   vertex 0.00693461904 -0.00573681574 0
   vertex -0.00693461904 -0.00573681574 0
  endloop
 endfacet
 facet normal -0 0 -1
  outer loop
   vertex -0.00693461904 -0.00573681574 0
   vertex 0.00693461904 -0.00573681574 0
   vertex 0.00616092375 -0.00656071771 0
  endloop
 endfacet
 facet normal 0 0 -1
  outer loop
   vertex -0.00693461904 -0.00573681574 0
   vertex 0.00616092375 -0.00656071771 0
   vertex -0.00616092375 -0.00656071771 0
  endloop
 endfacet
 facet normal -0 0 -1
  outer loop
   vertex -0.00616092375 -0.00656071771 0
   vertex 0.00616092375 -0.00656071771 0
   vertex 0.00529006729 -0.007281153 0
  endloop
 endfacet
 facet normal 0 0 -1
  outer loop
   vertex -0.00616092375 -0.00656071771 0
   vertex 0.00529006729 -0.007281153 0
   vertex -0.00529006729 -0.007281153 0
  endloop
 endfacet
 facet normal -0 0 -1
  outer loop
   vertex -0.00529006729 -0.007281153 0
   vertex 0.00529006729 -0.007281153 0
   vertex 0.00433578296 -0.00788675994 0
  endloop
 endfacet
 facet normal 0 0 -1
  outer loop
   vertex -0.00529006729 -0.007281153 0
   vertex 0.00433578296 -0.00788675994 0
   vertex -0.00433578296 -0.00788675994 0
  endloop
 endfacet
 facet normal -0 0 -1
  outer loop
   vertex -0.00433578296 -0.00788675994 0
   vertex 0.00433578296 -0.00788675994 0
   vertex 0.00331312092 -0.00836798828 0
  endloop
 endfacet
 facet normal 0 0 -1
  outer loop
   vertex -0.00433578296 -0.00788675994 0
   vertex 0.00331312092 -0.00836798828 0
   vertex -0.00331312092 -0.00836798828 0
  endloop
 endfacet
 facet normal -0 0 -1
  outer loop
   vertex -0.00331312092 -0.00836798828 0
   vertex 0.00331312092 -0.00836798828 0
   vertex 0.00223820889 -0.00871724822 0
  endloop
 endfacet
 facet normal 0 0 -1
  outer loop
   vertex -0.00331312092 -0.00836798828 0
   vertex 0.00223820889 -0.00871724822 0
   vertex -0.00223820889 -0.00871724822 0
  endloop
 endfacet
 facet normal -0 0 -1
  outer loop
   vertex -0.00223820889 -0.00871724822 0
   vertex 0.00223820889 -0.00871724822 0
   vertex 0.00112799916 -0.0089290319 0
  endloop
 endfacet
 facet normal 0 0 -1
  outer loop
   vertex -0.00223820889 -0.00871724822 0
   vertex 0.00112799916 -0.0089290319 0
   vertex -0.00112799916 -0.0089290319 0
  endloop
 endfacet
 facet normal -0 0 -1
  outer loop
   vertex -0.00112799916 -0.0089290319 0
   vertex 0.00112799916 -0.0089290319 0
   vertex -2.89462074e-18 -0.00899999961 0
  endloop
 endfacet
 facet normal 0 0 1
  outer loop
   vertex 0 0.00899999961 0.0649999976
   vertex -0.00112799916 0.0089290319 0.0649999976
   vertex 0.00112799916 0.0089290319 0.0649999976
  endloop
 endfacet
 facet normal -0 0 1
  outer loop
   vertex 0.00112799916 0.0089290319 0.0649999976
   vertex -0.00112799916 0.0089290319 0.0649999976
   vertex -0.00223820889 0.00871724822 0.0649999976
  endloop
 endfacet
 facet normal 0 0 1
  outer loop
   vertex 0.00112799916 0.0089290319 0.0649999976
   vertex -0.00223820889 0.00871724822 0.0649999976
   vertex 0.00223820889 0.00871724822 0.0649999976
  endloop
 endfacet
 facet normal -0 0 1
  outer loop
   vertex 0.00223820889 0.00871724822 0.0649999976
   vertex -0.00223820889 0.00871724822 0.0649999976
   vertex -0.00331312092 0.00836798828 0.0649999976
  endloop
 endfacet
 facet normal 0 0 1
  outer loop
   vertex 0.00223820889 0.00871724822 0.0649999976
   vertex -0.00331312092 0.00836798828 0.0649999976
   vertex 0.00331312092 0.00836798828 0.0649999976
  endloop
 endfacet
 facet normal -0 0 1
  outer loop
   vertex 0.00331312092 0.00836798828 0.0649999976
   vertex -0.00331312092 0.00836798828 0.0649999976
   vertex -0.00433578296 0.00788675994 0.0649999976
  endloop
 endfacet
 facet normal 0 0 1
  outer loop
   vertex 0.00331312092 0.00836798828 0.0649999976
   vertex -0.00433578296 0.00788675994 0.0649999976
   vertex 0.00433578296 0.00788675994 0.0649999976
  endloop
 endfacet
 facet normal -0 0 1
  outer loop
   vertex 0.00433578296 0.00788675994 0.0649999976
   vertex -0.00433578296 0.00788675994 0.0649999976
   vertex -0.00529006729 0.007281153 0.0649999976
  endloop
 endfacet
 facet normal 0 0 1
  outer loop
   vertex 0.00433578296 0.00788675994 0.0649999976
   vertex -0.00529006729 0.007281153 0.0649999976
   vertex 0.00529006729 0.007281153 0.0649999976
  endloop
 endfacet
 facet normal -0 0 1
  outer loop
   vertex 0.00529006729 0.007281153 0.0649999976
   vertex -0.00529006729 0.007281153 0.0649999976
   vertex -0.00616092375 0.00656071771 0.0649999976
  endloop
 endfacet
 facet normal 0 0 1
  outer loop
   vertex 0.00529006729 0.007281153 0.0649999976
   vertex -0.00616092375 0.00656071771 0.0649999976
   vertex 0.00616092375 0.00656071771 0.0649999976
  endloop
 endfacet
 facet normal -0 0 1
  outer loop
   vertex 0.00616092375 0.00656071771 0.0649999976
   vertex -0.00616092375 0.00656071771 0.0649999976
   vertex -0.00693461904 0.00573681574 0.0649999976
  endloop
 endfacet
 facet normal 0 0 1
  outer loop
   vertex 0.00616092375 0.00656071771 0.0649999976
   vertex -0.00693461904 0.00573681574 0.0649999976
   vertex 0.00693461904 0.00573681574 0.0649999976
  endloop
 endfacet
 facet normal -0 0 1
  outer loop
   vertex 0.00693461904 0.00573681574 0.0649999976
   vertex -0.00693461904 0.00573681574 0.0649999976
   vertex -0.00759895146 0.00482244138 0.0649999976
  endloop
 endfacet
 facet normal 0 0 1
  outer loop
   vertex 0.00693461904 0.00573681574 0.0649999976
   vertex -0.00759895146 0.00482244138 0.0649999976
   vertex 0.00759895146 0.00482244138 0.0649999976
  endloop
 endfacet
 facet normal -0 0 1
  outer loop
   vertex 0.00759895146 0.00482244138 0.0649999976
   vertex -0.00759895146 0.00482244138 0.0649999976
   vertex -0.00814344361 0.00383201358 0.0649999976
  endloop
 endfacet
 facet normal 0 0 1
  outer loop
   vertex 0.00759895146 0.00482244138 0.0649999976
   vertex -0.00814344361 0.00383201358 0.0649999976
   vertex 0.00814344361 0.00383201358 0.0649999976
  endloop
 endfacet
 facet normal -0 0 1
  outer loop
   vertex 0.00814344361 0.00383201358 0.0649999976
   vertex -0.00814344361 0.00383201358 0.0649999976
   vertex -0.00855950825 0.00278115296 0.0649999976
  endloop
 endfacet
 facet normal 0 0 1
  outer loop
   vertex 0.00814344361 0.00383201358 0.0649999976
   vertex -0.00855950825 0.00278115296 0.0649999976
   vertex 0.00855950825 0.00278115296 0.0649999976
  endloop
 endfacet
 facet normal -0 0 1
  outer loop
   vertex 0.00855950825 0.00278115296 0.0649999976
   vertex -0.00855950825 0.00278115296 0.0649999976
   vertex -0.00884058513 0.00168643182 0.0649999976
  endloop
 endfacet
 facet normal 0 0 1
  outer loop
   vertex 0.00855950825 0.00278115296 0.0649999976
   vertex -0.00884058513 0.00168643182 0.0649999976
   vertex 0.00884058513 0.00168643182 0.0649999976
  endloop
 endfacet
 facet normal -0 0 1
  outer loop
   vertex 0.00884058513 0.00168643182 0.0649999976
   vertex -0.00884058513 0.00168643182 0.0649999976
   vertex -0.00898224022 0.000565114664 0.0649999976
  endloop
 endfacet
 facet normal 0 0 1
  outer loop
   vertex 0.00884058513 0.00168643182 0.0649999976
   vertex -0.00898224022 0.000565114664 0.0649999976
   vertex 0.00898224022 0.000565114664 0.0649999976
  endloop
 endfacet
 facet normal -0 0 1
  outer loop
   vertex 0.00898224022 0.000565114664 0.0649999976
   vertex -0.00898224022 0.000565114664 0.0649999976
   vertex -0.00898224022 -0.000565114664 0.0649999976
  endloop
 endfacet
 facet normal 0 0 1
  outer loop
   vertex 0.00898224022 0.000565114664 0.0649999976
   vertex -0.00898224022 -0.000565114664 0.0649999976
   vertex 0.00898224022 -0.000565114664 0.0649999976
  endloop
 endfacet
 facet normal -0 0 1
  outer loop
   vertex 0.00898224022 -0.000565114664 0.0649999976
   vertex -0.00898224022 -0.000565114664 0.0649999976
   vertex -0.00884058513 -0.00168643182 0.0649999976
  endloop
 endfacet
 facet normal 0 0 1
  outer loop
   vertex 0.00898224022 -0.000565114664 0.0649999976
   vertex -0.00884058513 -0.00168643182 0.0649999976
   vertex 0.00884058513 -0.00168643182 0.0649999976
  endloop
 endfacet
 facet normal -0 0 1
  outer loop
   vertex 0.00884058513 -0.00168643182 0.0649999976
   vertex -0.00884058513 -0.00168643182 0.0649999976
   vertex -0.00855950825 -0.00278115296 0.0649999976
  endloop
 endfacet
 facet normal 0 0 1
  outer loop
   vertex 0.00884058513 -0.00168643182 0.0649999976
   vertex -0.00855950825 -0.00278115296 0.0649999976
   vertex 0.00855950825 -0.00278115296 0.0649999976
  endloop
 endfacet
 facet normal -0 0 1
  outer loop
   vertex 0.00855950825 -0.00278115296 0.0649999976
   vertex -0.00855950825 -0.00278115296 0.0649999976
   vertex -0.00814344361 -0.00383201358 0.0649999976
  endloop
 endfacet
 facet normal 0 0 1
  outer loop
   vertex 0.00855950825 -0.00278115296 0.0649999976
   vertex -0.00814344361 -0.00383201358 0.0649999976
   vertex 0.00814344361 -0.00383201358 0.0649999976
  endloop
 endfacet
 facet normal -0 0 1
  outer loop
   vertex 0.00814344361 -0.00383201358 0.0649999976
   vertex -0.00814344361 -0.00383201358 0.0649999976
   vertex -0.00759895146 -0.00482244138 0.0649999976
  endloop
 endfacet
 facet normal 0 0 1
  outer loop
   vertex 0.00814344361 -0.00383201358 0.0649999976
   vertex -0.00759895146 -0.00482244138 0.0649999976
   vertex 0.00759895146 -0.00482244138 0.0649999976
  endloop
 endfacet
 facet normal -0 0 1
  outer loop
   vertex 0.00759895146 -0.00482244138 0.0649999976
   vertex -0.00759895146 -0.00482244138 0.0649999976
   vertex -0.00693461904 -0.00573681574 0.0649999976
  endloop
 endfacet
 facet normal 0 0 1
  outer loop
   vertex 0.00759895146 -0.00482244138 0.0649999976
   vertex -0.00693461904 -0.00573681574 0.0649999976
   vertex 0.00693461904 -0.00573681574 0.0649999976
  endloop
 endfacet
 facet normal -0 0 1
  outer loop
   vertex 0.00693461904 -0.00573681574 0.0649999976
   vertex -0.00693461904 -0.00573681574 0.0649999976
   vertex -0.00616092375 -0.00656071771 0.0649999976
  endloop
 endfacet
 facet normal 0 0 1
  outer loop
   vertex 0.00693461904 -0.00573681574 0.0649999976
   vertex -0.00616092375 -0.00656071771 0.0649999976
   vertex 0.00616092375 -0.00656071771 0.0649999976
  endloop
 endfacet
 facet normal -0 0 1
  outer loop
   vertex 0.00616092375 -0.00656071771 0.0649999976
   vertex -0.00616092375 -0.00656071771 0.0649999976
   vertex -0.00529006729 -0.007281153 0.0649999976
  endloop
 endfacet
 facet normal 0 0 1
  outer loop
   vertex 0.00616092375 -0.00656071771 0.0649999976
   vertex -0.00529006729 -0.007281153 0.0649999976
   vertex 0.00529006729 -0.007281153 0.0649999976
  endloop
 endfacet
 facet normal -0 0 1
  outer loop
   vertex 0.00529006729 -0.007281153 0.0649999976
   vertex -0.00529006729 -0.007281153 0.0649999976
   vertex -0.00433578296 -0.00788675994 0.0649999976
  endloop
 endfacet
 facet normal 0 0 1
  outer loop
   vertex 0.00529006729 -0.007281153 0.0649999976
   vertex -0.00433578296 -0.00788675994 0.0649999976
   vertex 0.00433578296 -0.00788675994 0.0649999976
  endloop
 endfacet
 facet normal -0 0 1
  outer loop
   vertex 0.00433578296 -0.00788675994 0.0649999976
   vertex -0.00433578296 -0.00788675994 0.0649999976
   vertex -0.00331312092 -0.00836798828 0.0649999976
  endloop
 endfacet
 facet normal 0 0 1
  outer loop
   vertex 0.00433578296 -0.00788675994 0.0649999976
   vertex -0.00331312092 -0.00836798828 0.0649999976
   vertex 0.00331312092 -0.00836798828 0.0649999976
  endloop
 endfacet
 facet normal -0 0 1
  outer loop
   vertex 0.00331312092 -0.00836798828 0.0649999976
   vertex -0.00331312092 -0.00836798828 0.0649999976
   vertex -0.00223820889 -0.00871724822 0.0649999976
  endloop
 endfacet
 facet normal 0 0 1
  outer loop
   vertex 0.00331312092 -0.00836798828 0.0649999976
   vertex -0.00223820889 -0.00871724822 0.0649999976
   vertex 0.00223820889 -0.00871724822 0.0649999976
  endloop
 endfacet
 facet normal -0 0 1
  outer loop
   vertex 0.00223820889 -0.00871724822 0.0649999976
   vertex -0.00223820889 -0.00871724822 0.0649999976
   vertex -0.00112799916 -0.0089290319 0.0649999976
  endloop
 endfacet
 facet normal 0 0 1
  outer loop
   vertex 0.00223820889 -0.00871724822 0.0649999976
   vertex -0.00112799916 -0.0089290319 0.0649999976
   vertex 0.00112799916 -0.0089290319 0.0649999976
  endloop
 endfacet
 facet normal -0 0 1
  outer loop
   vertex 0.00112799916 -0.0089290319 0.0649999976
   vertex -0.00112799916 -0.0089290319 0.0649999976
   vertex -2.89462074e-18 -0.00899999961 0.0649999976
  endloop
 endfacet
endsolid
