solid battery3
 facet normal 0.0627905 0.998027 0
  outer loop
   vertex 0.0411279984 0.0089290319 0
   vertex 0.0399999991 0.00899999961 0
   vertex 0.0411279984 0.0089290319 0.0649999976
  endloop
 endfacet
 facet normal 0.0627905 0.998027 -0
  outer loop
   vertex 0.0411279984 0.0089290319 0.0649999976
   vertex 0.0399999991 0.00899999961 0
   vertex 0.0399999991 0.00899999961 0.0649999976
  endloop
 endfacet
 facet normal 0.187381 0.982287 0
  outer loop
   vertex 0.0422382094 0.00871724822 0
   vertex 0.0411279984 0.0089290319 0
   vertex 0.0422382094 0.00871724822 0.0649999976
  endloop
 endfacet
 facet normal 0.187381 0.982287 -0
  outer loop
   vertex 0.0422382094 0.00871724822 0.0649999976
   vertex 0.0411279984 0.0089290319 0
   vertex 0.0411279984 0.0089290319 0.0649999976
  endloop
 endfacet
 facet normal 0.309017 0.951056 0
  outer loop
   vertex 0.0433131196 0.00836798828 0
   vertex 0.0422382094 0.00871724822 0
   vertex 0.0433131196 0.00836798828 0.0649999976
  endloop
 endfacet
 facet normal 0.309017 0.951056 -0
  outer loop
   vertex 0.0433131196 0.00836798828 0.0649999976
   vertex 0.0422382094 0.00871724822 0
   vertex 0.0422382094 0.00871724822 0.0649999976
  endloop
 endfacet
 facet normal 0.425779 0.904827 0
  outer loop
   vertex 0.0443357825 0.00788675994 0
   vertex 0.0433131196 0.00836798828 0
   vertex 0.0443357825 0.00788675994 0.0649999976
  endloop
 endfacet
 facet normal 0.425779 0.904827 -0
  outer loop
   vertex 0.0443357825 0.00788675994 0.0649999976
   vertex 0.0433131196 0.00836798828 0
   vertex 0.0433131196 0.00836798828 0.0649999976
  endloop
 endfacet
 facet normal 0.535826 0.844328 0
  outer loop
   vertex 0.0452900678 0.007281153 0
   vertex 0.0443357825 0.00788675994 0
   vertex 0.0452900678 0.007281153 0.0649999976
  endloop
 endfacet
 facet normal 0.535826 0.844328 -0
  outer loop
   vertex 0.0452900678 0.007281153 0.0649999976
   vertex 0.0443357825 0.00788675994 0
   vertex 0.0443357825 0.00788675994 0.0649999976
  endloop
 endfacet
 facet normal 0.637425 0.770512 0
  outer loop
   vertex 0.0461609215 0.00656071771 0
   vertex 0.0452900678 0.007281153 0
   vertex 0.0461609215 0.00656071771 0.0649999976
  endloop
 endfacet
 facet normal 0.637425 0.770512 -0
  outer loop
   vertex 0.0461609215 0.00656071771 0.0649999976
   vertex 0.0452900678 0.007281153 0
   vertex 0.0452900678 0.007281153 0.0649999976
  endloop
 endfacet
 facet normal 0.728967 0.684548 0
  outer loop
   vertex 0.0469346195 0.00573681574 0
   vertex 0.0461609215 0.00656071771 0
   vertex 0.0469346195 0.00573681574 0.0649999976
  endloop
 endfacet
 facet normal 0.728967 0.684548 -0
  outer loop
   vertex 0.0469346195 0.00573681574 0.0649999976
   vertex 0.0461609215 0.00656071771 0
   vertex 0.0461609215 0.00656071771 0.0649999976
  endloop
 endfacet
 facet normal 0.809017 0.587785 0
  outer loop
   vertex 0.0475989506 0.00482244138 0
   vertex 0.0469346195 0.00573681574 0
   vertex 0.0475989506 0.00482244138 0.0649999976
  endloop
 endfacet
 facet normal 0.809017 0.587785 -0
  outer loop
   vertex 0.0475989506 0.00482244138 0.0649999976
   vertex 0.0469346195 0.00573681574 0
   vertex 0.0469346195 0.00573681574 0.0649999976
  endloop
 endfacet
 facet normal 0.876307 0.481754 0
  outer loop
   vertex 0.0481434427 0.00383201358 0
   vertex 0.0475989506 0.00482244138 0
   vertex 0.0481434427 0.00383201358 0.0649999976
  endloop
 endfacet
 facet normal 0.876307 0.481754 -0
  outer loop
   vertex 0.0481434427 0.00383201358 0.0649999976
   vertex 0.0475989506 0.00482244138 0
   vertex 0.0475989506 0.00482244138 0.0649999976
  endloop
 endfacet
 facet normal 0.929776 0.368126 0
  outer loop
   vertex 0.0485595092 0.00278115296 0
   vertex 0.0481434427 0.00383201358 0
   vertex 0.0485595092 0.00278115296 0.0649999976
  endloop
 endfacet
 facet normal 0.929776 0.368126 -0
  outer loop
   vertex 0.0485595092 0.00278115296 0.0649999976
   vertex 0.0481434427 0.00383201358 0
   vertex 0.0481434427 0.00383201358 0.0649999976
  endloop
 endfacet
 facet normal 0.968583 0.24869 0
  outer loop
   vertex 0.0488405861 0.00168643182 0
   vertex 0.0485595092 0.00278115296 0
   vertex 0.0488405861 0.00168643182 0.0649999976
  endloop
 endfacet
 facet normal 0.968583 0.24869 -0
  outer loop
   vertex 0.0488405861 0.00168643182 0.0649999976
   vertex 0.0485595092 0.00278115296 0
   vertex 0.0485595092 0.00278115296 0.0649999976
  endloop
 endfacet
 facet normal 0.992115 0.125332 0
  outer loop
   vertex 0.0489822403 0.000565114664 0
   vertex 0.0488405861 0.00168643182 0
   vertex 0.0489822403 0.000565114664 0.0649999976
  endloop
 endfacet
 facet normal 0.992115 0.125332 -0
  outer loop
   vertex 0.0489822403 0.000565114664 0.0649999976
   vertex 0.0488405861 0.00168643182 0
   vertex 0.0488405861 0.00168643182 0.0649999976
  endloop
 endfacet
 facet normal 1 0 0
  outer loop
   vertex 0.0489822403 -0.000565114664 0
   vertex 0.0489822403 0.000565114664 0
   vertex 0.0489822403 -0.000565114664 0.0649999976
  endloop
 endfacet
 facet normal 1 0 -0
  outer loop
   vertex 0.0489822403 -0.000565114664 0.0649999976
   vertex 0.0489822403 0.000565114664 0
   vertex 0.0489822403 0.000565114664 0.0649999976
  endloop
 endfacet
 facet normal 0.992115 -0.125332 0
  outer loop
   vertex 0.0488405861 -0.00168643182 0
   vertex 0.0489822403 -0.000565114664 0
   vertex 0.0488405861 -0.00168643182 0.0649999976
  endloop
 endfacet
 facet normal 0.992115 -0.125332 0
  outer loop
   vertex 0.0488405861 -0.00168643182 0.0649999976
   vertex 0.0489822403 -0.000565114664 0
   vertex 0.0489822403 -0.000565114664 0.0649999976
  endloop
 endfacet
 facet normal 0.968583 -0.24869 0
  outer loop
   vertex 0.0485595092 -0.00278115296 0
   vertex 0.0488405861 -0.00168643182 0
   vertex 0.0485595092 -0.00278115296 0.0649999976
  endloop
 endfacet
 facet normal 0.968583 -0.24869 0
  outer loop
   vertex 0.0485595092 -0.00278115296 0.0649999976
   vertex 0.0488405861 -0.00168643182 0
   vertex 0.0488405861 -0.00168643182 0.0649999976
  endloop
 endfacet
 facet normal 0.929776 -0.368126 0
  outer loop
   vertex 0.0481434427 -0.00383201358 0
   vertex 0.0485595092 -0.00278115296 0
   vertex 0.0481434427 -0.00383201358 0.0649999976
  endloop
 endfacet
 facet normal 0.929776 -0.368126 0
  outer loop
   vertex 0.0481434427 -0.00383201358 0.0649999976
   vertex 0.0485595092 -0.00278115296 0
   vertex 0.0485595092 -0.00278115296 0.0649999976
  endloop
 endfacet
 facet normal 0.876307 -0.481754 0
  outer loop
   vertex 0.0475989506 -0.00482244138 0
   vertex 0.0481434427 -0.00383201358 0
   vertex 0.0475989506 -0.00482244138 0.0649999976
  endloop
 endfacet
 facet normal 0.876307 -0.481754 0
  outer loop
   vertex 0.0475989506 -0.00482244138 0.0649999976
   vertex 0.0481434427 -0.00383201358 0
   vertex 0.0481434427 -0.00383201358 0.0649999976
  endloop
 endfacet
 facet normal 0.809017 -0.587785 0
  outer loop
   vertex 0.0469346195 -0.00573681574 0
   vertex 0.0475989506 -0.00482244138 0
   vertex 0.0469346195 -0.00573681574 0.0649999976
  endloop
 endfacet
 facet normal 0.809017 -0.587785 0
  outer loop
   vertex 0.0469346195 -0.00573681574 0.0649999976
   vertex 0.0475989506 -0.00482244138 0
   vertex 0.0475989506 -0.00482244138 0.0649999976
  endloop
 endfacet
 facet normal 0.728967 -0.684548 0
  outer loop
   vertex 0.0461609215 -0.00656071771 0
   vertex 0.0469346195 -0.00573681574 0
   vertex 0.0461609215 -0.00656071771 0.0649999976
  endloop
 endfacet
 facet normal 0.728967 -0.684548 0
  outer loop
   vertex 0.0461609215 -0.00656071771 0.0649999976
   vertex 0.0469346195 -0.00573681574 0
   vertex 0.0469346195 -0.00573681574 0.0649999976
  endloop
 endfacet
 facet normal 0.637425 -0.770512 0
  outer loop
   vertex 0.0452900678 -0.007281153 0
   vertex 0.0461609215 -0.00656071771 0
   vertex 0.0452900678 -0.007281153 0.0649999976
  endloop
 endfacet
 facet normal 0.637425 -0.770512 0
  outer loop
   vertex 0.0452900678 -0.007281153 0.0649999976
   vertex 0.0461609215 -0.00656071771 0
   vertex 0.0461609215 -0.00656071771 0.0649999976
  endloop
 endfacet
 facet normal 0.535826 -0.844328 0
  outer loop
   vertex 0.0443357825 -0.00788675994 0
   vertex 0.0452900678 -0.007281153 0
   vertex 0.0443357825 -0.00788675994 0.0649999976
  endloop
 endfacet
 facet normal 0.535826 -0.844328 0
  outer loop
   vertex 0.0443357825 -0.00788675994 0.0649999976
   vertex 0.0452900678 -0.007281153 0
   vertex 0.0452900678 -0.007281153 0.0649999976
  endloop
 endfacet
 facet normal 0.425779 -0.904827 0
  outer loop
   vertex 0.0433131196 -0.00836798828 0
   vertex 0.0443357825 -0.00788675994 0
   vertex 0.0433131196 -0.00836798828 0.0649999976
  endloop
 endfacet
 facet normal 0.425779 -0.904827 0
  outer loop
   vertex 0.0433131196 -0.00836798828 0.0649999976
   vertex 0.0443357825 -0.00788675994 0
   vertex 0.0443357825 -0.00788675994 0.0649999976
  endloop
 endfacet
 facet normal 0.309017 -0.951056 0
  outer loop
   vertex 0.0422382094 -0.00871724822 0
   vertex 0.0433131196 -0.00836798828 0
   vertex 0.0422382094 -0.00871724822 0.0649999976
  endloop
 endfacet
 facet normal 0.309017 -0.951056 0
  outer loop
   vertex 0.0422382094 -0.00871724822 0.0649999976
   vertex 0.0433131196 -0.00836798828 0
   vertex 0.0433131196 -0.00836798828 0.0649999976
  endloop
 endfacet
 facet normal 0.187381 -0.982287 0
  outer loop
   vertex 0.0411279984 -0.0089290319 0
   vertex 0.0422382094 -0.00871724822 0
   vertex 0.0411279984 -0.0089290319 0.0649999976
  endloop
 endfacet
 facet normal 0.187381 -0.982287 0
  outer loop
   vertex 0.0411279984 -0.0089290319 0.0649999976
   vertex 0.0422382094 -0.00871724822 0
   vertex 0.0422382094 -0.00871724822 0.0649999976
  endloop
 endfacet
 facet normal 0.0627905 -0.998027 0
  outer loop
   vertex 0.0399999991 -0.00899999961 0
   vertex 0.0411279984 -0.0089290319 0
   vertex 0.0399999991 -0.00899999961 0.0649999976
  endloop
 endfacet
 facet normal 0.0627905 -0.998027 0
  outer loop
   vertex 0.0399999991 -0.00899999961 0.0649999976
   vertex 0.0411279984 -0.0089290319 0
   vertex 0.0411279984 -0.0089290319 0.0649999976
  endloop
 endfacet
 facet normal -0.0627905 -0.998027 0
  outer loop
   vertex 0.0388719998 -0.0089290319 0
   vertex 0.0399999991 -0.00899999961 0
   vertex 0.0388719998 -0.0089290319 0.0649999976
  endloop
 endfacet
 facet normal -0.0627905 -0.998027 0
  outer loop
   vertex 0.0388719998 -0.0089290319 0.0649999976
   vertex 0.0399999991 -0.00899999961 0
   vertex 0.0399999991 -0.00899999961 0.0649999976
  endloop
 endfacet
 facet normal -0.187381 -0.982287 0
  outer loop
   vertex 0.0377617888 -0.00871724822 0
   vertex 0.0388719998 -0.0089290319 0
   vertex 0.0377617888 -0.00871724822 0.0649999976
  endloop
 endfacet
 facet normal -0.187381 -0.982287 0
  outer loop
   vertex 0.0377617888 -0.00871724822 0.0649999976
   vertex 0.0388719998 -0.0089290319 0
   vertex 0.0388719998 -0.0089290319 0.0649999976
  endloop
 endfacet
 facet normal -0.309017 -0.951056 0
  outer loop
   vertex 0.0366868787 -0.00836798828 0
   vertex 0.0377617888 -0.00871724822 0
   vertex 0.0366868787 -0.00836798828 0.0649999976
  endloop
 endfacet
 facet normal -0.309017 -0.951056 0
  outer loop
   vertex 0.0366868787 -0.00836798828 0.0649999976
   vertex 0.0377617888 -0.00871724822 0
   vertex 0.0377617888 -0.00871724822 0.0649999976
  endloop
 endfacet
 facet normal -0.425779 -0.904827 0
  outer loop
   vertex 0.0356642157 -0.00788675994 0
   vertex 0.0366868787 -0.00836798828 0
   vertex 0.0356642157 -0.00788675994 0.0649999976
  endloop
 endfacet
 facet normal -0.425779 -0.904827 0
  outer loop
   vertex 0.0356642157 -0.00788675994 0.0649999976
   vertex 0.0366868787 -0.00836798828 0
   vertex 0.0366868787 -0.00836798828 0.0649999976
  endloop
 endfacet
 facet normal -0.535826 -0.844328 0
  outer loop
   vertex 0.0347099304 -0.007281153 0
   vertex 0.0356642157 -0.00788675994 0
   vertex 0.0347099304 -0.007281153 0.0649999976
  endloop
 endfacet
 facet normal -0.535826 -0.844328 0
  outer loop
   vertex 0.0347099304 -0.007281153 0.0649999976
   vertex 0.0356642157 -0.00788675994 0
   vertex 0.0356642157 -0.00788675994 0.0649999976
  endloop
 endfacet
 facet normal -0.637425 -0.770512 0
  outer loop
   vertex 0.0338390768 -0.00656071771 0
   vertex 0.0347099304 -0.007281153 0
   vertex 0.0338390768 -0.00656071771 0.0649999976
  endloop
 endfacet
 facet normal -0.637425 -0.770512 0
  outer loop
   vertex 0.0338390768 -0.00656071771 0.0649999976
   vertex 0.0347099304 -0.007281153 0
   vertex 0.0347099304 -0.007281153 0.0649999976
  endloop
 endfacet
 facet normal -0.728967 -0.684548 0
  outer loop
   vertex 0.0330653787 -0.00573681574 0
   vertex 0.0338390768 -0.00656071771 0
   vertex 0.0330653787 -0.00573681574 0.0649999976
  endloop
 endfacet
 facet normal -0.728967 -0.684548 0
  outer loop
   vertex 0.0330653787 -0.00573681574 0.0649999976
   vertex 0.0338390768 -0.00656071771 0
   vertex 0.0338390768 -0.00656071771 0.0649999976
  endloop
 endfacet
 facet normal -0.809017 -0.587785 0
  outer loop
   vertex 0.0324010476 -0.00482244138 0
   vertex 0.0330653787 -0.00573681574 0
   vertex 0.0324010476 -0.00482244138 0.0649999976
  endloop
 endfacet
 facet normal -0.809017 -0.587785 0
  outer loop
   vertex 0.0324010476 -0.00482244138 0.0649999976
   vertex 0.0330653787 -0.00573681574 0
   vertex 0.0330653787 -0.00573681574 0.0649999976
  endloop
 endfacet
 facet normal -0.876307 -0.481754 0
  outer loop
   vertex 0.0318565555 -0.00383201358 0
   vertex 0.0324010476 -0.00482244138 0
   vertex 0.0318565555 -0.00383201358 0.0649999976
  endloop
 endfacet
 facet normal -0.876307 -0.481754 0
  outer loop
   vertex 0.0318565555 -0.00383201358 0.0649999976
   vertex 0.0324010476 -0.00482244138 0
   vertex 0.0324010476 -0.00482244138 0.0649999976
  endloop
 endfacet
 facet normal -0.929776 -0.368126 0
  outer loop
   vertex 0.031440489 -0.00278115296 0
   vertex 0.0318565555 -0.00383201358 0
   vertex 0.031440489 -0.00278115296 0.0649999976
  endloop
 endfacet
 facet normal -0.929776 -0.368126 0
  outer loop
   vertex 0.031440489 -0.00278115296 0.0649999976
   vertex 0.0318565555 -0.00383201358 0
   vertex 0.0318565555 -0.00383201358 0.0649999976
  endloop
 endfacet
 facet normal -0.968584 -0.248689 0
  outer loop
   vertex 0.031159414 -0.00168643182 0
   vertex 0.031440489 -0.00278115296 0
   vertex 0.031159414 -0.00168643182 0.0649999976
  endloop
 endfacet
 facet normal -0.968584 -0.248689 0
  outer loop
   vertex 0.031159414 -0.00168643182 0.0649999976
   vertex 0.031440489 -0.00278115296 0
   vertex 0.031440489 -0.00278115296 0.0649999976
  endloop
 endfacet
 facet normal -0.992115 -0.125334 0
  outer loop
   vertex 0.031017758 -0.000565114664 0
   vertex 0.031159414 -0.00168643182 0
   vertex 0.031017758 -0.000565114664 0.0649999976
  endloop
 endfacet
 facet normal -0.992115 -0.125334 0
  outer loop
   vertex 0.031017758 -0.000565114664 0.0649999976
   vertex 0.031159414 -0.00168643182 0
   vertex 0.031159414 -0.00168643182 0.0649999976
  endloop
 endfacet
 facet normal -1 0 0
  outer loop
   vertex 0.031017758 0.000565114664 0
   vertex 0.031017758 -0.000565114664 0
   vertex 0.031017758 0.000565114664 0.0649999976
  endloop
 endfacet
 facet normal -1 0 0
  outer loop
   vertex 0.031017758 0.000565114664 0.0649999976
   vertex 0.031017758 -0.000565114664 0
   vertex 0.031017758 -0.000565114664 0.0649999976
  endloop
 endfacet
 facet normal -0.992115 0.125334 0
  outer loop
   vertex 0.031159414 0.00168643182 0
   vertex 0.031017758 0.000565114664 0
   vertex 0.031159414 0.00168643182 0.0649999976
  endloop
 endfacet
 facet normal -0.992115 0.125334 0
  outer loop
   vertex 0.031159414 0.00168643182 0.0649999976
   vertex 0.031017758 0.000565114664 0
   vertex 0.031017758 0.000565114664 0.0649999976
  endloop
 endfacet
 facet normal -0.968584 0.248689 0
  outer loop
   vertex 0.031440489 0.00278115296 0
   vertex 0.031159414 0.00168643182 0
   vertex 0.031440489 0.00278115296 0.0649999976
  endloop
 endfacet
 facet normal -0.968584 0.248689 0
  outer loop
   vertex 0.031440489 0.00278115296 0.0649999976
   vertex 0.031159414 0.00168643182 0
   vertex 0.031159414 0.00168643182 0.0649999976
  endloop
 endfacet
 facet normal -0.929776 0.368126 0
  outer loop
   vertex 0.0318565555 0.00383201358 0
   vertex 0.031440489 0.00278115296 0
   vertex 0.0318565555 0.00383201358 0.0649999976
  endloop
 endfacet
 facet normal -0.929776 0.368126 0
  outer loop
   vertex 0.0318565555 0.00383201358 0.0649999976
   vertex 0.031440489 0.00278115296 0
   vertex 0.031440489 0.00278115296 0.0649999976
  endloop
 endfacet
 facet normal -0.876307 0.481754 0
  outer loop
   vertex 0.0324010476 0.00482244138 0
   vertex 0.0318565555 0.00383201358 0
   vertex 0.0324010476 0.00482244138 0.0649999976
  endloop
 endfacet
 facet normal -0.876307 0.481754 0
  outer loop
   vertex 0.0324010476 0.00482244138 0.0649999976
   vertex 0.0318565555 0.00383201358 0
   vertex 0.0318565555 0.00383201358 0.0649999976
  endloop
 endfacet
 facet normal -0.809017 0.587785 0
  outer loop
   vertex 0.0330653787 0.00573681574 0
   vertex 0.0324010476 0.00482244138 0
   vertex 0.0330653787 0.00573681574 0.0649999976
  endloop
 endfacet
 facet normal -0.809017 0.587785 0
  outer loop
   vertex 0.0330653787 0.00573681574 0.0649999976
   vertex 0.0324010476 0.00482244138 0
   vertex 0.0324010476 0.00482244138 0.0649999976
  endloop
 endfacet
 facet normal -0.728967 0.684548 0
  outer loop
   vertex 0.0338390768 0.00656071771 0
   vertex 0.0330653787 0.00573681574 0
   vertex 0.0338390768 0.00656071771 0.0649999976
  endloop
 endfacet
 facet normal -0.728967 0.684548 0
  outer loop
   vertex 0.0338390768 0.00656071771 0.0649999976
   vertex 0.0330653787 0.00573681574 0
   vertex 0.0330653787 0.00573681574 0.0649999976
  endloop
 endfacet
 facet normal -0.637425 0.770512 0
  outer loop
   vertex 0.0347099304 0.007281153 0
   vertex 0.0338390768 0.00656071771 0
   vertex 0.0347099304 0.007281153 0.0649999976
  endloop
 endfacet
 facet normal -0.637425 0.770512 0
  outer loop
   vertex 0.0347099304 0.007281153 0.0649999976
   vertex 0.0338390768 0.00656071771 0
   vertex 0.0338390768 0.00656071771 0.0649999976
  endloop
 endfacet
 facet normal -0.535826 0.844328 0
  outer loop
   vertex 0.0356642157 0.00788675994 0
   vertex 0.0347099304 0.007281153 0
   vertex 0.0356642157 0.00788675994 0.0649999976
  endloop
 endfacet
 facet normal -0.535826 0.844328 0
  outer loop
   vertex 0.0356642157 0.00788675994 0.0649999976
   vertex 0.0347099304 0.007281153 0
   vertex 0.0347099304 0.007281153 0.0649999976
  endloop
 endfacet
 facet normal -0.425779 0.904827 0
  outer loop
   vertex 0.0366868787 0.00836798828 0
   vertex 0.0356642157 0.00788675994 0
   vertex 0.0366868787 0.00836798828 0.0649999976
  endloop
 endfacet
 facet normal -0.425779 0.904827 0
  outer loop
   vertex 0.0366868787 0.00836798828 0.0649999976
   vertex 0.0356642157 0.00788675994 0
   vertex 0.0356642157 0.00788675994 0.0649999976
  endloop
 endfacet
 facet normal -0.309017 0.951056 0
  outer loop
   vertex 0.0377617888 0.00871724822 0
   vertex 0.0366868787 0.00836798828 0
   vertex 0.0377617888 0.00871724822 0.0649999976
  endloop
 endfacet
 facet normal -0.309017 0.951056 0
  outer loop
   vertex 0.0377617888 0.00871724822 0.0649999976
   vertex 0.0366868787 0.00836798828 0
   vertex 0.0366868787 0.00836798828 0.0649999976
  endloop
 endfacet
 facet normal -0.187381 0.982287 0
  outer loop
   vertex 0.0388719998 0.0089290319 0
   vertex 0.0377617888 0.00871724822 0
   vertex 0.0388719998 0.0089290319 0.0649999976
  endloop
 endfacet
 facet normal -0.187381 0.982287 0
  outer loop
   vertex 0.0388719998 0.0089290319 0.0649999976
   vertex 0.0377617888 0.00871724822 0
   vertex 0.0377617888 0.00871724822 0.0649999976
  endloop
 endfacet
 facet normal -0.0627905 0.998027 0
  outer loop
   vertex 0.0399999991 0.00899999961 0
   vertex 0.0388719998 0.0089290319 0
   vertex 0.0399999991 0.00899999961 0.0649999976
  endloop
 endfacet
 facet normal -0.0627905 0.998027 0
  outer loop
   vertex 0.0399999991 0.00899999961 0.0649999976
   vertex 0.0388719998 0.0089290319 0
   vertex 0.0388719998 0.0089290319 0.0649999976
  endloop
 endfacet
 facet normal 0 0 -1
  outer loop
   vertex 0.0399999991 0.00899999961 0
   vertex 0.0411279984 0.0089290319 0
   vertex 0.0388719998 0.0089290319 0
  endloop
 endfacet
 facet normal -0 -0 -1
  outer loop
   vertex 0.0388719998 0.0089290319 0
   vertex 0.0411279984 0.0089290319 0
   vertex 0.0422382094 0.00871724822 0
  endloop
 endfacet
 facet normal 0 0 -1
  outer loop
   vertex 0.0388719998 0.0089290319 0
   vertex 0.0422382094 0.00871724822 0
   vertex 0.0377617888 0.00871724822 0
  endloop
 endfacet
 facet normal -0 -0 -1
  outer loop
   vertex 0.0377617888 0.00871724822 0
   vertex 0.0422382094 0.00871724822 0
   vertex 0.0433131196 0.00836798828 0
  endloop
 endfacet
 facet normal 0 0 -1
  outer loop
   vertex 0.0377617888 0.00871724822 0
   vertex 0.0433131196 0.00836798828 0
   vertex 0.0366868787 0.00836798828 0
  endloop
 endfacet
 facet normal -0 -0 -1
  outer loop
   vertex 0.0366868787 0.00836798828 0
   vertex 0.0433131196 0.00836798828 0
   vertex 0.0443357825 0.00788675994 0
  endloop
 endfacet
 facet normal 0 0 -1
  outer loop
   vertex 0.0366868787 0.00836798828 0
   vertex 0.0443357825 0.00788675994 0
   vertex 0.0356642157 0.00788675994 0
  endloop
 endfacet
 facet normal -0 -0 -1
  outer loop
   vertex 0.0356642157 0.00788675994 0
   vertex 0.0443357825 0.00788675994 0
   vertex 0.0452900678 0.007281153 0
  endloop
 endfacet
 facet normal 0 0 -1
  outer loop
   vertex 0.0356642157 0.00788675994 0
   vertex 0.0452900678 0.007281153 0
   vertex 0.0347099304 0.007281153 0
  endloop
 endfacet
 facet normal -0 -0 -1
  outer loop
   vertex 0.0347099304 0.007281153 0
   vertex 0.0452900678 0.007281153 0
   vertex 0.0461609215 0.00656071771 0
  endloop
 endfacet
 facet normal 0 0 -1
  outer loop
   vertex 0.0347099304 0.007281153 0
   vertex 0.0461609215 0.00656071771 0
   vertex 0.0338390768 0.00656071771 0
  endloop
 endfacet
 facet normal -0 -0 -1
  outer loop
   vertex 0.0338390768 0.00656071771 0
   vertex 0.0461609215 0.00656071771 0
   vertex 0.0469346195 0.00573681574 0
  endloop
 endfacet
 facet normal 0 0 -1
  outer loop
   vertex 0.0338390768 0.00656071771 0
   vertex 0.0469346195 0.00573681574 0
   vertex 0.0330653787 0.00573681574 0
  endloop
 endfacet
 facet normal -0 -0 -1
  outer loop
   vertex 0.0330653787 0.00573681574 0
   vertex 0.0469346195 0.00573681574 0
   vertex 0.0475989506 0.00482244138 0
  endloop
 endfacet
 facet normal 0 0 -1
  outer loop
   vertex 0.0330653787 0.00573681574 0
   vertex 0.0475989506 0.00482244138 0
   vertex 0.0324010476 0.00482244138 0
  endloop
 endfacet
 facet normal -0 -0 -1
  outer loop
   vertex 0.0324010476 0.00482244138 0
   vertex 0.0475989506 0.00482244138 0
   vertex 0.0481434427 0.00383201358 0
  endloop
 endfacet
 facet normal 0 0 -1
  outer loop
   vertex 0.0324010476 0.00482244138 0
   vertex 0.0481434427 0.00383201358 0
   vertex 0.0318565555 0.00383201358 0
  endloop
 endfacet
 facet normal -0 -0 -1
  outer loop
   vertex 0.0318565555 0.00383201358 0
   vertex 0.0481434427 0.00383201358 0
   vertex 0.0485595092 0.00278115296 0
  endloop
 endfacet
 facet normal 0 0 -1
  outer loop
   vertex 0.0318565555 0.00383201358 0
   vertex 0.0485595092 0.00278115296 0
   vertex 0.031440489 0.00278115296 0
  endloop
 endfacet
 facet normal -0 -0 -1
  outer loop
   vertex 0.031440489 0.00278115296 0
   vertex 0.0485595092 0.00278115296 0
   vertex 0.0488405861 0.00168643182 0
  endloop
 endfacet
 facet normal 0 0 -1
  outer loop
   vertex 0.031440489 0.00278115296 0
   vertex 0.0488405861 0.00168643182 0
   vertex 0.031159414 0.00168643182 0
  endloop
 endfacet
 facet normal -0 -0 -1
  outer loop
   vertex 0.031159414 0.00168643182 0
   vertex 0.0488405861 0.00168643182 0
   vertex 0.0489822403 0.000565114664 0
  endloop
 endfacet
 facet normal 0 0 -1
  outer loop
   vertex 0.031159414 0.00168643182 0
   vertex 0.0489822403 0.000565114664 0
   vertex 0.031017758 0.000565114664 0
  endloop
 endfacet
 facet normal -0 -0 -1
  outer loop
   vertex 0.031017758 0.000565114664 0
   vertex 0.0489822403 0.000565114664 0
   vertex 0.0489822403 -0.000565114664 0
  endloop
 endfacet
 facet normal 0 0 -1
  outer loop
   vertex 0.031017758 0.000565114664 0
   vertex 0.0489822403 -0.000565114664 0
   vertex 0.031017758 -0.000565114664 0
  endloop
 endfacet
 facet normal -0 0 -1
  outer loop
   vertex 0.031017758 -0.000565114664 0
   vertex 0.0489822403 -0.000565114664 0
   vertex 0.0488405861 -0.00168643182 0
  endloop
 endfacet
 facet normal 0 0 -1
  outer loop
   vertex 0.031017758 -0.000565114664 0
   vertex 0.0488405861 -0.00168643182 0
   vertex 0.031159414 -0.00168643182 0
  endloop
 endfacet
 facet normal -0 0 -1
  outer loop
   vertex 0.031159414 -0.00168643182 0
   vertex 0.0488405861 -0.00168643182 0
   vertex 0.0485595092 -0.00278115296 0
  endloop
 endfacet
 facet normal 0 0 -1
  outer loop
   vertex 0.031159414 -0.00168643182 0
   vertex 0.0485595092 -0.00278115296 0
   vertex 0.031440489 -0.00278115296 0
  endloop
 endfacet
 facet normal -0 0 -1
  outer loop
   vertex 0.031440489 -0.00278115296 0
   vertex 0.0485595092 -0.00278115296 0
   vertex 0.0481434427 -0.00383201358 0
  endloop
 endfacet
 facet normal 0 0 -1
  outer loop
   vertex 0.031440489 -0.00278115296 0
   vertex 0.0481434427 -0.00383201358 0
   vertex 0.0318565555 -0.00383201358 0
  endloop
 endfacet
 facet normal -0 0 -1
  outer loop
   vertex 0.0318565555 -0.00383201358 0
   vertex 0.0481434427 -0.00383201358 0
   vertex 0.0475989506 -0.00482244138 0
  endloop
 endfacet
 facet normal 0 0 -1
  outer loop
   vertex 0.0318565555 -0.00383201358 0
   vertex 0.0475989506 -0.00482244138 0
   vertex 0.0324010476 -0.00482244138 0
  endloop
 endfacet
 facet normal -0 0 -1
  outer loop
   vertex 0.0324010476 -0.00482244138 0
   vertex 0.0475989506 -0.00482244138 0
   vertex 0.0469346195 -0.00573681574 0
  endloop
 endfacet
 facet normal 0 0 -1
  outer loop
   vertex 0.0324010476 -0.00482244138 0
   vertex 0.0469346195 -0.00573681574 0
   vertex 0.0330653787 -0.00573681574 0
  endloop
 endfacet
 facet normal -0 0 -1
  outer loop
   vertex 0.0330653787 -0.00573681574 0
   vertex 0.0469346195 -0.00573681574 0
   vertex 0.0461609215 -0.00656071771 0
  endloop
 endfacet
 facet normal 0 0 -1
  outer loop
   vertex 0.0330653787 -0.00573681574 0
   vertex 0.0461609215 -0.00656071771 0
   vertex 0.0338390768 -0.00656071771 0
  endloop
 endfacet
 facet normal -0 0 -1
  outer loop
   vertex 0.0338390768 -0.00656071771 0
   vertex 0.0461609215 -0.00656071771 0
   vertex 0.0452900678 -0.007281153 0
  endloop
 endfacet
 facet normal 0 0 -1
  outer loop
   vertex 0.0338390768 -0.00656071771 0
   vertex 0.0452900678 -0.007281153 0
   vertex 0.0347099304 -0.007281153 0
  endloop
 endfacet
 facet normal -0 0 -1
  outer loop
   vertex 0.0347099304 -0.007281153 0
   vertex 0.0452900678 -0.007281153 0
   vertex 0.0443357825 -0.00788675994 0
  endloop
 endfacet
 facet normal 0 0 -1
  outer loop
   vertex 0.0347099304 -0.007281153 0
   vertex 0.0443357825 -0.00788675994 0
   vertex 0.0356642157 -0.00788675994 0
  endloop
 endfacet
 facet normal -0 0 -1
  outer loop
   vertex 0.0356642157 -0.00788675994 0
   vertex 0.0443357825 -0.00788675994 0
   vertex 0.0433131196 -0.00836798828 0
  endloop
 endfacet
 facet normal 0 0 -1
  outer loop
   vertex 0.0356642157 -0.00788675994 0
   vertex 0.0433131196 -0.00836798828 0
   vertex 0.0366868787 -0.00836798828 0
  endloop
 endfacet
 facet normal -0 0 -1
  outer loop
   vertex 0.0366868787 -0.00836798828 0
   vertex 0.0433131196 -0.00836798828 0
   vertex 0.0422382094 -0.00871724822 0
  endloop
 endfacet
 facet normal 0 0 -1
  outer loop
   vertex 0.0366868787 -0.00836798828 0
   vertex 0.0422382094 -0.00871724822 0
   vertex 0.0377617888 -0.00871724822 0
  endloop
 endfacet
 facet normal -0 0 -1
  outer loop
   vertex 0.0377617888 -0.00871724822 0
   vertex 0.0422382094 -0.00871724822 0
   vertex 0.0411279984 -0.0089290319 0
  endloop
 endfacet
 facet normal 0 0 -1
  outer loop
   vertex 0.0377617888 -0.00871724822 0
   vertex 0.0411279984 -0.0089290319 0
   vertex 0.0388719998 -0.0089290319 0
  endloop
 endfacet
 facet normal -0 0 -1
  outer loop
   vertex 0.0388719998 -0.0089290319 0
   vertex 0.0411279984 -0.0089290319 0
   vertex 0.0399999991 -0.00899999961 0
  endloop
 endfacet
 facet normal 0 0 1
  outer loop
   vertex 0.0399999991 0.00899999961 0.0649999976
   vertex 0.0388719998 0.0089290319 0.0649999976
   vertex 0.0411279984 0.0089290319 0.0649999976
  endloop
 endfacet
 facet normal -0 0 1
  outer loop
   vertex 0.0411279984 0.0089290319 0.0649999976
   vertex 0.0388719998 0.0089290319 0.0649999976
   vertex 0.0377617888 0.00871724822 0.0649999976
  endloop
 endfacet
 facet normal 0 0 1
  outer loop
   vertex 0.0411279984 0.0089290319 0.0649999976
   vertex 0.0377617888 0.00871724822 0.0649999976
   vertex 0.0422382094 0.00871724822 0.0649999976
  endloop
 endfacet
 facet normal -0 0 1
  outer loop
   vertex 0.0422382094 0.00871724822 0.0649999976
   vertex 0.0377617888 0.00871724822 0.0649999976
   vertex 0.0366868787 0.00836798828 0.0649999976
  endloop
 endfacet
 facet normal 0 0 1
  outer loop
   vertex 0.0422382094 0.00871724822 0.0649999976
   vertex 0.0366868787 0.00836798828 0.0649999976
   vertex 0.0433131196 0.00836798828 0.0649999976
  endloop
 endfacet
 facet normal -0 0 1
  outer loop
   vertex 0.0433131196 0.00836798828 0.0649999976
   vertex 0.0366868787 0.00836798828 0.0649999976
   vertex 0.0356642157 0.00788675994 0.0649999976
  endloop
 endfacet
 facet normal 0 0 1
  outer loop
   vertex 0.0433131196 0.00836798828 0.0649999976
   vertex 0.0356642157 0.00788675994 0.0649999976
   vertex 0.0443357825 0.00788675994 0.0649999976
  endloop
 endfacet
 facet normal -0 0 1
  outer loop
   vertex 0.0443357825 0.00788675994 0.0649999976
   vertex 0.0356642157 0.00788675994 0.0649999976
   vertex 0.0347099304 0.007281153 0.0649999976
  endloop
 endfacet
 facet normal 0 0 1
  outer loop
   vertex 0.0443357825 0.00788675994 0.0649999976
   vertex 0.0347099304 0.007281153 0.0649999976
   vertex 0.0452900678 0.007281153 0.0649999976
  endloop
 endfacet
 facet normal -0 0 1
  outer loop
   vertex 0.0452900678 0.007281153 0.0649999976
   vertex 0.0347099304 0.007281153 0.0649999976
   vertex 0.0338390768 0.00656071771 0.0649999976
  endloop
 endfacet
 facet normal 0 0 1
  outer loop
   vertex 0.0452900678 0.007281153 0.0649999976
   vertex 0.0338390768 0.00656071771 0.0649999976
   vertex 0.0461609215 0.00656071771 0.0649999976
  endloop
 endfacet
 facet normal -0 0 1
  outer loop
   vertex 0.0461609215 0.00656071771 0.0649999976
   vertex 0.0338390768 0.00656071771 0.0649999976
   vertex 0.0330653787 0.00573681574 0.0649999976
  endloop
 endfacet
 facet normal 0 0 1
  outer loop
   vertex 0.0461609215 0.00656071771 0.0649999976
   vertex 0.0330653787 0.00573681574 0.0649999976
   vertex 0.0469346195 0.00573681574 0.0649999976
  endloop
 endfacet
 facet normal -0 0 1
  outer loop
   vertex 0.0469346195 0.00573681574 0.0649999976
   vertex 0.0330653787 0.00573681574 0.0649999976
   vertex 0.0324010476 0.00482244138 0.0649999976
  endloop
 endfacet
 facet normal 0 0 1
  outer loop
   vertex 0.0469346195 0.00573681574 0.0649999976
   vertex 0.0324010476 0.00482244138 0.0649999976
   vertex 0.0475989506 0.00482244138 0.0649999976
  endloop
 endfacet
 facet normal -0 0 1
  outer loop
   vertex 0.0475989506 0.00482244138 0.0649999976
   vertex 0.0324010476 0.00482244138 0.0649999976
   vertex 0.0318565555 0.00383201358 0.0649999976
  endloop
 endfacet
 facet normal 0 0 1
  outer loop
   vertex 0.0475989506 0.00482244138 0.0649999976
   vertex 0.0318565555 0.00383201358 0.0649999976
   vertex 0.0481434427 0.00383201358 0.0649999976
  endloop
 endfacet
 facet normal -0 0 1
  outer loop
   vertex 0.0481434427 0.00383201358 0.0649999976
   vertex 0.0318565555 0.00383201358 0.0649999976
   vertex 0.031440489 0.00278115296 0.0649999976
  endloop
 endfacet
 facet normal 0 0 1
  outer loop
   vertex 0.0481434427 0.00383201358 0.0649999976
   vertex 0.031440489 0.00278115296 0.0649999976
   vertex 0.0485595092 0.00278115296 0.0649999976
  endloop
 endfacet
 facet normal -0 0 1
  outer loop
   vertex 0.0485595092 0.00278115296 0.0649999976
   vertex 0.031440489 0.00278115296 0.0649999976
   vertex 0.031159414 0.00168643182 0.0649999976
  endloop
 endfacet
 facet normal 0 0 1
  outer loop
   vertex 0.0485595092 0.00278115296 0.0649999976
   vertex 0.031159414 0.00168643182 0.0649999976
   vertex 0.0488405861 0.00168643182 0.0649999976
  endloop
 endfacet
 facet normal -0 0 1
  outer loop
   vertex 0.0488405861 0.00168643182 0.0649999976
   vertex 0.031159414 0.00168643182 0.0649999976
   vertex 0.031017758 0.000565114664 0.0649999976
  endloop
 endfacet
 facet normal 0 0 1
  outer loop
   vertex 0.0488405861 0.00168643182 0.0649999976
   vertex 0.031017758 0.000565114664 0.0649999976
   vertex 0.0489822403 0.000565114664 0.0649999976
  endloop
 endfacet
 facet normal -0 0 1
  outer loop
   vertex 0.0489822403 0.000565114664 0.0649999976
   vertex 0.031017758 0.000565114664 0.0649999976
   vertex 0.031017758 -0.000565114664 0.0649999976
  endloop
 endfacet
 facet normal 0 0 1
  outer loop
   vertex 0.0489822403 0.000565114664 0.0649999976
   vertex 0.031017758 -0.000565114664 0.0649999976
   vertex 0.0489822403 -0.000565114664 0.0649999976
  endloop
 endfacet
 facet normal -0 0 1
  outer loop
   vertex 0.0489822403 -0.000565114664 0.0649999976
   vertex 0.031017758 -0.000565114664 0.0649999976
   vertex 0.031159414 -0.00168643182 0.0649999976
  endloop
 endfacet
 facet normal 0 0 1
  outer loop
   vertex 0.0489822403 -0.000565114664 0.0649999976
   vertex 0.031159414 -0.00168643182 0.0649999976
   vertex 0.0488405861 -0.00168643182 0.0649999976
  endloop
 endfacet
 facet normal -0 0 1
  outer loop
   vertex 0.0488405861 -0.00168643182 0.0649999976
   vertex 0.031159414 -0.00168643182 0.0649999976
   vertex 0.031440489 -0.00278115296 0.0649999976
  endloop
 endfacet
 facet normal 0 0 1
  outer loop
   vertex 0.0488405861 -0.00168643182 0.0649999976
   vertex 0.031440489 -0.00278115296 0.0649999976
   vertex 0.0485595092 -0.00278115296 0.0649999976
  endloop
 endfacet
 facet normal -0 0 1
  outer loop
   vertex 0.0485595092 -0.00278115296 0.0649999976
   vertex 0.031440489 -0.00278115296 0.0649999976
   vertex 0.0318565555 -0.00383201358 0.0649999976
  endloop
 endfacet
 facet normal 0 0 1
  outer loop
   vertex 0.0485595092 -0.00278115296 0.0649999976
   vertex 0.0318565555 -0.00383201358 0.0649999976
   vertex 0.0481434427 -0.00383201358 0.0649999976
  endloop
 endfacet
 facet normal -0 0 1
  outer loop
   vertex 0.0481434427 -0.00383201358 0.0649999976
   vertex 0.0318565555 -0.00383201358 0.0649999976
   vertex 0.0324010476 -0.00482244138 0.0649999976
  endloop
 endfacet
 facet normal 0 0 1
  outer loop
   vertex 0.0481434427 -0.00383201358 0.0649999976
   vertex 0.0324010476 -0.00482244138 0.0649999976
   vertex 0.0475989506 -0.00482244138 0.0649999976
  endloop
 endfacet
 facet normal -0 0 1
  outer loop
   vertex 0.0475989506 -0.00482244138 0.0649999976
   vertex 0.0324010476 -0.00482244138 0.0649999976
   vertex 0.0330653787 -0.00573681574 0.0649999976
  endloop
 endfacet
 facet normal 0 0 1
  outer loop
   vertex 0.0475989506 -0.00482244138 0.0649999976
   vertex 0.0330653787 -0.00573681574 0.0649999976
   vertex 0.0469346195 -0.00573681574 0.0649999976
  endloop
 endfacet
 facet normal -0 0 1
  outer loop
   vertex 0.0469346195 -0.00573681574 0.0649999976
   vertex 0.0330653787 -0.00573681574 0.0649999976
   vertex 0.0338390768 -0.00656071771 0.0649999976
  endloop
 endfacet
 facet normal 0 0 1
  outer loop
   vertex 0.0469346195 -0.00573681574 0.0649999976
   vertex 0.0338390768 -0.00656071771 0.0649999976
   vertex 0.0461609215 -0.00656071771 0.0649999976
  endloop
 endfacet
 facet normal -0 0 1
  outer loop
   vertex 0.0461609215 -0.00656071771 0.0649999976
   vertex 0.0338390768 -0.00656071771 0.0649999976
   vertex 0.0347099304 -0.007281153 0.0649999976
  endloop
 endfacet
 facet normal 0 0 1
  outer loop
   vertex 0.0461609215 -0.00656071771 0.0649999976
   vertex 0.0347099304 -0.007281153 0.0649999976
   vertex 0.0452900678 -0.007281153 0.0649999976
  endloop
 endfacet
 facet normal -0 0 1
  outer loop
   vertex 0.0452900678 -0.007281153 0.0649999976
   vertex 0.0347099304 -0.007281153 0.0649999976
   vertex 0.0356642157 -0.00788675994 0.0649999976
  endloop
 endfacet
 facet normal 0 0 1
  outer loop
   vertex 0.0452900678 -0.007281153 0.0649999976
   vertex 0.0356642157 -0.00788675994 0.0649999976
   vertex 0.0443357825 -0.00788675994 0.0649999976
  endloop
 endfacet
 facet normal -0 0 1
  outer loop
   vertex 0.0443357825 -0.00788675994 0.0649999976
   vertex 0.0356642157 -0.00788675994 0.0649999976
   vertex 0.0366868787 -0.00836798828 0.0649999976
  endloop
 endfacet
 facet normal 0 0 1
  outer loop
   vertex 0.0443357825 -0.00788675994 0.0649999976
   vertex 0.0366868787 -0.00836798828 0.0649999976
   vertex 0.0433131196 -0.00836798828 0.0649999976
  endloop
 endfacet
 facet normal -0 0 1
  outer loop
   vertex 0.0433131196 -0.00836798828 0.0649999976
   vertex 0.0366868787 -0.00836798828 0.0649999976
   vertex 0.0377617888 -0.00871724822 0.0649999976
  endloop
 endfacet
 facet normal 0 0 1
  outer loop
   vertex 0.0433131196 -0.00836798828 0.0649999976
   vertex 0.0377617888 -0.00871724822 0.0649999976
   vertex 0.0422382094 -0.00871724822 0.0649999976
  endloop
 endfacet
 facet normal -0 0 1
  outer loop
   vertex 0.0422382094 -0.00871724822 0.0649999976
   vertex 0.0377617888 -0.00871724822 0.0649999976
   vertex 0.0388719998 -0.0089290319 0.0649999976
  endloop
 endfacet
 facet normal 0 0 1
  outer loop
   vertex 0.0422382094 -0.00871724822 0.0649999976
   vertex 0.0388719998 -0.0089290319 0.0649999976
   vertex 0.0411279984 -0.0089290319 0.0649999976
  endloop
 endfacet
 facet normal -0 0 1
  outer loop
   vertex 0.0411279984 -0.0089290319 0.0649999976
   vertex 0.0388719998 -0.0089290319 0.0649999976
   vertex 0.0399999991 -0.00899999961 0.0649999976
  endloop
 endfacet
endsolid
