solid battery2
 facet normal 0.0627905 0.998027 0
  outer loop
   vertex 0.0211279988 0.0089290319 0
   vertex 0.0199999996 0.00899999961 0
   vertex 0.0211279988 0.0089290319 0.0649999976
  endloop
 endfacet
 facet normal 0.0627905 0.998027 -0
  outer loop
   vertex 0.0211279988 0.0089290319 0.0649999976
   vertex 0.0199999996 0.00899999961 0
   vertex 0.0199999996 0.00899999961 0.0649999976
  endloop
 endfacet
 facet normal 0.187381 0.982287 0
  outer loop
   vertex 0.022238208 0.00871724822 0
   vertex 0.0211279988 0.0089290319 0
   vertex 0.022238208 0.00871724822 0.0649999976
  endloop
 endfacet
 facet normal 0.187381 0.982287 -0
  outer loop
   vertex 0.022238208 0.00871724822 0.0649999976
   vertex 0.0211279988 0.0089290319 0
   vertex 0.0211279988 0.0089290319 0.0649999976
  endloop
 endfacet
 facet normal 0.309017 0.951057 0
  outer loop
   vertex 0.02331312 0.00836798828 0
   vertex 0.022238208 0.00871724822 0
   vertex 0.02331312 0.00836798828 0.0649999976
  endloop
 endfacet
 facet normal 0.309017 0.951057 -0
  outer loop
   vertex 0.02331312 0.00836798828 0.0649999976
   vertex 0.022238208 0.00871724822 0
   vertex 0.022238208 0.00871724822 0.0649999976
  endloop
 endfacet
 facet normal 0.425779 0.904827 0
  outer loop
   vertex 0.024335783 0.00788675994 0
   vertex 0.02331312 0.00836798828 0
   vertex 0.024335783 0.00788675994 0.0649999976
  endloop
 endfacet
 facet normal 0.425779 0.904827 -0
  outer loop
   vertex 0.024335783 0.00788675994 0.0649999976
   vertex 0.02331312 0.00836798828 0
   vertex 0.02331312 0.00836798828 0.0649999976
  endloop
 endfacet
 facet normal 0.535827 0.844328 0
  outer loop
   vertex 0.0252900664 0.007281153 0
   vertex 0.024335783 0.00788675994 0
   vertex 0.0252900664 0.007281153 0.0649999976
  endloop
 endfacet
 facet normal 0.535827 0.844328 -0
  outer loop
   vertex 0.0252900664 0.007281153 0.0649999976
   vertex 0.024335783 0.00788675994 0
   vertex 0.024335783 0.00788675994 0.0649999976
  endloop
 endfacet
 facet normal 0.637424 0.770514 0
  outer loop
   vertex 0.0261609238 0.00656071771 0
   vertex 0.0252900664 0.007281153 0
   vertex 0.0261609238 0.00656071771 0.0649999976
  endloop
 endfacet
 facet normal 0.637424 0.770514 -0
  outer loop
   vertex 0.0261609238 0.00656071771 0.0649999976
   vertex 0.0252900664 0.007281153 0
   vertex 0.0252900664 0.007281153 0.0649999976
  endloop
 endfacet
 facet normal 0.728969 0.684547 0
  outer loop
   vertex 0.0269346181 0.00573681574 0
   vertex 0.0261609238 0.00656071771 0
   vertex 0.0269346181 0.00573681574 0.0649999976
  endloop
 endfacet
 facet normal 0.728969 0.684547 -0
  outer loop
   vertex 0.0269346181 0.00573681574 0.0649999976
   vertex 0.0261609238 0.00656071771 0
   vertex 0.0261609238 0.00656071771 0.0649999976
  endloop
 endfacet
 facet normal 0.809017 0.587786 0
  outer loop
   vertex 0.027598951 0.00482244138 0
   vertex 0.0269346181 0.00573681574 0
   vertex 0.027598951 0.00482244138 0.0649999976
  endloop
 endfacet
 facet normal 0.809017 0.587786 -0
  outer loop
   vertex 0.027598951 0.00482244138 0.0649999976
   vertex 0.0269346181 0.00573681574 0
   vertex 0.0269346181 0.00573681574 0.0649999976
  endloop
 endfacet
 facet normal 0.876307 0.481754 0
  outer loop
   vertex 0.0281434432 0.00383201358 0
   vertex 0.027598951 0.00482244138 0
   vertex 0.0281434432 0.00383201358 0.0649999976
  endloop
 endfacet
 facet normal 0.876307 0.481754 -0
  outer loop
   vertex 0.0281434432 0.00383201358 0.0649999976
   vertex 0.027598951 0.00482244138 0
   vertex 0.027598951 0.00482244138 0.0649999976
  endloop
 endfacet
 facet normal 0.929777 0.368124 0
  outer loop
   vertex 0.0285595078 0.00278115296 0
   vertex 0.0281434432 0.00383201358 0
   vertex 0.0285595078 0.00278115296 0.0649999976
  endloop
 endfacet
 facet normal 0.929777 0.368124 -0
  outer loop
   vertex 0.0285595078 0.00278115296 0.0649999976
   vertex 0.0281434432 0.00383201358 0
   vertex 0.0281434432 0.00383201358 0.0649999976
  endloop
 endfacet
 facet normal 0.968583 0.24869 0
  outer loop
   vertex 0.0288405847 0.00168643182 0
   vertex 0.0285595078 0.00278115296 0
   vertex 0.0288405847 0.00168643182 0.0649999976
  endloop
 endfacet
 facet normal 0.968583 0.24869 -0
  outer loop
   vertex 0.0288405847 0.00168643182 0.0649999976
   vertex 0.0285595078 0.00278115296 0
   vertex 0.0285595078 0.00278115296 0.0649999976
  endloop
 endfacet
 facet normal 0.992115 0.125334 0
  outer loop
   vertex 0.0289822407 0.000565114664 0
   vertex 0.0288405847 0.00168643182 0
   vertex 0.0289822407 0.000565114664 0.0649999976
  endloop
 endfacet
 facet normal 0.992115 0.125334 -0
  outer loop
   vertex 0.0289822407 0.000565114664 0.0649999976
   vertex 0.0288405847 0.00168643182 0
   vertex 0.0288405847 0.00168643182 0.0649999976
  endloop
 endfacet
 facet normal 1 0 0
  outer loop
   vertex 0.0289822407 -0.000565114664 0
   vertex 0.0289822407 0.000565114664 0
   vertex 0.0289822407 -0.000565114664 0.0649999976
  endloop
 endfacet
 facet normal 1 0 -0
  outer loop
   vertex 0.0289822407 -0.000565114664 0.0649999976
   vertex 0.0289822407 0.000565114664 0
   vertex 0.0289822407 0.000565114664 0.0649999976
  endloop
 endfacet
 facet normal 0.992115 -0.125334 0
  outer loop
   vertex 0.0288405847 -0.00168643182 0
   vertex 0.0289822407 -0.000565114664 0
   vertex 0.0288405847 -0.00168643182 0.0649999976
  endloop
 endfacet
 facet normal 0.992115 -0.125334 0
  outer loop
   vertex 0.0288405847 -0.00168643182 0.0649999976
   vertex 0.0289822407 -0.000565114664 0
   vertex 0.0289822407 -0.000565114664 0.0649999976
  endloop
 endfacet
 facet normal 0.968583 -0.24869 0
  outer loop
   vertex 0.0285595078 -0.00278115296 0
   vertex 0.0288405847 -0.00168643182 0
   vertex 0.0285595078 -0.00278115296 0.0649999976
  endloop
 endfacet
 facet normal 0.968583 -0.24869 0
  outer loop
   vertex 0.0285595078 -0.00278115296 0.0649999976
   vertex 0.0288405847 -0.00168643182 0
   vertex 0.0288405847 -0.00168643182 0.0649999976
  endloop
 endfacet
 facet normal 0.929777 -0.368124 0
  outer loop
   vertex 0.0281434432 -0.00383201358 0
   vertex 0.0285595078 -0.00278115296 0
   vertex 0.0281434432 -0.00383201358 0.0649999976
  endloop
 endfacet
 facet normal 0.929777 -0.368124 0
  outer loop
   vertex 0.0281434432 -0.00383201358 0.0649999976
   vertex 0.0285595078 -0.00278115296 0
   vertex 0.0285595078 -0.00278115296 0.0649999976
  endloop
 endfacet
 facet normal 0.876307 -0.481754 0
  outer loop
   vertex 0.027598951 -0.00482244138 0
   vertex 0.0281434432 -0.00383201358 0
   vertex 0.027598951 -0.00482244138 0.0649999976
  endloop
 endfacet
 facet normal 0.876307 -0.481754 0
  outer loop
   vertex 0.027598951 -0.00482244138 0.0649999976
   vertex 0.0281434432 -0.00383201358 0
   vertex 0.0281434432 -0.00383201358 0.0649999976
  endloop
 endfacet
 facet normal 0.809017 -0.587786 0
  outer loop
   vertex 0.0269346181 -0.00573681574 0
   vertex 0.027598951 -0.00482244138 0
   vertex 0.0269346181 -0.00573681574 0.0649999976
  endloop
 endfacet
 facet normal 0.809017 -0.587786 0
  outer loop
   vertex 0.0269346181 -0.00573681574 0.0649999976
   vertex 0.027598951 -0.00482244138 0
   vertex 0.027598951 -0.00482244138 0.0649999976
  endloop
 endfacet
 facet normal 0.728969 -0.684547 0
  outer loop
   vertex 0.0261609238 -0.00656071771 0
   vertex 0.0269346181 -0.00573681574 0
   vertex 0.0261609238 -0.00656071771 0.0649999976
  endloop
 endfacet
 facet normal 0.728969 -0.684547 0
  outer loop
   vertex 0.0261609238 -0.00656071771 0.0649999976
   vertex 0.0269346181 -0.00573681574 0
   vertex 0.0269346181 -0.00573681574 0.0649999976
  endloop
 endfacet
 facet normal 0.637424 -0.770514 0
  outer loop
   vertex 0.0252900664 -0.007281153 0
   vertex 0.0261609238 -0.00656071771 0
   vertex 0.0252900664 -0.007281153 0.0649999976
  endloop
 endfacet
 facet normal 0.637424 -0.770514 0
  outer loop
   vertex 0.0252900664 -0.007281153 0.0649999976
   vertex 0.0261609238 -0.00656071771 0
   vertex 0.0261609238 -0.00656071771 0.0649999976
  endloop
 endfacet
 facet normal 0.535827 -0.844328 0
  outer loop
   vertex 0.024335783 -0.00788675994 0
   vertex 0.0252900664 -0.007281153 0
   vertex 0.024335783 -0.00788675994 0.0649999976
  endloop
 endfacet
 facet normal 0.535827 -0.844328 0
  outer loop
   vertex 0.024335783 -0.00788675994 0.0649999976
   vertex 0.0252900664 -0.007281153 0
   vertex 0.0252900664 -0.007281153 0.0649999976
  endloop
 endfacet
 facet normal 0.425779 -0.904827 0
  outer loop
   vertex 0.02331312 -0.00836798828 0
   vertex 0.024335783 -0.00788675994 0
   vertex 0.02331312 -0.00836798828 0.0649999976
  endloop
 endfacet
 facet normal 0.425779 -0.904827 0
  outer loop
   vertex 0.02331312 -0.00836798828 0.0649999976
   vertex 0.024335783 -0.00788675994 0
   vertex 0.024335783 -0.00788675994 0.0649999976
  endloop
 endfacet
 facet normal 0.309017 -0.951057 0
  outer loop
   vertex 0.022238208 -0.00871724822 0
   vertex 0.02331312 -0.00836798828 0
   vertex 0.022238208 -0.00871724822 0.0649999976
  endloop
 endfacet
 facet normal 0.309017 -0.951057 0
  outer loop
   vertex 0.022238208 -0.00871724822 0.0649999976
   vertex 0.02331312 -0.00836798828 0
   vertex 0.02331312 -0.00836798828 0.0649999976
  endloop
 endfacet
 facet normal 0.187381 -0.982287 0
  outer loop
   vertex 0.0211279988 -0.0089290319 0
   vertex 0.022238208 -0.00871724822 0
   vertex 0.0211279988 -0.0089290319 0.0649999976
  endloop
 endfacet
 facet normal 0.187381 -0.982287 0
  outer loop
   vertex 0.0211279988 -0.0089290319 0.0649999976
   vertex 0.022238208 -0.00871724822 0
   vertex 0.022238208 -0.00871724822 0.0649999976
  endloop
 endfacet
 facet normal 0.0627905 -0.998027 0
  outer loop
   vertex 0.0199999996 -0.00899999961 0
   vertex 0.0211279988 -0.0089290319 0
   vertex 0.0199999996 -0.00899999961 0.0649999976
  endloop
 endfacet
 facet normal 0.0627905 -0.998027 0
  outer loop
   vertex 0.0199999996 -0.00899999961 0.0649999976
   vertex 0.0211279988 -0.0089290319 0
   vertex 0.0211279988 -0.0089290319 0.0649999976
  endloop
 endfacet
 facet normal -0.0627905 -0.998027 0
  outer loop
   vertex 0.0188720003 -0.0089290319 0
   vertex 0.0199999996 -0.00899999961 0
   vertex 0.0188720003 -0.0089290319 0.0649999976
  endloop
 endfacet
 facet normal -0.0627905 -0.998027 0
  outer loop
   vertex 0.0188720003 -0.0089290319 0.0649999976
   vertex 0.0199999996 -0.00899999961 0
   vertex 0.0199999996 -0.00899999961 0.0649999976
  endloop
 endfacet
 facet normal -0.187381 -0.982287 0
  outer loop
   vertex 0.0177617911 -0.00871724822 0
   vertex 0.0188720003 -0.0089290319 0
   vertex 0.0177617911 -0.00871724822 0.0649999976
  endloop
 endfacet
 facet normal -0.187381 -0.982287 0
  outer loop
   vertex 0.0177617911 -0.00871724822 0.0649999976
   vertex 0.0188720003 -0.0089290319 0
   vertex 0.0188720003 -0.0089290319 0.0649999976
  endloop
 endfacet
 facet normal -0.309017 -0.951057 0
  outer loop
   vertex 0.0166868791 -0.00836798828 0
   vertex 0.0177617911 -0.00871724822 0
   vertex 0.0166868791 -0.00836798828 0.0649999976
  endloop
 endfacet
 facet normal -0.309017 -0.951057 0
  outer loop
   vertex 0.0166868791 -0.00836798828 0.0649999976
   vertex 0.0177617911 -0.00871724822 0
   vertex 0.0177617911 -0.00871724822 0.0649999976
  endloop
 endfacet
 facet normal -0.425779 -0.904827 0
  outer loop
   vertex 0.0156642161 -0.00788675994 0
   vertex 0.0166868791 -0.00836798828 0
   vertex 0.0156642161 -0.00788675994 0.0649999976
  endloop
 endfacet
 facet normal -0.425779 -0.904827 0
  outer loop
   vertex 0.0156642161 -0.00788675994 0.0649999976
   vertex 0.0166868791 -0.00836798828 0
   vertex 0.0166868791 -0.00836798828 0.0649999976
  endloop
 endfacet
 facet normal -0.535827 -0.844328 0
  outer loop
   vertex 0.0147099327 -0.007281153 0
   vertex 0.0156642161 -0.00788675994 0
   vertex 0.0147099327 -0.007281153 0.0649999976
  endloop
 endfacet
 facet normal -0.535827 -0.844328 0
  outer loop
   vertex 0.0147099327 -0.007281153 0.0649999976
   vertex 0.0156642161 -0.00788675994 0
   vertex 0.0156642161 -0.00788675994 0.0649999976
  endloop
 endfacet
 facet normal -0.637424 -0.770514 0
  outer loop
   vertex 0.0138390753 -0.00656071771 0
   vertex 0.0147099327 -0.007281153 0
   vertex 0.0138390753 -0.00656071771 0.0649999976
  endloop
 endfacet
 facet normal -0.637424 -0.770514 0
  outer loop
   vertex 0.0138390753 -0.00656071771 0.0649999976
   vertex 0.0147099327 -0.007281153 0
   vertex 0.0147099327 -0.007281153 0.0649999976
  endloop
 endfacet
 facet normal -0.728969 -0.684547 0
  outer loop
   vertex 0.01306538 -0.00573681574 0
   vertex 0.0138390753 -0.00656071771 0
   vertex 0.01306538 -0.00573681574 0.0649999976
  endloop
 endfacet
 facet normal -0.728969 -0.684547 0
  outer loop
   vertex 0.01306538 -0.00573681574 0.0649999976
   vertex 0.0138390753 -0.00656071771 0
   vertex 0.0138390753 -0.00656071771 0.0649999976
  endloop
 endfacet
 facet normal -0.809017 -0.587785 0
  outer loop
   vertex 0.0124010481 -0.00482244138 0
   vertex 0.01306538 -0.00573681574 0
   vertex 0.0124010481 -0.00482244138 0.0649999976
  endloop
 endfacet
 facet normal -0.809017 -0.587785 0
  outer loop
   vertex 0.0124010481 -0.00482244138 0.0649999976
   vertex 0.01306538 -0.00573681574 0
   vertex 0.01306538 -0.00573681574 0.0649999976
  endloop
 endfacet
 facet normal -0.876307 -0.481754 0
  outer loop
   vertex 0.0118565559 -0.00383201358 0
   vertex 0.0124010481 -0.00482244138 0
   vertex 0.0118565559 -0.00383201358 0.0649999976
  endloop
 endfacet
 facet normal -0.876307 -0.481754 0
  outer loop
   vertex 0.0118565559 -0.00383201358 0.0649999976
   vertex 0.0124010481 -0.00482244138 0
   vertex 0.0124010481 -0.00482244138 0.0649999976
  endloop
 endfacet
 facet normal -0.929777 -0.368124 0
  outer loop
   vertex 0.0114404913 -0.00278115296 0
   vertex 0.0118565559 -0.00383201358 0
   vertex 0.0114404913 -0.00278115296 0.0649999976
  endloop
 endfacet
 facet normal -0.929777 -0.368124 0
  outer loop
   vertex 0.0114404913 -0.00278115296 0.0649999976
   vertex 0.0118565559 -0.00383201358 0
   vertex 0.0118565559 -0.00383201358 0.0649999976
  endloop
 endfacet
 facet normal -0.968583 -0.24869 0
  outer loop
   vertex 0.0111594144 -0.00168643182 0
   vertex 0.0114404913 -0.00278115296 0
   vertex 0.0111594144 -0.00168643182 0.0649999976
  endloop
 endfacet
 facet normal -0.968583 -0.24869 0
  outer loop
   vertex 0.0111594144 -0.00168643182 0.0649999976
   vertex 0.0114404913 -0.00278115296 0
   vertex 0.0114404913 -0.00278115296 0.0649999976
  endloop
 endfacet
 facet normal -0.992115 -0.125333 0
  outer loop
   vertex 0.0110177593 -0.000565114664 0
   vertex 0.0111594144 -0.00168643182 0
   vertex 0.0110177593 -0.000565114664 0.0649999976
  endloop
 endfacet
 facet normal -0.992115 -0.125333 0
  outer loop
   vertex 0.0110177593 -0.000565114664 0.0649999976
   vertex 0.0111594144 -0.00168643182 0
   vertex 0.0111594144 -0.00168643182 0.0649999976
  endloop
 endfacet
 facet normal -1 0 0
  outer loop
   vertex 0.0110177593 0.000565114664 0
   vertex 0.0110177593 -0.000565114664 0
   vertex 0.0110177593 0.000565114664 0.0649999976
  endloop
 endfacet
 facet normal -1 0 0
  outer loop
   vertex 0.0110177593 0.000565114664 0.0649999976
   vertex 0.0110177593 -0.000565114664 0
   vertex 0.0110177593 -0.000565114664 0.0649999976
  endloop
 endfacet
 facet normal -0.992115 0.125333 0
  outer loop
   vertex 0.0111594144 0.00168643182 0
   vertex 0.0110177593 0.000565114664 0
   vertex 0.0111594144 0.00168643182 0.0649999976
  endloop
 endfacet
 facet normal -0.992115 0.125333 0
  outer loop
   vertex 0.0111594144 0.00168643182 0.0649999976
   vertex 0.0110177593 0.000565114664 0
   vertex 0.0110177593 0.000565114664 0.0649999976
  endloop
 endfacet
 facet normal -0.968583 0.24869 0
  outer loop
   vertex 0.0114404913 0.00278115296 0
   vertex 0.0111594144 0.00168643182 0
   vertex 0.0114404913 0.00278115296 0.0649999976
  endloop
 endfacet
 facet normal -0.968583 0.24869 0
  outer loop
   vertex 0.0114404913 0.00278115296 0.0649999976
   vertex 0.0111594144 0.00168643182 0
   vertex 0.0111594144 0.00168643182 0.0649999976
  endloop
 endfacet
 facet normal -0.929777 0.368124 0
  outer loop
   vertex 0.0118565559 0.00383201358 0
   vertex 0.0114404913 0.00278115296 0
   vertex 0.0118565559 0.00383201358 0.0649999976
  endloop
 endfacet
 facet normal -0.929777 0.368124 0
  outer loop
   vertex 0.0118565559 0.00383201358 0.0649999976
   vertex 0.0114404913 0.00278115296 0
   vertex 0.0114404913 0.00278115296 0.0649999976
  endloop
 endfacet
 facet normal -0.876307 0.481754 0
  outer loop
   vertex 0.0124010481 0.00482244138 0
   vertex 0.0118565559 0.00383201358 0
   vertex 0.0124010481 0.00482244138 0.0649999976
  endloop
 endfacet
 facet normal -0.876307 0.481754 0
  outer loop
   vertex 0.0124010481 0.00482244138 0.0649999976
   vertex 0.0118565559 0.00383201358 0
   vertex 0.0118565559 0.00383201358 0.0649999976
  endloop
 endfacet
 facet normal -0.809017 0.587785 0
  outer loop
   vertex 0.01306538 0.00573681574 0
   vertex 0.0124010481 0.00482244138 0
   vertex 0.01306538 0.00573681574 0.0649999976
  endloop
 endfacet
 facet normal -0.809017 0.587785 0
  outer loop
   vertex 0.01306538 0.00573681574 0.0649999976
   vertex 0.0124010481 0.00482244138 0
   vertex 0.0124010481 0.00482244138 0.0649999976
  endloop
 endfacet
 facet normal -0.728969 0.684547 0
  outer loop
   vertex 0.0138390753 0.00656071771 0
   vertex 0.01306538 0.00573681574 0
   vertex 0.0138390753 0.00656071771 0.0649999976
  endloop
 endfacet
 facet normal -0.728969 0.684547 0
  outer loop
   vertex 0.0138390753 0.00656071771 0.0649999976
   vertex 0.01306538 0.00573681574 0
   vertex 0.01306538 0.00573681574 0.0649999976
  endloop
 endfacet
 facet normal -0.637424 0.770514 0
  outer loop
   vertex 0.0147099327 0.007281153 0
   vertex 0.0138390753 0.00656071771 0
   vertex 0.0147099327 0.007281153 0.0649999976
  endloop
 endfacet
 facet normal -0.637424 0.770514 0
  outer loop
   vertex 0.0147099327 0.007281153 0.0649999976
   vertex 0.0138390753 0.00656071771 0
   vertex 0.0138390753 0.00656071771 0.0649999976
  endloop
 endfacet
 facet normal -0.535827 0.844328 0
  outer loop
   vertex 0.0156642161 0.00788675994 0
   vertex 0.0147099327 0.007281153 0
   vertex 0.0156642161 0.00788675994 0.0649999976
  endloop
 endfacet
 facet normal -0.535827 0.844328 0
  outer loop
   vertex 0.0156642161 0.00788675994 0.0649999976
   vertex 0.0147099327 0.007281153 0
   vertex 0.0147099327 0.007281153 0.0649999976
  endloop
 endfacet
 facet normal -0.425779 0.904827 0
  outer loop
   vertex 0.0166868791 0.00836798828 0
   vertex 0.0156642161 0.00788675994 0
   vertex 0.0166868791 0.00836798828 0.0649999976
  endloop
 endfacet
 facet normal -0.425779 0.904827 0
  outer loop
   vertex 0.0166868791 0.00836798828 0.0649999976
   vertex 0.0156642161 0.00788675994 0
   vertex 0.0156642161 0.00788675994 0.0649999976
  endloop
 endfacet
 facet normal -0.309017 0.951057 0
  outer loop
   vertex 0.0177617911 0.00871724822 0
   vertex 0.0166868791 0.00836798828 0
   vertex 0.0177617911 0.00871724822 0.0649999976
  endloop
 endfacet
 facet normal -0.309017 0.951057 0
  outer loop
   vertex 0.0177617911 0.00871724822 0.0649999976
   vertex 0.0166868791 0.00836798828 0
   vertex 0.0166868791 0.00836798828 0.0649999976
  endloop
 endfacet
 facet normal -0.187381 0.982287 0
  outer loop
   vertex 0.0188720003 0.0089290319 0
   vertex 0.0177617911 0.00871724822 0
   vertex 0.0188720003 0.0089290319 0.0649999976
  endloop
 endfacet
 facet normal -0.187381 0.982287 0
  outer loop
   vertex 0.0188720003 0.0089290319 0.0649999976
   vertex 0.0177617911 0.00871724822 0
   vertex 0.0177617911 0.00871724822 0.0649999976
  endloop
 endfacet
 facet normal -0.0627905 0.998027 0
  outer loop
   vertex 0.0199999996 0.00899999961 0
   vertex 0.0188720003 0.0089290319 0
   vertex 0.0199999996 0.00899999961 0.0649999976
  endloop
 endfacet
 facet normal -0.0627905 0.998027 0
  outer loop
   vertex 0.0199999996 0.00899999961 0.0649999976
   vertex 0.0188720003 0.0089290319 0
   vertex 0.0188720003 0.0089290319 0.0649999976
  endloop
 endfacet
 facet normal 0 0 -1
  outer loop
   vertex 0.0199999996 0.00899999961 0
   vertex 0.0211279988 0.0089290319 0
   vertex 0.0188720003 0.0089290319 0
  endloop
 endfacet
 facet normal -0 -0 -1
  outer loop
   vertex 0.0188720003 0.0089290319 0
   vertex 0.0211279988 0.0089290319 0
   vertex 0.022238208 0.00871724822 0
  endloop
 endfacet
 facet normal 0 0 -1
  outer loop
   vertex 0.0188720003 0.0089290319 0
   vertex 0.022238208 0.00871724822 0
   vertex 0.0177617911 0.00871724822 0
  endloop
 endfacet
 facet normal -0 -0 -1
  outer loop
   vertex 0.0177617911 0.00871724822 0
   vertex 0.022238208 0.00871724822 0
   vertex 0.02331312 0.00836798828 0
  endloop
 endfacet
 facet normal 0 0 -1
  outer loop
   vertex 0.0177617911 0.00871724822 0
   vertex 0.02331312 0.00836798828 0
   vertex 0.0166868791 0.00836798828 0
  endloop
 endfacet
 facet normal -0 -0 -1
  outer loop
   vertex 0.0166868791 0.00836798828 0
   vertex 0.02331312 0.00836798828 0
   vertex 0.024335783 0.00788675994 0
  endloop
 endfacet
 facet normal 0 0 -1
  outer loop
   vertex 0.0166868791 0.00836798828 0
   vertex 0.024335783 0.00788675994 0
   vertex 0.0156642161 0.00788675994 0
  endloop
 endfacet
 facet normal -0 -0 -1
  outer loop
   vertex 0.0156642161 0.00788675994 0
   vertex 0.024335783 0.00788675994 0
   vertex 0.0252900664 0.007281153 0
  endloop
 endfacet
 facet normal 0 0 -1
  outer loop
   vertex 0.0156642161 0.00788675994 0
   vertex 0.0252900664 0.007281153 0
   vertex 0.0147099327 0.007281153 0
  endloop
 endfacet
 facet normal -0 -0 -1
  outer loop
   vertex 0.0147099327 0.007281153 0
   vertex 0.0252900664 0.007281153 0
   vertex 0.0261609238 0.00656071771 0
  endloop
 endfacet
 facet normal 0 0 -1
  outer loop
   vertex 0.0147099327 0.007281153 0
   vertex 0.0261609238 0.00656071771 0
   vertex 0.0138390753 0.00656071771 0
  endloop
 endfacet
 facet normal -0 -0 -1
  outer loop
   vertex 0.0138390753 0.00656071771 0
   vertex 0.0261609238 0.00656071771 0
   vertex 0.0269346181 0.00573681574 0
  endloop
 endfacet
 facet normal 0 0 -1
  outer loop
   vertex 0.0138390753 0.00656071771 0
   vertex 0.0269346181 0.00573681574 0
   vertex 0.01306538 0.00573681574 0
  endloop
 endfacet
 facet normal -0 -0 -1
  outer loop
   vertex 0.01306538 0.00573681574 0
   vertex 0.0269346181 0.00573681574 0
   vertex 0.027598951 0.00482244138 0
  endloop
 endfacet
 facet normal 0 0 -1
  outer loop
   vertex 0.01306538 0.00573681574 0
   vertex 0.027598951 0.00482244138 0
   vertex 0.0124010481 0.00482244138 0
  endloop
 endfacet
 facet normal -0 -0 -1
  outer loop
   vertex 0.0124010481 0.00482244138 0
   vertex 0.027598951 0.00482244138 0
   vertex 0.0281434432 0.00383201358 0
  endloop
 endfacet
 facet normal 0 0 -1
  outer loop
   vertex 0.0124010481 0.00482244138 0
   vertex 0.0281434432 0.00383201358 0
   vertex 0.0118565559 0.00383201358 0
  endloop
 endfacet
 facet normal -0 -0 -1
  outer loop
   vertex 0.0118565559 0.00383201358 0
   vertex 0.0281434432 0.00383201358 0
   vertex 0.0285595078 0.00278115296 0
  endloop
 endfacet
 facet normal 0 0 -1
  outer loop
   vertex 0.0118565559 0.00383201358 0
   vertex 0.0285595078 0.00278115296 0
   vertex 0.0114404913 0.00278115296 0
  endloop
 endfacet
 facet normal -0 -0 -1
  outer loop
   vertex 0.0114404913 0.00278115296 0
   vertex 0.0285595078 0.00278115296 0
   vertex 0.0288405847 0.00168643182 0
  endloop
 endfacet
 facet normal 0 0 -1
  outer loop
   vertex 0.0114404913 0.00278115296 0
   vertex 0.0288405847 0.00168643182 0
   vertex 0.0111594144 0.00168643182 0
  endloop
 endfacet
 facet normal -0 -0 -1
  outer loop
   vertex 0.0111594144 0.00168643182 0
   vertex 0.0288405847 0.00168643182 0
   vertex 0.0289822407 0.000565114664 0
  endloop
 endfacet
 facet normal 0 0 -1
  outer loop
   vertex 0.0111594144 0.00168643182 0
   vertex 0.0289822407 0.000565114664 0
   vertex 0.0110177593 0.000565114664 0
  endloop
 endfacet
 facet normal -0 -0 -1
  outer loop
   vertex 0.0110177593 0.000565114664 0
   vertex 0.0289822407 0.000565114664 0
   vertex 0.0289822407 -0.000565114664 0
  endloop
 endfacet
 facet normal 0 0 -1
  outer loop
   vertex 0.0110177593 0.000565114664 0
   vertex 0.0289822407 -0.000565114664 0
   vertex 0.0110177593 -0.000565114664 0
  endloop
 endfacet
 facet normal -0 0 -1
  outer loop
   vertex 0.0110177593 -0.000565114664 0
   vertex 0.0289822407 -0.000565114664 0
   vertex 0.0288405847 -0.00168643182 0
  endloop
 endfacet
 facet normal 0 0 -1
  outer loop
   vertex 0.0110177593 -0.000565114664 0
   vertex 0.0288405847 -0.00168643182 0
   vertex 0.0111594144 -0.00168643182 0
  endloop
 endfacet
 facet normal -0 0 -1
  outer loop
   vertex 0.0111594144 -0.00168643182 0
   vertex 0.0288405847 -0.00168643182 0
   vertex 0.0285595078 -0.00278115296 0
  endloop
 endfacet
 facet normal 0 0 -1
  outer loop
   vertex 0.0111594144 -0.00168643182 0
   vertex 0.0285595078 -0.00278115296 0
   vertex 0.0114404913 -0.00278115296 0
  endloop
 endfacet
 facet normal -0 0 -1
  outer loop
   vertex 0.0114404913 -0.00278115296 0
   vertex 0.0285595078 -0.00278115296 0
   vertex 0.0281434432 -0.00383201358 0
  endloop
 endfacet
 facet normal 0 0 -1
  outer loop
   vertex 0.0114404913 -0.00278115296 0
   vertex 0.0281434432 -0.00383201358 0
   vertex 0.0118565559 -0.00383201358 0
  endloop
 endfacet
 facet normal -0 0 -1
  outer loop
   vertex 0.0118565559 -0.00383201358 0
   vertex 0.0281434432 -0.00383201358 0
   vertex 0.027598951 -0.00482244138 0
  endloop
 endfacet
 facet normal 0 0 -1
  outer loop
   vertex 0.0118565559 -0.00383201358 0
   vertex 0.027598951 -0.00482244138 0
   vertex 0.0124010481 -0.00482244138 0
  endloop
 endfacet
 facet normal -0 0 -1
  outer loop
   vertex 0.0124010481 -0.00482244138 0
   vertex 0.027598951 -0.00482244138 0
   vertex 0.0269346181 -0.00573681574 0
  endloop
 endfacet
 facet normal 0 0 -1
  outer loop
   vertex 0.0124010481 -0.00482244138 0
   vertex 0.0269346181 -0.00573681574 0
   vertex 0.01306538 -0.00573681574 0
  endloop
 endfacet
 facet normal -0 0 -1
  outer loop
   vertex 0.01306538 -0.00573681574 0
   vertex 0.0269346181 -0.00573681574 0
   vertex 0.0261609238 -0.00656071771 0
  endloop
 endfacet
 facet normal 0 0 -1
  outer loop
   vertex 0.01306538 -0.00573681574 0
   vertex 0.0261609238 -0.00656071771 0
   vertex 0.0138390753 -0.00656071771 0
  endloop
 endfacet
 facet normal -0 0 -1
  outer loop
   vertex 0.0138390753 -0.00656071771 0
   vertex 0.0261609238 -0.00656071771 0
   vertex 0.0252900664 -0.007281153 0
  endloop
 endfacet
 facet normal 0 0 -1
  outer loop
   vertex 0.0138390753 -0.00656071771 0
   vertex 0.0252900664 -0.007281153 0
   vertex 0.0147099327 -0.007281153 0
  endloop
 endfacet
 facet normal -0 0 -1
  outer loop
   vertex 0.0147099327 -0.007281153 0
   vertex 0.0252900664 -0.007281153 0
   vertex 0.024335783 -0.00788675994 0
  endloop
 endfacet
 facet normal 0 0 -1
  outer loop
   vertex 0.0147099327 -0.007281153 0
   vertex 0.024335783 -0.00788675994 0
   vertex 0.0156642161 -0.00788675994 0
  endloop
 endfacet
 facet normal -0 0 -1
  outer loop
   vertex 0.0156642161 -0.00788675994 0
   vertex 0.024335783 -0.00788675994 0
   vertex 0.02331312 -0.00836798828 0
  endloop
 endfacet
 facet normal 0 0 -1
  outer loop
   vertex 0.0156642161 -0.00788675994 0
   vertex 0.02331312 -0.00836798828 0
   vertex 0.0166868791 -0.00836798828 0
  endloop
 endfacet
 facet normal -0 0 -1
  outer loop
   vertex 0.0166868791 -0.00836798828 0
   vertex 0.02331312 -0.00836798828 0
   vertex 0.022238208 -0.00871724822 0
  endloop
 endfacet
 facet normal 0 0 -1
  outer loop
   vertex 0.0166868791 -0.00836798828 0
   vertex 0.022238208 -0.00871724822 0
   vertex 0.0177617911 -0.00871724822 0
  endloop
 endfacet
 facet normal -0 0 -1
  outer loop
   vertex 0.0177617911 -0.00871724822 0
   vertex 0.022238208 -0.00871724822 0
   vertex 0.0211279988 -0.0089290319 0
  endloop
 endfacet
 facet normal 0 0 -1
  outer loop
   vertex 0.0177617911 -0.00871724822 0
   vertex 0.0211279988 -0.0089290319 0
   vertex 0.0188720003 -0.0089290319 0
  endloop
 endfacet
 facet normal -0 0 -1
  outer loop
   vertex 0.0188720003 -0.0089290319 0
   vertex 0.0211279988 -0.0089290319 0
   vertex 0.0199999996 -0.00899999961 0
  endloop
 endfacet
 facet normal 0 0 1
  outer loop
   vertex 0.0199999996 0.00899999961 0.0649999976
   vertex 0.0188720003 0.0089290319 0.0649999976
   vertex 0.0211279988 0.0089290319 0.0649999976
  endloop
 endfacet
 facet normal -0 0 1
  outer loop
   vertex 0.0211279988 0.0089290319 0.0649999976
   vertex 0.0188720003 0.0089290319 0.0649999976
   vertex 0.0177617911 0.00871724822 0.0649999976
  endloop
 endfacet
 facet normal 0 0 1
  outer loop
   vertex 0.0211279988 0.0089290319 0.0649999976
   vertex 0.0177617911 0.00871724822 0.0649999976
   vertex 0.022238208 0.00871724822 0.0649999976
  endloop
 endfacet
 facet normal -0 0 1
  outer loop
   vertex 0.022238208 0.00871724822 0.0649999976
   vertex 0.0177617911 0.00871724822 0.0649999976
   vertex 0.0166868791 0.00836798828 0.0649999976
  endloop
 endfacet
 facet normal 0 0 1
  outer loop
   vertex 0.022238208 0.00871724822 0.0649999976
   vertex 0.0166868791 0.00836798828 0.0649999976
   vertex 0.02331312 0.00836798828 0.0649999976
  endloop
 endfacet
 facet normal -0 0 1
  outer loop
   vertex 0.02331312 0.00836798828 0.0649999976
   vertex 0.0166868791 0.00836798828 0.0649999976
   vertex 0.0156642161 0.00788675994 0.0649999976
  endloop
 endfacet
 facet normal 0 0 1
  outer loop
   vertex 0.02331312 0.00836798828 0.0649999976
   vertex 0.0156642161 0.00788675994 0.0649999976
   vertex 0.024335783 0.00788675994 0.0649999976
  endloop
 endfacet
 facet normal -0 0 1
  outer loop
   vertex 0.024335783 0.00788675994 0.0649999976
   vertex 0.0156642161 0.00788675994 0.0649999976
   vertex 0.0147099327 0.007281153 0.0649999976
  endloop
 endfacet
 facet normal 0 0 1
  outer loop
   vertex 0.024335783 0.00788675994 0.0649999976
   vertex 0.0147099327 0.007281153 0.0649999976
   vertex 0.0252900664 0.007281153 0.0649999976
  endloop
 endfacet
 facet normal -0 0 1
  outer loop
   vertex 0.0252900664 0.007281153 0.0649999976
   vertex 0.0147099327 0.007281153 0.0649999976
   vertex 0.0138390753 0.00656071771 0.0649999976
  endloop
 endfacet
 facet normal 0 0 1
  outer loop
   vertex 0.0252900664 0.007281153 0.0649999976
   vertex 0.0138390753 0.00656071771 0.0649999976
   vertex 0.0261609238 0.00656071771 0.0649999976
  endloop
 endfacet
 facet normal -0 0 1
  outer loop
   vertex 0.0261609238 0.00656071771 0.0649999976
   vertex 0.0138390753 0.00656071771 0.0649999976
   vertex 0.01306538 0.00573681574 0.0649999976
  endloop
 endfacet
 facet normal 0 0 1
  outer loop
   vertex 0.0261609238 0.00656071771 0.0649999976
   vertex 0.01306538 0.00573681574 0.0649999976
   vertex 0.0269346181 0.00573681574 0.0649999976
  endloop
 endfacet
 facet normal -0 0 1
  outer loop
   vertex 0.0269346181 0.00573681574 0.0649999976
   vertex 0.01306538 0.00573681574 0.0649999976
   vertex 0.0124010481 0.00482244138 0.0649999976
  endloop
 endfacet
 facet normal 0 0 1
  outer loop
   vertex 0.0269346181 0.00573681574 0.0649999976
   vertex 0.0124010481 0.00482244138 0.0649999976
   vertex 0.027598951 0.00482244138 0.0649999976
  endloop
 endfacet
 facet normal -0 0 1
  outer loop
   vertex 0.027598951 0.00482244138 0.0649999976
   vertex 0.0124010481 0.00482244138 0.0649999976
   vertex 0.0118565559 0.00383201358 0.0649999976
  endloop
 endfacet
 facet normal 0 0 1
  outer loop
   vertex 0.027598951 0.00482244138 0.0649999976
   vertex 0.0118565559 0.00383201358 0.0649999976
   vertex 0.0281434432 0.00383201358 0.0649999976
  endloop
 endfacet
 facet normal -0 0 1
  outer loop
   vertex 0.0281434432 0.00383201358 0.0649999976
   vertex 0.0118565559 0.00383201358 0.0649999976
   vertex 0.0114404913 0.00278115296 0.0649999976
  endloop
 endfacet
 facet normal 0 0 1
  outer loop
   vertex 0.0281434432 0.00383201358 0.0649999976
   vertex 0.0114404913 0.00278115296 0.0649999976
   vertex 0.0285595078 0.00278115296 0.0649999976
  endloop
 endfacet
 facet normal -0 0 1
  outer loop
   vertex 0.0285595078 0.00278115296 0.0649999976
   vertex 0.0114404913 0.00278115296 0.0649999976
   vertex 0.0111594144 0.00168643182 0.0649999976
  endloop
 endfacet
 facet normal 0 0 1
  outer loop
   vertex 0.0285595078 0.00278115296 0.0649999976
   vertex 0.0111594144 0.00168643182 0.0649999976
   vertex 0.0288405847 0.00168643182 0.0649999976
  endloop
 endfacet
 facet normal -0 0 1
  outer loop
   vertex 0.0288405847 0.00168643182 0.0649999976
   vertex 0.0111594144 0.00168643182 0.0649999976
   vertex 0.0110177593 0.000565114664 0.0649999976
  endloop
 endfacet
 facet normal 0 0 1
  outer loop
   vertex 0.0288405847 0.00168643182 0.0649999976
   vertex 0.0110177593 0.000565114664 0.0649999976
   vertex 0.0289822407 0.000565114664 0.0649999976
  endloop
 endfacet
 facet normal -0 0 1
  outer loop
   vertex 0.0289822407 0.000565114664 0.0649999976
   vertex 0.0110177593 0.000565114664 0.0649999976
   vertex 0.0110177593 -0.000565114664 0.0649999976
  endloop
 endfacet
 facet normal 0 0 1
  outer loop
   vertex 0.0289822407 0.000565114664 0.0649999976
   vertex 0.0110177593 -0.000565114664 0.0649999976
   vertex 0.0289822407 -0.000565114664 0.0649999976
  endloop
 endfacet
 facet normal -0 0 1
  outer loop
   vertex 0.0289822407 -0.000565114664 0.0649999976
   vertex 0.0110177593 -0.000565114664 0.0649999976
   vertex 0.0111594144 -0.00168643182 0.0649999976
  endloop
 endfacet
 facet normal 0 0 1
  outer loop
   vertex 0.0289822407 -0.000565114664 0.0649999976
   vertex 0.0111594144 -0.00168643182 0.0649999976
   vertex 0.0288405847 -0.00168643182 0.0649999976
  endloop
 endfacet
 facet normal -0 0 1
  outer loop
   vertex 0.0288405847 -0.00168643182 0.0649999976
   vertex 0.0111594144 -0.00168643182 0.0649999976
   vertex 0.0114404913 -0.00278115296 0.0649999976
  endloop
 endfacet
 facet normal 0 0 1
  outer loop
   vertex 0.0288405847 -0.00168643182 0.0649999976
   vertex 0.0114404913 -0.00278115296 0.0649999976
   vertex 0.0285595078 -0.00278115296 0.0649999976
  endloop
 endfacet
 facet normal -0 0 1
  outer loop
   vertex 0.0285595078 -0.00278115296 0.0649999976
   vertex 0.0114404913 -0.00278115296 0.0649999976
   vertex 0.0118565559 -0.00383201358 0.0649999976
  endloop
 endfacet
 facet normal 0 0 1
  outer loop
   vertex 0.0285595078 -0.00278115296 0.0649999976
   vertex 0.0118565559 -0.00383201358 0.0649999976
   vertex 0.0281434432 -0.00383201358 0.0649999976
  endloop
 endfacet
 facet normal -0 0 1
  outer loop
   vertex 0.0281434432 -0.00383201358 0.0649999976
   vertex 0.0118565559 -0.00383201358 0.0649999976
   vertex 0.0124010481 -0.00482244138 0.0649999976
  endloop
 endfacet
 facet normal 0 0 1
  outer loop
   vertex 0.0281434432 -0.00383201358 0.0649999976
   vertex 0.0124010481 -0.00482244138 0.0649999976
   vertex 0.027598951 -0.00482244138 0.0649999976
  endloop
 endfacet
 facet normal -0 0 1
  outer loop
   vertex 0.027598951 -0.00482244138 0.0649999976
   vertex 0.0124010481 -0.00482244138 0.0649999976
   vertex 0.01306538 -0.00573681574 0.0649999976
  endloop
 endfacet
 facet normal 0 0 1
  outer loop
   vertex 0.027598951 -0.00482244138 0.0649999976
   vertex 0.01306538 -0.00573681574 0.0649999976
   vertex 0.0269346181 -0.00573681574 0.0649999976
  endloop
 endfacet
 facet normal -0 0 1
  outer loop
   vertex 0.0269346181 -0.00573681574 0.0649999976
   vertex 0.01306538 -0.00573681574 0.0649999976
   vertex 0.0138390753 -0.00656071771 0.0649999976
  endloop
 endfacet
 facet normal 0 0 1
  outer loop
   vertex 0.0269346181 -0.00573681574 0.0649999976
   vertex 0.0138390753 -0.00656071771 0.0649999976
   vertex 0.0261609238 -0.00656071771 0.0649999976
  endloop
 endfacet
 facet normal -0 0 1
  outer loop
   vertex 0.0261609238 -0.00656071771 0.0649999976
   vertex 0.0138390753 -0.00656071771 0.0649999976
   vertex 0.0147099327 -0.007281153 0.0649999976
  endloop
 endfacet
 facet normal 0 0 1
  outer loop
   vertex 0.0261609238 -0.00656071771 0.0649999976
   vertex 0.0147099327 -0.007281153 0.0649999976
   vertex 0.0252900664 -0.007281153 0.0649999976
  endloop
 endfacet
 facet normal -0 0 1
  outer loop
   vertex 0.0252900664 -0.007281153 0.0649999976
   vertex 0.0147099327 -0.007281153 0.0649999976
   vertex 0.0156642161 -0.00788675994 0.0649999976
  endloop
 endfacet
 facet normal 0 0 1
  outer loop
   vertex 0.0252900664 -0.007281153 0.0649999976
   vertex 0.0156642161 -0.00788675994 0.0649999976
   vertex 0.024335783 -0.00788675994 0.0649999976
  endloop
 endfacet
 facet normal -0 0 1
  outer loop
   vertex 0.024335783 -0.00788675994 0.0649999976
   vertex 0.0156642161 -0.00788675994 0.0649999976
   vertex 0.0166868791 -0.00836798828 0.0649999976
  endloop
 endfacet
 facet normal 0 0 1
  outer loop
   vertex 0.024335783 -0.00788675994 0.0649999976
   vertex 0.0166868791 -0.00836798828 0.0649999976
   vertex 0.02331312 -0.00836798828 0.0649999976
  endloop
 endfacet
 facet normal -0 0 1
  outer loop
   vertex 0.02331312 -0.00836798828 0.0649999976
   vertex 0.0166868791 -0.00836798828 0.0649999976
   vertex 0.0177617911 -0.00871724822 0.0649999976
  endloop
 endfacet
 facet normal 0 0 1
  outer loop
   vertex 0.02331312 -0.00836798828 0.0649999976
   vertex 0.0177617911 -0.00871724822 0.0649999976
   vertex 0.022238208 -0.00871724822 0.0649999976
  endloop
 endfacet
 facet normal -0 0 1
  outer loop
   vertex 0.022238208 -0.00871724822 0.0649999976
   vertex 0.0177617911 -0.00871724822 0.0649999976
   vertex 0.0188720003 -0.0089290319 0.0649999976
  endloop
 endfacet
 facet normal 0 0 1
  outer loop
   vertex 0.022238208 -0.00871724822 0.0649999976
   vertex 0.0188720003 -0.0089290319 0.0649999976
   vertex 0.0211279988 -0.0089290319 0.0649999976
  endloop
 endfacet
 facet normal -0 0 1
  outer loop
   vertex 0.0211279988 -0.0089290319 0.0649999976
   vertex 0.0188720003 -0.0089290319 0.0649999976
   vertex 0.0199999996 -0.00899999961 0.0649999976
  endloop
 endfacet
endsolid
