solid busbar
 facet normal -1 0 0
  outer loop
   vertex -0.00499999989 -0.00499999989 0.0649999976
   vertex -0.00499999989 -0.00499999989 0.0670000017
   vertex -0.00499999989 0.00499999989 0.0649999976
  endloop
 endfacet
 facet normal -1 0 0
  outer loop
   vertex -0.00499999989 0.00499999989 0.0670000017
   vertex -0.00499999989 0.00499999989 0.0649999976
   vertex -0.00499999989 -0.00499999989 0.0670000017
  endloop
 endfacet
 facet normal 1 0 0
  outer loop
   vertex 0.0450000018 -0.00499999989 0.0649999976
   vertex 0.0450000018 0.00499999989 0.0649999976
   vertex 0.0450000018 -0.00499999989 0.0670000017
  endloop
 endfacet
 facet normal 1 -0 0
  outer loop
   vertex 0.0450000018 0.00499999989 0.0670000017
   vertex 0.0450000018 -0.00499999989 0.0670000017
   vertex 0.0450000018 0.00499999989 0.0649999976
  endloop
 endfacet
 facet normal 0 -1 0
  outer loop
   vertex -0.00499999989 -0.00499999989 0.0649999976
   vertex 0.0450000018 -0.00499999989 0.0649999976
   vertex -0.00499999989 -0.00499999989 0.0670000017
  endloop
 endfacet
 facet normal 0 -1 0
  outer loop
   vertex 0.0450000018 -0.00499999989 0.0670000017
   vertex -0.00499999989 -0.00499999989 0.0670000017
   vertex 0.0450000018 -0.00499999989 0.0649999976
  endloop
 endfacet
 facet normal 0 1 0
  outer loop
   vertex -0.00499999989 0.00499999989 0.0649999976
   vertex -0.00499999989 0.00499999989 0.0670000017
   vertex 0.0450000018 0.00499999989 0.0649999976
  endloop
 endfacet
 facet normal 0 1 -0
  outer loop
   vertex 0.0450000018 0.00499999989 0.0670000017
   vertex 0.0450000018 0.00499999989 0.0649999976
   vertex -0.00499999989 0.00499999989 0.0670000017
  endloop
 endfacet
 facet normal 0 0 -1
  outer loop
   vertex -0.00499999989 -0.00499999989 0.0649999976
   vertex -0.00499999989 0.00499999989 0.0649999976
   vertex 0.0450000018 -0.00499999989 0.0649999976
  endloop
 endfacet
 facet normal 0 0 -1
  outer loop
   vertex 0.0450000018 0.00499999989 0.0649999976
   vertex 0.0450000018 -0.00499999989 0.0649999976
   vertex -0.00499999989 0.00499999989 0.0649999976
  endloop
 endfacet
 facet normal 0 0 1
  outer loop
   vertex -0.00499999989 -0.00499999989 0.0670000017
   vertex 0.0450000018 -0.00499999989 0.0670000017
   vertex -0.00499999989 0.00499999989 0.0670000017
  endloop
 endfacet
 facet normal -0 0 1
  outer loop
   vertex 0.0450000018 0.00499999989 0.0670000017
   vertex -0.00499999989 0.00499999989 0.0670000017
   vertex 0.0450000018 -0.00499999989 0.0670000017
  endloop
 endfacet
endsolid
