solid enclosure
 facet normal -1 0 0
  outer loop
   vertex -0.0599999987 -0.100000001 0.000500000024
   vertex -0.0599999987 -0.100000001 0.100000001
   vertex -0.0599999987 0.100000001 0.000500000024
  endloop
 endfacet
 facet normal -1 0 0
  outer loop
   vertex -0.0599999987 0.100000001 0.100000001
   vertex -0.0599999987 0.100000001 0.000500000024
   vertex -0.0599999987 -0.100000001 0.100000001
  endloop
 endfacet
 facet normal 1 0 0
  outer loop
   vertex 0.100000001 -0.100000001 0.000500000024
   vertex 0.100000001 0.100000001 0.000500000024
   vertex 0.100000001 -0.100000001 0.100000001
  endloop
 endfacet
 facet normal 1 -0 0
  outer loop
   vertex 0.100000001 0.100000001 0.100000001
   vertex 0.100000001 -0.100000001 0.100000001
   vertex 0.100000001 0.100000001 0.000500000024
  endloop
 endfacet
 facet normal 0 -1 0
  outer loop
   vertex -0.0599999987 -0.100000001 0.000500000024
   vertex 0.100000001 -0.100000001 0.000500000024
   vertex -0.0599999987 -0.100000001 0.100000001
  endloop
 endfacet
 facet normal 0 -1 0
  outer loop
   vertex 0.100000001 -0.100000001 0.100000001
   vertex -0.0599999987 -0.100000001 0.100000001
   vertex 0.100000001 -0.100000001 0.000500000024
  endloop
 endfacet
 facet normal 0 1 0
  outer loop
   vertex -0.0599999987 0.100000001 0.000500000024
   vertex -0.0599999987 0.100000001 0.100000001
   vertex 0.100000001 0.100000001 0.000500000024
  endloop
 endfacet
 facet normal 0 1 -0
  outer loop
   vertex 0.100000001 0.100000001 0.100000001
   vertex 0.100000001 0.100000001 0.000500000024
   vertex -0.0599999987 0.100000001 0.100000001
  endloop
 endfacet
 facet normal 0 0 -1
  outer loop
   vertex -0.0599999987 -0.100000001 0.000500000024
   vertex -0.0599999987 0.100000001 0.000500000024
   vertex 0.100000001 -0.100000001 0.000500000024
  endloop
 endfacet
 facet normal 0 0 -1
  outer loop
   vertex 0.100000001 0.100000001 0.000500000024
   vertex 0.100000001 -0.100000001 0.000500000024
   vertex -0.0599999987 0.100000001 0.000500000024
  endloop
 endfacet
 facet normal 0 0 1
  outer loop
   vertex -0.0599999987 -0.100000001 0.100000001
   vertex 0.100000001 -0.100000001 0.100000001
   vertex -0.0599999987 0.100000001 0.100000001
  endloop
 endfacet
 facet normal -0 0 1
  outer loop
   vertex 0.100000001 0.100000001 0.100000001
   vertex -0.0599999987 0.100000001 0.100000001
   vertex 0.100000001 -0.100000001 0.100000001
  endloop
 endfacet
endsolid
